<!-- Generated by IcoMoon.io -->
<svg version="1.1" xmlns="http://www.w3.org/2000/svg" width="31" height="32" viewBox="0 0 31 32">
<title>icon6</title>
<path d="M8.034 3.813l-6.672 3.745v6.74c0 3.745-0.272 6.945-0.681 7.149-0.34 0.204-0.681 1.294-0.681 2.383 0 1.566 0.408 2.111 1.566 2.383 0.885 0.272 1.838 0.34 2.247 0.204 0.34-0.068 2.928 1.089 5.787 2.723 2.86 1.566 5.583 2.86 6.128 2.86 0.477 0 3.881-1.702 7.557-3.813l6.672-3.745v-6.74c0-3.745 0.272-6.945 0.681-7.149 1.294-0.817 0.749-4.289-0.681-4.766-0.749-0.204-1.634-0.272-1.974-0.068s-2.996-0.953-5.923-2.655c-2.996-1.702-5.855-3.064-6.4-3.064s-4.017 1.702-7.626 3.813zM21.447 5.515c2.111 1.157 4.085 2.655 4.426 3.336 0.477 0.885-0.409 2.996-3.881 8.919-2.451 4.289-4.562 7.898-4.698 8.034s-0.272-4.834-0.272-11.030c0-6.264 0.136-11.37 0.34-11.37s2.043 0.953 4.085 2.111zM14.026 28.392c-0.477 0.545-7.898-4.017-8.579-5.174-0.477-0.953 0.477-3.064 3.949-9.123l4.562-7.966 0.204 11.030c0.068 5.992 0.068 11.098-0.136 11.234z"></path>
</svg>
