<!-- Generated by IcoMoon.io -->
<svg version="1.1" xmlns="http://www.w3.org/2000/svg" width="33" height="32" viewBox="0 0 33 32">
<title>icon4</title>
<path d="M14.436 0.853c-0.284 0.498-0.569 2.347-0.64 4.124 0 1.778-0.427 4.053-0.853 5.12-0.711 1.778-1.138 1.991-4.409 1.991-1.92 0-3.556-0.284-3.556-0.64 0-1.138-2.844-1.636-3.911-0.782-1.564 1.28-1.28 4.053 0.427 4.978 0.782 0.498 1.636 0.64 1.849 0.427s1.778 0.64 3.484 1.778l2.987 2.204-0.996 2.916c-0.569 1.564-1.636 3.342-2.489 3.911-0.924 0.64-1.351 1.636-1.209 2.844 0.142 1.564 0.64 1.991 2.56 2.133 1.778 0.213 2.418-0.071 2.844-1.209 0.284-0.782 1.778-2.347 3.342-3.556l2.773-2.062 2.987 2.133c1.636 1.209 3.129 2.773 3.342 3.484 0.284 0.924 0.996 1.351 2.56 1.351 1.778 0 2.276-0.356 2.631-1.849 0.356-1.422 0.142-2.204-0.996-3.058-0.853-0.64-1.991-2.489-2.56-4.053l-0.996-2.987 2.987-2.204c1.707-1.138 3.271-1.991 3.484-1.778s1.067 0.071 1.849-0.427c1.707-0.924 1.991-3.698 0.427-4.978-1.067-0.853-3.911-0.356-3.911 0.782 0 0.356-1.707 0.64-3.84 0.64h-3.769l-0.924-3.2c-0.498-1.707-0.64-3.982-0.427-5.049 0.284-1.067 0.142-2.276-0.356-2.844-0.996-1.209-3.911-1.28-4.693-0.142z"></path>
</svg>
