<!-- Generated by IcoMoon.io -->
<svg version="1.1" xmlns="http://www.w3.org/2000/svg" width="32" height="32" viewBox="0 0 32 32">
<title>ion-videocamera</title>
<path d="M20.938 11.563v4.125l7.063-2.188v11.063l-7.063-2.188v4.063c0 0.313-0.25 0.563-0.563 0.563h-19.813c-0.313 0-0.563-0.25-0.563-0.563v-14.875c0-0.313 0.25-0.563 0.563-0.563h13v-2.375c0-0.25-0.375-0.625-0.625-0.625h-11v-3h11.125c2.25 0 4.063 1.813 4.063 4v2h3.25c0.313 0 0.563 0.25 0.563 0.563zM14.125 21.313c1.25 0 2.25-1 2.25-2.25s-1-2.188-2.25-2.188-2.25 0.938-2.25 2.188c0 0.625 0.25 1.188 0.688 1.625h-4.25c0.438-0.438 0.688-1 0.688-1.625 0-1.25-1-2.25-2.25-2.25s-2.25 1-2.25 2.25 1 2.25 2.25 2.25h7.375z"></path>
</svg>
