<!-- Generated by IcoMoon.io -->
<svg version="1.1" xmlns="http://www.w3.org/2000/svg" width="32" height="32" viewBox="0 0 32 32">
<title>ion-playstation</title>
<path d="M25 12.688c0 0.688 0 1.375-0.125 2.063-0.125 0.625-0.313 1.25-0.625 1.75-0.25 0.438-0.625 0.813-1.125 1.063-0.438 0.25-1 0.375-1.5 0.375-0.813 0-1.938-0.25-2.625-0.563v-8.313c0-0.563-0.438-1.063-0.938-1.063h-0.063c-0.563 0-1 0.5-1 1.063v18.938l-5-1.625v-22.375s1.75 0.25 4.688 1.125 4.188 1.313 5.25 1.938c0.5 0.313 0.938 0.688 1.313 1.063 0.438 0.438 0.813 0.875 1.063 1.438 0.5 1 0.625 2.063 0.688 3.125zM5.438 22.375c-0.25 0.125-0.5 0.188-0.688 0.375-0.063 0.063-0.188 0.188-0.125 0.313s0.25 0.25 0.375 0.313c0.375 0.125 0.813 0.188 1.188 0.188 0.438 0 0.938 0 1.375-0.125 0.313-0.063 0.563-0.188 0.875-0.313 1.875-0.625 2.563-0.75 2.563-0.75v2.625c-0.875 0.125-2.25 0.25-3.125 0.25-1.875 0.063-3.75-0.25-5.5-0.813-0.563-0.188-1.188-0.375-1.688-0.75-0.25-0.188-0.5-0.5-0.625-0.813-0.125-0.25-0.063-0.563 0.063-0.813s0.313-0.5 0.563-0.688c0.563-0.375 1.125-0.625 1.75-0.875 0.5-0.25 1.063-0.438 1.625-0.625 2.188-0.75 6.938-2.313 6.938-2.313v2.938s-3.875 1.25-5.563 1.875zM32 21.625c0 0.313-0.125 0.563-0.313 0.813-0.375 0.438-0.875 0.688-1.375 0.938s-1.063 0.5-1.625 0.688c-3.375 1.188-10.688 3.688-10.688 3.688v-3s5.75-1.875 8.313-2.75c0.375-0.125 0.688-0.25 1-0.5 0.125-0.125 0.25-0.188 0.188-0.375-0.063-0.125-0.25-0.25-0.375-0.313-0.375-0.125-0.813-0.188-1.188-0.188-0.625 0-1.25 0.125-1.875 0.313-1.813 0.625-6.063 2-6.063 2v-3.063s2.813-0.875 4.188-1c0.5-0.063 1.438-0.063 1.938-0.063 1.625 0 3.375 0.188 4.938 0.688 0.313 0.125 0.5 0.188 0.875 0.313 0.563 0.188 1.125 0.5 1.563 0.875 0.25 0.25 0.5 0.563 0.5 0.938z"></path>
</svg>
