<!-- Generated by IcoMoon.io -->
<svg version="1.1" xmlns="http://www.w3.org/2000/svg" width="32" height="32" viewBox="0 0 32 32">
<title>ion-log-out</title>
<path d="M20.938 20.25l3.25-3.25h-14.188v-2h14.188l-3.25-3.25 1.375-1.438 5.688 5.688-5.688 5.688zM22.438 24.5c0.188-0.188 0.375-0.313 0.5-0.5h2.563c-2.5 3.625-6.75 6-11.5 6-7.75 0-14-6.25-14-14s6.25-14 14-14c4.75 0 9 2.375 11.5 6h-2.563c-0.125-0.188-0.313-0.313-0.5-0.5-2.25-2.25-5.25-3.5-8.438-3.5s-6.25 1.25-8.5 3.5-3.5 5.313-3.5 8.5 1.25 6.25 3.5 8.5 5.313 3.5 8.5 3.5 6.188-1.25 8.438-3.5z"></path>
</svg>
