<!-- Generated by IcoMoon.io -->
<svg version="1.1" xmlns="http://www.w3.org/2000/svg" width="20" height="32" viewBox="0 0 20 32">
<title>ion-social-foursquare</title>
<path d="M17.563 2c2.188 0 2.813 1.25 2.313 3.563-0.625 3.063-2.5 12.625-2.688 13.313-0.188 0.813-0.5 2.125-2.438 2.125h-4.5c-0.188 0-0.188 0-0.375 0.188-0.125 0.125-7.188 8.313-7.188 8.313-0.563 0.625-1.438 0.5-1.75 0.375s-0.938-0.5-0.938-1.625v-23.75s0.625-2.5 2.688-2.5h14.875zM17.188 18.875c0.188-0.688 2.063-10.25 2.688-13.313zM16.688 6.063c0.125-0.563-0.313-1-0.75-1h-11.938c-0.563 0-0.938 0.5-0.938 0.938v18.5c0 0.063 0.063 0.063 0.125 0 0 0 4.375-5.25 4.875-5.875s0.688-0.688 1.438-0.688h4c0.563 0 0.875-0.5 0.938-0.75s0.5-2.688 0.625-3.188-0.375-1-0.813-1h-5.125c-0.625 0-1.125-0.5-1.125-1.125v-0.813c0-0.625 0.5-1.063 1.125-1.063h6s0.875-0.375 0.938-0.75z"></path>
</svg>
