<!-- Generated by IcoMoon.io -->
<svg version="1.1" xmlns="http://www.w3.org/2000/svg" width="32" height="32" viewBox="0 0 32 32">
<title>ion-social-designernews-outline</title>
<path d="M16.188 9.125v3.313l-4.063-6.438zM18.563 6l9.438 7.438v12.563h-15.5l-12.5-9.75h3.938c2.875 0 4.813-2.063 4.813-5.125 0-1.25-0.313-2.313-0.938-3.188l-0.188-0.188 2.313 1.813v6.688h2.563l-0.125-6.125 3.938 6.125h2.25v-10.25zM27 25v-11.125l-7.438-5.75v-0.063 9.188h-3.813l-0.25-0.5-2.063-3.125 0.063 2.625v1h-4.563v-2.813c-0.188 0.375-0.438 0.75-0.75 1.063-0.5 0.563-1.125 1-1.875 1.313s-1.5 0.438-2.375 0.438h-1l9.938 7.75h14.125zM3.688 9.375h-0.25v3.563h0.25c0.5 0 0.813-0.125 1.063-0.375 0.313-0.375 0.375-0.938 0.375-1.375 0-1.625-0.75-1.813-1.438-1.813zM3.688 8.375v0c1.563 0 2.438 1 2.438 2.813 0 1.75-0.875 2.75-2.5 2.75h-1.188v-5.563h1.25z"></path>
</svg>
