<!-- Generated by IcoMoon.io -->
<svg version="1.1" xmlns="http://www.w3.org/2000/svg" width="24" height="32" viewBox="0 0 24 32">
<title>ion-ribbon-b</title>
<path d="M12 4.5c3.063 0 5.5 2.438 5.5 5.5s-2.438 5.5-5.5 5.5-5.5-2.438-5.5-5.5 2.438-5.5 5.5-5.5zM12 2c4.438 0 8 3.563 8 8s-3.563 8-8 8-8-3.563-8-8 3.563-8 8-8zM12 16c3.313 0 6-2.688 6-6s-2.688-6-6-6-6 2.688-6 6 2.688 6 6 6zM5.188 15.875c1.625 1.875 4.063 3.125 6.813 3.125 0.75 0 1.438-0.063 2.125-0.25l-2.125 4.625-3 6.625-3-5h-6zM18.813 15.875l5.188 9.125h-6l-3 5-2.5-5.5 2.813-6.125c1.375-0.563 2.563-1.438 3.5-2.5z"></path>
</svg>
