<!-- Generated by IcoMoon.io -->
<svg version="1.1" xmlns="http://www.w3.org/2000/svg" width="32" height="32" viewBox="0 0 32 32">
<title>ion-sad-outline</title>
<path d="M22.938 17.75c0.188 0.563-0.125 1.063-0.688 1.188-0.188 0.063-0.438 0-0.625-0.063-0.313-0.125-0.563-0.313-0.688-0.625s-0.25-0.75-0.813-0.938-0.875 0-1.188 0.188c-0.25 0.188-0.625 0.188-0.938 0.063-0.188-0.063-0.438-0.188-0.563-0.375-0.375-0.5-0.188-1.063 0.313-1.375 0.938-0.563 1.813-0.813 3.063-0.375s1.813 1.313 2.125 2.313zM10.313 15.813c0.5 0.313 0.625 0.875 0.25 1.375-0.125 0.188-0.375 0.313-0.563 0.375-0.313 0.125-0.688 0.125-0.938-0.063-0.313-0.188-0.625-0.375-1.188-0.188s-0.688 0.625-0.813 0.938-0.375 0.5-0.688 0.625c-0.188 0.063-0.438 0.125-0.625 0.063-0.563-0.125-0.875-0.625-0.688-1.188 0.313-1 0.875-1.875 2.125-2.313s2.188-0.188 3.125 0.375zM14 2c7.75 0 14 6.25 14 14s-6.25 14-14 14-14-6.25-14-14 6.25-14 14-14zM22.5 24.5c2.25-2.25 3.5-5.313 3.5-8.5s-1.25-6.25-3.5-8.5-5.313-3.5-8.5-3.5-6.25 1.25-8.5 3.5-3.5 5.313-3.5 8.5 1.25 6.25 3.5 8.5 5.313 3.5 8.5 3.5 6.25-1.25 8.5-3.5zM19.813 22.438c0.313 0.438 0.188 1.063-0.25 1.375-0.188 0.125-0.375 0.188-0.563 0.188-0.313 0-0.625-0.188-0.813-0.438 0 0-1.188-1.563-4.188-1.563s-4.188 1.563-4.188 1.563c-0.188 0.25-0.5 0.438-0.813 0.438-0.188 0-0.375-0.063-0.563-0.188-0.438-0.313-0.563-0.938-0.25-1.375 0.063-0.125 1.75-2.438 5.813-2.438s5.75 2.313 5.813 2.438z"></path>
</svg>
