<!-- Generated by IcoMoon.io -->
<svg version="1.1" xmlns="http://www.w3.org/2000/svg" width="26" height="32" viewBox="0 0 26 32">
<title>ion-camera</title>
<path d="M23.875 9.188c1.125 0 2.125 0.875 2.125 2.063v12.625c0 1.188-1 2.125-2.125 2.125h-21.75c-1.188 0-2.125-0.938-2.125-2.125v-12.625c0-1.188 0.938-2.063 2.125-2.063h4.313l2.438-2.5c0.375-0.438 0.938-0.688 1.563-0.688h5.25c0.563 0 1.063 0.25 1.438 0.625v0 0 0l2.563 2.563h4.188zM13 22.875c3.188 0 5.75-2.625 5.75-5.813s-2.563-5.813-5.75-5.813-5.75 2.625-5.75 5.813 2.563 5.813 5.75 5.813zM23.5 12.5c0.5 0 0.875-0.375 0.875-0.875s-0.375-0.875-0.875-0.875-0.875 0.375-0.875 0.875 0.375 0.875 0.875 0.875zM13 12.688c2.375 0 4.375 1.938 4.375 4.375s-2 4.375-4.375 4.375c-2.438 0-4.375-1.938-4.375-4.375s1.938-4.375 4.375-4.375z"></path>
</svg>
