<!-- Generated by IcoMoon.io -->
<svg version="1.1" xmlns="http://www.w3.org/2000/svg" width="32" height="32" viewBox="0 0 32 32">
<title>ion-ios-pie-outline</title>
<path d="M16 5.063v0 13.688l-0.75 0.25-11.25 2.813c0.375 0.813 0.813 1.563 1.313 2.25 0.75 1 1.563 1.875 2.563 2.625 2.063 1.5 4.563 2.313 7.125 2.313 1.625 0 3.188-0.313 4.688-0.938 1.438-0.625 2.688-1.438 3.813-2.563s1.938-2.375 2.563-3.813c0.625-1.5 0.938-3.063 0.938-4.688 0-3.188-1.25-6.25-3.5-8.5-2-2-4.688-3.188-7.5-3.438zM15 4v0c7.188 0 13 5.813 13 13s-5.813 13-13 13c-5.75 0-10.688-3.75-12.375-8.938l12.375-3.063v-14zM13 3c-1.938 0.063-3.75 0.438-5.313 1.125-1.5 0.688-2.75 1.625-3.813 2.875-1.813 2.125-2.875 5-2.875 7.938v0 0c0 0.813 0.188 2.875 0.75 4.375l11.25-2.875v-13.438zM14 2v0 15.25l-12.813 3.25c-1.188-2-1.188-5.563-1.188-5.563 0-5.688 3.625-12.938 13.625-12.938h0.375z"></path>
</svg>
