<!-- Generated by IcoMoon.io -->
<svg version="1.1" xmlns="http://www.w3.org/2000/svg" width="20" height="32" viewBox="0 0 20 32">
<title>ion-social-euro-outline</title>
<path d="M13.375 4c-3.313 0-5.688 0.563-7.188 1.688-1.375 1-2.063 2.5-2.063 4.625v1.75h-3.125v1h3.125v5h-3.125v1h3.125v2.625c0 2.125 0.688 3.625 2.063 4.625 1.5 1.125 3.875 1.688 7.188 1.688 1.938 0 3.688-0.125 5.5-0.5l-0.313-2.188c-1.875 0.25-3.438 0.438-5 0.438-2.25 0-3.688-0.375-4.625-1.188-1.188-1-1.313-2.5-1.313-3.75v-1.75h7.438l0.188-1h-7.625v-5h8.375l0.125-1h-8.5v-1.188c0-1 0.125-2.438 1.313-3.438 1-0.813 2.438-1.188 4.625-1.188 1.5 0 3.188 0.188 5 0.438l0.313-2.188c-1.813-0.375-3.563-0.5-5.5-0.5zM13.375 3v0c2.188 0 4.25 0.188 6.625 0.75l-0.563 4.063c-2.313-0.375-4.25-0.563-5.875-0.563-4 0-4.938 1.375-4.938 3.625v0.188h8.688l-0.5 3h-8.188v3h7.75l-0.438 3h-7.313v0.75c0 2.75 0.938 3.938 4.938 3.938 1.625 0 3.563-0.188 5.875-0.563l0.563 4.063c-2.375 0.563-4.438 0.75-6.625 0.75-7.188 0-10.25-2.563-10.25-7.313v-1.625h-3.125v-3h3.125v-3h-3.125v-3h3.125v-0.75c0-4.75 3.063-7.313 10.25-7.313z"></path>
</svg>
