<!-- Generated by IcoMoon.io -->
<svg version="1.1" xmlns="http://www.w3.org/2000/svg" width="16" height="32" viewBox="0 0 16 32">
<title>ion-bluetooth</title>
<path d="M0.75 9c1-1 1.125-0.813 1.188-0.75l4.25 4.063c0.125 0.125 0.625 0.625 0.625 0.188v-9.875c0-0.375 0.375-0.625 0.75-0.625 0.25 0 0.438 0.125 0.563 0.25v0s7.313 7.063 7.625 7.313 0.313 0.625 0.063 0.875l-5.25 5.063s-0.25 0.25-0.25 0.5 0.25 0.5 0.25 0.5l5.25 5.063c0.25 0.25 0.25 0.625-0.063 0.875s-7.625 7.313-7.625 7.313v0c-0.125 0.125-0.313 0.25-0.563 0.25-0.375 0-0.75-0.25-0.75-0.625v-9.875s-0.5 0.063-0.625 0.188v0 0.063l-4.25 4c-0.063 0.063-0.188 0.25-1.188-0.75s-0.75-1.063-0.688-1.125 5.625-5.375 5.625-5.375 0.25-0.188 0.25-0.5v0c0-0.313-0.25-0.5-0.25-0.5s-5.563-5.313-5.625-5.375-0.313-0.125 0.688-1.125zM9.5 7.5v4.938c0 0.5 0.5 0.063 0.625-0.063l1.875-1.875s0.188-0.313 0.188-0.438-0.063-0.313-0.188-0.438l-1.875-1.875c-0.125-0.125-0.625-0.688-0.625-0.25zM9.5 19.563v4.938s0.5-0.125 0.625-0.25l1.875-1.875c0.125-0.125 0.188-0.313 0.188-0.438s-0.063-0.313-0.188-0.438l-1.875-1.875c-0.125-0.125-0.625-0.563-0.625-0.063z"></path>
</svg>
