<!-- Generated by IcoMoon.io -->
<svg version="1.1" xmlns="http://www.w3.org/2000/svg" width="24" height="32" viewBox="0 0 24 32">
<title>ion-ios-keypad-outline</title>
<path d="M20.688 21.313c1.875 0 3.313 1.5 3.313 3.375s-1.438 3.313-3.313 3.313-3.375-1.438-3.375-3.313 1.5-3.375 3.375-3.375zM20.688 27c1.313 0 2.313-1 2.313-2.313s-1-2.375-2.313-2.375-2.375 1.063-2.375 2.375 1.063 2.313 2.375 2.313zM12 21.313c1.875 0 3.313 1.5 3.313 3.375s-1.438 3.313-3.313 3.313-3.313-1.438-3.313-3.313 1.438-3.375 3.313-3.375zM12 27c1.313 0 2.313-1 2.313-2.313s-1-2.375-2.313-2.375-2.313 1.063-2.313 2.375 1 2.313 2.313 2.313zM3.313 21.313c1.875 0 3.375 1.5 3.375 3.375s-1.5 3.313-3.375 3.313-3.313-1.438-3.313-3.313 1.438-3.375 3.313-3.375zM3.313 27c1.313 0 2.375-1 2.375-2.313s-1.063-2.375-2.375-2.375-2.313 1.063-2.313 2.375 1 2.313 2.313 2.313zM20.688 12.688c1.875 0 3.313 1.438 3.313 3.313s-1.438 3.313-3.313 3.313-3.375-1.438-3.375-3.313 1.5-3.313 3.375-3.313zM20.688 18.313c1.313 0 2.313-1 2.313-2.313s-1-2.313-2.313-2.313-2.375 1-2.375 2.313 1.063 2.313 2.375 2.313zM12 12.688c1.875 0 3.313 1.438 3.313 3.313s-1.438 3.313-3.313 3.313-3.313-1.438-3.313-3.313 1.438-3.313 3.313-3.313zM12 18.313c1.313 0 2.313-1 2.313-2.313s-1-2.313-2.313-2.313-2.313 1-2.313 2.313 1 2.313 2.313 2.313zM3.313 12.688c1.875 0 3.375 1.438 3.375 3.313s-1.5 3.313-3.375 3.313-3.313-1.438-3.313-3.313 1.438-3.313 3.313-3.313zM3.313 18.313c1.313 0 2.375-1 2.375-2.313s-1.063-2.313-2.375-2.313-2.313 1-2.313 2.313 1 2.313 2.313 2.313zM20.688 10.688c-1.875 0-3.375-1.5-3.375-3.375s1.5-3.313 3.375-3.313 3.313 1.438 3.313 3.313-1.438 3.375-3.313 3.375zM20.688 5c-1.313 0-2.375 1-2.375 2.313s1.063 2.375 2.375 2.375 2.313-1.063 2.313-2.375-1-2.313-2.313-2.313zM12 4c1.875 0 3.313 1.438 3.313 3.313s-1.438 3.375-3.313 3.375-3.313-1.5-3.313-3.375 1.438-3.313 3.313-3.313zM12 9.688c1.313 0 2.313-1.063 2.313-2.375s-1-2.313-2.313-2.313-2.313 1-2.313 2.313 1 2.375 2.313 2.375zM3.313 4c1.875 0 3.375 1.438 3.375 3.313s-1.5 3.375-3.375 3.375-3.313-1.5-3.313-3.375 1.438-3.313 3.313-3.313zM3.313 9.688c1.313 0 2.375-1.063 2.375-2.375s-1.063-2.313-2.375-2.313-2.313 1-2.313 2.313 1 2.375 2.313 2.375z"></path>
</svg>
