<!-- Generated by IcoMoon.io -->
<svg version="1.1" xmlns="http://www.w3.org/2000/svg" width="24" height="32" viewBox="0 0 24 32">
<title>ion-android-map</title>
<path d="M23.313 4c0.375 0 0.688 0.313 0.688 0.688v20.125c0 0.313-0.188 0.563-0.438 0.625l-7.563 2.563-8-2.813s-6.563 2.563-6.75 2.625-0.438 0.188-0.563 0.188c-0.375 0-0.688-0.313-0.688-0.688v-20.125c0-0.313 0.188-0.563 0.438-0.625l7.563-2.563 8 2.813s6.438-2.5 6.75-2.625 0.438-0.188 0.563-0.188zM16 25.313v-15.875l-8-2.75v15.875z"></path>
</svg>
