<!-- Generated by IcoMoon.io -->
<svg version="1.1" xmlns="http://www.w3.org/2000/svg" width="18" height="32" viewBox="0 0 18 32">
<title>ion-ios-rainy-outline</title>
<path d="M13.75 11.188c2.375 0 4.25 2.063 4.25 4.438 0 1.813-1.188 3.5-2.813 4.125l-3.438 5c-0.125 0.125-0.313 0.25-0.5 0.25-0.313 0-0.5-0.188-0.5-0.5 0-0.125 0.063-0.25 0.125-0.375l2.875-4.125h-2.188l-1.938 2.75c-0.125 0.125-0.25 0.25-0.438 0.25-0.313 0-0.563-0.188-0.563-0.5 0-0.125 0.063-0.188 0.125-0.313l1.563-2.188h-2.313l-3.313 4.75c-0.125 0.125-0.25 0.25-0.438 0.25-0.313 0-0.563-0.188-0.563-0.5 0-0.125 0.125-0.25 0.188-0.375l2.875-4.125h-2.25l-2 2.75c-0.125 0.125-0.25 0.25-0.438 0.25-0.313 0-0.5-0.188-0.5-0.5 0-0.125 0.063-0.25 0.125-0.375l1.563-2.125c-1.813-0.125-3.25-1.688-3.25-3.5 0-1.75 1.375-3.625 3.125-3.75 0-0.188-0.063-0.313-0.063-0.5 0-2.875 1.938-5.25 5.125-5.25 2.813 0 4.563 1.938 5.063 4.25 0.188 0 0.313-0.063 0.5-0.063zM13.75 18.875c1.75 0 3.25-1.5 3.25-3.25s-1.5-3.375-3.25-3.375h-0.375l-0.938 0.125-0.188-0.938c-0.188-0.875-0.688-1.938-1.438-2.5-0.75-0.625-1.625-0.875-2.563-0.875-2.25 0-4.125 1.938-4.125 4.188v1.375c-0.375 0-0.75 0.125-0.875 0.125-1.25 0.188-2.188 1.438-2.188 2.688 0 0.625 0.25 1.25 0.688 1.688s1 0.75 1.625 0.75h10.375z"></path>
</svg>
