<!-- Generated by IcoMoon.io -->
<svg version="1.1" xmlns="http://www.w3.org/2000/svg" width="32" height="32" viewBox="0 0 32 32">
<title>ion-ios-cloud-upload-outline</title>
<path d="M10.063 16.25l-0.688-0.688 4.625-4.688 4.688 4.688-0.75 0.688-3.438-3.375v15.125h-1v-15.125zM22.938 11.5c2.813 0 5.063 2.438 5.063 5.313s-2.313 5.188-5.125 5.188v0h-6.313v-1h6.313c2.313 0 4.125-1.875 4.125-4.188s-1.813-4.375-4.125-4.375l-0.938-0.063v-1.25c0-3.5-2.875-6.188-6.313-6.188-2.375 0-4.563 1.438-5.625 3.625l-0.375 0.813-0.875-0.375c-0.375-0.188-0.813-0.313-1.25-0.313-1.375 0-2.5 1.063-2.75 2.438l-0.063 0.563-0.563 0.188c-1.875 0.625-3.125 2.438-3.125 4.438 0 2.563 2.063 4.688 4.625 4.688h5.688v1h-5.688c-3.125 0-5.625-2.5-5.625-5.625 0-2.5 1.625-4.625 3.813-5.375 0.313-1.75 1.813-3.25 3.688-3.25 0.625 0 1.125 0.125 1.625 0.375 1.188-2.438 3.688-4.125 6.563-4.125 4 0 7.313 3.25 7.313 7.25 0 0.063-0.063 0.188-0.063 0.25z"></path>
</svg>
