<!-- Generated by IcoMoon.io -->
<svg version="1.1" xmlns="http://www.w3.org/2000/svg" width="24" height="32" viewBox="0 0 24 32">
<title>ion-social-linkedin</title>
<path d="M22.063 4c1.125 0 1.938 0.813 1.938 1.875v20.063c0 1.063-0.813 2.063-1.938 2.063h-20c-1.125 0-2.063-1-2.063-2.063v-20.063c0-1.063 0.938-1.875 2.063-1.875h20zM7.438 24v-10.688h-3.438v10.688h3.438zM5.813 11.688c1.125 0 1.875-0.813 1.875-1.813 0-1.063-0.688-1.875-1.813-1.875s-1.875 0.813-1.875 1.875c0 1 0.688 1.813 1.813 1.813v0zM20 24v-6.25c0-3.188-1.688-4.688-3.938-4.688-1.813 0-2.625 1.063-3.125 1.75v-1.5h-3.438v10.688h3.438v-6.063c0-0.313 0-0.625 0.125-0.875 0.25-0.625 0.813-1.25 1.75-1.25 1.25 0 1.75 0.938 1.75 2.313v5.875h3.438z"></path>
</svg>
