<!-- Generated by IcoMoon.io -->
<svg version="1.1" xmlns="http://www.w3.org/2000/svg" width="16" height="32" viewBox="0 0 16 32">
<title>ion-wineglass</title>
<path d="M10.438 18.438c-0.688 0.25-1.5 0.5-1.5 2v5.875c0 0.688 0.25 1.188 0.75 1.563 0.188 0.125 0.438 0.25 0.938 0.375 2 0.563 3 1 3.125 1.125 0.125 0.063 0.25 0.188 0.25 0.438 0 0-0.875 0.188-6 0.188s-6-0.188-6-0.188c0-0.25 0.125-0.375 0.25-0.438 0.125-0.125 1.125-0.563 3.125-1.125 0.5-0.125 0.688-0.25 0.875-0.375 0.5-0.375 0.688-0.875 0.688-1.563v-5.875c0-1.5-0.688-1.75-1.375-2s-1.125-0.375-1.625-0.688c-0.75-0.438-1.438-1-2-1.625-1.25-1.438-1.938-3.25-1.938-5.438 0-3.125 0.25-6.25 0.5-7.125s0.875-1.563 1.938-1.563h11.125c1.063 0 1.688 0.688 1.938 1.563s0.5 4.063 0.5 7.188c0 2.188-0.688 3.938-1.938 5.375-0.563 0.625-1.25 1.188-2 1.625-0.5 0.313-0.938 0.438-1.625 0.688zM8 16.875c1.625 0 3.125-0.688 4.188-1.75l0.375-0.375c1-1.125 1.375-2.188 1.438-4.063s-0.125-5.188-0.5-6.688h-11.063c-0.438 2.188-0.5 5-0.438 6.75s0.438 2.875 1.438 4c0.125 0.188 0.25 0.375 0.438 0.5 1.063 1 2.563 1.625 4.125 1.625zM13 10.688c0 0.625-0.063 1.25-0.25 1.813s-0.5 1.125-0.938 1.563l-0.313 0.313c-0.875 0.875-2.125 1.438-3.5 1.438-1.313 0-2.563-0.5-3.438-1.375l-0.375-0.375c-0.438-0.438-0.75-1-0.938-1.563s-0.188-0.938-0.25-1.813c-0.063-0.563 0-2.125 0.063-3.313 0.063-0.625 0.125-1.188 0.188-1.375h9.563c0.063 0.375 0.125 0.875 0.125 1.375 0.063 1.313 0.063 2.813 0.063 3.313zM12 11.188v0-1.625c0-0.25-0.25-0.5-0.5-0.5s-0.5 0.25-0.5 0.5v1.625c0 0.188 0.063 0.375 0.188 0.438 0.063 0.063 0.188 0.063 0.313 0.063 0.25 0 0.5-0.188 0.5-0.5zM11.938 8.25c0.063-0.125 0.063-0.25 0.063-0.375s-0.125-0.25-0.25-0.313-0.25-0.063-0.375-0.063-0.25 0.063-0.313 0.188-0.063 0.25-0.063 0.375 0.125 0.25 0.25 0.313 0.25 0.063 0.375 0.063 0.25-0.063 0.313-0.188z"></path>
</svg>
