<!-- Generated by IcoMoon.io -->
<svg version="1.1" xmlns="http://www.w3.org/2000/svg" width="32" height="32" viewBox="0 0 32 32">
<title>ion-wrench</title>
<path d="M26.875 7.188c0.875 0.875 1.188 1.938 1.125 2.75s-0.375 2.438-2 4.063-4.813 2.625-7.063 1.5c-0.313-0.188-0.813-0.313-1.313 0.188-0.625 0.563-12.625 13.438-12.625 13.438-1.063 1.188-3 1.125-4.125 0s-1.188-3.063 0-4.125c0 0 12.938-12.125 13.438-12.625s0.313-1 0.188-1.375c-1.25-2.938 0.125-5.563 1.5-7 1.375-1.5 3.188-1.938 4.063-2 0.813-0.063 1.938 0.313 2.75 1.125l-3.563 3.5 0.625 3.5 3.438 0.625zM3.688 27.688c0.375-0.375 0.375-1.063 0-1.438s-1-0.375-1.375 0-0.375 1.063 0 1.438 1 0.375 1.375 0z"></path>
</svg>
