<!-- Generated by IcoMoon.io -->
<svg version="1.1" xmlns="http://www.w3.org/2000/svg" width="24" height="32" viewBox="0 0 24 32">
<title>ion-ios-chatbubble</title>
<path d="M12 6v0c6.625 0 12 4.313 12 9.625s-5.313 9.375-11.938 9.375c-1.688 0-3.25-0.188-4.688-0.688h-0.125c-0.188-0.063-0.375-0.125-0.625-0.125s-0.563 0.063-0.75 0.125v0c-0.063 0-0.563 0.25-0.625 0.25l-3.125 1.375-0.125 0.063h-0.375c-0.375-0.063-0.5-0.375-0.438-0.625v0s1.063-3.563 1.063-3.625c0-0.25-0.063-0.5-0.188-0.688v0 0 0l-0.188-0.188c-1.188-1.5-1.875-3.313-1.875-5.25 0-5.313 5.375-9.625 12-9.625z"></path>
</svg>
