<!-- Generated by IcoMoon.io -->
<svg version="1.1" xmlns="http://www.w3.org/2000/svg" width="32" height="32" viewBox="0 0 32 32">
<title>ion-pinpoint</title>
<path d="M14 2c7.75 0 14 6.25 14 14s-6.25 14-14 14-14-6.25-14-14 6.25-14 14-14zM22.5 24.5c2-2 3.188-4.688 3.438-7.5l-3.938-0.5v-1l3.938-0.5c-0.25-2.813-1.438-5.5-3.438-7.5s-4.688-3.188-7.5-3.438l-0.5 3.938h-1l-0.5-3.938c-2.813 0.25-5.5 1.438-7.5 3.438s-3.188 4.688-3.438 7.5l3.938 0.5v1l-3.938 0.5c0.25 2.813 1.438 5.5 3.438 7.5s4.688 3.188 7.5 3.438l0.5-3.938h1l0.5 3.938c2.813-0.25 5.5-1.438 7.5-3.438z"></path>
</svg>
