<!-- Generated by IcoMoon.io -->
<svg version="1.1" xmlns="http://www.w3.org/2000/svg" width="32" height="32" viewBox="0 0 32 32">
<title>ion-social-googleplus-outline</title>
<path d="M12 5.125c0.75 0.625 2.25 1.875 2.25 4.25 0 2.313-1.313 3.438-2.688 4.5-0.438 0.438-0.938 0.813-0.938 1.5s0.5 1.125 0.875 1.375l1.125 0.875c1.438 1.188 2.688 2.25 2.688 4.438 0 2.938-2.938 5.938-8.438 5.938-4.625 0-6.875-2.188-6.875-4.5 0-1.125 0.625-2.75 2.5-3.875 2-1.188 4.688-1.313 6.125-1.438-0.438-0.563-1-1.125-1-2.125 0-0.563 0.188-0.875 0.313-1.25-0.375 0-0.688 0.063-1 0.063-3.375 0-5.313-2.5-5.313-4.938 0-1.438 0.625-3 2-4.188 1.813-1.5 4-1.75 5.75-1.75h6.625l-2.063 1.125h-1.938zM9.688 19.125c-0.25 0-0.438-0.063-0.75-0.063s-2 0.063-3.375 0.5c-0.688 0.25-2.75 1-2.75 3.25s2.25 3.875 5.688 3.875c3.063 0 4.688-1.5 4.688-3.438 0-1.625-1.063-2.438-3.5-4.125zM10.625 13.125c0.75-0.75 0.813-1.75 0.813-2.313 0-2.25-1.375-5.75-4.063-5.75-0.813 0-1.75 0.375-2.25 1-0.563 0.688-0.688 1.5-0.688 2.313 0 2.125 1.25 5.625 4 5.625 0.813 0 1.688-0.375 2.188-0.875zM28 8.875v1.125h-4.875v5.063h-1.125v-5.063h-5v-1.125h5v-4.875h1.125v4.875h4.875z"></path>
</svg>
