<!-- Generated by IcoMoon.io -->
<svg version="1.1" xmlns="http://www.w3.org/2000/svg" width="20" height="32" viewBox="0 0 20 32">
<title>ion-ios-rose-outline</title>
<path d="M17.75 9.563c-0.25 0.063-0.563 0.188-0.813 0.25-2.313 0.688-4.438 1.5-6.438 2.438-1.063 0.5-1.5 0.75-2.75 1.5l-0.438 0.25c-1.938 1.125-3.125 2.063-3.938 3.188-0.938 1.313-1.375 2.813-1.375 4.813 0 1 0.188 1.875 0.563 2.75 0.375 0.813 0.875 1.625 1.563 2.25 1.438 1.313 3.438 2 5.875 2s4.438-0.688 5.875-2c0.688-0.625 1.188-1.438 1.563-2.25 0.375-0.875 0.563-1.75 0.563-2.75 0-1.25-0.313-2.5-0.688-3.75-0.688-2.5-1.438-5.188 0.438-8.688zM20 8v0c-4.813 6-1 9.438-1 14s-3.5 8-9 8-9-3.438-9-8 2.188-6.813 5.813-8.875c1.563-0.875 2.063-1.188 3.25-1.75 1.875-0.875 4.063-1.75 6.563-2.5 1.063-0.313 2.188-0.625 3.375-0.875zM2.375 7.688c0.875 1.75 1.125 3.563 1.188 5.188 0.563-0.438 1.25-0.813 1.875-1.25 0.438-0.25 0.875-0.563 1.313-0.813 0.313-0.188 0.625-0.375 1-0.563-0.313-0.25-0.688-0.438-1.063-0.688-1.375-0.813-3-1.438-4.313-1.875zM0 6v0s4.125 0.938 7.188 2.688c0.938 0.5 1.75 1.125 2.313 1.813-0.75 0.375-1.5 0.75-2.25 1.188-0.438 0.25-0.875 0.5-1.25 0.75-1.563 1-2.75 1.938-3.563 2.625 0.313-2.563 0.125-6.125-2.438-9.063zM15.563 5.063c-0.5 0.063-1.25 0.125-2.188 0.438-1.563 0.5-2.938 1.25-4 2.25 0.5 0.375 0.938 0.75 1.313 1.125 1.813-0.75 4.063-1.625 5.938-2.125-0.313-0.625-0.75-1.25-1.063-1.688zM16 4v0s1.625 2 2 3.438c-2.063 0.5-5.25 1.563-7.563 2.625l-0.188-0.188c-0.563-0.688-1.375-1.375-2.438-2 3.25-3.75 8.188-3.875 8.188-3.875zM5.313 3.375c-0.375 0.625-0.625 1.25-0.875 1.75 0.75 0.25 1.375 0.625 2.25 1.063 0.25-0.313 0.563-0.625 0.875-0.875-0.813-0.938-1.688-1.563-2.25-1.938zM5 2v0s2.188 1 4 3.5c-0.75 0.563-1.438 1.25-2.063 1.938-1.625-0.813-2.5-1.313-3.813-1.688 0.313-0.938 0.938-2.375 1.875-3.75z"></path>
</svg>
