<!-- Generated by IcoMoon.io -->
<svg version="1.1" xmlns="http://www.w3.org/2000/svg" width="30" height="32" viewBox="0 0 30 32">
<title>ion-android-cloud-outline</title>
<path d="M24.188 13.563c3.25 0.188 5.813 2.875 5.813 6.188 0 3.438-2.813 6.25-6.25 6.25h-16.25c-4.125 0-7.5-3.375-7.5-7.5 0-3.875 2.938-7.063 6.688-7.438 1.563-3 4.688-5.063 8.313-5.063 4.563 0 8.313 3.25 9.188 7.563zM23.75 23.5c2.063 0 3.75-1.688 3.75-3.75s-1.688-3.75-3.75-3.75h-1.875v-0.625c0-3.813-3.063-6.875-6.875-6.875-3.188 0-5.813 2.125-6.625 5h-0.875c-2.75 0-5 2.25-5 5s2.25 5 5 5h16.25z"></path>
</svg>
