<!-- Generated by IcoMoon.io -->
<svg version="1.1" xmlns="http://www.w3.org/2000/svg" width="24" height="32" viewBox="0 0 24 32">
<title>ion-social-instagram-outline</title>
<path d="M24 7v18.063c0 1.625-1.375 2.938-3 2.938h-18c-1.625 0-3-1.313-3-2.938v-18.063c0-1.625 1.375-3 3-3h18c1.625 0 3 1.375 3 3zM12 11c-2.75 0-5 2.25-5 5s2.25 5 5 5 5-2.25 5-5-2.25-5-5-5zM22 10v-3c0-0.563-0.438-1-1-1h-3c-0.563 0-1 0.438-1 1v3c0 0.563 0.438 1 1 1h3c0.563 0 1-0.438 1-1zM21.063 26c0.563 0 0.938-0.438 0.938-1v-11h-3.25c0.188 0.625 0.25 1.313 0.25 2 0 1.875-0.688 3.625-2 4.938s-3.125 2.063-5 2.063-3.625-0.75-4.938-2.063-2.063-3.063-2.063-4.938c0-0.688 0.125-1.375 0.313-2h-3.313v11c0 0.563 0.5 1 1.063 1h18z"></path>
</svg>
