<!-- Generated by IcoMoon.io -->
<svg version="1.1" xmlns="http://www.w3.org/2000/svg" width="18" height="32" viewBox="0 0 18 32">
<title>ion-ios-trash</title>
<path d="M13 7.063h5v0.938h-1.25l-1.5 18.188c0 1-0.813 1.813-1.813 1.813h-8.813c-1 0-1.813-0.813-1.813-1.813l-1.5-18.188h-1.313v-0.938h5v-1.25c0-1 0.813-1.813 1.813-1.813h4.375c1 0 1.813 0.813 1.813 1.813v1.25zM5.938 5.813v0 1.25h6.125v-1.25c0-0.5-0.375-0.875-0.875-0.875h-4.375c-0.5 0-0.875 0.375-0.875 0.875zM5.688 25.063h0.875l-0.688-15.063h-0.875zM9.438 25.063v-15.063h-0.875v15.063h0.875zM12.313 25.063l0.688-15.063h-0.875l-0.688 15.063h0.875z"></path>
</svg>
