<!-- Generated by IcoMoon.io -->
<svg version="1.1" xmlns="http://www.w3.org/2000/svg" width="32" height="32" viewBox="0 0 32 32">
<title>ion-ios-folder</title>
<path d="M27.5 11c0.25 0 0.5 0.25 0.5 0.5v14.938c0 0.875-0.625 1.563-1.438 1.563h-25c-0.813 0-1.563-0.75-1.563-1.563v-14.938c0-0.25 0.25-0.5 0.5-0.5h27zM26.563 6c0.813 0 1.438 0.625 1.438 1.438v2.625c-0.188-0.063-0.313-0.063-0.5-0.063h-27c-0.188 0-0.313 0-0.5 0.063v-4.625c0-0.813 0.688-1.438 1.563-1.438h7c0.5 0 0.75 0.125 1.063 0.438v0l1.438 1.438c0.125 0.125 0.188 0.125 0.375 0.125h15.125z"></path>
</svg>
