<!-- Generated by IcoMoon.io -->
<svg version="1.1" xmlns="http://www.w3.org/2000/svg" width="24" height="32" viewBox="0 0 24 32">
<title>ion-ios-gear-outline</title>
<path d="M12.063 10c1.625 0 3.125 0.625 4.25 1.75s1.75 2.625 1.75 4.25-0.625 3.125-1.75 4.25-2.625 1.75-4.25 1.75-3.125-0.625-4.25-1.75-1.75-2.625-1.75-4.25 0.625-3.125 1.75-4.25 2.625-1.75 4.25-1.75zM12.063 21c2.75 0 5-2.25 5-5s-2.25-5-5-5-5 2.25-5 5 2.25 5 5 5zM8.625 5.188c-0.625 0.188-1.25 0.438-1.875 0.75 0.125 0.5 0.063 1 0 1.5-0.125 0.813-0.5 1.563-1.125 2.188-0.75 0.75-1.813 1.188-2.875 1.188-0.25 0-0.563 0-0.813-0.063-0.313 0.625-0.563 1.25-0.75 1.875 0.438 0.25 0.75 0.625 1.063 1.063 0.5 0.688 0.75 1.5 0.75 2.313s-0.25 1.625-0.75 2.313c-0.313 0.438-0.625 0.813-1.063 1.063 0.188 0.625 0.438 1.25 0.75 1.875 0.25-0.063 0.563-0.063 0.813-0.063 1.063 0 2.125 0.438 2.875 1.188 0.625 0.625 1 1.375 1.125 2.188 0.063 0.5 0.125 1 0 1.5 0.625 0.313 1.25 0.563 1.875 0.75 0.25-0.438 0.625-0.75 1.063-1.063 0.688-0.5 1.5-0.75 2.313-0.75s1.625 0.25 2.313 0.75c0.438 0.313 0.813 0.625 1.063 1.063 0.625-0.188 1.25-0.438 1.875-0.75-0.125-0.5-0.063-1 0-1.5 0.125-0.813 0.5-1.563 1.125-2.188 0.75-0.75 1.813-1.188 2.875-1.188 0.25 0 0.563 0 0.813 0.063 0.313-0.625 0.563-1.25 0.75-1.875-0.438-0.25-0.75-0.625-1.063-1.063-0.5-0.688-0.75-1.5-0.75-2.313s0.25-1.625 0.75-2.313c0.313-0.438 0.625-0.813 1.063-1.063-0.188-0.625-0.438-1.25-0.75-1.875-0.25 0.063-0.563 0.063-0.813 0.063-1.063 0-2.125-0.438-2.875-1.188-0.625-0.625-1-1.375-1.125-2.188-0.063-0.5-0.125-1 0-1.5-0.625-0.313-1.25-0.563-1.875-0.75-0.25 0.438-0.625 0.75-1.063 1.063-0.688 0.5-1.5 0.75-2.313 0.75s-1.625-0.25-2.313-0.75c-0.438-0.313-0.813-0.625-1.063-1.063zM14.875 4v0c1.25 0.313 2.5 0.813 3.563 1.5-0.5 1.125-0.313 2.5 0.625 3.438 0.625 0.625 1.375 0.875 2.188 0.875 0.438 0 0.875-0.063 1.25-0.25 0.688 1.063 1.188 2.313 1.5 3.563-1.188 0.438-2 1.563-2 2.875s0.875 2.438 2 2.875c-0.313 1.25-0.813 2.5-1.5 3.563-0.375-0.188-0.813-0.25-1.25-0.25-0.813 0-1.563 0.25-2.188 0.875-0.938 0.938-1.125 2.313-0.625 3.438-1.063 0.688-2.313 1.188-3.563 1.5-0.438-1.125-1.563-2-2.875-2s-2.438 0.875-2.875 2c-1.25-0.313-2.5-0.813-3.563-1.5 0.5-1.125 0.313-2.5-0.625-3.438-0.625-0.625-1.375-0.875-2.188-0.875-0.438 0-0.875 0.063-1.25 0.25-0.688-1.063-1.188-2.313-1.5-3.563 1.125-0.438 2-1.563 2-2.875s-0.813-2.438-2-2.875c0.313-1.25 0.813-2.5 1.5-3.563 0.375 0.188 0.813 0.25 1.25 0.25 0.813 0 1.563-0.25 2.188-0.875 0.938-0.938 1.125-2.313 0.625-3.438 1.063-0.688 2.313-1.188 3.563-1.5 0.438 1.188 1.563 2 2.875 2s2.438-0.813 2.875-2z"></path>
</svg>
