<!-- Generated by IcoMoon.io -->
<svg version="1.1" xmlns="http://www.w3.org/2000/svg" width="24" height="32" viewBox="0 0 24 32">
<title>ion-link</title>
<path d="M12 13v0 0 0zM19 10c2.75 0 5 2.25 5 5v2c0 2.75-2.25 5-5 5h-7c-2.063 0-3.75-1.25-4.563-3-0.25-0.625-0.438-1.25-0.438-2v-2h3v2c0 1.125 0.875 2 2 2h7c1.125 0 2-0.875 2-2v-2c0-1.125-0.875-2-2-2v0h-1c-0.375-1.938-2-3-2-3h3zM16.625 13c0.25 0.625 0.375 1.313 0.375 2v2h-3v-2c0-1.125-0.875-2-2-2v0h-7c-1.125 0-2 0.875-2 2v2c0 1.125 0.875 2 2 2h1c0.375 1.938 2 3 2 3h-3c-2.75 0-5-2.25-5-5v-2c0-2.75 2.25-5 5-5h7c2.063 0 3.875 1.25 4.625 3z"></path>
</svg>
