<!-- Generated by IcoMoon.io -->
<svg version="1.1" xmlns="http://www.w3.org/2000/svg" width="32" height="32" viewBox="0 0 32 32">
<title>ion-social-chrome</title>
<path d="M9.813 16c0-2.313 1.875-4.188 4.188-4.188s4.188 1.875 4.188 4.188-1.875 4.188-4.188 4.188-4.188-1.875-4.188-4.188zM27.813 13.625c0.125 0.75 0.188 1.563 0.188 2.375 0 6.625-4.625 12.188-10.875 13.625-0.625 0.125-1.25 0.25-1.875 0.313-0.438 0.063-0.813 0.063-1.25 0.063-0.5 0-1.063 0-1.563-0.063v0 0 0-0.063l6.375-11.063c0.5-0.813 0.813-1.75 0.813-2.813 0-1.688-0.813-3.125-2-4.188h9.75c0.188 0.563 0.313 1.188 0.438 1.813v0c-0.125-0.625-0.25-1.25-0.438-1.813v0c0.188 0.563 0.313 1.188 0.438 1.813v0zM14 21.563c0.625 0 1.25-0.125 1.813-0.313l-4.875 8.438c-2.625-0.563-4.938-1.875-6.75-3.688-2.625-2.563-4.188-6.063-4.188-10 0-1.938 0.375-3.813 1.125-5.5 0.438-1 1-1.938 1.625-2.813v0l6.438 11.125c1 1.688 2.688 2.75 4.813 2.75zM3.688 6.563v0-0.063c1.5-1.625 3.438-2.938 5.625-3.688 1.438-0.5 3.063-0.813 4.688-0.813 4.563 0 8.625 2.25 11.188 5.625h0.063c0.625 0.875 1.125 1.813 1.563 2.75v0c-0.438-0.938-0.938-1.875-1.563-2.75h-0.063c0.625 0.875 1.188 1.813 1.625 2.75h-12.813c-2.75 0-4.938 2-5.438 4.5z"></path>
</svg>
