<!-- Generated by IcoMoon.io -->
<svg version="1.1" xmlns="http://www.w3.org/2000/svg" width="32" height="32" viewBox="0 0 32 32">
<title>ion-volume-high</title>
<path d="M12.438 25.5l-5.938-5.5h-6.5v-8h6.5l5.938-5.5v19zM15.938 22.25l-1.25-1c1.063-1.5 1.688-3.25 1.688-5.25s-0.625-3.75-1.688-5.25l1.25-1c1.25 1.75 2.063 3.938 2.063 6.25s-0.813 4.5-2.063 6.25zM20.125 25.125l-1.313-1c1.688-2.25 2.688-5.063 2.688-8.125s-1-5.875-2.688-8.125l1.313-1c1.875 2.563 3 5.688 3 9.125s-1.125 6.563-3 9.125zM22.813 4.938l1.25-0.938c2.438 3.375 3.938 7.5 3.938 12s-1.5 8.625-3.938 12l-1.25-0.938c2.25-3.063 3.625-6.938 3.625-11.063s-1.375-8-3.625-11.063z"></path>
</svg>
