<!-- Generated by IcoMoon.io -->
<svg version="1.1" xmlns="http://www.w3.org/2000/svg" width="24" height="32" viewBox="0 0 24 32">
<title>ion-ios-eye-outline</title>
<path d="M23.938 16l0.063 0.063-0.375 0.375c-1.313 1.313-2.938 3-4.875 4.313-2.25 1.5-4.5 2.25-6.75 2.25-5.188 0-8.125-3.063-11.563-6.563l-0.438-0.438 0.063-0.063c2.438-2.5 4.188-4 5.875-5.063 2-1.25 3.938-1.875 6.063-1.875 5.188 0 9.125 3.75 11.938 7zM12 10c-3.875 0-6.938 2.25-10.625 6 1.5 1.5 3 3.125 4.75 4.25 1.875 1.25 3.75 1.75 5.875 1.75 4.688 0 8.313-3.5 10.688-5.938-1.625-1.813-3.125-3.125-4.625-4.125-2-1.313-4-1.938-6.063-1.938zM12 21c-2.75 0-5-2.25-5-5s2.25-5 5-5 5 2.25 5 5-2.25 5-5 5zM12 12c-2.188 0-4 1.813-4 4s1.813 4 4 4 4-1.813 4-4-1.813-4-4-4zM14 16h1c0 1.625-1.375 3-3 3s-3-1.313-3-3 1.375-3 3-3v1c-1 0-2 0.813-2 1.938s0.938 2.063 2 2.063 2-0.875 2-2v0z"></path>
</svg>
