<!-- Generated by IcoMoon.io -->
<svg version="1.1" xmlns="http://www.w3.org/2000/svg" width="24" height="32" viewBox="0 0 24 32">
<title>ion-ios-body</title>
<path d="M9 5c0-2 1-3 3-3s3 1 3 3-1 3-3 3-3-1-3-3zM22.5 9c0.438 0 0.75 0.125 1.063 0.438s0.438 0.625 0.438 1.063-0.125 0.75-0.438 1.063-0.625 0.438-1.063 0.438h-6.125c-0.5 0.125-0.938 0.375-1.125 0.875-0.25 0.563-0.188 1.688 0.063 3.25l0.25 1.313v0.063l1.875 10.75c0.063 0.438 0 0.813-0.25 1.125s-0.5 0.563-0.938 0.625-0.813 0-1.125-0.25-0.563-0.563-0.625-1l-1.313-7.5v0.063l-0.125-0.563c-0.063-0.313-0.188-0.688-0.375-1s-0.375-0.5-0.625-0.5h-0.125c-0.5 0-0.875 0.688-1.125 2.063v-0.063l-1.313 7.5c-0.063 0.438-0.313 0.75-0.625 1s-0.688 0.313-1.125 0.25-0.688-0.313-0.938-0.625-0.313-0.688-0.25-1.125l1.875-10.75v-0.063l0.25-1.313c0.25-1.563 0.313-2.688 0.063-3.25-0.188-0.5-0.625-0.75-1.125-0.875h-6.125c-0.438 0-0.75-0.125-1.063-0.438s-0.438-0.625-0.438-1.063 0.125-0.75 0.438-1.063 0.625-0.438 1.063-0.438h21z"></path>
</svg>
