<!-- Generated by IcoMoon.io -->
<svg version="1.1" xmlns="http://www.w3.org/2000/svg" width="16" height="32" viewBox="0 0 16 32">
<title>ion-social-tumblr</title>
<path d="M12.063 24.75c1.313 0 2.625-0.375 3.938-1.25v4.063c-1.125 0.5-2.125 0.938-3 1.125s-1.75 0.313-2.813 0.313c-1.188 0-2.188-0.125-3.125-0.438-0.875-0.313-1.75-0.75-2.375-1.313s-1.063-1.125-1.313-1.75-0.375-1.563-0.375-2.75v-8.75h-3v-3.625c1-0.313 1.875-0.875 2.625-1.5s1.188-1.313 1.625-2.188 0.688-2.313 0.875-3.688h3.875v7h6v4h-6v6.313c0 1.5 0.063 2.5 0.25 2.938 0.125 0.438 0.438 0.75 0.875 1 0.563 0.375 1.188 0.5 1.938 0.5z"></path>
</svg>
