<!-- Generated by IcoMoon.io -->
<svg version="1.1" xmlns="http://www.w3.org/2000/svg" width="26" height="32" viewBox="0 0 26 32">
<title>ion-ios-timer</title>
<path d="M13 3c7.188 0 13 5.813 13 13s-5.813 13-13 13-13-5.813-13-13 5.813-13 13-13zM6.375 9.375c-0.125 0.125 5.375 7.5 5.375 7.5l0.063 0.063c0.313 0.375 0.688 0.625 1.188 0.625 0.875 0 1.563-0.688 1.563-1.563 0-0.438-0.188-0.813-0.5-1.125l-0.188-0.188c0 0-7.313-5.438-7.5-5.313zM13 27.938c6.625 0 12-5.313 12-11.938s-5.375-12-12-12v6h1v-4.875c5.5 0.563 9.875 5.25 9.875 10.875 0 6-4.875 10.875-10.875 10.875s-10.938-4.875-10.938-10.875c0-3 1.188-5.75 3.188-7.75l-0.688-0.75c-2.188 2.188-3.5 5.188-3.5 8.5 0 6.625 5.313 11.938 11.938 11.938z"></path>
</svg>
