<!-- Generated by IcoMoon.io -->
<svg version="1.1" xmlns="http://www.w3.org/2000/svg" width="32" height="32" viewBox="0 0 32 32">
<title>ion-bug</title>
<path d="M21.438 7.938c-0.375 1-1 1.938-1.75 2.688-1.5 1.5-3.563 2.313-5.688 2.313s-4.188-0.813-5.688-2.313c-0.75-0.75-1.375-1.688-1.75-2.688 1.813-2.438 4.5-3.938 7.438-3.938s5.625 1.5 7.438 3.938zM5.938 8.938c1.375 2.813 4.25 4.813 7.563 5v14.063c-2.5-0.125-4.813-1.375-6.5-3.375-0.438 0.375-0.625 0.563-0.813 0.938 0.5 0.563 0.438 1.375-0.063 1.938-0.563 0.625-1.5 0.688-2.125 0.125s-0.688-1.5-0.125-2.125l0.188-0.188s0.125-0.063 0.125-0.063c0.25-0.813 0.813-1.563 1.688-2.25-0.938-1.625-1.625-3.563-1.813-5.625-0.438 0-0.75 0.125-1.063 0.188-0.063 0.813-0.688 1.438-1.5 1.438s-1.5-0.688-1.5-1.5 0.688-1.5 1.5-1.5h0.188c0.25-0.125 0.5-0.313 0.75-0.375 0.438-0.125 0.875-0.25 1.563-0.25 0.063-1.438 0.375-2.813 0.813-4.063-0.375-0.25-0.688-0.438-0.938-0.688-0.375-0.313-0.688-0.813-0.875-1.188-0.063 0-0.188-0.063-0.25-0.125-0.75-0.375-0.938-1.313-0.563-2.063s1.313-0.938 2.063-0.563c0.688 0.375 0.938 1.25 0.625 1.938 0.125 0.188 0.188 0.438 0.25 0.5 0.125 0.125 0.313 0.188 0.5 0.313 0.125-0.188 0.188-0.313 0.313-0.5zM26.5 16c0.813 0 1.5 0.688 1.5 1.5s-0.688 1.5-1.5 1.5-1.438-0.625-1.5-1.438c-0.313-0.063-0.625-0.188-1.063-0.188-0.188 2.063-0.875 4-1.813 5.625 0.875 0.688 1.438 1.438 1.688 2.25 0 0 0.063 0 0.125 0.063l0.188 0.188c0.563 0.625 0.5 1.563-0.125 2.125s-1.563 0.5-2.125-0.125c-0.5-0.563-0.563-1.375-0.063-1.938-0.188-0.375-0.375-0.563-0.813-0.938-1.688 2-4 3.25-6.5 3.375v-14.063c3.313-0.188 6.188-2.188 7.563-5 0.125 0.188 0.188 0.313 0.313 0.5 0.188-0.125 0.375-0.188 0.5-0.313 0.063-0.063 0.125-0.313 0.25-0.5-0.313-0.688-0.063-1.563 0.625-1.938 0.75-0.375 1.688-0.188 2.063 0.563s0.188 1.688-0.563 2.063c-0.063 0.063-0.188 0.125-0.25 0.125-0.188 0.375-0.5 0.875-0.875 1.188-0.25 0.25-0.563 0.438-0.938 0.688 0.438 1.25 0.75 2.625 0.813 4.063 0.688 0 1.125 0.125 1.563 0.25 0.25 0.063 0.5 0.25 0.75 0.375h0.188z"></path>
</svg>
