<!-- Generated by IcoMoon.io -->
<svg version="1.1" xmlns="http://www.w3.org/2000/svg" width="24" height="32" viewBox="0 0 24 32">
<title>ion-headphone</title>
<path d="M23.938 14.875c0.188 3.188-0.188 8.125-0.813 10.125-1.25 4.188-2.5 5-4.5 5s-3.625-1.688-3.625-3.688v-6.625c0-2.063 1.438-3.688 3.313-3.688 1.125 0 2.125 0.563 2.75 1.5 0 0 0.688-0.438 0.813-1.375s0.25-2.125-0.313-4-1.313-1.188-2.25-2.375c-0.125-0.188-0.313-0.438-0.5-0.625l-0.625-0.625c-0.125-0.125-0.188-0.188-0.313-0.25-0.688-0.563-1.313-1.063-2.125-1.438-1.188-0.563-2.438-0.813-3.75-0.813s-2.625 0.25-3.813 0.813c-0.813 0.375-1.375 0.875-2.063 1.438-0.125 0.063-0.188 0.125-0.313 0.25l-0.625 0.625s-0.375 0.438-0.5 0.625c-0.938 1.188-1.688 0.5-2.25 2.375-0.563 1.938-0.438 3.063-0.313 4s0.813 1.375 0.813 1.375c0.625-0.938 1.625-1.5 2.75-1.5 1.875 0 3.313 1.688 3.313 3.688v6.625c0 2-1.625 3.688-3.625 3.688s-3.25-0.813-4.5-5c-0.625-2-1-6.938-0.813-10.125 0.188-3.75 1.375-6.75 3.5-9.063v0c0.5-0.5 0.938-1 1.5-1.438s1.188-0.813 1.813-1.125c1.563-0.813 3.313-1.25 5.125-1.25s3.563 0.438 5.125 1.25c0.625 0.313 1.188 0.688 1.75 1.125s1.063 0.938 1.563 1.438v0c2.125 2.313 3.313 5.313 3.5 9.063z"></path>
</svg>
