<!-- Generated by IcoMoon.io -->
<svg version="1.1" xmlns="http://www.w3.org/2000/svg" width="24" height="32" viewBox="0 0 24 32">
<title>ion-magnet</title>
<path d="M12 2c7.188 0 12 4.875 12 12.5 0 3.063-0.188 4.813-0.938 8-1 4.125-2.438 7.063-2.438 7.063v0.063c-0.125 0.188-0.375 0.375-0.625 0.375-0.063 0-0.188-0.063-0.25-0.063l-0.125-0.063-3.125-1.25-0.125-0.063c-0.188-0.125-0.313-0.313-0.313-0.563 0-0.063 0-0.188 0.063-0.25v-0.063c0.438-1 1.688-3.688 2.313-6.313s0.813-3.938 0.813-6.75c0-4.438-3.25-7.625-7.25-7.625s-7.25 3.188-7.25 7.625c0 2.813 0.188 4.125 0.813 6.75s1.875 5.313 2.313 6.313v0.063c0.063 0.063 0.063 0.188 0.063 0.25 0 0.25-0.125 0.438-0.313 0.563l-0.125 0.063-3.125 1.25-0.125 0.063c-0.063 0-0.188 0.063-0.25 0.063-0.25 0-0.5-0.188-0.625-0.375v-0.063s-1.5-2.938-2.5-7.063c-0.75-3.188-0.875-4.938-0.875-8 0-7.625 4.813-12.5 12-12.5zM6.813 27.75c-0.563-1.188-1.688-3.688-2.25-6.125l-2.625 0.75c0.813 3.313 1.875 5.75 2.188 6.5l2.688-1.063v-0.063zM19.813 28.875c0.313-0.75 1.438-3.188 2.25-6.5l-2.688-0.75c-0.563 2.438-1.625 4.938-2.188 6.125v0.063z"></path>
</svg>
