<!-- Generated by IcoMoon.io -->
<svg version="1.1" xmlns="http://www.w3.org/2000/svg" width="24" height="32" viewBox="0 0 24 32">
<title>ion-pull-request</title>
<path d="M4 4c2.188 0 4 1.813 4 4 0 1.5-0.813 2.75-2 3.438v11.125c1.188 0.688 2 1.938 2 3.438 0 2.188-1.813 4-4 4s-4-1.813-4-4c0-1.5 0.813-2.75 2-3.438v-11.125c-1.188-0.688-2-1.938-2-3.438 0-2.188 1.813-4 4-4zM4 28c1.125 0 2-0.875 2-2s-0.875-2-2-2-2 0.875-2 2 0.875 2 2 2zM4 10c1.125 0 2-0.875 2-2s-0.875-2-2-2-2 0.875-2 2 0.875 2 2 2zM21.938 22.5c1.25 0.688 2.063 2 2.063 3.5 0 2.188-1.813 4-4 4s-4-1.813-4-4c0-1.438 0.75-2.75 1.938-3.438v-9.75c0-1-0.25-1.625-0.688-2.063-0.625-0.563-1.625-0.75-3.25-0.75v4l-6-6 6-6v4c2.625-0.063 4.625 0.5 6 1.813 1.313 1.188 1.938 2.875 1.938 5v9.688zM20 28c1.125 0 2-0.875 2-2s-0.875-2-2-2-2 0.875-2 2 0.875 2 2 2z"></path>
</svg>
