<!-- Generated by IcoMoon.io -->
<svg version="1.1" xmlns="http://www.w3.org/2000/svg" width="16" height="32" viewBox="0 0 16 32">
<title>ion-ios-mic</title>
<path d="M8 22.125c-2.75 0-4.938-2.375-4.938-5.25v-9.625c0-2.875 2.188-5.25 4.938-5.25s4.938 2.375 4.938 5.25v9.625c0 2.875-2.188 5.25-4.938 5.25zM14.938 12h1.063v5c0 4.188-3.188 7.625-7.313 7.938v3.938h4.313v1.125h-10.063v-1.125h4.563v-3.938c-4.188-0.313-7.5-3.75-7.5-7.938v-5h1.188v5c0 3.75 3.125 6.813 6.875 6.813s6.875-3.063 6.875-6.813v-5z"></path>
</svg>
