<!-- Generated by IcoMoon.io -->
<svg version="1.1" xmlns="http://www.w3.org/2000/svg" width="24" height="32" viewBox="0 0 24 32">
<title>ion-lock-combination</title>
<path d="M20 11.063c2.438 2.188 4 5.375 4 8.938 0 6.625-5.375 12-12 12s-12-5.375-12-12c0-3.563 1.563-6.75 4-8.938v-3.063c0-4.438 3.563-8 8-8s8 3.563 8 8v3.063zM6 8v1.625c1.75-1 3.813-1.625 6-1.625s4.25 0.625 6 1.625v-1.625c0-3.313-2.688-6-6-6s-6 2.688-6 6zM12 30c5.5 0 10-4.5 10-10s-4.5-10-10-10-10 4.5-10 10 4.5 10 10 10zM12 11c5 0 9 4 9 9s-4 9-9 9-9-4-9-9 4-9 9-9zM19.688 22.063c0.125-0.563 0.25-1.125 0.25-1.813h-0.438v-0.438h0.5c0-0.688-0.125-1.25-0.313-1.875l-1.563 0.438-0.25-0.75 1.563-0.5c-0.25-0.625-0.5-1.125-0.875-1.625l-0.688 0.5-0.25-0.375 0.688-0.5c-0.375-0.5-0.813-1-1.313-1.375l-0.938 1.313-0.688-0.5 0.938-1.25c-0.5-0.375-1.063-0.688-1.688-0.875l-0.25 0.813-0.375-0.125 0.313-0.813c-0.563-0.188-1.25-0.313-1.813-0.313v1.188h-1v-1.188c-0.688 0.063-1.188 0.125-1.813 0.313l0.25 0.75-0.375 0.125-0.25-0.75c-0.625 0.188-1.188 0.5-1.688 0.875l0.938 1.25-0.625 0.5-0.938-1.313c-0.5 0.375-1 0.875-1.375 1.375l0.688 0.5-0.25 0.313-0.625-0.5c-0.375 0.5-0.625 1.063-0.875 1.688l1.5 0.5-0.313 0.75-1.563-0.438c-0.188 0.625-0.188 1.188-0.188 1.875h0.375v0.438h-0.313c0 0.688 0.125 1.25 0.25 1.813l1.5-0.438 0.25 0.75-1.5 0.5c0.25 0.625 0.5 1.188 0.875 1.688l0.563-0.438 0.25 0.313-0.563 0.438c0.375 0.5 0.813 1 1.313 1.375l0.938-1.313 0.625 0.5-0.938 1.25c0.5 0.313 1.063 0.688 1.688 0.875l0.188-0.688 0.438 0.125-0.25 0.688c0.625 0.188 1.125 0.25 1.813 0.313v-1.188h1v1.188c0.563-0.063 1.188-0.125 1.813-0.313l-0.313-0.75 0.375-0.125 0.25 0.75c0.625-0.188 1.188-0.5 1.688-0.875l-0.938-1.25 0.688-0.5 0.938 1.313c0.5-0.375 0.938-0.875 1.313-1.375l-0.688-0.438 0.25-0.375 0.625 0.5c0.375-0.5 0.688-1.063 0.938-1.688l-1.563-0.5 0.25-0.75zM6.938 20c0-3.375 1.688-5.063 5.063-5.063s5.063 1.688 5.063 5.063-1.688 5.063-5.063 5.063-5.063-1.688-5.063-5.063z"></path>
</svg>
