<!-- Generated by IcoMoon.io -->
<svg version="1.1" xmlns="http://www.w3.org/2000/svg" width="24" height="32" viewBox="0 0 24 32">
<title>ion-gear-b</title>
<path d="M24 18.375h-2.75c-0.25 0.875-0.625 1.688-1.063 2.438l2 2-3.375 3.375-2.063-2c-0.75 0.438-1.5 0.688-2.375 0.938v2.875h-4.75v-2.875c-0.813-0.25-1.625-0.5-2.375-0.938l-2.063 2-3.375-3.375 2-2c-0.438-0.75-0.813-1.563-1.063-2.438h-2.75v-4.75h2.688c0.25-0.875 0.563-1.813 1-2.563l-1.875-1.875 3.375-3.375 1.813 1.813c0.813-0.5 1.688-0.813 2.625-1.063v-2.563h4.75v2.563c0.938 0.25 1.813 0.563 2.625 1.063l1.813-1.813 3.375 3.375-1.875 1.875c0.438 0.75 0.813 1.688 1 2.563h2.688v4.75zM12 19.375c1.875 0 3.375-1.5 3.375-3.375s-1.5-3.375-3.375-3.375-3.375 1.5-3.375 3.375 1.5 3.375 3.375 3.375z"></path>
</svg>
