<!-- Generated by IcoMoon.io -->
<svg version="1.1" xmlns="http://www.w3.org/2000/svg" width="32" height="32" viewBox="0 0 32 32">
<title>ion-ios-infinite-outline</title>
<path d="M26.188 11.75c1.188 1.188 1.813 2.688 1.813 4.25s-0.625 3.063-1.813 4.25c-1.188 1.125-2.75 1.75-4.375 1.75s-3.125-0.625-4.313-1.75l-7.875-7.688c-0.938-0.938-2.188-1.375-3.5-1.375s-2.5 0.438-3.438 1.375c-1.938 1.875-1.938 5 0 6.875 0.938 0.938 2.125 1.375 3.438 1.375s2.563-0.438 3.5-1.375l2.688-2.625 0.813 0.875-2.625 2.563c-1.188 1.125-2.75 1.75-4.375 1.75s-3.125-0.625-4.313-1.75c-1.188-1.188-1.813-2.688-1.813-4.25s0.625-3.063 1.813-4.25c1.188-1.125 2.688-1.75 4.313-1.75s3.188 0.625 4.375 1.75l7.875 7.688c0.938 0.938 2.125 1.375 3.438 1.375s2.563-0.438 3.5-1.375c1.938-1.875 1.938-5 0-6.875-0.938-0.938-2.188-1.375-3.5-1.375s-2.5 0.438-3.438 1.375l-2.688 2.625-0.813-0.875 2.625-2.563c1.188-1.125 2.75-1.75 4.375-1.75s3.125 0.625 4.313 1.75z"></path>
</svg>
