<!-- Generated by IcoMoon.io -->
<svg version="1.1" xmlns="http://www.w3.org/2000/svg" width="24" height="32" viewBox="0 0 24 32">
<title>ion-erlenmeyer-flask</title>
<path d="M23.438 24.75c0.375 0.563 0.563 1.25 0.563 2 0 1.75-1 3.25-3.938 3.25h-16.125c-2.938 0-3.938-1.5-3.938-3.25 0-0.75 0.188-1.438 0.563-2l3.063-4.563 3.063-4.813c0.813-1.25 1.313-2.75 1.313-4.375v-5.75s-0.875-2.125-1-2.688c-0.125-0.5 0.063-0.563 1.063-0.563h7.875c1 0 1.125 0.063 1 0.563-0.125 0.563-0.938 1.375-0.938 2.625v5.813c0 1.625 0.375 3.125 1.188 4.375zM21.563 27.563c0.188-0.188 0.438-0.5 0.438-0.875 0-0.313-0.125-0.625-0.25-0.875l-6.313-9.375c-1-1.625-1.438-3.5-1.438-5.438v-7h-4v7c0 2-0.563 3.875-1.563 5.438l-6.188 9.375c-0.125 0.25-0.25 0.563-0.25 0.875 0 0.375 0.188 0.688 0.375 0.875 0.25 0.25 0.75 0.438 1.563 0.438h16.125c0.813 0 1.25-0.188 1.5-0.438zM20.313 25.688c0.063 0.125 0.188 0.375 0.188 0.5 0 0.438-0.375 0.938-0.875 0.938h-15.25c-0.438 0-0.875-0.375-0.875-0.875 0-0.188 0.063-0.375 0.188-0.5l5.063-7.75h6.438l5.125 7.75v-0.063zM14.875 21.375c0.125 0.063 0.25 0.125 0.375 0.125s0.188 0 0.313-0.125c0.063-0.125 0.188-0.25 0.188-0.375s-0.063-0.25-0.188-0.375c-0.063-0.125-0.188-0.125-0.313-0.125s-0.25 0-0.375 0.125c-0.063 0.125-0.125 0.25-0.125 0.375s0 0.25 0.125 0.375zM17.813 25.063c0.25-0.125 0.25-0.438 0.125-0.688l-1.438-2.25c-0.063-0.125-0.25-0.25-0.438-0.25-0.125 0-0.188 0-0.25 0.063-0.25 0.125-0.25 0.438-0.125 0.688l1.438 2.25c0.063 0.125 0.313 0.25 0.438 0.25 0.063 0 0.188 0 0.25-0.063z"></path>
</svg>
