<!-- Generated by IcoMoon.io -->
<svg version="1.1" xmlns="http://www.w3.org/2000/svg" width="32" height="32" viewBox="0 0 32 32">
<title>ion-pricetags</title>
<path d="M27.5 14.938c0.625 0.688 0.688 1.75 0 2.438l-1.813 1.813c0.688-0.688 0.625-1.75 0-2.438v0 0l-11.938-12h-0.063c-0.5-0.438-1-0.75-1.688-0.75v0l-5.625-0.188h-0.25c-0.563 0-1.188 0.188-1.625 0.625l1.75-1.688c0.5-0.5 1.063-0.75 1.688-0.75h0.25l5.625 0.25c0.688 0 1.188 0.25 1.688 0.688h0.063l0.063 0.063 11.875 11.938zM24.75 17.625v0c0.688 0.688 0.688 1.813 0 2.5l-6.75 6.813v-0.063l-1.625 1.688-0.938 0.938c-0.625 0.625-1.625 0.625-2.313 0.063l-0.188-0.188-11.938-12.063c-0.313-0.375-0.563-0.875-0.625-1.375v0-0.125l-0.375-5.5v-0.25c0-0.688 0.25-1.313 0.75-1.813l2.875-2.938c0.438-0.375 1.063-0.563 1.625-0.563h0.25l5.625 0.188c0.688 0 1.188 0.25 1.688 0.688v0l0.125 0.063 11.813 11.938zM4.938 8.75c-0.75 0.5-1.313 1.313-1.313 2.313 0 1.5 1.188 2.688 2.688 2.688 1 0 1.813-0.563 2.313-1.313 0.25-0.438 0.438-0.875 0.438-1.375 0-1.5-1.25-2.75-2.75-2.75-0.5 0-0.938 0.188-1.375 0.438z"></path>
</svg>
