<!-- Generated by IcoMoon.io -->
<svg version="1.1" xmlns="http://www.w3.org/2000/svg" width="24" height="32" viewBox="0 0 24 32">
<title>ion-android-stopwatch</title>
<path d="M10.5 19.188v-8.188h3v8.188h-3zM21.5 10.625c1.563 2.063 2.5 4.625 2.5 7.375 0 6.625-5.375 12-12 12s-12-5.375-12-12 5.375-12 12-12c2.75 0 5.313 0.938 7.375 2.5l1.938-1.875 2.063 2.063zM18.625 24.625c1.75-1.75 2.75-4.125 2.75-6.625s-1-4.875-2.75-6.625-4.125-2.75-6.625-2.75-4.875 1-6.625 2.75-2.75 4.125-2.75 6.625 1 4.875 2.75 6.625 4.125 2.75 6.625 2.75 4.875-1 6.625-2.75zM8 5v-3h8v3h-8z"></path>
</svg>
