<!-- Generated by IcoMoon.io -->
<svg version="1.1" xmlns="http://www.w3.org/2000/svg" width="20" height="32" viewBox="0 0 20 32">
<title>ion-ios-personadd-outline</title>
<path d="M20 9.563v0.875h-1.563v1.563h-0.875v-1.563h-1.563v-0.875h1.563v-1.563h0.875v1.563h1.563zM6.625 12.625v0 0zM16.688 22.75c0.813 0.313 3.313 1.25 3.313 3.25h-20c0-2 2.5-2.938 3.313-3.25s1.938-0.375 2.688-0.563c0.438-0.125 1.063-0.313 1.25-0.563s0.063-2.563 0.063-2.563-0.375-0.625-0.563-1.125-0.438-2-0.438-2-0.438 0-0.563-0.75c-0.125-0.813-0.375-1.063-0.375-1.688 0-0.563 0.313-0.625 0.313-0.625v0s-0.25-0.813-0.313-2.625c-0.063-2.125 1.563-4.25 4.625-4.25s4.688 2.125 4.625 4.25c-0.063 1.813-0.313 2.625-0.313 2.625v0s0.313 0.063 0.313 0.625c0 0.625-0.188 0.938-0.375 1.75-0.125 0.75-0.563 0.75-0.563 0.75s-0.25 1.438-0.438 1.938-0.563 1.125-0.563 1.125-0.125 2.313 0.063 2.563 0.813 0.438 1.25 0.563c0.75 0.188 1.875 0.25 2.688 0.563zM10 25v0h8.563c-0.125-0.188-0.25-0.375-0.5-0.5-0.438-0.313-1-0.563-1.688-0.813-0.438-0.125-1.063-0.25-1.625-0.313-0.375-0.063-0.625-0.125-0.938-0.188-0.188-0.063-1.313-0.313-1.813-0.938-0.25-0.313-0.375-0.75-0.375-2 0-0.625 0.063-1.25 0.063-1.25v-0.25l0.125-0.25c0.063-0.125 0.375-0.563 0.5-0.938 0.125-0.313 0.313-1.188 0.375-1.75 0 0 0 0.063 0.063-0.25s0.5-0.25 0.563-0.5 0.188-0.438 0.313-1.125-0.313-0.75-0.313-1.063c0-0.25 0.063-0.313 0.063-0.313v0c0-0.063 0.25-0.875 0.25-2.375 0-0.813-0.313-1.625-0.875-2.188-0.688-0.688-1.563-1-2.75-1-1.125 0-2.125 0.313-2.813 1-0.563 0.563-0.813 1.375-0.813 2.188 0.063 1.5 0.25 2.313 0.25 2.375v0s0.063 0.188 0 0.375c-0.063 0.313-0.375 0.313-0.25 1s0.25 0.875 0.313 1.125 0.5 0.188 0.563 0.5 0.063 0.25 0.063 0.25c0.063 0.563 0.25 1.438 0.375 1.75 0.125 0.375 0.375 0.813 0.5 0.938l0.125 0.25v0.25s0.063 0.625 0.063 1.25c0 1.25-0.125 1.688-0.375 2-0.5 0.625-1.625 0.875-1.813 0.938-0.313 0.063-0.625 0.125-1 0.188-0.563 0.063-1.125 0.188-1.563 0.313-0.688 0.25-1.25 0.5-1.688 0.813-0.25 0.125-0.375 0.313-0.5 0.5h8.563z"></path>
</svg>
