<!-- Generated by IcoMoon.io -->
<svg version="1.1" xmlns="http://www.w3.org/2000/svg" width="17" height="32" viewBox="0 0 17 32">
<title>ion-ios-thunderstorm-outline</title>
<path d="M12.063 17l-5.5 8 1.813-6h-3.25l0.938-5h4.5l-1 3h2.5zM13.063 10.813c2.25 0 4.063 1.813 4.063 4.063s-1.813 4.125-4.063 4.125h-0.5v-1.063h0.5c1.688 0 3.063-1.375 3.063-3.063s-1.375-3.125-3.063-3.125h-0.375l-0.875 0.125-0.188-0.875c-0.188-0.875-0.688-1.625-1.375-2.188s-1.563-0.813-2.438-0.813c-2.125 0-3.938 1.688-3.938 3.875v0.75s0.063 0.563 0.063 0.563c-0.313 0-0.75 0.125-0.875 0.125-1.188 0.188-2.063 1.125-2.063 2.313 0 0.625 0.188 1.188 0.625 1.625s1 0.688 1.625 0.688h0.688v1.063h-0.688c-1.75 0-3.25-1.5-3.25-3.313 0-1.688 1.313-3.188 2.938-3.313v-0.5c0-2.688 2.188-4.875 4.875-4.875 2.313 0 4.25 1.625 4.75 3.813h0.5z"></path>
</svg>
