<!-- Generated by IcoMoon.io -->
<svg version="1.1" xmlns="http://www.w3.org/2000/svg" width="22" height="32" viewBox="0 0 22 32">
<title>ion-pizza</title>
<path d="M19.688 8.125c0.625 0.25 0.75 0.813 0.563 1.25l-9.25 20.625s-8.938-20-9.25-20.688 0.125-1 0.563-1.188c2.438-1.125 5.625-1.75 8.688-1.75s6 0.563 8.688 1.75zM7 12c1.125 0 2-0.875 2-2s-0.875-2-2-2-2 0.875-2 2 0.875 2 2 2zM11 21.188c1.125 0 2-0.875 2-2s-0.875-2-2-2-2 0.875-2 2 0.875 2 2 2zM15 14c1.125 0 2-0.875 2-2s-0.875-2-2-2-2 0.875-2 2 0.875 2 2 2zM21.375 4.125c0.375 0.188 0.625 0.375 0.625 0.813 0 0.063 0 0.188-0.063 0.313l-0.5 1.188c-0.188 0.313-0.5 0.563-0.875 0.563-0.063 0-0.188-0.063-0.375-0.125-2.563-1.125-5.938-1.875-9.188-1.875s-6.375 0.688-9.188 1.875c-0.188 0.063-0.25 0.125-0.375 0.125-0.375 0-0.688-0.25-0.875-0.563l-0.5-1.188s-0.063-0.125-0.063-0.313c0-0.5 0.375-0.75 0.625-0.875 3.063-1.313 6.688-2.063 10.375-2.063s7.375 0.813 10.375 2.125z"></path>
</svg>
