<!-- Generated by IcoMoon.io -->
<svg version="1.1" xmlns="http://www.w3.org/2000/svg" width="24" height="32" viewBox="0 0 24 32">
<title>ion-social-skype-outline</title>
<path d="M6.625 6c-2.563 0-4.625 2.063-4.625 4.563 0 0.813 0.25 1.563 0.625 2.25l0.375 0.688-0.125 0.75c-0.125 0.625-0.188 1.25-0.188 1.875 0 2.5 1 4.813 2.75 6.563s4.188 2.75 6.688 2.75c0.563 0 1.188-0.063 1.75-0.188l0.688-0.125 0.563 0.313c0.688 0.375 1.5 0.563 2.25 0.563 2.563 0 4.625-2.063 4.625-4.563 0-0.688-0.188-1.375-0.5-2l-0.313-0.625 0.188-0.688c0.125-0.625 0.188-1.313 0.188-2 0-2.5-1-4.813-2.75-6.563s-4.188-2.688-6.688-2.688c-0.563 0-1.125 0-1.625 0.125l-0.75 0.125-0.625-0.438c-0.75-0.438-1.625-0.688-2.5-0.688zM6.625 4v0c1.313 0 2.5 0.375 3.5 1 0.625-0.125 1.313-0.125 2-0.125 6.313 0 11.438 5 11.438 11.25 0 0.813-0.063 1.688-0.25 2.438 0.438 0.875 0.688 1.813 0.688 2.875 0 3.625-2.938 6.563-6.625 6.563-1.125 0-2.188-0.25-3.125-0.75-0.688 0.125-1.375 0.188-2.125 0.188-6.313 0-11.438-5.063-11.438-11.313 0-0.75 0.125-1.5 0.25-2.25-0.563-1-0.938-2.125-0.938-3.313 0-3.625 2.938-6.563 6.625-6.563zM18 21.5c-0.5 0.75-1.313 1.313-2.313 1.75s-2.25 0.625-3.625 0.625c-1.625 0-3-0.313-4.063-0.875-0.75-0.438-1.375-0.938-1.875-1.625s-0.75-1.375-0.75-2.063c0-0.438 0.188-0.75 0.5-1.063s0.688-0.438 1.188-0.438c0.375 0 0.75 0.125 1 0.375s0.438 0.5 0.625 0.938 0.438 0.813 0.688 1.125 0.5 0.563 0.938 0.75 1 0.313 1.688 0.313c0.938 0 1.75-0.25 2.313-0.625s0.813-0.813 0.813-1.375c0-0.438-0.125-0.813-0.438-1.063-0.313-0.313-0.688-0.563-1.188-0.688-0.5-0.188-1.25-0.313-2.125-0.5-1.188-0.25-2.188-0.563-3-0.875-0.813-0.375-1.5-0.813-2-1.438s-0.688-1.375-0.688-2.25 0.25-1.563 0.75-2.25c0.5-0.625 1.25-1.188 2.25-1.563 0.938-0.375 2.125-0.5 3.375-0.5 1 0 1.875 0.063 2.625 0.313s1.438 0.563 1.938 0.938 0.875 0.813 1.125 1.25 0.313 0.875 0.313 1.313c0 0.375-0.125 0.75-0.438 1.063s-0.688 0.5-1.188 0.5c-0.438 0-0.75-0.125-1-0.313-0.188-0.188-0.438-0.438-0.688-0.875-0.313-0.5-0.625-0.938-1-1.25s-1.063-0.5-1.938-0.5c-0.813 0-1.438 0.188-1.938 0.5s-0.75 0.688-0.75 1.125c0 0.25 0.125 0.438 0.25 0.625 0.188 0.188 0.375 0.375 0.688 0.5s0.625 0.313 0.938 0.375 0.813 0.188 1.563 0.375c0.938 0.188 1.75 0.375 2.5 0.625s1.438 0.5 2 0.875 0.938 0.813 1.25 1.375 0.5 1.25 0.5 2c0 0.938-0.313 1.75-0.813 2.5z"></path>
</svg>
