<!-- Generated by IcoMoon.io -->
<svg version="1.1" xmlns="http://www.w3.org/2000/svg" width="30" height="32" viewBox="0 0 30 32">
<title>ion-ios-recording</title>
<path d="M23.125 9c3.813 0 6.875 3.125 6.875 7s-3.063 7-6.875 7h-16.25c-3.813 0-6.875-3.125-6.875-7s3.063-7 6.875-7 6.875 3.125 6.875 7c0 2.5-1.313 4.75-3.313 5.938h9.125c-2-1.188-3.313-3.438-3.313-5.938 0-3.875 3.063-7 6.875-7zM7 20c2.188 0 4-1.813 4-4s-1.813-4-4-4-4 1.813-4 4 1.813 4 4 4zM23 20c2.188 0 4-1.813 4-4s-1.813-4-4-4-4 1.813-4 4 1.813 4 4 4zM23 13c1.625 0 3 1.375 3 3s-1.375 3-3 3-3-1.375-3-3 1.375-3 3-3zM7 13c1.625 0 3 1.375 3 3s-1.375 3-3 3-3-1.375-3-3 1.375-3 3-3z"></path>
</svg>
