<!-- Generated by IcoMoon.io -->
<svg version="1.1" xmlns="http://www.w3.org/2000/svg" width="8" height="32" viewBox="0 0 8 32">
<title>ion-ios-help-empty</title>
<path d="M4.25 22.875c-0.563 0-1.063-0.5-1.063-1.063s0.5-1.063 1.063-1.063 1.063 0.5 1.063 1.063-0.5 1.063-1.063 1.063zM6.375 15.688c-1.438 1.375-1.375 1.688-1.438 3.313h-1.188c0.063-1.75 0.438-2.688 1.875-4 0.688-0.625 1.188-1.5 1.188-2.438 0-1.5-1.188-2.438-2.625-2.438-2 0-3.063 1-3 2.875h-1.188c0-2.625 1.563-3.875 4.25-3.875 2.063 0 3.75 1.25 3.75 3.375 0 1.375-0.688 2.313-1.625 3.188z"></path>
</svg>
