<!-- Generated by IcoMoon.io -->
<svg version="1.1" xmlns="http://www.w3.org/2000/svg" width="32" height="32" viewBox="0 0 32 32">
<title>ion-code</title>
<path d="M8.5 24.5c-0.375 0-0.75-0.125-1.063-0.438l-7-7c-0.563-0.563-0.563-1.563 0-2.125l7-7c0.563-0.563 1.563-0.563 2.125 0s0.563 1.563 0 2.125l-5.938 5.938 5.938 5.938c0.563 0.563 0.563 1.563 0 2.125-0.313 0.313-0.688 0.438-1.063 0.438zM19.5 24.5c-0.375 0-0.75-0.125-1.063-0.438-0.563-0.563-0.563-1.563 0-2.125l5.938-5.938-5.938-5.938c-0.563-0.563-0.563-1.563 0-2.125s1.563-0.563 2.125 0l7 7c0.563 0.563 0.563 1.563 0 2.125l-7 7c-0.313 0.313-0.688 0.438-1.063 0.438z"></path>
</svg>
