<!-- Generated by IcoMoon.io -->
<svg version="1.1" xmlns="http://www.w3.org/2000/svg" width="26" height="32" viewBox="0 0 26 32">
<title>ion-android-microphone-off</title>
<path d="M19.75 22.188l3.625 3.625 2.125 2.063-1.5 1.5-5.938-5.938c-1.188 0.688-2.5 1.25-3.875 1.438v5.125h-2.875v-5.125c-4.688-0.625-8.563-4.75-8.563-9.563h2.438c0 4.25 3.625 7.313 7.563 7.313 1.25 0 2.5-0.313 3.563-0.875l-2-2.063c-0.5 0.188-1 0.313-1.563 0.313-2.375 0-4.313-1.938-4.313-4.313v-1.813l-8.438-8.375 1.5-1.5 6.938 6.875 9.625 9.625zM17.063 15.688c0 0.25 0 0.5-0.063 0.75l-8.563-8.563v-1.563c0-2.375 1.938-4.313 4.313-4.313s4.313 1.938 4.313 4.313v9.375zM22.813 15.313c0 1.938-0.625 3.75-1.688 5.25l-1.688-1.75c0.563-1.063 0.938-2.25 0.938-3.5h2.438zM25.5 27.875v0l-2.125-2.063z"></path>
</svg>
