<!-- Generated by IcoMoon.io -->
<svg version="1.1" xmlns="http://www.w3.org/2000/svg" width="26" height="32" viewBox="0 0 26 32">
<title>ion-android-settings</title>
<path d="M22.875 17.313l2.938 2.125c0.188 0.188 0.25 0.625 0.125 0.875l-2.688 4.438c-0.125 0.25-0.438 0.438-0.75 0.313l-3.375-1.313c-0.75 0.5-1.438 1-2.25 1.313l-0.5 3.438c-0.063 0.25-0.375 0.5-0.688 0.5h-5.313c-0.313 0-0.625-0.188-0.688-0.5l-0.5-3.438c-0.813-0.313-1.563-0.813-2.25-1.313l-3.375 1.313c-0.25 0.125-0.625-0.063-0.75-0.313l-2.688-4.438c-0.188-0.313-0.125-0.688 0.125-0.875l2.813-2.125c0-0.438-0.063-0.875-0.063-1.313s0.063-0.875 0.063-1.313l-2.875-2.125c-0.188-0.188-0.25-0.625-0.125-0.875l2.688-4.438c0.125-0.25 0.438-0.438 0.75-0.313l3.375 1.313c0.75-0.5 1.438-1 2.25-1.313l0.5-3.438c0.063-0.25 0.375-0.5 0.688-0.5h5.313c0.313 0 0.625 0.25 0.688 0.5l0.438 3.438c0.813 0.313 1.563 0.813 2.25 1.313l3.313-1.313c0.25-0.125 0.688 0.063 0.813 0.313l2.688 4.438c0.188 0.313 0.125 0.688-0.125 0.875l-2.813 2.125c0 0.438 0.063 0.875 0.063 1.313s0 0.938-0.063 1.313zM12.938 20.563c2.563 0 4.688-2 4.688-4.563s-2.125-4.563-4.688-4.563-4.625 2-4.625 4.563 2.063 4.563 4.625 4.563z"></path>
</svg>
