<!-- Generated by IcoMoon.io -->
<svg version="1.1" xmlns="http://www.w3.org/2000/svg" width="24" height="32" viewBox="0 0 24 32">
<title>ion-social-skype</title>
<path d="M23.313 18.563c0.438 0.875 0.688 1.813 0.688 2.875 0 3.625-2.938 6.563-6.625 6.563-1.125 0-2.188-0.25-3.125-0.75-0.688 0.125-1.375 0.188-2.125 0.188-6.313 0-11.438-5.063-11.438-11.313 0-0.75 0.125-1.5 0.25-2.25-0.563-1-0.938-2.125-0.938-3.313 0-3.625 2.938-6.563 6.625-6.563 1.313 0 2.563 0.375 3.563 1 0.625-0.125 1.25-0.125 1.938-0.125 6.313 0 11.438 5 11.438 11.25 0 0.813-0.063 1.688-0.25 2.438zM18 21.5c0.563-0.75 0.75-1.563 0.75-2.5 0-0.75-0.125-1.438-0.438-2s-0.75-1-1.313-1.375-1.188-0.625-1.938-0.875-1.625-0.438-2.563-0.625c-0.75-0.188-1.25-0.313-1.563-0.375s-0.625-0.25-0.938-0.375-0.438-0.313-0.625-0.5c-0.125-0.188-0.25-0.375-0.25-0.625 0-0.438 0.188-0.813 0.688-1.125s1.188-0.438 2-0.438c0.875 0 1.563 0.125 1.938 0.438s0.688 0.75 1 1.25c0.25 0.438 0.5 0.688 0.688 0.875 0.25 0.188 0.563 0.313 1 0.313 0.5 0 0.813-0.188 1.125-0.5s0.5-0.688 0.5-1.063c0-0.438-0.125-0.875-0.375-1.313s-0.625-0.875-1.125-1.25-1.125-0.688-1.875-0.938-1.688-0.313-2.688-0.313c-1.25 0-2.375 0.125-3.313 0.5-1 0.375-1.75 0.938-2.25 1.563-0.5 0.688-0.75 1.375-0.75 2.25s0.188 1.625 0.688 2.25 1.188 1.063 2 1.438c0.813 0.313 1.813 0.625 3 0.875 0.875 0.188 1.625 0.313 2.125 0.5 0.5 0.125 0.875 0.375 1.188 0.688 0.313 0.25 0.438 0.625 0.438 1.063 0 0.563-0.25 1.063-0.813 1.438s-1.375 0.563-2.313 0.563c-0.688 0-1.25-0.125-1.688-0.313s-0.688-0.375-0.938-0.688-0.5-0.75-0.688-1.188-0.375-0.688-0.625-0.938-0.625-0.375-1-0.375c-0.5 0-0.875 0.125-1.188 0.438s-0.5 0.625-0.5 1.063c0 0.688 0.25 1.375 0.75 2.063s1.125 1.188 1.875 1.625c1.063 0.563 2.438 0.875 4.063 0.875 1.375 0 2.625-0.188 3.625-0.625s1.813-1 2.313-1.75z"></path>
</svg>
