<!-- Generated by IcoMoon.io -->
<svg version="1.1" xmlns="http://www.w3.org/2000/svg" width="32" height="32" viewBox="0 0 32 32">
<title>ion-earth</title>
<path d="M20.313 7.875c0.125 0.25 0.438 0.75 0.188 0.938-0.188 0.125-0.625 0.125-0.813-0.313s0-0.688-0.313-0.563-0.438-0.188-0.375-0.25c0.063-0.125 0.188-0.188 0.313-0.25 0-0.125-0.25-0.5 0.125-0.438 0.25 0.063 0.75 0.625 0.875 0.875zM21.5 10.688v0 0zM25.188 12.313c0 0-0.125 0 0 0v0zM14 2c7.75 0 14 6.25 14 14s-6.25 14-14 14-14-6.25-14-14 6.25-14 14-14zM8.813 26.813l0.5 0.25c0.188 0.063 0.375 0.125 0.625 0.188 0.875 0.313 1.75 0.5 2.688 0.625 1.75 0.188 3.5 0.063 5.188-0.5 0.938-0.313 1.875-0.688 2.688-1.25 0.375-0.25 0.375-1 0.625-1.5 0.5-1-0.125-2.063 0.75-2.938 0.75-0.875 0.25-1.188 0.25-2.125 0-0.625 0.5-1.125 0.25-1.813-0.063-0.25-0.438 0.188-0.563-0.063-0.313-0.438-1.313-0.063-1.75-0.125-0.813-0.125-1.5-0.875-2.063-1.438-0.313-0.313 0-1.25 0.063-1.625 0.25-0.938 0-2.063 1.188-2.375 0.313-0.063 0.313-0.563 0.625-0.688 0.313-0.063 0.625-0.188 0.938-0.25 0.563-0.063 1.063 0.125 1.625 0.125 0.625 0 0.875 0.313 1.375 0.688 0.438 0.375 0.813 0.188 1.375 0.313 0.438 0 0-0.313-0.125-0.5-0.188-0.125-0.375-0.125-0.5-0.125-1-0.25-1.438-1.375-2.25-1.875-0.375-0.188-0.563-0.125-0.688 0-0.063 0.063 0.063 0.75 0.063 0.75-0.063 0.188-0.625 0.25-0.813 0.313-0.563 0.125-1.813-1.063-0.938-1.375 0.25-0.063 1.688-0.313 1.5-0.938-0.188-0.375 0.125-0.813-0.313-0.875-0.5-0.063-0.438-0.438-0.938-0.5-0.313-0.063-0.313-0.688-0.313-0.875 0-0.563 0.125-0.375 0.563-0.438-1.063-0.688-2.313-1.188-3.563-1.5-0.063 0.188-0.313 0.75-0.5 0.75-0.313 0.063-0.375 0-0.563 0.188-0.563 0.625-1 1.75-1.563 0.438-0.25-0.688 0.313-1.188 0.125-1.75h-0.563c0.375 0.75-0.313 1.125-0.5 1.188-0.5 0-0.625-0.313-1.063-0.25-0.25 0.063-0.438-0.25-0.688-0.125s-0.813 0.5-0.875 0.75c-0.188 0.75 0.375 0.813 0.875 0.375 0.375-0.375 1.063-0.75 1.563-0.375 0.375 0.313 0.313 0.563 0.313 0.875s-0.063 1.125-0.563 1c-0.25-0.063-0.438-0.375-0.688-0.188-0.5 0.438-1.125 0.375-1.813 0.563-0.625 0.125-1 0.375-1.563 0.563-0.5 0.188-0.688 0.25-0.75 0.75 0 0.125 0 0.875-0.188 0.938-0.313 0.125-0.5-1.375-1.375-1.25-0.75 0.063-1.875 0.813-1.563 1.75 0.125 0.313 1.75 0.188 0.625 0.875-0.125 0.063 0.125 1.063 0.125 1.25 0.063 0.5 0.813 1.125 1.313 0.625 0.375-0.375 0.375-0.313 0.875-0.125 0.938 0.5 2.063 0.938 2.813 1.688 0.375 0.375 0.563 1.5 1.063 1.75 0.563 0.313 1.188 0.313 1.625 0.875 0.375 0.438-0.125 1.188-0.5 1.438-0.25 0.125-0.75 1.5-1 1.813-0.125 0.25-0.75 0.375-1 0.438-0.188 0-0.438 0.563-0.563 0.688-0.438 0.438-0.5 0.813-1.063 1.188-1.125 0.75-1.375 1.438-1.125 2.75 0.125 0.5 0.313 0.813 0.688 1zM6.25 25.125l0.125 0.125c0.438 0.375 0.938 0.688 1.438 1-1.313-1.313-1.438-3.063-1.313-4.875l0.188-1.5c0.063-0.188-0.25-0.438-0.25-0.688 0-0.625 0-0.313-0.5-0.813-0.25-0.25-0.625-0.688-0.75-1.063-0.438-1 0.063-1.875 0.625-2.688 0.563-0.875-0.438-1.25-0.625-2-0.063-0.375-0.438-0.375-0.375-0.75 0.063-0.438-0.25-0.313-0.563-0.563-0.75-0.5-0.063-1.25-0.438-1.625-2.688 4.375-2.25 10.125 1 14 0.063 0.063 0 0.063 0.063 0.125h0.063c0.188 0.25 0.375 0.5 0.563 0.688s0.438 0.375 0.625 0.563z"></path>
</svg>
