<!-- Generated by IcoMoon.io -->
<svg version="1.1" xmlns="http://www.w3.org/2000/svg" width="20" height="32" viewBox="0 0 20 32">
<title>ion-ios-arrow-thin-left</title>
<path d="M5.875 21.875c-0.125 0.125-0.25 0.125-0.375 0.125s-0.25 0-0.375-0.125c0 0-4.938-5.438-5-5.5s-0.125-0.188-0.125-0.375 0.063-0.313 0.125-0.375 5-5.5 5-5.5c0.188-0.188 0.563-0.188 0.75 0s0.188 0.563 0 0.75l-4.188 4.625h17.813c0.25 0 0.5 0.25 0.5 0.5s-0.25 0.5-0.5 0.5h-17.813l4.188 4.625c0.188 0.188 0.188 0.563 0 0.75z"></path>
</svg>
