<!-- Generated by IcoMoon.io -->
<svg version="1.1" xmlns="http://www.w3.org/2000/svg" width="32" height="32" viewBox="0 0 32 32">
<title>ion-model-s</title>
<path d="M31.813 24.438v0.75c0 0.188-0.063 0.313-0.063 0.438-0.063 0.75-0.125 1.125-0.375 1.25-0.188 0.125-0.375 0.125-0.625 0.125h-2.688s-0.625-0.063-0.688-1v-0.5c1.25-0.063 2.438-0.063 3.25 0 0.625 0 0.813 0 1-0.375 0.125-0.188 0.125-0.438 0.188-0.688zM0.188 24.438c0.063 0.25 0.063 0.5 0.188 0.688 0.188 0.375 0.375 0.375 1 0.375 0.813-0.063 2-0.063 3.25 0v0.5c-0.063 0.938-0.5 1-0.688 1h-2.688s-0.438 0-0.625-0.125c-0.25-0.125-0.375-0.5-0.438-1.25v-1.188zM32 18.563c0 1.938-0.125 3.625-0.125 4.25 0 0.25 0 0.688-0.063 1.125-0.063 0.25-0.063 0.5-0.188 0.688-0.188 0.375-0.375 0.375-1 0.375-0.813-0.063-2-0.063-3.25 0-0.813 0-1.688 0.125-2.438 0.125-1.875 0.063-1.313-0.25-2.125-0.25s-3.938 0.125-6.813 0.125-6.063-0.125-6.875-0.125-0.25 0.313-2.125 0.25c-0.75 0-1.563-0.125-2.375-0.125-1.25-0.063-2.438-0.063-3.25 0-0.625 0-0.813 0-1-0.375-0.125-0.188-0.125-0.438-0.188-0.688-0.063-0.438-0.063-0.875-0.063-1.125 0-0.625-0.125-2.313-0.125-4.25s0.25-3.813 0.375-4c0.063-0.125 0.5-0.563 1.625-1.313s1.063-0.625 1.25-1.125c-0.188-0.063-0.313-0.188-0.438-0.188-0.25 0-0.25 0.188-0.75 0.188s-1.5-0.063-1.75-0.313c-0.25-0.188-0.313-0.313-0.313-0.5s0.125-0.563 0.313-0.813 1.188-0.375 1.688-0.438 0.625 0 0.75 0.063c0.25 0.125 0.188 1.375 0.188 1.375l0.563 0.063c0.313-0.813 0.75-2.563 1.5-3.875 0.813-1.438 1.625-1.875 2-2s0.625-0.125 3-0.375 4.313-0.313 6-0.313 3.625 0.063 6 0.313 2.625 0.25 3 0.375 1.188 0.563 2 2c0.75 1.313 1.188 3.063 1.5 3.875l0.563-0.063s-0.063-1.25 0.188-1.375c0.125-0.063 0.25-0.125 0.75-0.063s1.5 0.188 1.688 0.438 0.313 0.625 0.313 0.813-0.063 0.25-0.313 0.5-1.25 0.313-1.75 0.313-0.5-0.188-0.75-0.188c-0.125 0-0.25 0.125-0.438 0.188 0.188 0.5 0.125 0.375 1.25 1.125s1.563 1.188 1.625 1.313c0.125 0.188 0.375 2.063 0.375 4zM5.375 9.063c-0.313 0.688-0.688 2.063-0.625 2.25s-0.063 0.313 0.938 0.25 7.313-0.188 10.313-0.188 9.313 0.125 10.313 0.188 0.875-0.063 0.938-0.25-0.313-1.563-0.625-2.25-1.063-1.938-1.625-2.313c-0.125-0.063-1.063-0.438-3.375-0.563-2.125-0.125-4.5-0.188-5.625-0.188s-3.5 0.063-5.625 0.188c-2.313 0.125-3.25 0.5-3.375 0.563-0.438 0.25-1.313 1.625-1.625 2.313zM7.688 16.875c0.438-0.125 0.688-0.125 0.688-0.125s-1.063-1-3-1.563-3.063-0.688-4.125-0.625c0 0-0.188 1 0 1.688s0.5 0.625 1 0.75 0.813 0.313 1 0.25 0.438-0.25 0.75-0.25 1.813 0.25 2.375 0.25 0.875-0.25 1.313-0.375zM22.375 21.813c0.938-0.125 2.125-1.188 1.313-2.063-1.125-1.188-0.938-1.188-3.438-1.5-2.188-0.25-3.813-0.25-4.25-0.25s-2.063 0-4.25 0.25c-2.5 0.313-2.313 0.313-3.438 1.5-0.813 0.875 0.375 1.938 1.313 2.063 0.875 0.125 4.625 0.188 6.375 0.188s5.5-0.063 6.375-0.188zM30.75 16.25c0.188-0.688 0-1.688 0-1.688-1.063-0.063-2.188 0.063-4.125 0.625s-3 1.625-3 1.625 0.25-0.063 0.688 0.063 0.75 0.375 1.313 0.375 2.063-0.25 2.375-0.25 0.563 0.188 0.75 0.25 0.5-0.125 1-0.25 0.813-0.063 1-0.75z"></path>
</svg>
