<!-- Generated by IcoMoon.io -->
<svg version="1.1" xmlns="http://www.w3.org/2000/svg" width="32" height="32" viewBox="0 0 32 32">
<title>ion-code-working</title>
<path d="M8 16c0-1 0.5-1.5 1.5-1.5s1.5 0.5 1.5 1.5-0.5 1.5-1.5 1.5-1.5-0.5-1.5-1.5zM12.5 16c0-1 0.5-1.5 1.5-1.5s1.5 0.5 1.5 1.5-0.5 1.5-1.5 1.5-1.5-0.5-1.5-1.5zM17 16c0-1 0.5-1.5 1.5-1.5s1.5 0.5 1.5 1.5-0.5 1.5-1.5 1.5-1.5-0.5-1.5-1.5zM8.5 24.5c-0.438 0-0.75-0.125-1.063-0.438l-7-7c-0.313-0.313-0.438-0.625-0.438-1.063s0.125-0.75 0.438-1.063l7-7c0.313-0.313 0.625-0.438 1.063-0.438s0.75 0.125 1.063 0.438 0.438 0.625 0.438 1.063-0.125 0.75-0.438 1.063l-5.938 5.938 5.938 5.938c0.313 0.313 0.438 0.625 0.438 1.063s-0.125 0.75-0.438 1.063-0.625 0.438-1.063 0.438zM19.5 24.5c-0.438 0-0.75-0.125-1.063-0.438s-0.438-0.625-0.438-1.063 0.125-0.75 0.438-1.063l5.938-5.938-5.938-5.938c-0.313-0.313-0.438-0.625-0.438-1.063s0.125-0.75 0.438-1.063 0.625-0.438 1.063-0.438 0.75 0.125 1.063 0.438l7 7c0.313 0.313 0.438 0.625 0.438 1.063s-0.125 0.75-0.438 1.063l-7 7c-0.313 0.313-0.625 0.438-1.063 0.438z"></path>
</svg>
