<!-- Generated by IcoMoon.io -->
<svg version="1.1" xmlns="http://www.w3.org/2000/svg" width="24" height="32" viewBox="0 0 24 32">
<title>ion-navicon-round</title>
<path d="M22.063 14c1.063 0 1.938 0.875 1.938 2s-0.875 2-1.938 2h-20.125c-1.063 0-1.938-0.875-1.938-2s0.875-2 1.938-2h20.125zM22.063 6c1.063 0 1.938 0.875 1.938 2s-0.875 2-1.938 2h-20.125c-1.063 0-1.938-0.875-1.938-2s0.875-2 1.938-2h20.125zM22.063 22c1.063 0 1.938 0.875 1.938 2s-0.875 2-1.938 2h-20.125c-1.063 0-1.938-0.875-1.938-2s0.875-2 1.938-2h20.125z"></path>
</svg>
