<!-- Generated by IcoMoon.io -->
<svg version="1.1" xmlns="http://www.w3.org/2000/svg" width="24" height="32" viewBox="0 0 24 32">
<title>ion-load-d</title>
<path d="M23 15c0.563 0 1 0.438 1 1s-0.438 1-1 1h-5c-0.563 0-1-0.438-1-1s0.438-1 1-1h5zM7 16c0 0.563-0.438 1-1 1h-5c-0.563 0-1-0.438-1-1s0.438-1 1-1h5c0.563 0 1 0.438 1 1zM12 21c0.563 0 1 0.438 1 1v5c0 0.563-0.438 1-1 1s-1-0.438-1-1v-5c0-0.563 0.438-1 1-1zM12 4c0.563 0 1 0.438 1 1v5c0 0.563-0.438 1-1 1s-1-0.438-1-1v-5c0-0.563 0.438-1 1-1zM16.313 13.5c-0.25-0.5-0.125-1.125 0.375-1.375l4.313-2.5c0.5-0.25 1.125-0.125 1.375 0.375s0.125 1.125-0.375 1.375l-4.313 2.5c-0.5 0.25-1.125 0.125-1.375-0.375zM7.688 18.5c0.25 0.5 0.125 1.125-0.375 1.375l-4.313 2.5c-0.5 0.25-1.125 0.125-1.375-0.375s-0.125-1.125 0.375-1.375l4.313-2.5c0.5-0.25 1.125-0.125 1.375 0.375zM15.875 20.688l2.5 4.313c0.25 0.5 0.125 1.125-0.375 1.375s-1.125 0.125-1.375-0.375l-2.5-4.313c-0.25-0.5-0.125-1.125 0.375-1.375s1.125-0.125 1.375 0.375zM7.375 6l2.5 4.313c0.25 0.5 0.125 1.125-0.375 1.375s-1.125 0.125-1.375-0.375l-2.5-4.313c-0.25-0.5-0.125-1.125 0.375-1.375s1.125-0.125 1.375 0.375zM14.5 11.688c-0.5-0.25-0.625-0.875-0.375-1.375l2.5-4.313c0.25-0.5 0.875-0.625 1.375-0.375s0.625 0.875 0.375 1.375l-2.5 4.313c-0.25 0.5-0.875 0.625-1.375 0.375zM9.5 20.313c0.5 0.25 0.625 0.875 0.375 1.375l-2.5 4.313c-0.25 0.5-0.875 0.625-1.375 0.375s-0.625-0.875-0.375-1.375l2.5-4.313c0.25-0.5 0.875-0.625 1.375-0.375zM22 20.625c0.5 0.25 0.625 0.875 0.375 1.375s-0.875 0.625-1.375 0.375l-4.313-2.5c-0.5-0.25-0.625-0.875-0.375-1.375s0.875-0.625 1.375-0.375zM2 11.375c-0.5-0.25-0.625-0.875-0.375-1.375s0.875-0.625 1.375-0.375l4.313 2.5c0.5 0.25 0.625 0.875 0.375 1.375s-0.875 0.625-1.375 0.375z"></path>
</svg>
