<!-- Generated by IcoMoon.io -->
<svg version="1.1" xmlns="http://www.w3.org/2000/svg" width="22" height="32" viewBox="0 0 22 32">
<title>ion-android-subway</title>
<path d="M11 3c5.875 0 11 0.625 11 5.313v13.375c0 2.625-2.063 4.625-4.688 4.625l1.688 1.688v1h-16v-1l1.688-1.688c-2.625 0-4.688-2-4.688-4.625v-13.375c0-4.688 5.125-5.313 11-5.313zM5 24c1.125 0 2-0.875 2-2s-0.875-2-2-2-2 0.875-2 2 0.875 2 2 2zM10 15v-6h-7v6h7zM17 24c1.125 0 2-0.875 2-2s-0.875-2-2-2-2 0.875-2 2 0.875 2 2 2zM19 15v-6h-7v6h7z"></path>
</svg>
