<!-- Generated by IcoMoon.io -->
<svg version="1.1" xmlns="http://www.w3.org/2000/svg" width="23" height="32" viewBox="0 0 23 32">
<title>ion-android-notifications-off</title>
<path d="M11.375 29c-1.438 0-2.563-1.188-2.563-2.625h5.125c0 1.438-1.125 2.625-2.563 2.625zM3.563 6.688l19.188 19.188-1.5 1.5-2.25-2.25h-18.625v-1.313l2.563-2.563v-7.188c0-1.438 0.375-2.75 1-3.938l-3.938-4 1.5-1.5 2.063 2.063zM19.813 14.063v5.875l-13-12.938c0.813-0.5 1.688-0.938 2.625-1.125v-0.938c0-1.125 0.813-1.938 1.938-1.938s1.938 0.813 1.938 1.938v0.938c3.688 0.875 6.5 4.188 6.5 8.188z"></path>
</svg>
