<!-- Generated by IcoMoon.io -->
<svg version="1.1" xmlns="http://www.w3.org/2000/svg" width="32" height="32" viewBox="0 0 32 32">
<title>ion-bag</title>
<path d="M26 10l2 20h-28l2-20h4v-0.25c0-4.25 3.5-7.75 7.75-7.75h0.5c4.25 0 7.75 3.5 7.75 7.75v0.25h4zM8 9.75v0.25h12v-0.25c0-3.188-2.563-5.75-5.75-5.75v0h-0.5c-3.188 0-5.75 2.563-5.75 5.75zM2.25 28h23.5l-1.563-16h-2.188v2.25c0.625 0.375 1 1 1 1.75 0 1.125-0.875 2-2 2s-2-0.875-2-2c0-0.75 0.375-1.375 1-1.75v-2.25h-12v2.25c0.625 0.375 1 1 1 1.75 0 1.125-0.875 2-2 2s-2-0.875-2-2c0-0.75 0.375-1.375 1-1.75v-2.25h-2.188z"></path>
</svg>
