<!-- Generated by IcoMoon.io -->
<svg version="1.1" xmlns="http://www.w3.org/2000/svg" width="18" height="32" viewBox="0 0 18 32">
<title>ion-document-text</title>
<path d="M17.875 10.563c0.063 0.188 0.125 0.375 0.125 0.625v15.313c0 0.813-0.625 1.5-1.375 1.5h-15.188c-0.75 0-1.438-0.688-1.438-1.5v-21c0-0.813 0.688-1.5 1.438-1.5h10c0.188 0 0.375 0 0.563 0.125 0.125 0.063 0.313 0.188 0.438 0.313l5.25 5.75c0.125 0.125 0.125 0.25 0.188 0.375zM3 11.188v0.625c0 0.063 0.063 0.188 0.188 0.188h4.438c0.125 0 0.188-0.125 0.188-0.188v-0.625c0-0.125-0.063-0.188-0.188-0.188h-4.438c-0.125 0-0.188 0.063-0.188 0.188zM3 19.188v0.625c0 0.063 0.063 0.188 0.188 0.188h7.688c0.125 0 0.125-0.125 0.125-0.188v-0.625c0-0.125 0-0.188-0.125-0.188h-7.688c-0.125 0-0.188 0.063-0.188 0.188zM13 23.813v-0.625c0-0.125 0-0.188-0.125-0.188h-9.688c-0.125 0-0.188 0.063-0.188 0.188v0.625c0 0.063 0.063 0.188 0.188 0.188h9.688c0.125 0 0.125-0.125 0.125-0.188zM15 15.813v-0.625c0-0.125 0-0.188-0.125-0.188h-11.688c-0.125 0-0.188 0.063-0.188 0.188v0.625c0 0.063 0.063 0.188 0.188 0.188h11.688c0.125 0 0.125-0.125 0.125-0.188zM12.063 11.125h3.75l-4.438-4.875v4.125c0 0.375 0.313 0.75 0.688 0.75z"></path>
</svg>
