<!-- Generated by IcoMoon.io -->
<svg version="1.1" xmlns="http://www.w3.org/2000/svg" width="32" height="32" viewBox="0 0 32 32">
<title>ion-social-octocat</title>
<path d="M9.125 17.938c0.563 0 1 0.25 1.375 0.813s0.625 1.25 0.625 2-0.25 1.375-0.625 1.938-0.875 0.813-1.375 0.813c-0.563 0-1.063-0.25-1.438-0.813s-0.563-1.188-0.563-1.938 0.188-1.5 0.563-2c0.375-0.563 0.875-0.813 1.438-0.813zM18.938 17.938c0.563 0 1 0.25 1.375 0.813s0.563 1.25 0.563 2-0.188 1.375-0.563 1.938-0.813 0.813-1.375 0.813-1.125-0.25-1.5-0.813-0.563-1.188-0.563-1.938 0.188-1.5 0.563-2c0.375-0.563 0.938-0.813 1.5-0.813zM25.875 10.75c1.5 1.688 2.125 4.125 2.125 6 0 1.5-0.063 2.875-0.375 4.063-0.375 1.188-0.813 2.188-1.313 2.938-0.563 0.75-1.188 1.438-2 2s-1.5 1.063-2.125 1.313-1.375 0.5-2.25 0.625c-0.813 0.125-1.5 0.25-1.938 0.25 0 0-1.75 0.063-4 0.063s-4-0.063-4-0.063c-0.438 0-1.125-0.125-1.938-0.25-0.875-0.125-1.625-0.375-2.25-0.625s-1.375-0.75-2.125-1.313c-0.813-0.563-1.438-1.25-2-2-0.5-0.75-0.938-1.75-1.313-2.938-0.313-1.188-0.375-2.563-0.375-4.063 0-1.938 0.625-4.375 2.125-6 0 0-0.125-0.875 0-2.438s0.438-3 1-4.313c1.875 0.188 4.188 1.25 7 3.188 0.938-0.25 2.25-0.375 3.875-0.375 1.75 0 3 0.125 3.875 0.375 1.25-0.875 2.438-1.5 3.625-2.063 1.188-0.5 2.063-0.813 2.563-0.938s0.813-0.188 0.813-0.188c0.563 1.313 0.875 2.75 1 4.313s0 2.438 0 2.438v0zM21.75 25.375c1.75-0.813 2.625-2.5 2.625-5.063 0-1.5-0.5-2.688-1.625-3.688-0.563-0.563-1.25-0.813-2-0.938s-1.938-0.063-3.5 0.063-2.5 0.25-3.25 0.25-1.563-0.125-2.625-0.188-1.875-0.188-2.438-0.188c-0.625 0-1.25-0.063-1.938 0.125s-1.313 0.438-1.75 0.875c-1.063 0.938-1.563 2.188-1.563 3.688 0 2.563 0.813 4.25 2.563 5.063 1.688 0.813 4.313 1.125 7.688 1.125h0.125c3.375 0 5.938-0.313 7.688-1.125z"></path>
</svg>
