<!-- Generated by IcoMoon.io -->
<svg version="1.1" xmlns="http://www.w3.org/2000/svg" width="24" height="32" viewBox="0 0 24 32">
<title>ion-social-buffer-outline</title>
<path d="M0.438 10.25c-0.563-0.25-0.563-0.688 0-0.938l10.563-5.125c0.25-0.125 0.625-0.188 1-0.188s0.75 0.063 1 0.188l10.563 5.125c0.563 0.25 0.563 0.688 0 0.938l-10.563 5.125c-0.25 0.125-0.625 0.188-1 0.188s-0.75-0.063-1-0.188zM11.438 5.125l-9.75 4.688 9.75 4.688c0.125 0.063 0.313 0.063 0.563 0.063s0.438 0 0.563-0.063l9.75-4.688-9.75-4.688c-0.125-0.063-0.313-0.125-0.563-0.125s-0.438 0.063-0.563 0.125zM23.563 15.5c0.563 0.25 0.563 0.75 0 1l-10.563 5.063c-0.25 0.125-0.625 0.25-1 0.25s-0.75-0.125-1-0.25l-10.563-5.063c-0.563-0.25-0.563-0.75 0-1 0 0 1.688-0.813 2.063-1 0.313-0.188 0.438-0.188 0.813 0s7.688 3.75 7.688 3.75c0.25 0.125 0.625 0.188 1 0.188s0.75-0.063 1-0.188c0 0 7.563-3.688 7.813-3.813s0.313-0.125 0.563 0 2.188 1.063 2.188 1.063zM12.563 20.688l9.75-4.688-1.188-0.563-7.688 3.688c-0.375 0.188-0.938 0.313-1.438 0.313s-1.063-0.125-1.438-0.313l-7.688-3.688-1.188 0.563 9.75 4.688c0.125 0.063 0.313 0.125 0.563 0.125s0.438-0.063 0.563-0.125zM23.563 21.75c0.563 0.25 0.563 0.688 0 0.938l-10.563 5.125c-0.25 0.125-0.625 0.188-1 0.188s-0.75-0.063-1-0.188l-10.563-5.125c-0.563-0.25-0.563-0.688 0-0.938 0 0 1.688-0.875 2.063-1.063 0.313-0.188 0.438-0.125 0.813 0.063s7.688 3.688 7.688 3.688c0.25 0.125 0.625 0.188 1 0.188s0.75-0.063 1-0.188c0 0 7.563-3.625 7.813-3.75s0.313-0.125 0.563 0 2.188 1.063 2.188 1.063zM12.563 26.875l9.75-4.688-1.188-0.563-7.688 3.75c-0.375 0.188-0.938 0.25-1.438 0.25s-1.063-0.063-1.438-0.25l-7.688-3.75-1.188 0.563 9.75 4.688c0.125 0.063 0.313 0.125 0.563 0.125s0.438-0.063 0.563-0.125z"></path>
</svg>
