<!-- Generated by IcoMoon.io -->
<svg version="1.1" xmlns="http://www.w3.org/2000/svg" width="26" height="32" viewBox="0 0 26 32">
<title>ion-chatbubble-working</title>
<path d="M13 28.063c-7.188 0-13-5.563-13-12.5s5.813-12.563 13-12.563 13 5.625 13 12.563c0 2.5-0.75 4.813-2.063 6.75-0.063 0.063-0.125 0.188-0.188 0.25v0c-0.125 0.25-0.25 0.625-0.25 0.938l1.375 5.5-5.25-1.938c-0.25-0.125-0.5-0.125-0.75-0.125s-0.438 0.063-0.688 0.125v0c-0.063 0-0.063 0.063-0.125 0.063-1.563 0.625-3.25 0.938-5.063 0.938zM19 14c-1.125 0-2 0.875-2 2s0.875 2 2 2 2-0.875 2-2-0.875-2-2-2zM13 14c-1.125 0-2 0.875-2 2s0.875 2 2 2 2-0.875 2-2-0.875-2-2-2zM7 14c-1.125 0-2 0.875-2 2s0.875 2 2 2 2-0.875 2-2-0.875-2-2-2z"></path>
</svg>
