<!-- Generated by IcoMoon.io -->
<svg version="1.1" xmlns="http://www.w3.org/2000/svg" width="8" height="32" viewBox="0 0 8 32">
<title>ion-spoon</title>
<path d="M8 10c0-4-1.625-8-4-8s-4 4-4 8v0c0.063 1.563 1 3.375 2.313 4l0.063 0.063c0.188 0.125 0.625 0.375 0.625 0.625 0 0-1 12.438-1 13.125s0.25 1.25 0.625 1.625 0.875 0.563 1.375 0.563v0 0c0.5 0 1-0.188 1.375-0.563s0.625-0.813 0.625-1.625-1-13.125-1-13.125c0-0.25 0.438-0.5 0.625-0.625l0.063-0.063c1.375-0.625 2.313-2.375 2.313-4z"></path>
</svg>
