<!-- Generated by IcoMoon.io -->
<svg version="1.1" xmlns="http://www.w3.org/2000/svg" width="24" height="32" viewBox="0 0 24 32">
<title>ion-social-tux</title>
<path d="M11.813 6.313c0.125-0.125-0.063 0.063 0 0 0.125-0.125 0.25-0.25 0.375-0.313-0.188 0.125-0.313 0.25-0.438 0.5 0-0.063 0-0.125 0.063-0.188zM22.563 24.75c0.438 0.25 1.438 0.688 1.313 1.375-0.125 0.625-1.063 0.938-1.5 1.188-0.938 0.5-1.75 0.875-2.563 1.563-0.563 0.5-1.063 0.938-1.813 1.063-0.688 0.125-1.563 0.063-2.063-0.5-0.313-0.313-0.438-0.688-0.938-0.75-1.563-0.313-3.375-0.25-4.938 0-0.813 0.125-1.313 0.688-2 1.063-0.625 0.313-1.25 0.313-1.875 0.063-0.813-0.313-1.688-0.625-2.563-0.813s-1.813-0.313-2.688-0.563c-1.938-0.5-0.313-1.875-0.688-3.125-0.188-0.75-0.625-1.813 0.5-1.875 0.563-0.063 1.688 0.063 1.938-0.688 0.125-0.438-0.125-0.938 0.125-1.375s-0.063-1.063 0.063-1.563c0.25-1.125 1.188-2 1.563-3.063 0.313-0.875 0.5-1.563 1.125-2.313 0.563-0.688 1.375-1.375 1.813-2.125 0.625-1.125 0.563-2.188 0.5-3.438-0.063-1.063-0.063-2.063-0.125-3.125 0-2.063 1.25-3.75 3.625-3.75h0.875c2.375 0 3.938 2 4 4.313 0 1.188-0.313 2.375 0.313 4.188 0.938 1.688 2.25 3 3.25 4.563 0.625 1 1 1.938 1.25 3.063 0.188 0.875 0.563 1.938 0.438 2.813-0.063 0.375-0.125 0.563-0.25 0.688 0.188 0.063 0.438 0.125 0.563 0.313 0.188 0.25 0.125 0.688 0 1.625-0.063 0.5 0.313 0.938 0.75 1.188zM8.563 28.188c0.125-1.25-0.938-2.438-1.563-3.5-0.625-1-1.313-2.688-2.438-3.25-0.5-0.25-1.188-0.313-1.438 0.313-0.125 0.438 0 1.188-0.125 1.375-0.25 0.563-0.875 0.625-1.438 0.688-0.375 0-1.063 0-1.063 0.5 0.063 0.625 0.625 1.25 0.438 1.875-0.125 0.438-0.5 0.75-0.5 1.188 0 0.875 2.375 0.938 2.938 1.063 1.188 0.25 2.313 0.875 3.563 1 0.75 0.063 1.563-0.438 1.625-1.25zM15.813 24.125c-0.125-0.625 0.125 0.625 0 0s-0.313-1.75 0.063-2.188c0.25-0.313 0.625-0.375 1.063-0.313 0-0.25 0.063-0.563 0.188-0.75 0.5-0.813 1.813-0.5 2.438 0l-0.063-0.125c-0.188-0.25-0.5-0.563-0.813-0.625 0 0 0.25-0.75 0.125-2.125-0.25-2.5-2.063-3.875-2.063-3.875 1.688 1.875 1.688 3.625 1.688 4.5 0 0.375-0.063 1.125-0.25 1.5-0.25 0.063-0.438 0.125-0.688 0.25-0.625 0.313-0.5-0.125-0.5-0.625 0-1.125-0.125-2.25-0.438-3.375-0.188-0.563-0.438-1.063-0.813-1.5-0.25-0.313-0.25-0.563-0.313-0.938-0.188-0.75-0.563-1.375-1-2-0.438-0.563-0.438-1.063-0.313-1.75 0.063-0.438 0.125-0.875-0.375-1.063-0.375-0.125-1.625-0.313-1.688-0.875-0.063-0.375-0.063-1 0.313-1.25 1-0.875 1.875 0.688 1.063 1.5-0.188 0.188 0.438 0.25 0.5 0.25 0.25-0.063 0.25-0.438 0.313-0.625 0.063-0.25 0.063-0.563 0.063-0.813 0-1.063-1.125-2-2.125-1.313-0.375 0.25-0.563 0.688-0.625 1.063 0 0.125-0.063 1.25 0 1.25-0.25 0-0.438-0.313-0.688-0.313-0.188 0-0.438 0-0.625 0.063 0 0 0.125-0.875-0.125-1.375-0.25-0.563-1.125-1-1.5-0.25s-0.188 1.563 0 1.938 0.25 0.375 0.25 0.375c0.125-0.063 0.313-0.25 0.313-0.25s-0.375-0.188-0.438-0.688c-0.063-0.563 0.188-0.875 0.438-0.938s0.625 0.125 0.75 0.5 0 0.813 0 0.813c-0.438 0.375-1.875 1.125-1.375 1.75 0.875 1.125 2.063 0.938 3.25 0.563 0.5-0.188 1.125-0.313 1.5-0.75 0.188-0.188 0.688-0.125 0.5 0.25-0.125 0.313-1.125 0.438-1.375 0.563-0.563 0.25-1.125 0.5-1.75 0.625-0.375 0.063-0.813 0.313-1.75-0.563 0.438 0.375 0.5 1 1.063 1.25 0.813 0.375 2.063-0.563 2.75-0.938 0.063-0.063 1-0.313 0.875 0-0.063 0.25-0.688 0.438-0.938 0.563-0.688 0.375-1.438 1.313-2.25 1.375-0.5 0.063-1.313-1-1.563-1.375-0.063-0.063-0.313-0.563-0.375-0.25-0.063 0.5 0.125 0.875-0.188 1.313-0.375 0.563-0.688 1.125-0.813 1.813-0.063 0.375 0 0.688-0.188 1-0.688 0.938-1.063 2.063-1.188 3.188 0 0.25 0.188 2.688-0.313 2.563-1.125-0.313-1.063-2.063-0.875-2.938-0.188 0.75-0.5 1.875 0.125 2.75 0.75 0.938 6.188 3.438 3.313 5 0.438 0.875 0.875 1.563 0.75 2.563 0.5-0.438 0.125-1.25-0.063-1.75 0 0 1.063 0.75 2.375 0.625 1.063-0.125 2-0.438 2.875-1 0.375-0.25 0.688-0.563 1-0.875 0.063-0.125 0.25-0.375 0.375-0.438l0.063 0.688c0.125 1.063-0.75 1.688-0.625 2.125 0.25-0.5 0.688-0.875 0.813-1.5 0.188-0.75 0-1.5-0.125-2.25zM9.688 7.813v0 0.188c0.125 0 0.125-0.313 0.063-0.5-0.063-0.25-0.188-0.375-0.25-0.375h-0.125c0.188 0.125 0.313 0.375 0.313 0.688zM13.125 7.063c0.188 0.125 0 0 0 0 0.188 0.125 0.313 0.313 0.313 0.625v0.188c0.125 0 0.188-0.25 0.125-0.438s-0.188-0.375-0.313-0.375h-0.125zM21.688 27.063c1.5-0.688-1.5 0.625 0 0 1.5-0.688 2.188-1.063 1.25-1.625-1.063-0.625-1.625-0.813-1.625-1.813 0-0.313 0.25-1 0.125-1.375-0.063-0.25-0.375-0.313-0.563-0.313-0.625 0.625-1.063 1.563-2.125 1.563-0.875 0-1.563-0.688-1.75-1.5-0.25-0.125-0.625-0.063-0.813 0.25-0.375 0.75 0.063 1.813 0.188 2.563 0.125 1.125-0.25 2.188-0.125 3.313 0.125 1.313 1.625 1.375 2.5 0.813 1-0.625 1.813-1.375 2.938-1.875z"></path>
</svg>
