<!-- Generated by IcoMoon.io -->
<svg version="1.1" xmlns="http://www.w3.org/2000/svg" width="32" height="32" viewBox="0 0 32 32">
<title>ion-social-codepen</title>
<path d="M13.063 19c0.063 0.063 0.188 0.188 0.188 0.25v3.313s-3.875-2.563-5.813-3.875l2.438-1.625c0.125-0.063 0.188-0.063 0.313 0 0.938 0.625 1.938 1.313 2.875 1.938zM10.188 15.063c-0.063 0.063-0.188 0.063-0.25 0-0.813-0.563-1.625-1.063-2.5-1.625 1.938-1.313 5.813-3.875 5.813-3.875v3.188c0 0.125-0.125 0.313-0.188 0.375-0.938 0.625-1.938 1.313-2.875 1.938zM14.875 13.063c-0.063-0.063-0.125-0.125-0.125-0.188v-3.375l5.813 3.938-2.5 1.625c-0.063 0.063-0.188 0.063-0.25 0-1-0.688-1.938-1.313-2.938-2zM14.125 14.375c0.375 0.25 2.5 1.688 2.5 1.688l-2.438 1.625c-0.125 0.063-0.25 0.063-0.375 0l-2.438-1.625s1.063-0.688 1.563-1.063c0.313-0.188 0.563-0.375 0.875-0.563 0.063-0.063 0.25-0.125 0.313-0.063zM6.813 14.813l1.875 1.25-1.875 1.25v-2.5zM14 2c7.75 0 14 6.25 14 14s-6.25 14-14 14-14-6.25-14-14 6.25-14 14-14zM22.688 18.563v-5.063c0-0.375-0.125-0.563-0.438-0.75-2.563-1.688-5.188-3.438-7.75-5.125-0.375-0.25-0.688-0.25-1.063 0-2.563 1.688-5.063 3.375-7.625 5.063-0.313 0.188-0.5 0.5-0.5 0.875v5c0 0.375 0.188 0.625 0.5 0.813 2.563 1.688 5.063 3.438 7.625 5.125 0.375 0.25 0.688 0.25 1.063 0 2.563-1.688 5.125-3.438 7.688-5.125 0.313-0.188 0.5-0.438 0.5-0.813zM17.75 17.063c0.125-0.125 0.313-0.125 0.438 0l2.375 1.625-5.813 3.875v-3.188c0-0.188 0.063-0.25 0.188-0.375 0.938-0.625 1.875-1.313 2.813-1.938zM21.125 17.313l-1.875-1.25 1.875-1.25v2.5z"></path>
</svg>
