<!-- Generated by IcoMoon.io -->
<svg version="1.1" xmlns="http://www.w3.org/2000/svg" width="26" height="32" viewBox="0 0 26 32">
<title>ion-android-hand</title>
<path d="M25.063 17.125c0.938 0.938 1.125 2.25 0.188 3.188 0 0-6 6.438-7.875 7.563v0c-1.75 1.313-4.063 2.125-6.25 2.125-3.438 0-6.313-2.25-7.313-5.313v0-0.063c0-0.063-0.063-0.125-0.063-0.188l-3.625-11.813c-0.313-0.938 0.125-2 1.063-2.313s1.875 0.188 2.188 1.125l2.125 5.5c0.063 0.25 0.125 0.125 0.125-0.063l-1.375-10.063c-0.188-0.938 0.438-1.875 1.375-2.063s1.875 0.5 2.063 1.438l1.563 8.625c0 0.125 0.125 0.125 0.125 0v-11.063c0-0.938 0.813-1.75 1.75-1.75s1.75 0.813 1.75 1.75l0.5 10.938c0 0.313 0.188 0.25 0.25 0.063l1.438-8.438c0.125-0.938 1-1.688 1.938-1.563s1.688 1.063 1.563 2l-1.313 10.75c-0.063 0.75-0.188 1.875 0.125 2.25 0.5 0.563 1.25 0.563 1.938-0.125l2.625-2.625c0.938-0.938 2.188-0.813 3.125 0.125z"></path>
</svg>
