<!-- Generated by IcoMoon.io -->
<svg version="1.1" xmlns="http://www.w3.org/2000/svg" width="26" height="32" viewBox="0 0 26 32">
<title>ion-email</title>
<path d="M1.188 9.313c-0.25-0.125-0.688-0.438-0.813-0.688-0.188-0.5 0.063-0.625 0.75-0.625h23.875c0.688 0 0.938 0.125 0.75 0.625-0.125 0.25-0.563 0.563-0.813 0.688-0.688 0.375-10.188 5.563-10.563 5.75s-0.75 0.25-1.313 0.25-0.938-0.063-1.313-0.25-9.875-5.375-10.563-5.75zM25.5 9.563c0.563-0.25 0.5 0.063 0.5 0.313v12.813c0 0.563-0.75 1.313-1.375 1.313h-23.125c-0.625 0-1.5-0.75-1.5-1.313v-12.813s0-0.563 0.563-0.313c0.5 0.25 5.188 3.5 8.25 5.5l-5.188 5.813c-0.125 0.125-0.125 0.25-0.063 0.313s0.25 0.063 0.375-0.063l6.125-5.188c0.938 0.625 1.563 1 1.688 1.063 0.5 0.25 0.875 0.25 1.313 0.25s0.813 0 1.313-0.25c0.125-0.063 0.75-0.438 1.688-1.063l6.125 5.188c0.125 0.125 0.313 0.125 0.375 0.063s0-0.188-0.125-0.313l-5.125-5.813c3.063-2 7.688-5.25 8.188-5.5z"></path>
</svg>
