<!-- Generated by IcoMoon.io -->
<svg version="1.1" xmlns="http://www.w3.org/2000/svg" width="18" height="32" viewBox="0 0 18 32">
<title>ion-ios-lightbulb</title>
<path d="M18 10.813c0 1.938-0.813 3.688-1.875 5.188v0c-0.688 0.938-1.375 1.75-2 2.813-1.375 2.375-1.125 4.563-1.125 5.125v0.063h-2v-8l2-4h-1l-2 4v8h-2v-8l-1.938-4h-1.063l2 4v8h-2v-0.063c0-0.438 0.188-2.75-1.188-5.125-0.625-1.063-1.25-1.875-1.938-2.813v0c-1.063-1.5-1.875-3.25-1.875-5.188 0-4.875 4.125-8.813 9-8.813s9 3.938 9 8.813zM7 30v-1h4v1h-4zM6 28v-1h6v1h-6zM6 26v-1h6v1h-6z"></path>
</svg>
