<!-- Generated by IcoMoon.io -->
<svg version="1.1" xmlns="http://www.w3.org/2000/svg" width="32" height="32" viewBox="0 0 32 32">
<title>ion-transgender</title>
<path d="M23 0h9v9h-2.5v-4.75l-6.313 6.25c0.5 1.063 0.813 2.25 0.813 3.5 0 3.938-2.875 7.188-6.5 7.875v3.25h4.5v2.875h-4.5v4h-3v-4h-4.5v-2.875h4.5v-3.25c-3.688-0.688-6.5-3.938-6.5-7.875 0-1.25 0.313-2.438 0.813-3.5l-1.375-1.375-2.25 2.25-2.063-2.063 2.25-2.25-2.875-2.813v4.75h-2.5v-9h9v2.5h-4.375l2.688 2.625 2.25-2.25 2.063 2.063-2.25 2.25 1.063 1.063c1.438-1.375 3.375-2.25 5.563-2.25 1.688 0 3.313 0.5 4.625 1.438 0 0 0.375 0.313 0.938 0.813l5.813-5.75h-4.375v-2.5zM16 19c2.75 0 5-2.25 5-5s-2.25-5-5-5-5 2.25-5 5 2.25 5 5 5z"></path>
</svg>
