<!-- Generated by IcoMoon.io -->
<svg version="1.1" xmlns="http://www.w3.org/2000/svg" width="32" height="32" viewBox="0 0 32 32">
<title>ion-planet</title>
<path d="M6 16.625c2.438 1.5 5.313 3 8.375 4.313 2.75 1.188 5.438 2.188 7.875 2.875-1.688 1.375-3.875 2.188-6.25 2.188-5.313 0-9.688-4.125-10-9.375zM6.688 12.313c0.063-0.25 0.188-0.5 0.313-0.688 0.625-1.313 1.625-2.5 2.75-3.438 1.688-1.375 3.875-2.188 6.25-2.188 5.313 0 9.688 4.125 10 9.375v0.625c0 1.313-0.25 2.563-0.688 3.688-0.063 0.25-0.188 0.5-0.313 0.688-0.375-0.063-0.813-0.188-1.188-0.313-2.438-0.688-5.125-1.625-7.875-2.813-3.5-1.5-6.75-3.25-9.25-4.938zM26.875 17.813c3.563 2.188 5.438 3.875 5.063 5.125-0.25 0.75-1.188 1.063-2.75 1.063-3.125 0-8.5-1.438-14.438-4-8.813-3.813-15.375-8.75-14.688-10.938 0.25-0.75 1.25-1.25 2.75-1.063 1.375 0.188 2.938 0.563 4.563 1.125-0.5 0.563-0.5 0.75-0.875 1.375-1.438-0.313-2.75-0.5-3.688-0.5h-0.375c0.125 0.125 0.313 0.375 0.5 0.563 0.688 0.688 1.688 1.5 2.875 2.313 2.563 1.813 6.063 3.688 9.75 5.313 2.75 1.188 5.563 2.188 8 2.875 2.25 0.625 4.25 0.938 5.625 0.938h0.375c-0.125-0.125-0.313-0.375-0.5-0.563-0.625-0.625-1.5-1.375-2.563-2.125 0.25-0.688 0.313-0.75 0.375-1.5z"></path>
</svg>
