<!-- Generated by IcoMoon.io -->
<svg version="1.1" xmlns="http://www.w3.org/2000/svg" width="32" height="32" viewBox="0 0 32 32">
<title>ion-ios-analytics-outline</title>
<path d="M14 3c-1.75 0-3.438 0.313-5.063 1-1.563 0.625-2.938 1.625-4.125 2.813s-2.188 2.563-2.813 4.125c-0.688 1.625-1 3.313-1 5.063s0.313 3.438 1 5.063c0.625 1.563 1.625 2.938 2.813 4.125s2.563 2.188 4.125 2.813c1.625 0.688 3.313 1 5.063 1s3.438-0.313 5.063-1c1.563-0.625 2.938-1.625 4.125-2.813s2.188-2.563 2.813-4.125c0.688-1.625 1-3.313 1-5.063s-0.313-3.438-1-5.063c-0.625-1.563-1.625-2.938-2.813-4.125s-2.563-2.188-4.125-2.813c-1.625-0.688-3.313-1-5.063-1zM14 2v0c7.75 0 14 6.25 14 14s-6.25 14-14 14-14-6.25-14-14 6.25-14 14-14zM4.75 20c-1.563 0-2.563-1.125-2.625-1.188-0.188-0.188-0.125-0.563 0.063-0.75s0.5-0.125 0.688 0.063c0.063 0.063 0.938 1.063 2.25 0.875 0.75-0.125 1.688-1.625 2.375-2.625 0.25-0.375 0.563-0.75 0.75-1 1.063-1.313 2.125-1.438 2.813-1.313 1.5 0.188 2.813 1.75 3.375 3.125 0.438 1.125 1.125 1.75 2 1.813 0.938 0.063 1.938-0.688 2.688-1.875 0.063-0.125 0.188-0.25 0.25-0.438 0.563-1.063 1.5-2.688 3.25-2.688 1.938 0 3.25 2.188 3.313 2.25 0.125 0.25 0.063 0.563-0.188 0.688s-0.563 0.063-0.688-0.188c0 0-0.313-0.5-0.75-0.938-0.375-0.375-1-0.813-1.688-0.813-1.125 0-1.813 1.188-2.375 2.188-0.063 0.188-0.188 0.313-0.25 0.438-0.938 1.563-2.25 2.5-3.625 2.375-1.25-0.063-2.25-0.938-2.875-2.438s-1.75-2.438-2.563-2.563c-0.688-0.063-1.313 0.25-1.938 1-0.188 0.25-0.375 0.563-0.625 0.938-0.875 1.25-1.938 2.813-3.125 3-0.188 0-0.313 0.063-0.5 0.063z"></path>
</svg>
