<!-- Generated by IcoMoon.io -->
<svg version="1.1" xmlns="http://www.w3.org/2000/svg" width="26" height="32" viewBox="0 0 26 32">
<title>ion-ios-refresh-outline</title>
<path d="M19.75 16v0h1.25c0 4.438-3.563 8-8 8s-8-3.563-8-8 3.563-8 8-8v-2.75l6 4-6 3.5v-3.5c-3.75 0-6.75 3-6.75 6.75s3 6.75 6.75 6.75 6.75-3 6.75-6.75zM13 3c7.188 0 13 5.813 13 13s-5.813 13-13 13-13-5.813-13-13 5.813-13 13-13zM13 27.938c6.563 0 11.938-5.375 11.938-11.938s-5.375-11.938-11.938-11.938-11.938 5.375-11.938 11.938 5.375 11.938 11.938 11.938z"></path>
</svg>
