<!-- Generated by IcoMoon.io -->
<svg version="1.1" xmlns="http://www.w3.org/2000/svg" width="32" height="32" viewBox="0 0 32 32">
<title>ion-ios-game-controller-b</title>
<path d="M6.438 12.813c0.688 0 1.188 0.5 1.188 1.188s-0.5 1.188-1.188 1.188-1.188-0.5-1.188-1.188 0.5-1.188 1.188-1.188zM27.125 15.563c1.313 5.5 1.125 9.5-0.438 10.25-0.25 0.125-0.563 0.188-0.813 0.188-1.375 0-2.813-1.5-4.25-3.25-1.625-2-2-2.063-6.875-2.063h-1.5c-4.875 0-5.25 0.063-6.875 2.063-1.438 1.75-2.875 3.25-4.25 3.25-0.25 0-0.563-0.063-0.813-0.188-1.563-0.75-1.75-4.75-0.438-10.25s2.688-8.5 5.5-9.313c0.625-0.188 1.125-0.25 1.625-0.25 1.75 0 2.938 0.938 6 0.938s4.25-0.938 6-0.938c0.5 0 1 0.063 1.625 0.25 2.813 0.813 4.188 3.813 5.5 9.313zM6.438 16.5c1.375 0 2.438-1.125 2.438-2.5s-1.063-2.5-2.438-2.5-2.438 1.125-2.438 2.5 1.063 2.5 2.438 2.5zM17.25 15.25c0.688 0 1.25-0.563 1.25-1.25s-0.563-1.25-1.25-1.25-1.25 0.563-1.25 1.25 0.563 1.25 1.25 1.25zM20 18c0.688 0 1.25-0.563 1.25-1.25s-0.563-1.25-1.25-1.25-1.25 0.563-1.25 1.25 0.563 1.25 1.25 1.25zM20 12.5c0.688 0 1.25-0.563 1.25-1.25s-0.563-1.25-1.25-1.25-1.25 0.563-1.25 1.25 0.563 1.25 1.25 1.25zM22.75 15.25c0.688 0 1.25-0.563 1.25-1.25s-0.563-1.25-1.25-1.25-1.25 0.563-1.25 1.25 0.563 1.25 1.25 1.25z"></path>
</svg>
