<!-- Generated by IcoMoon.io -->
<svg version="1.1" xmlns="http://www.w3.org/2000/svg" width="32" height="32" viewBox="0 0 32 32">
<title>ion-image</title>
<path d="M21 14c-1.625 0-3-1.375-3-3s1.375-3 3-3 3 1.375 3 3-1.375 3-3 3zM26.25 4c1 0 1.75 0.75 1.75 1.75v20.5c0 1-0.75 1.75-1.75 1.75h-24.5c-1 0-1.75-0.75-1.75-1.75v-20.5c0-1 0.75-1.75 1.75-1.75h24.5zM19.813 16.375l6.188 6.625v-16.25c0-0.438-0.375-0.75-0.813-0.75h-22.375c-0.438 0-0.75 0.313-0.813 0.75v16.25l7.875-9.5c0.25-0.25 0.625-0.5 1.063-0.5s0.813 0.125 1.063 0.438l3.375 3.688 0.25 0.25c0.188 0.125 0.438 0.25 0.688 0.25s0.5-0.125 0.75-0.313l1.125-1c0.25-0.188 0.5-0.313 0.813-0.313s0.625 0.125 0.813 0.375z"></path>
</svg>
