<!-- Generated by IcoMoon.io -->
<svg version="1.1" xmlns="http://www.w3.org/2000/svg" width="24" height="32" viewBox="0 0 24 32">
<title>ion-ios-partlysunny</title>
<path d="M9 9.375v-3.375h1v3.375h-1zM0 16v-1h3.438v1h-3.438zM2.75 9.313l0.625-0.688 2 2-0.688 0.688zM13.938 11.25l-0.688-0.688 2-2 0.688 0.688zM3.5 22l-0.625-0.688 1.938-1.938 0.688 0.688zM14.688 14v0c2.313 0 4.25 1.625 4.75 3.813h0.5c2.25 0 4.063 1.813 4.063 4.063s-1.813 4.125-4.063 4.125h-9.813c-1.75 0-3.25-1.5-3.25-3.313 0-1.688 1.313-3.188 2.938-3.313v-0.5c0-2.688 2.188-4.875 4.875-4.875zM12.563 12.25l0.063 0.125c-1.938 0.313-3.875 2.688-3.875 4.688 0 0.125 0.063 0.313 0.063 0.438l-0.063 0.063h-0.063c-0.688 0.375-1.125 0.875-1.375 1.625v0c-1.438-0.75-2.438-2.25-2.438-3.938 0-2.438 2-4.438 4.438-4.438 1.313 0 2.438 0.563 3.25 1.438z"></path>
</svg>
