<!-- Generated by IcoMoon.io -->
<svg version="1.1" xmlns="http://www.w3.org/2000/svg" width="26" height="32" viewBox="0 0 26 32">
<title>ion-android-cart</title>
<path d="M7.625 23.625c1.438 0 2.563 1.125 2.563 2.563s-1.125 2.625-2.563 2.625-2.625-1.188-2.625-2.625 1.188-2.563 2.625-2.563zM0 3.188h4.25l1.188 2.625h19.25c0.688 0 1.313 0.563 1.313 1.25 0 0.25-0.063 0.5-0.125 0.625l-4.688 8.063c-0.438 0.875-1.25 1.375-2.25 1.375h-9.688l-1.313 2s-0.125 0.313-0.125 0.375c0 0.188 0.125 0.313 0.313 0.313h14.875v2.5h-15.188c-1.625 0-2.813-0.875-2.813-2.625 0-0.438 0.125-0.938 0.313-1.25l1.938-3.188-4.625-9.438h-2.625v-2.625zM20.375 23.625c1.438 0 2.625 1.125 2.625 2.563s-1.188 2.625-2.625 2.625-2.563-1.188-2.563-2.625 1.125-2.563 2.563-2.563z"></path>
</svg>
