<!-- Generated by IcoMoon.io -->
<svg version="1.1" xmlns="http://www.w3.org/2000/svg" width="32" height="32" viewBox="0 0 32 32">
<title>ion-ios-settings-strong</title>
<path d="M0 23.5h17.688c0.375-0.875 1.313-1.5 2.313-1.5s1.938 0.625 2.313 1.5h5.688v2h-5.688c-0.375 0.875-1.313 1.5-2.313 1.5s-1.938-0.625-2.313-1.5h-17.688zM0 15h5.688c0.375-0.875 1.313-1.5 2.313-1.5s1.938 0.625 2.313 1.5h17.688v2h-17.688c-0.375 0.875-1.313 1.5-2.313 1.5s-1.938-0.625-2.313-1.5h-5.688zM0 6.5h17.688c0.375-0.875 1.313-1.5 2.313-1.5s1.938 0.625 2.313 1.5h5.688v2h-5.688c-0.375 0.875-1.313 1.5-2.313 1.5s-1.938-0.625-2.313-1.5h-17.688z"></path>
</svg>
