<!-- Generated by IcoMoon.io -->
<svg version="1.1" xmlns="http://www.w3.org/2000/svg" width="22" height="32" viewBox="0 0 22 32">
<title>ion-clipboard</title>
<path d="M5 10c0.125-1.25 0.625-2.188 1.75-2.5l0.063-0.063c0.75-0.188 1.313-0.438 1.313-1.25v-1.313c0-1.625 1.313-2.875 2.875-2.875s2.875 1.25 2.875 2.875v1.313c0 0.813 0.563 1.125 1.313 1.313h0.125c1.125 0.313 1.563 1.25 1.688 2.5h-12zM11 4c-0.5 0-0.813 0.375-0.813 0.875s0.313 0.875 0.813 0.875 0.875-0.375 0.875-0.875-0.375-0.875-0.875-0.875zM20.313 4c0.938 0 1.688 0.75 1.688 1.75v22.5c0 1-0.75 1.75-1.688 1.75h-18.563c-0.938 0-1.75-0.75-1.75-1.75v-22.5c0-1 0.813-1.75 1.75-1.75h4.563v0.813c0 0.688-0.563 1.188-1.188 1.188h-2.313c-0.438 0-0.75 0.375-0.75 0.813v20.438c0 0.375 0.313 0.75 0.688 0.75h16.563c0.375 0 0.688-0.375 0.688-0.75v-20.438c0-0.438-0.313-0.813-0.75-0.813h-2.313c-0.625 0-1.25-0.5-1.25-1.188v-0.813h4.625zM4 14v-2h7v2h-7zM4 26v-2h10v2h-10zM4 22v-2h8.063v2h-8.063zM4 18v-2h13v2h-13z"></path>
</svg>
