<!-- Generated by IcoMoon.io -->
<svg version="1.1" xmlns="http://www.w3.org/2000/svg" width="24" height="32" viewBox="0 0 24 32">
<title>ion-android-call</title>
<path d="M22.688 20.688c0.75 0 1.313 0.563 1.313 1.313v4.688c0 0.75-0.563 1.313-1.313 1.313-12.563 0-22.688-10.125-22.688-22.688 0-0.75 0.563-1.313 1.313-1.313h4.688c0.75 0 1.313 0.563 1.313 1.313 0 1.688 0.25 3.25 0.813 4.813 0.125 0.438 0 1-0.313 1.313l-2.938 2.938c1.938 3.813 5 6.875 8.813 8.813l2.938-2.938c0.313-0.375 0.875-0.438 1.313-0.313 1.438 0.438 3.063 0.75 4.75 0.75z"></path>
</svg>
