<!-- Generated by IcoMoon.io -->
<svg version="1.1" xmlns="http://www.w3.org/2000/svg" width="16" height="32" viewBox="0 0 16 32">
<title>ion-ios-at</title>
<path d="M14.25 20v0h1.75c-0.063 0.063-0.125 0.25-0.188 0.375-0.25 0.375-0.875 1.188-1.438 1.688s-1.125 0.875-1.75 1.25-1.25 0.625-2 0.813c-0.688 0.188-1.438 0.313-2.125 0.313-1 0-2.063-0.188-3.063-0.5s-1.875-0.813-2.688-1.5c-0.75-0.625-1.625-1.75-2.125-2.875-0.438-1-0.625-2.063-0.625-3.625 0-1.188 0.25-2.438 0.688-3.438s1.063-1.875 1.813-2.625 1.75-1.313 2.75-1.75c0.938-0.375 2-0.563 3.25-0.563 1 0 1.938 0.188 2.875 0.5s1.75 0.75 2.438 1.375 1.125 1.375 1.563 2.25c0.375 0.875 0.5 1.625 0.5 2.75 0 0.875-0.125 1.75-0.438 2.5-0.25 0.688-0.563 1.25-1.063 1.875-0.438 0.563-0.875 1-1.5 1.375-0.75 0.375-1.313 0.563-1.875 0.563s-1-0.125-1.375-0.5c-0.125-0.063-0.188-0.188-0.25-0.313-0.25 0.25-0.563 0.375-0.875 0.5-0.625 0.188-1.125 0.313-1.688 0.313-0.5 0-1-0.125-1.438-0.313s-0.75-0.438-1.063-0.75-0.563-0.75-0.75-1.188-0.25-0.875-0.25-1.375c0-0.75 0.125-1.563 0.375-2.313l0.063-0.063c0.25-0.625 0.313-1.063 0.813-1.688 0.5-0.688 1.063-1.25 1.75-1.688 0.75-0.438 1.5-0.625 2.375-0.625 0.75 0 1.375 0.188 2.063 0.563 0.313 0.188 0.5 0.375 0.75 0.625l0.313-0.75h1.563l-2.438 6.5c-0.125 0.313-0.188 0.563-0.25 0.813-0.063 0.188-0.063 0.438-0.063 0.563s0 0.188 0.063 0.188c0 0 0.063 0.063 0.313 0.063 0.313 0 0.688-0.125 1.188-0.438 0.438-0.25 0.625-0.5 1-1s0.563-0.813 0.813-1.438 0.375-1.25 0.375-2c0-0.875-0.063-1.5-0.375-2.125-0.313-0.75-0.625-1.313-1.125-1.75-0.563-0.5-1.188-0.875-1.938-1.125s-1.625-0.438-2.5-0.438c-1.125 0-2 0.188-2.75 0.5-0.875 0.375-1.563 0.813-2.188 1.438s-1.125 1.375-1.5 2.188c-0.375 0.875-0.563 1.875-0.563 2.813 0 1.313 0.188 2.125 0.5 2.875 0.375 0.875 1 1.875 1.625 2.438s1.375 1 2.188 1.313c0.875 0.313 1.75 0.438 2.688 0.438 0.625 0 1.25-0.125 1.813-0.25s1.125-0.375 1.625-0.688 1.75-1.25 2.375-2.063zM9 18.188c0.25-0.313 0.438-0.75 0.625-1.188l1.25-3.438c-0.063-0.25-0.188-0.438-0.313-0.563-0.188-0.188-0.375-0.375-0.563-0.5h-0.125v-0.063c-0.188-0.125-0.313-0.125-0.5-0.188-0.25-0.063-0.5-0.063-0.75-0.063-0.563 0-1.063 0.125-1.563 0.438-0.625 0.375-1.063 0.875-1.313 1.313-0.313 0.5-0.375 0.688-0.563 1.188 0 0.063-0.063 0.125-0.063 0.188-0.188 0.625-0.375 1.188-0.375 1.75 0 0.313 0.063 0.625 0.188 0.875s0.25 0.5 0.438 0.688 0.438 0.375 0.688 0.5 0.5 0.125 0.813 0.125c0.25 0 0.5 0 0.75-0.063v0c0.25-0.063 0.438-0.125 0.688-0.313 0.188-0.125 0.438-0.313 0.688-0.688z"></path>
</svg>
