<!-- Generated by IcoMoon.io -->
<svg version="1.1" xmlns="http://www.w3.org/2000/svg" width="32" height="32" viewBox="0 0 32 32">
<title>ion-monitor</title>
<path d="M27.313 4c0.375 0 0.688 0.313 0.688 0.688v16.625c0 0.375-0.313 0.688-0.688 0.688h-26.625c-0.375 0-0.688-0.313-0.688-0.688v-16.625c0-0.375 0.313-0.688 0.688-0.688h26.625zM26 20v-14h-24v14h24zM16.875 28h-5.75c-1.75 0-2.625-0.188-1.875-0.75s1.875-1 1.875-1.438c0-0.25 0.063-2.813 0.063-2.813h5.625s0.063 2.563 0.063 2.813c0 0.438 1.125 0.875 1.875 1.438s-0.125 0.75-1.875 0.75z"></path>
</svg>
