<!-- Generated by IcoMoon.io -->
<svg version="1.1" xmlns="http://www.w3.org/2000/svg" width="20" height="32" viewBox="0 0 20 32">
<title>ion-ios-sunny</title>
<path d="M9.438 9.5v-3.5h1.125v3.5h-1.125zM9.438 26v-3.75h1.125v3.75h-1.125zM16.5 16.563v-1.125h3.5v1.125h-3.5zM0 16.563v-1.125h3.75v1.125h-3.75zM15 19.875l2.125 2.125-0.75 0.75-2.063-2.125zM4 8.875l2.125 2.063-0.75 0.75-2.125-2.125zM14.313 11l2.063-2.125 0.75 0.75-2.125 2.063zM3.25 22l2.125-2.125 0.688 0.75-2.063 2.125zM10 20.75c-2.625 0-4.75-2.125-4.75-4.75s2.125-4.75 4.75-4.75 4.75 2.125 4.75 4.75-2.125 4.75-4.75 4.75z"></path>
</svg>
