<!-- Generated by IcoMoon.io -->
<svg version="1.1" xmlns="http://www.w3.org/2000/svg" width="24" height="32" viewBox="0 0 24 32">
<title>ion-load-a</title>
<path d="M9 6c0-2.688 1.313-4 4-4s4 1.313 4 4-1.313 4-4 4-4-1.313-4-4zM0 16c0-2 1-3 3-3s3 1 3 3-1 3-3 3-3-1-3-3zM19.5 9c0-0.313 0.188-0.5 0.5-0.5s0.5 0.188 0.5 0.5-0.188 0.5-0.5 0.5-0.5-0.188-0.5-0.5zM8.25 6.75c0.625 0.625 0.938 1.375 0.938 2.25s-0.313 1.625-0.938 2.25-1.375 0.938-2.25 0.938-1.625-0.313-2.25-0.938-0.938-1.375-0.938-2.25 0.313-1.625 0.938-2.25 1.375-0.938 2.25-0.938 1.625 0.313 2.25 0.938zM22 16c0-0.688 0.313-1 1-1s1 0.313 1 1-0.313 1-1 1-1-0.313-1-1zM18.563 23.063c0-1 0.5-1.5 1.5-1.5s1.5 0.5 1.5 1.5-0.5 1.5-1.5 1.5-1.5-0.5-1.5-1.5zM11 26c0-1.313 0.688-2 2-2s2 0.688 2 2-0.688 2-2 2-2-0.688-2-2zM3.5 23c0-1.688 0.813-2.5 2.5-2.5s2.5 0.813 2.5 2.5-0.813 2.5-2.5 2.5-2.5-0.813-2.5-2.5z"></path>
</svg>
