<!-- Generated by IcoMoon.io -->
<svg version="1.1" xmlns="http://www.w3.org/2000/svg" width="32" height="32" viewBox="0 0 32 32">
<title>ion-happy</title>
<path d="M14 2c7.75 0 14 6.25 14 14s-6.25 14-14 14-14-6.25-14-14 6.25-14 14-14zM4.438 15.813c0.188 0.125 0.375 0.188 0.625 0.188 0.313 0 0.688-0.125 0.875-0.375s0.438-0.625 1.063-0.625 0.875 0.375 1.063 0.625 0.563 0.375 0.875 0.375c0.25 0 0.438-0.063 0.625-0.188 0.5-0.313 0.563-0.938 0.25-1.375-0.625-0.875-1.5-1.438-2.813-1.438s-2.063 0.563-2.75 1.438c-0.375 0.438-0.313 1 0.188 1.375zM22.625 19.438c0.25-0.5 0.063-1.063-0.438-1.313-0.125-0.063-0.25-0.125-0.438-0.125-0.375 0-0.688 0.188-0.875 0.5-1.125 2.188-3.813 3.5-6.875 3.5-3.125 0-5.875-1.313-6.875-3.438-0.188-0.375-0.5-0.563-0.875-0.563-0.125 0-0.313 0-0.438 0.063-0.5 0.25-0.75 0.813-0.5 1.313 1.313 2.813 4.813 4.625 8.688 4.625 3.75 0 7.125-1.688 8.625-4.563zM23.563 15.813c0.5-0.313 0.563-0.938 0.25-1.375-0.625-0.875-1.5-1.438-2.813-1.438s-2.063 0.563-2.75 1.438c-0.375 0.438-0.313 1 0.188 1.375 0.188 0.125 0.375 0.188 0.625 0.188 0.313 0 0.688-0.125 0.875-0.375s0.438-0.625 1.063-0.625 0.875 0.375 1.063 0.625 0.563 0.375 0.875 0.375c0.25 0 0.438-0.063 0.625-0.188z"></path>
</svg>
