<!-- Generated by IcoMoon.io -->
<svg version="1.1" xmlns="http://www.w3.org/2000/svg" width="32" height="32" viewBox="0 0 32 32">
<title>ion-social-freebsd-devil</title>
<path d="M31.438 7.188c1.188 2.313 0.5 5.063-1.25 6.75s-3.75 2.063-3.75 2.063c0.125 2 1 3.688-2.563 6.375-2.688 2 0.125 5.625 0.125 5.625 0.625 0.875 1.438 1.188 2 2h-17s0.938-0.875-0.438-2c0 0-1.25-1.063-1.125-1.813s0.375-0.813 0.563-0.938 0-0.438 0-0.438l-1.188-1.188s-0.813 0.813-2.75 0.813c-2.375 0-4.063-2.438-4.063-2.438h2.875s-0.375 0.5-0.438 0.813c-0.063 0.25 0.063 0.313 0.063 0.313s0.688 0.375 1.375 0.375c1.063 0 2.063-0.75 2.063-0.75l-1.5-1.375-0.938 0.25-1-2.313 2.438 0.625-0.063 0.938 1.75 1.125s0.563-0.563 0.438-1.688-0.563-1.625-0.563-1.625-0.25 0-0.563 0.25-0.375 0.375-0.375 0.375l-0.625-2.75s2.688 1.188 3.125 3.938c0.188 1.25-0.375 2.188-0.375 2.188l1.063 0.625s0.375-0.313 1.063-0.438 1.438-0.125 1.813 0.5 0.313 0.75 0.25 1.188 0 0.563 0.375 0.688 0.375 0.375 0.688 0.5 0.938 0.375 1.313 0.125 0.5-0.688 0.5-1.125v-1s-0.563-0.5-2-1.25-3.375-1.375-4.125-2.5-0.75-2.75 0-3.563c0.563-0.625 1.438-1.563 1.625-2.188 0.25-0.875 0.25-2.625 0.25-2.625s-0.625-1-0.5-2.5c0.125-1.875 1.375-5.25 6-7.125 0 0-2.5 3.438-1.25 5 0 0 2.313-0.688 4.813-0.563 1.938 0.125 3.5 0.75 4.563 1.75s1.563 1.438 2.938 1.063 1.75-1.063 1.75-2.063c0-1.188-1-3.188-1-3.188s2.25 0.438 3.625 3.188zM12.188 12.688c0.875-0.25 1.313 0.688 1.313 0.688 0.875-1.563 1.875-3.75 1.375-4s-4 1.563-4.125 5.5c0 0 0.375-1.938 1.438-2.188zM14.5 13.625c0.313-0.438 2.125-0.5 2.313 1.063 0.25 2.188-1.5 3.563-1.5 3.563s0.438 0.125 1.438-0.125c1.063-0.25 2.688-1.813 2.688-4.375s-1.313-4.125-2.563-3.875-2.375 3.75-2.375 3.75z"></path>
</svg>
