<!-- Generated by IcoMoon.io -->
<svg version="1.1" xmlns="http://www.w3.org/2000/svg" width="18" height="32" viewBox="0 0 18 32">
<title>ion-ios-location-outline</title>
<path d="M9 3c-2.125 0-4.188 0.813-5.688 2.313s-2.313 3.563-2.313 5.688c0 2.688 1.5 6.688 4.375 11.625 1.375 2.375 2.75 4.5 3.625 5.688 0.875-1.188 2.25-3.313 3.625-5.688 2.875-4.938 4.375-8.938 4.375-11.625 0-2.125-0.813-4.188-2.313-5.688s-3.563-2.313-5.688-2.313zM9 2v0c5 0 9 4 9 9 0 7-9 19-9 19s-9-12-9-19c0-5 4-9 9-9zM9 7c2.188 0 4 1.813 4 4s-1.813 4-4 4-4-1.813-4-4 1.813-4 4-4zM9 13.938c1.625 0 2.938-1.313 2.938-2.938s-1.313-2.938-2.938-2.938-2.938 1.313-2.938 2.938 1.313 2.938 2.938 2.938z"></path>
</svg>
