<!-- Generated by IcoMoon.io -->
<svg version="1.1" xmlns="http://www.w3.org/2000/svg" width="20" height="32" viewBox="0 0 20 32">
<title>ion-calculator</title>
<path d="M19 2c0.563 0 1 0.438 1 1v26c0 0.563-0.438 1-1 1h-18c-0.563 0-1-0.438-1-1v-26c0-0.563 0.438-1 1-1h18zM3 13v2h2v-2h-2zM3 17v2h2v-2h-2zM3 21v2h2v-2h-2zM9 27v-2h-6v2h6zM9 23v-2h-2v2h2zM9 19v-2h-2v2h2zM9 15v-2h-2v2h2zM13 27v-2h-2v2h2zM13 23v-2h-2v2h2zM13 19v-2h-2v2h2zM13 15v-2h-2v2h2zM17 27v-6h-2v6h2zM17 19v-2h-2v2h2zM17 15v-2h-2v2h2zM17 10v-5h-14v5h14z"></path>
</svg>
