<!-- Generated by IcoMoon.io -->
<svg version="1.1" xmlns="http://www.w3.org/2000/svg" width="32" height="32" viewBox="0 0 32 32">
<title>ion-xbox</title>
<path d="M5.938 15.5c-3.063 4.5-3.125 8.688-3.125 8.938-1.75-2.375-2.813-5.25-2.813-8.438 0-4.188 1.875-8 4.813-10.563l0.188 0.063c3.188 1.125 5.813 4.25 5.813 4.25s-2.375 2.063-4.875 5.75zM28 16c0 3.188-1.063 6.063-2.813 8.438 0-0.25-0.063-4.438-3.125-8.938-2.5-3.688-4.875-5.75-4.875-5.75s2.625-3.125 5.813-4.25l0.188-0.063c2.938 2.563 4.813 6.375 4.813 10.563zM10.563 5.063c-2.313-1.063-4.063-0.75-4.5-0.625 2.25-1.563 5-2.438 7.938-2.438s5.688 0.875 7.938 2.438c-0.438-0.125-2.188-0.375-4.5 0.625-1.813 0.813-3.438 2.188-3.438 2.188s-1.625-1.375-3.438-2.188zM20.438 18.313c2.5 3.063 3.375 5.313 3.875 6.75l0.125 0.313c-2.563 2.875-6.313 4.625-10.438 4.625s-7.875-1.75-10.438-4.625l0.063-0.313c0.5-1.438 1.438-3.688 3.938-6.75 2.875-3.563 6.438-5.875 6.438-5.875s3.563 2.313 6.438 5.875z"></path>
</svg>
