<!-- Generated by IcoMoon.io -->
<svg version="1.1" xmlns="http://www.w3.org/2000/svg" width="32" height="32" viewBox="0 0 32 32">
<title>ion-backspace</title>
<path d="M31.188 5.875c0.563 0.563 0.813 1.25 0.813 2.063v16c0 1.688-1.25 3.063-2.875 3.063h-18.625c-0.813 0-1.5-0.188-2.125-0.563-0.563-0.313-1-0.688-1.438-1.25v0l-0.063-0.063-6.875-9.125 6.875-9.25c0.875-1.188 2.125-1.75 3.625-1.75h18.625c0.813 0 1.5 0.313 2.063 0.875zM25.813 20.75l-4.75-4.75 4.813-4.75c0.188-0.188 0.188-0.563 0-0.75l-1.375-1.375c-0.125-0.125-0.25-0.125-0.375-0.125s-0.25 0-0.375 0.125l-4.75 4.75-4.75-4.75c-0.125-0.125-0.25-0.125-0.375-0.125s-0.25 0-0.375 0.125l-1.375 1.375c-0.188 0.188-0.188 0.563 0 0.75l4.813 4.75-4.75 4.75c-0.125 0.125-0.188 0.25-0.188 0.375s0.063 0.25 0.188 0.375l1.313 1.375c0.125 0.125 0.25 0.125 0.375 0.125s0.25 0 0.375-0.125l4.75-4.813 4.75 4.813c0.125 0.125 0.25 0.125 0.375 0.125s0.25 0 0.375-0.125l1.313-1.375c0.125-0.125 0.188-0.25 0.188-0.375s-0.063-0.25-0.188-0.375z"></path>
</svg>
