<!-- Generated by IcoMoon.io -->
<svg version="1.1" xmlns="http://www.w3.org/2000/svg" width="32" height="32" viewBox="0 0 32 32">
<title>ion-flash-off</title>
<path d="M7.188 28.25c-4.313-2.375-7.188-7-7.188-12.25 0-7.75 6.25-14 14-14 1.5 0 2.938 0.25 4.25 0.688 0.125 0.063 0.188 0.063 0.313 0.125 0.75 0.25 1.5 0.563 2.188 0.938v0c4.313 2.375 7.25 7 7.25 12.25 0 7.75-6.25 14-14 14-1.5 0-2.938-0.25-4.25-0.688-0.125-0.063-0.188-0.063-0.313-0.125-0.75-0.25-1.5-0.5-2.188-0.875zM5.375 9.813c-1.25 1.75-2 3.875-2 6.188 0 4.063 2.25 7.563 5.625 9.375 0.375 0.188 0.813 0.438 1.188 0.563 0.125 0.063 0.188 0.063 0.313 0.125 0.563 0.188 1.188 0.313 1.813 0.438 0.563 0.125 1.125 0.125 1.688 0.125 2.313 0 4.438-0.75 6.188-2l-3.25-3.313 2.25-2.5 3.438 3.375c1.25-1.75 2-3.875 2-6.188 0-4.125-2.313-7.688-5.688-9.438-0.375-0.188-0.75-0.375-1.125-0.5-0.125-0.063-0.188-0.063-0.313-0.125-0.563-0.188-1.188-0.313-1.813-0.438-0.563-0.125-1.125-0.125-1.688-0.125-2.313 0-4.5 0.75-6.25 2l3.313 3.25-2.25 2.563zM11.125 24.375l2.375-7.063h-5.313l8.688-9.688-2.375 7.063h5.313z"></path>
</svg>
