<!-- Generated by IcoMoon.io -->
<svg version="1.1" xmlns="http://www.w3.org/2000/svg" width="24" height="32" viewBox="0 0 24 32">
<title>ion-ios-cart</title>
<path d="M6 25c0.813 0 1.5 0.688 1.5 1.5s-0.688 1.5-1.5 1.5-1.5-0.688-1.5-1.5 0.688-1.5 1.5-1.5zM20 25c0.813 0 1.5 0.688 1.5 1.5s-0.688 1.5-1.5 1.5-1.5-0.688-1.5-1.5 0.688-1.5 1.5-1.5zM24 8l-1 8-16.938 3 0.313 1.875c0.438 2.125 1.313 2.125 1.625 2.125h15v1h-15c-0.688 0-1.313-0.313-1.75-0.875-0.375-0.5-0.688-1.188-0.813-2.063l-2.688-14.625c-0.125-0.5-0.188-0.75-0.438-1-0.375-0.313-1.125-0.438-2.313-0.438v-1c1.438 0 2.375 0.25 2.938 0.688 0.438 0.375 0.625 0.875 0.75 1.313z"></path>
</svg>
