<!-- Generated by IcoMoon.io -->
<svg version="1.1" xmlns="http://www.w3.org/2000/svg" width="24" height="32" viewBox="0 0 24 32">
<title>ion-android-share-alt</title>
<path d="M20 21.5c2.125 0 3.875 1.75 3.875 3.875s-1.75 3.875-3.875 3.875-3.875-1.75-3.875-3.875c0-0.313 0.063-0.625 0.125-0.875l-9.5-5.5c-0.75 0.688-1.688 1.063-2.75 1.063-2.188 0-4-1.813-4-4s1.75-4 3.938-4c1.063 0 2 0.375 2.75 1.063l9.438-5.438c-0.063-0.313-0.125-0.625-0.125-0.938 0-2.188 1.813-4 4-4s4 1.813 4 4-1.813 4-4 4c-1.063 0-2-0.375-2.75-1.063l-9.438 5.438c0.063 0.313 0.125 0.625 0.125 0.938s-0.063 0.625-0.125 0.938l9.563 5.5c0.688-0.688 1.625-1 2.625-1z"></path>
</svg>
