<!-- Generated by IcoMoon.io -->
<svg version="1.1" xmlns="http://www.w3.org/2000/svg" width="26" height="32" viewBox="0 0 26 32">
<title>ion-chatbox-working</title>
<path d="M4.75 25c-2.625 0-4.75-1.938-4.75-4.438v-13.063c0-2.5 2.125-4.5 4.75-4.5h16.5c2.625 0 4.75 2 4.75 4.5v13.063c0 2.5-2.125 4.438-4.75 4.438h-0.25v4s-4.938-3.375-5.375-3.688-0.438-0.313-1.313-0.313h-9.563zM19 12c-1.125 0-2 0.875-2 2s0.875 2 2 2 2-0.875 2-2-0.875-2-2-2zM13 12c-1.125 0-2 0.875-2 2s0.875 2 2 2 2-0.875 2-2-0.875-2-2-2zM7 12c-1.125 0-2 0.875-2 2s0.875 2 2 2 2-0.875 2-2-0.875-2-2-2z"></path>
</svg>
