<!-- Generated by IcoMoon.io -->
<svg version="1.1" xmlns="http://www.w3.org/2000/svg" width="10" height="32" viewBox="0 0 10 32">
<title>ion-paperclip</title>
<path d="M9.313 9.688c0.375 0 0.688 0.313 0.688 0.75v12.188c0 1.75-0.625 3.063-1.5 3.938-0.938 0.938-2.25 1.438-3.5 1.438-2.5 0-5-1.938-5-5.5v-14.625c0-1.5 0.688-2.75 1.813-3.375s2.438-0.688 3.563 0 1.813 1.875 1.813 3.375l-0.063 14.063c0 0.813-0.188 1.5-0.563 2s-1 0.75-1.563 0.75c-1.063 0-2.125-0.938-2.125-2.75v-10.813c0-0.375 0.375-0.75 0.75-0.75s0.688 0.375 0.688 0.75v10.813c0 0.875 0.313 1.313 0.688 1.313 0.125 0 0.313-0.125 0.438-0.25 0.188-0.25 0.313-0.625 0.313-1.063v-14.063c0-0.938-0.375-1.75-1.063-2.125s-1.5-0.375-2.188 0-1.063 1.188-1.063 2.125v14.625c0 2.75 1.813 4 3.563 4s3.563-1.188 3.563-3.938v-12.188c0-0.375 0.375-0.688 0.75-0.688z"></path>
</svg>
