<!-- Generated by IcoMoon.io -->
<svg version="1.1" xmlns="http://www.w3.org/2000/svg" width="30" height="32" viewBox="0 0 30 32">
<title>ion-ios-recording-outline</title>
<path d="M23.125 9c3.813 0 6.875 3.125 6.875 7s-3.063 7-6.875 7h-16.25c-3.813 0-6.875-3.125-6.875-7s3.063-7 6.875-7 6.875 3.125 6.875 7c0 2.5-1.313 4.688-3.313 5.938h9.125c-2-1.25-3.313-3.438-3.313-5.938 0-3.875 3.063-7 6.875-7zM1 16c0 3.313 2.625 5.938 5.875 5.938s5.813-2.625 5.813-5.938-2.563-5.938-5.813-5.938-5.875 2.625-5.875 5.938zM23.125 21.938c3.25 0 5.875-2.625 5.875-5.938s-2.625-5.938-5.875-5.938-5.813 2.625-5.813 5.938 2.563 5.938 5.813 5.938zM23 13c-1.625 0-3 1.375-3 3s1.375 3 3 3 3-1.375 3-3-1.375-3-3-3zM23 12v0c2.188 0 4 1.813 4 4s-1.813 4-4 4-4-1.813-4-4 1.813-4 4-4zM7 13c-1.625 0-3 1.375-3 3s1.375 3 3 3 3-1.375 3-3-1.375-3-3-3zM7 12v0c2.188 0 4 1.813 4 4s-1.813 4-4 4-4-1.813-4-4 1.813-4 4-4z"></path>
</svg>
