<!-- Generated by IcoMoon.io -->
<svg version="1.1" xmlns="http://www.w3.org/2000/svg" width="32" height="32" viewBox="0 0 32 32">
<title>ion-ios-time-outline</title>
<path d="M14 2c7.75 0 14 6.25 14 14s-6.25 14-14 14-14-6.25-14-14 6.25-14 14-14zM23.188 25.188c1.188-1.188 2.188-2.563 2.813-4.125 0.688-1.625 1-3.313 1-5.063s-0.313-3.438-1-5.063c-0.625-1.563-1.625-2.938-2.813-4.125s-2.563-2.188-4.125-2.813c-1.625-0.688-3.313-1-5.063-1s-3.438 0.313-5.063 1c-1.563 0.625-2.938 1.625-4.125 2.813s-2.188 2.563-2.813 4.125c-0.688 1.625-1 3.313-1 5.063s0.313 3.438 1 5.063c0.625 1.563 1.625 2.938 2.813 4.125s2.563 2.188 4.125 2.813c1.625 0.688 3.313 1 5.063 1s3.438-0.313 5.063-1c1.563-0.625 2.938-1.625 4.125-2.813zM13.5 5c0-0.313 0.188-0.5 0.5-0.5s0.5 0.188 0.5 0.5-0.188 0.5-0.5 0.5-0.5-0.188-0.5-0.5zM13.5 27c0-0.313 0.188-0.5 0.5-0.5s0.5 0.188 0.5 0.5-0.188 0.5-0.5 0.5-0.5-0.188-0.5-0.5zM24.5 16c0-0.313 0.188-0.5 0.5-0.5s0.5 0.188 0.5 0.5-0.188 0.5-0.5 0.5-0.5-0.188-0.5-0.5zM2.5 16c0-0.313 0.188-0.5 0.5-0.5s0.5 0.188 0.5 0.5-0.188 0.5-0.5 0.5-0.5-0.188-0.5-0.5zM8 6.5c0-0.313 0.188-0.5 0.5-0.5s0.5 0.188 0.5 0.5-0.188 0.5-0.5 0.5-0.5-0.188-0.5-0.5zM19 25.5c0-0.313 0.188-0.5 0.5-0.5s0.5 0.188 0.5 0.5-0.188 0.5-0.5 0.5-0.5-0.188-0.5-0.5zM23 10.5c0-0.313 0.188-0.5 0.5-0.5s0.5 0.188 0.5 0.5-0.188 0.5-0.5 0.5-0.5-0.188-0.5-0.5zM4 21.5c0-0.313 0.188-0.5 0.5-0.5s0.5 0.188 0.5 0.5-0.188 0.5-0.5 0.5-0.5-0.188-0.5-0.5zM4 10.5c0-0.313 0.188-0.5 0.5-0.5s0.5 0.188 0.5 0.5-0.188 0.5-0.5 0.5-0.5-0.188-0.5-0.5zM23 21.5c0-0.313 0.188-0.5 0.5-0.5s0.5 0.188 0.5 0.5-0.188 0.5-0.5 0.5-0.5-0.188-0.5-0.5zM19 6.5c0-0.313 0.188-0.5 0.5-0.5s0.5 0.188 0.5 0.5-0.188 0.5-0.5 0.5-0.5-0.188-0.5-0.5zM8 25.5c0-0.313 0.188-0.5 0.5-0.5s0.5 0.188 0.5 0.5-0.188 0.5-0.5 0.5-0.5-0.188-0.5-0.5zM14.875 15.5c0.25 0.5 0.125 1.125-0.375 1.375v7.625c0 0.25-0.25 0.5-0.5 0.5s-0.5-0.25-0.5-0.5v-7.625c-0.125-0.063-0.25-0.25-0.375-0.375-0.188-0.313-0.188-0.688 0-1l-2.313-3.938c-0.125-0.25-0.063-0.563 0.188-0.688s0.5-0.063 0.625 0.188l2.375 3.938c0.313 0 0.688 0.188 0.875 0.5z"></path>
</svg>
