<!-- Generated by IcoMoon.io -->
<svg version="1.1" xmlns="http://www.w3.org/2000/svg" width="14" height="32" viewBox="0 0 14 32">
<title>ion-ios-pint-outline</title>
<path d="M14 10.625c0 6.125-2 6.313-2 11.313 0 2.5 1 4.438 1 6.188 0 1.688-0.563 1.875-2 1.875h-8c-1.438 0-2-0.125-2-1.813 0-1.75 1-3.75 1-6.25 0-5-2-5.188-2-11.313 0-1.313 0.063-5.563 1.188-7.813 0.25-0.563 0.813-0.813 2-0.813h7.625c1.188 0 1.75 0.25 2 0.813 1.125 2.25 1.188 6.5 1.188 7.813zM2.125 3.25c-0.5 1-0.875 2.688-1.063 4.75h11.875c-0.188-2.063-0.563-3.75-1.063-4.75-0.063-0.125-0.063-0.063-0.125-0.125-0.125-0.063-0.375-0.125-0.938-0.125h-7.625c-0.563 0-0.813 0.063-0.938 0.125-0.063 0.063-0.063 0-0.125 0.125zM11.938 28.938c0-0.063 0.063-0.313 0.063-0.813 0-0.688-0.25-1.438-0.438-2.313-0.25-1.125-0.563-2.438-0.563-3.875 0-2.563 0.5-4 1-5.375 0.5-1.438 1-2.875 1-5.938 0-0.563-0.063-1.125-0.063-1.625h-11.875c0 0.5-0.063 1.063-0.063 1.625 0 3.063 0.5 4.5 1 5.938 0.5 1.375 1 2.813 1 5.375 0 1.438-0.313 2.75-0.563 3.875-0.188 0.875-0.438 1.625-0.438 2.313 0 0.5 0.063 0.75 0.063 0.813 0.125 0.063 0.438 0.063 0.938 0.063h8c0.5 0 0.813 0 0.938-0.063z"></path>
</svg>
