<!-- Generated by IcoMoon.io -->
<svg version="1.1" xmlns="http://www.w3.org/2000/svg" width="22" height="32" viewBox="0 0 22 32">
<title>ion-ribbon-a</title>
<path d="M17 2l5 6-4 8.375c-1.5-1.875-3.688-3.063-6.188-3.313zM5 2l5.188 11.063c-2.5 0.25-4.688 1.438-6.188 3.313l-4-8.375zM11.813 2h4.188l-3.313 7h-3.375l-3.313-7h5.813zM11 14c4.438 0 8 3.563 8 8s-3.563 8-8 8-8-3.563-8-8 3.563-8 8-8zM11 28c3.313 0 6-2.688 6-6s-2.688-6-6-6-6 2.688-6 6 2.688 6 6 6zM11 16.5c3.063 0 5.5 2.438 5.5 5.5s-2.438 5.5-5.5 5.5-5.5-2.438-5.5-5.5 2.438-5.5 5.5-5.5z"></path>
</svg>
