<!-- Generated by IcoMoon.io -->
<svg version="1.1" xmlns="http://www.w3.org/2000/svg" width="20" height="32" viewBox="0 0 20 32">
<title>ion-waterdrop</title>
<path d="M10.938 2.438c2.5 2.563 9.063 10 9.063 18 0 5.313-4.5 9.563-10 9.563-3.5 0-6.625-1.688-8.375-4.313-0.375-0.563-0.688-1.188-0.938-1.813-0.438-1.063-0.688-2.188-0.688-3.438v-0.25c0.063-4.188 1.938-8.188 4-11.438 1.25-1.938 2.625-3.563 3.688-4.813 0.563-0.625 1-1.125 1.375-1.5l0.063-0.063c0.25-0.188 0.5-0.375 0.875-0.375 0.313 0 0.625 0.188 0.875 0.375v0zM10 26.5c3.438 0 6.25-2.813 6.25-6.25 0-0.875-0.188-1.75-0.5-2.5-1.063 4.063-4.375 7.25-8.5 8.125 0.813 0.375 1.75 0.625 2.75 0.625z"></path>
</svg>
