<!-- Generated by IcoMoon.io -->
<svg version="1.1" xmlns="http://www.w3.org/2000/svg" width="32" height="32" viewBox="0 0 32 32">
<title>ion-social-pinterest-outline</title>
<path d="M14 2c7.75 0 14 6.25 14 14s-6.25 14-14 14-14-6.25-14-14 6.25-14 14-14zM22.5 24.5c2.25-2.25 3.5-5.313 3.5-8.5s-1.25-6.25-3.5-8.5-5.313-3.5-8.5-3.5-6.25 1.25-8.5 3.5-3.5 5.313-3.5 8.5 1.25 6.25 3.5 8.5c0.875 0.875 1.938 1.563 3 2.125 0.063-0.375 0.125-0.625 0.188-1 0.25-1.125 1.813-7.625 1.813-7.625s-0.5-0.938-0.5-2.25c0-2.063 1.25-3.625 2.75-3.625 1.25 0 1.875 1 1.875 2.125 0 1.25-0.813 3.188-1.25 4.938-0.375 1.5 0.75 2.688 2.188 2.688 2.625 0 4.438-3.375 4.438-7.438 0-3.063-2.063-5.313-5.813-5.313-4.25 0-6.875 3.125-6.875 6.688 0 1.25 0.375 2.063 0.938 2.75 0.25 0.313 0.313 0.375 0.188 0.75-0.063 0.25-0.25 0.875-0.313 1.125-0.125 0.375-0.375 0.5-0.688 0.375-1.938-0.813-2.875-3-2.875-5.375 0-4 3.375-8.75 10-8.75 5.375 0 8.875 3.938 8.875 8.063 0 5.5-3.063 9.563-7.563 9.563-1.5 0-2.938-0.813-3.438-1.75 0 0-0.75 3.25-0.938 3.875-0.125 0.375-0.25 0.813-0.438 1.188 0.938 0.25 1.938 0.375 2.938 0.375 3.188 0 6.25-1.25 8.5-3.5z"></path>
</svg>
