<!-- Generated by IcoMoon.io -->
<svg version="1.1" xmlns="http://www.w3.org/2000/svg" width="15" height="32" viewBox="0 0 15 32">
<title>ion-android-attach</title>
<path d="M12.688 8h2v14.688c0 4.063-3.313 7.313-7.375 7.313s-7.313-3.25-7.313-7.313v-15.375c0-2.938 2.375-5.313 5.313-5.313s5.375 2.375 5.375 5.313v15.375c0 1.875-1.5 3.313-3.375 3.313s-3.313-1.438-3.313-3.313v-12.688h2v12.688c0 0.75 0.563 1.313 1.313 1.313s1.375-0.563 1.375-1.313v-15.375c0-1.875-1.5-3.313-3.375-3.313s-3.313 1.438-3.313 3.313v15.375c0 2.938 2.375 5.313 5.313 5.313s5.375-2.375 5.375-5.313v-14.688z"></path>
</svg>
