<!-- Generated by IcoMoon.io -->
<svg version="1.1" xmlns="http://www.w3.org/2000/svg" width="12" height="32" viewBox="0 0 12 32">
<title>ion-ios-wineglass</title>
<path d="M6.5 19.313v9.688h4.5v1h-10v-1h4.5v-9.688c0-1.375-1.25-2.438-2.5-3.438-0.5-0.375-1-0.813-1.375-1.188-1.688-1.75-1.625-3.25-1.625-4.438v-0.25c0-2.75 1.938-7.813 2-8h8c0.063 0.188 2 5.25 2 8v0.25c0 1.188 0.063 2.688-1.625 4.438-0.375 0.375-0.875 0.813-1.375 1.188-1.25 1-2.5 2.063-2.5 3.438zM2.688 3c-0.313 1-1.25 3.938-1.563 6h9.75c-0.313-2.063-1.25-5-1.563-6h-6.625z"></path>
</svg>
