<!-- Generated by IcoMoon.io -->
<svg version="1.1" xmlns="http://www.w3.org/2000/svg" width="20" height="32" viewBox="0 0 20 32">
<title>ion-social-usd</title>
<path d="M19.688 18.938c0.188 0.625 0.313 1.188 0.313 1.813 0 1.313-0.313 2.375-0.875 3.313s-1.25 1.625-2.188 2.188-1.938 1.063-3.125 1.313c-0.625 0.125-1.188 0.188-1.813 0.25v2.188h-4v-2.188c-0.563-0.063-1.188-0.25-1.75-0.375-1.25-0.313-2.25-0.75-3.188-1.438s-1.625-1.5-2.188-2.563c-0.5-1-0.813-2.125-0.875-3.438h4.313c0 0.75 0.125 1.5 0.438 2.063 0.313 0.625 0.75 1.063 1.313 1.438s1.25 0.688 1.938 0.875v-7.5c-0.5-0.125-1.125-0.25-1.688-0.375-1.063-0.25-1.875-0.563-2.563-1s-1.25-0.938-1.688-1.438-0.688-1.063-0.875-1.625-0.25-1.125-0.25-1.75c0-1.125 0.25-2.125 0.75-3s1.188-1.563 2.063-2.125 1.813-1 2.875-1.25c0.438-0.125 0.938-0.188 1.375-0.25v-2.063h4v2.063c0.563 0.063 1 0.25 1.5 0.375 1.125 0.313 2.125 0.75 3 1.375s1.563 1.375 2.063 2.313c0.438 0.813 0.688 1.75 0.75 2.875h-4.313c-0.188-1.313-0.75-2.313-1.625-2.875-0.438-0.25-0.813-0.5-1.375-0.625v6.625c0.563 0.125 1 0.25 1.563 0.375 0.75 0.188 1.375 0.375 1.688 0.438 0.813 0.25 1.438 0.563 2.063 0.938 0.625 0.438 1.125 0.875 1.5 1.375s0.688 1.063 0.875 1.688zM8 13.125v-5.75c-0.438 0.125-0.938 0.25-1.313 0.438-0.438 0.25-0.75 0.563-1.063 0.938s-0.438 0.875-0.438 1.438c0 0.813 0.25 1.5 0.813 1.938 0.5 0.438 1.25 0.75 2 1zM15.438 22.438c0.188-0.438 0.25-0.813 0.25-1.25 0-0.875-0.188-1.5-0.625-1.938s-0.938-0.688-1.438-0.875-1-0.313-1.625-0.5v6.688c0.375-0.063 0.625-0.125 0.875-0.188 0.688-0.188 1.25-0.5 1.688-0.813s0.688-0.688 0.875-1.125z"></path>
</svg>
