<!-- Generated by IcoMoon.io -->
<svg version="1.1" xmlns="http://www.w3.org/2000/svg" width="32" height="32" viewBox="0 0 32 32">
<title>ion-social-whatsapp</title>
<path d="M14.25 2c7.563 0 13.75 6.063 13.75 13.625s-6.188 13.625-13.75 13.625c-2.438 0-4.625-0.625-6.625-1.688l-7.625 2.438 2.5-7.313c-1.25-2.063-2-4.5-2-7.063 0-7.563 6.188-13.625 13.75-13.625zM21.063 20.813c0.313-0.813 0.375-1.5 0.313-1.625s-0.313-0.25-0.688-0.438-2-1.125-2.313-1.25-0.563-0.125-0.813 0.188-1 1.063-1.188 1.313-0.375 0.25-0.75 0.063-1.438-0.625-2.75-1.875c-1-0.938-1.688-2.063-1.875-2.438s0-0.563 0.188-0.75c0.188-0.125 0.375-0.375 0.563-0.563s0.25-0.313 0.375-0.563 0.063-0.438 0-0.625-0.75-1.938-1-2.625-0.625-0.688-0.813-0.688h-0.625s-0.625 0.125-0.938 0.438-1.313 1.188-1.375 2.875 1.125 3.375 1.313 3.625 2.313 4 5.813 5.5 3.563 1.063 4.188 1 2.063-0.75 2.375-1.563z"></path>
</svg>
