<!-- Generated by IcoMoon.io -->
<svg version="1.1" xmlns="http://www.w3.org/2000/svg" width="28" height="32" viewBox="0 0 28 32">
<title>ion-social-reddit</title>
<path d="M28.063 15.688c0 1.25-0.688 2.313-1.688 2.813 0.063 0.313 0.063 0.563 0.063 0.875 0 4.75-5.563 8.625-12.438 8.625s-12.375-3.813-12.375-8.563c0-0.313 0-0.625 0.063-0.938-1-0.5-1.688-1.563-1.688-2.813 0-1.75 1.438-3.125 3.125-3.125 0.813 0 1.5 0.313 2.063 0.813 2.063-1.438 4.938-2.438 8.063-2.563h0.125l1.938-6.438 5.625 1.125c0.5-0.875 1.375-1.5 2.438-1.5v0h0.063c1.563 0 2.75 1.25 2.75 2.813s-1.188 2.813-2.75 2.813h-0.063c-1.438 0-2.625-1.063-2.75-2.5l-4.188-0.875-1.375 4.625c3.063 0.188 5.813 1.063 7.813 2.5 0.563-0.5 1.313-0.813 2.125-0.813 1.688 0 3.063 1.375 3.063 3.125zM2.125 16.938c0.313-0.938 0.938-1.813 1.813-2.563-0.25-0.188-0.563-0.313-0.938-0.313-0.875 0-1.563 0.688-1.563 1.563 0 0.563 0.25 1.063 0.688 1.313zM22.375 6.813c0 0.563 0.438 1.063 1 1.063s1.063-0.5 1.063-1.063-0.5-1.063-1.063-1.063-1 0.5-1 1.063zM7.938 18c0 1.125 0.875 2 2 2s2-0.875 2-2-0.875-1.938-2-1.938-2 0.813-2 1.938zM14 25c3 0 4.813-1.813 4.875-1.875l-0.813-0.75s-1.563 1.5-4.063 1.5c-2.563 0-4-1.5-4-1.5l-0.813 0.75c0.063 0.063 1.813 1.875 4.813 1.875zM18.188 20c1.125 0 2-0.875 2-2s-0.875-1.938-2-1.938-2 0.813-2 1.938 0.875 2 2 2zM25.938 17c0.438-0.313 0.688-0.813 0.688-1.375 0-0.875-0.688-1.563-1.563-1.563-0.375 0-0.688 0.125-0.938 0.313 0.875 0.75 1.5 1.688 1.813 2.625z"></path>
</svg>
