<!-- Generated by IcoMoon.io -->
<svg version="1.1" xmlns="http://www.w3.org/2000/svg" width="26" height="32" viewBox="0 0 26 32">
<title>ion-heart-broken</title>
<path d="M11.313 18c0 2.25-0.125 4.438 0.25 6.688 0.125 0.625 0.125 1.25 0.125 1.938l-9.563-9.938c-2.813-2.938-2.813-7.75 0-10.688 2.5-2.563 6.438-2.688 9-0.188-0.125 0.938-0.188 1.938-0.188 2.875-1.125 0.875-2.5 1.313-3.5 2.438l0.688-0.438c1.063-0.688 0.938-0.5 2.188-0.875 0.188-0.063 0.5-0.188 0.688-0.313 0 0.063-0.063 0.313-0.063 0.375 0.063 1.25 0.688 2.438 0.938 3.75 0 0.313 0.063 0.625-0.063 0.938-0.5 1.063-0.438 2.313-0.5 3.438zM17.125 18.813c0.5 1.125 1.438 1.813 2.375 2.438l-6.5 6.75-1.063-1.125c0-0.813-0.25-1.625-0.25-2.375-0.125-3 0.625-5.875 1.313-8.875v0c0.063 0.063 0.125 0.063 0.188 0.063 1.875 0.375 3.25 1.5 3.938 3.125zM23.875 6c2.875 2.938 2.875 7.75 0 10.688l-4.25 4.375c-1.75-1.5-2.625-3.375-4.063-5.063-0.75-0.813-1.625-1.438-2.563-2-0.188-0.813-0.5-1.625-0.688-2.438-0.188-0.75 0.875-1.313 1-1.938 0.188-0.75 0.188-1.625 0.188-2.438l1.188-1.188c2.5-2.625 6.688-2.625 9.188 0z"></path>
</svg>
