<!-- Generated by IcoMoon.io -->
<svg version="1.1" xmlns="http://www.w3.org/2000/svg" width="24" height="32" viewBox="0 0 24 32">
<title>ion-ios-shuffle-strong</title>
<path d="M18.813 9.5c-5.313 0-7.438 4-9.5 7.875-0.063 0.188-0.188 0.313-0.25 0.5l-0.063 0.063c-0.125 0.188-0.125 0.313-0.25 0.5-1.313 2.375-2.688 4.25-4.25 5.188-0.938 0.563-2.125 1.125-4.5 1.125v-2c2.813 0 4.75-1.125 7-5.25 0.125-0.188 0.125-0.375 0.25-0.563h0.063c0.063-0.125 0.188-0.25 0.25-0.438 2.125-4 4.75-9 11.25-9h0.938l-3.25-2.688 1.313-1.563 6.188 5.25-6.188 5.125-1.313-1.5 3.188-2.625h-0.875zM17.813 18.375l6.188 5.125-6.188 5.25-1.313-1.563 3.25-2.688h-0.938c-4.875 0-7.625-2.813-9.563-5.938l1.125-2.063c1.813 3.188 4 6 8.438 6h0.875l-3.188-2.625zM7 14.5c-2.25-4.125-4.188-5.25-7-5.25v-2c2.375 0 3.563 0.563 4.5 1.125 1.563 0.938 2.938 2.75 4.188 5.063-0.438 0.688-0.813 1.375-1.188 2.063-0.063-0.125-0.125-0.313-0.188-0.438h-0.063c-0.125-0.188-0.125-0.375-0.25-0.563z"></path>
</svg>
