<!-- Generated by IcoMoon.io -->
<svg version="1.1" xmlns="http://www.w3.org/2000/svg" width="32" height="32" viewBox="0 0 32 32">
<title>ion-log-in</title>
<path d="M14 2c7.75 0 14 6.25 14 14s-6.25 14-14 14c-6 0-11.063-3.75-13.063-9h2.125c0.563 1.25 1.438 2.5 2.438 3.5 2.25 2.25 5.313 3.5 8.5 3.5s6.25-1.25 8.5-3.5 3.5-5.313 3.5-8.5-1.25-6.25-3.5-8.5-5.313-3.5-8.5-3.5-6.25 1.25-8.5 3.5c-1 1-1.875 2.25-2.438 3.5h-2.125c2-5.25 7.063-9 13.063-9zM10.938 20.25l3.25-3.25h-14.188v-2h14.188l-3.25-3.25 1.375-1.438 5.688 5.688-5.688 5.688z"></path>
</svg>
