<!-- Generated by IcoMoon.io -->
<svg version="1.1" xmlns="http://www.w3.org/2000/svg" width="32" height="32" viewBox="0 0 32 32">
<title>ion-at</title>
<path d="M26.375 25.438c-1.5 1.563-3.25 2.688-5.313 3.438s-4.313 1.125-6.563 1.125c-2.188 0-4.125-0.375-5.938-1.063s-3.313-1.625-4.563-2.875-2.25-2.688-2.938-4.438-1.063-3.625-1.063-5.625 0.375-3.875 1.125-5.563 1.813-3.188 3.125-4.438 2.875-2.188 4.625-2.938c1.75-0.688 3.625-1.063 5.625-1.063 1.75 0 3.438 0.25 5.063 0.75s3.063 1.25 4.313 2.25 2.25 2.25 3 3.75 1.125 3.313 1.125 5.313c0 1.5-0.188 2.875-0.625 4s-1 2.125-1.688 2.875-1.5 1.375-2.375 1.75-1.813 0.625-2.813 0.625-1.813-0.25-2.438-0.75-0.938-1.063-0.938-1.813h-0.188c-0.375 0.625-0.938 1.188-1.75 1.75s-1.75 0.813-2.875 0.813c-1.75 0-3.063-0.563-4-1.688s-1.438-2.625-1.438-4.438c0-1.063 0.188-2.125 0.563-3.125s0.875-1.938 1.5-2.75 1.438-1.438 2.375-1.938 1.938-0.75 3.063-0.75c0.938 0 1.688 0.25 2.375 0.625 0.625 0.375 1.125 0.938 1.313 1.5h0.063l0.313-1.5h3.375l-1.5 7.063c-0.063 0.375-0.125 0.75-0.188 1.188s-0.125 0.813-0.125 1.188c0 0.438 0.063 0.813 0.25 1.125s0.438 0.438 0.938 0.438c1 0 1.813-0.563 2.438-1.625s1-2.5 1-4.25c0-1.5-0.25-2.813-0.75-4s-1.25-2.125-2.125-2.938-2-1.438-3.25-1.813-2.563-0.563-4.063-0.563c-1.625 0-3.063 0.25-4.375 0.813s-2.438 1.375-3.375 2.375-1.688 2.125-2.188 3.5c-0.5 1.313-0.813 2.75-0.813 4.313 0 1.625 0.25 3.188 0.813 4.5s1.313 2.438 2.313 3.375 2.188 1.688 3.563 2.188 2.875 0.75 4.5 0.75c2.063 0 3.813-0.375 5.313-1s2.813-1.563 4.063-2.688zM14.438 11.75c-0.625 0-1.125 0.125-1.563 0.5s-0.875 0.813-1.188 1.375-0.5 1.125-0.688 1.75-0.25 1.25-0.25 1.875c0 0.313 0 0.625 0.063 1 0.063 0.313 0.188 0.625 0.375 0.938s0.438 0.5 0.75 0.688 0.688 0.313 1.188 0.313c0.688 0 1.25-0.188 1.75-0.5s0.875-0.813 1.188-1.313 0.563-1 0.688-1.625 0.188-1.188 0.188-1.688c0-0.375 0-0.813-0.063-1.188s-0.25-0.75-0.438-1.063-0.438-0.563-0.75-0.75-0.75-0.313-1.25-0.313z"></path>
</svg>
