<!-- Generated by IcoMoon.io -->
<svg version="1.1" xmlns="http://www.w3.org/2000/svg" width="26" height="32" viewBox="0 0 26 32">
<title>ion-checkmark</title>
<path d="M25.875 6.875c0.063 0.125 0.125 0.25 0.125 0.375s-0.063 0.25-0.125 0.375l-15.563 20c-0.125 0.125-0.313 0.375-0.563 0.375s-0.5-0.188-0.625-0.313-8.813-8.5-8.813-8.5l-0.188-0.188c-0.063-0.125-0.125-0.25-0.125-0.375s0.063-0.188 0.125-0.313l0.125-0.125c0.875-0.938 2.625-2.75 2.75-2.875s0.25-0.375 0.5-0.375 0.5 0.25 0.625 0.375 5 4.875 5 4.875l12.5-16.063c0.125-0.125 0.25-0.125 0.375-0.125s0.313 0.063 0.438 0.125z"></path>
</svg>
