<!-- Generated by IcoMoon.io -->
<svg version="1.1" xmlns="http://www.w3.org/2000/svg" width="26" height="32" viewBox="0 0 26 32">
<title>ion-ios-bookmarks-outline</title>
<path d="M24.063 4c1.188 0 2.063 0.813 2.063 2v17.875c0 1.188-0.875 2.125-2.063 2.125h-8.938s-1.563 0.25-1.563 1.188v0.813h-1v-0.813c0-0.938-0.688-1.188-1.563-1.188h-8.938c-1.188 0-2.063-0.938-2.063-2.125v-17.875c0-1.188 0.875-2 2.063-2h9.375c0.625 0 1.25 0.313 1.625 0.75v0 0c0.375-0.438 1-0.75 1.625-0.75h9.375zM12.563 25.688v-19.313c0-0.563-0.75-1.375-1.563-1.375h-8.938c-0.563 0-1 0.438-1 1v17.875c0 0.563 0.438 1.125 1 1.125h9c0.625 0 1.188 0.188 1.5 0.688zM17.063 5v6.25l1.438-0.875 0.563-0.375 0.563 0.375 1.438 0.875v-6.25h-4zM25.063 23.875v-17.875c0-0.563-0.438-1-1-1h-2v8.188l-3-2-3 2v-8.188h-0.938c-0.813 0-1.563 0.813-1.563 1.375v19.313c0.313-0.563 0.875-0.688 1.5-0.688h9c0.563 0 1-0.563 1-1.125z"></path>
</svg>
