<!-- Generated by IcoMoon.io -->
<svg version="1.1" xmlns="http://www.w3.org/2000/svg" width="32" height="32" viewBox="0 0 32 32">
<title>ion-android-bicycle</title>
<path d="M18.688 8.188c-1.188 0-2.125-0.875-2.125-2.063s0.938-2.125 2.125-2.125 2.063 0.938 2.063 2.125-0.875 2.063-2.063 2.063zM22.188 16.313c3.188 0 5.813 2.688 5.813 5.875s-2.625 5.813-5.813 5.813-5.875-2.625-5.875-5.813 2.688-5.875 5.875-5.875zM22.188 26.25c2.25 0 4.063-1.813 4.063-4.063s-1.813-4.125-4.063-4.125-4.125 1.875-4.125 4.125 1.875 4.063 4.125 4.063zM17.125 14l-1.875-2.813-2.688 2.813 2.438 2v7h-2v-5.375l-3.813-2.375c-0.563-0.375-1.188-0.938-1.188-1.688 0-0.5 0.188-1.063 0.563-1.438l4.5-4.313c0.375-0.375 0.875-0.563 1.375-0.563 0.688 0 1.375 0.438 1.75 1l2.125 3.75h3.688v2h-4.875zM5.813 16.313c3.188 0 5.875 2.688 5.875 5.875s-2.688 5.813-5.875 5.813-5.813-2.625-5.813-5.813 2.625-5.875 5.813-5.875zM5.813 26.25c2.25 0 4.125-1.813 4.125-4.063s-1.875-4.125-4.125-4.125-4.063 1.875-4.063 4.125 1.813 4.063 4.063 4.063z"></path>
</svg>
