<!-- Generated by IcoMoon.io -->
<svg version="1.1" xmlns="http://www.w3.org/2000/svg" width="26" height="32" viewBox="0 0 26 32">
<title>ion-ios-basketball</title>
<path d="M13 3c7.188 0 13 5.813 13 13s-5.813 13-13 13-13-5.813-13-13 5.813-13 13-13zM20.813 25c-1.375-3.188-3.313-6.063-5.563-8.625 0.688-0.75 1.313-1.563 1.938-2.375 2.125 1.688 4.813 2.813 7.688 3 0-0.313 0.063-0.688 0.063-1-1.375-0.125-2.75-0.438-4.063-1-1.125-0.5-2.125-1.063-3.063-1.813 1.313-1.875 2.375-3.813 3.25-5.938-0.25-0.25-0.5-0.5-0.75-0.688 0 0.063-0.063 0.063-0.063 0.125-0.875 2.063-2 4-3.25 5.813-0.125-0.063-0.125-0.125-0.25-0.25-1.188-1.188-2.188-2.563-2.813-4.125-0.563-1.313-0.813-2.688-0.938-4.063-0.313 0-0.688 0.063-1 0.063 0.25 3.625 1.938 6.875 4.438 9.188-0.563 0.813-1.188 1.563-1.875 2.313-3-3.125-6.563-5.688-10.563-7.438-0.25 0.25-0.438 0.563-0.625 0.813 3.688 1.625 7 3.875 9.875 6.75l0.625 0.625-0.5 0.5c-0.813 0.813-1.625 1.563-2.5 2.25-2.438-2.688-5.813-4.438-9.688-4.625-0.063 0.313-0.063 0.688-0.063 1 1.563 0.063 3.063 0.438 4.438 1 1.563 0.625 2.938 1.625 4.125 2.813l0.438 0.438c-1.938 1.5-4.125 2.75-6.375 3.75 0.25 0.25 0.438 0.563 0.688 0.813 2.25-1 4.375-2.313 6.313-3.813 0.688 0.875 1.313 1.875 1.75 2.938 0.625 1.438 0.938 2.875 1 4.438 0.313 0 0.688 0 1-0.063-0.125-3-1.188-5.75-2.938-7.938 1.063-0.875 2.063-1.75 3-2.75 2.25 2.563 4.063 5.375 5.438 8.5 0.25-0.188 0.563-0.375 0.813-0.625z"></path>
</svg>
