<!-- Generated by IcoMoon.io -->
<svg version="1.1" xmlns="http://www.w3.org/2000/svg" width="28" height="32" viewBox="0 0 28 32">
<title>ion-social-reddit-outline</title>
<path d="M16.188 18c0-1.313 0.688-1.938 2-1.938s2 0.625 2 1.938-0.688 2-2 2-2-0.688-2-2zM7.938 18c0-1.313 0.688-1.938 2-1.938s2 0.625 2 1.938-0.688 2-2 2-2-0.688-2-2zM28.063 15.688c0 1.25-0.563 2.25-1.688 2.813 0.063 0.313 0.063 0.563 0.063 0.875 0 2.375-1.188 4.438-3.625 6.125s-5.313 2.5-8.75 2.5-6.375-0.813-8.813-2.5-3.625-3.688-3.625-6.063c0-0.313 0-0.625 0.063-0.938-1.125-0.563-1.688-1.5-1.688-2.813 0-0.875 0.313-1.563 0.938-2.188s1.313-0.938 2.188-0.938c0.813 0 1.5 0.25 2.063 0.813 2.25-1.563 4.938-2.438 8.063-2.563h0.438l1.813-6.125 5.375 1.063c0.5-1.188 1.313-1.75 2.563-1.75 0.75 0 1.375 0.25 1.938 0.813s0.813 1.25 0.813 2-0.25 1.438-0.813 2-1.188 0.813-1.938 0.813-1.438-0.25-2-0.813-0.813-1.188-0.813-1.938l-4.313-0.875-1.5 4.813c3.125 0.125 5.875 1 8.063 2.563 0.625-0.563 1.313-0.813 2.125-0.813 0.563 0 1 0.188 1.5 0.438s0.875 0.625 1.125 1.125 0.438 1 0.438 1.563zM23.438 5.125c-0.25 0-0.5 0.063-0.688 0.125s-0.375 0.25-0.5 0.375-0.313 0.375-0.375 0.563-0.125 0.375-0.125 0.625c0 0.5 0.188 0.875 0.5 1.188s0.75 0.5 1.188 0.5c0.313 0 0.563-0.063 0.813-0.188s0.5-0.375 0.625-0.625 0.25-0.563 0.25-0.875c0-0.5-0.188-0.875-0.5-1.188s-0.75-0.5-1.188-0.5zM1.125 15.688c0 0.688 0.313 1.25 0.875 1.688 0.438-1.188 1.188-2.313 2.313-3.313-0.375-0.25-0.75-0.375-1.188-0.375-0.188 0-0.438 0-0.625 0.063s-0.375 0.188-0.563 0.313-0.313 0.25-0.438 0.438-0.25 0.375-0.313 0.563-0.063 0.375-0.063 0.625zM22.188 24.563c2.125-1.438 3.125-3.188 3.125-5.188v-0.563c-0.063-0.375-0.188-0.75-0.313-1.125-0.375-1-0.938-1.875-1.875-2.688-0.313-0.25-0.625-0.563-0.938-0.75v0c-2.25-1.563-4.938-2.313-8.125-2.313s-5.938 0.75-8.188 2.313v0c-0.313 0.188-0.625 0.5-0.938 0.75-0.938 0.813-1.5 1.688-1.875 2.688-0.125 0.375-0.25 0.75-0.313 1.125v0.563c0 2 1 3.75 3.125 5.188 2.25 1.563 5 2.313 8.188 2.313s5.875-0.75 8.125-2.313zM26.063 17.375c0.563-0.375 0.875-1 0.875-1.688 0-0.563-0.188-1.063-0.563-1.438s-0.813-0.563-1.375-0.563c-0.438 0-0.875 0.125-1.25 0.375 1.125 1 1.875 2.125 2.313 3.313zM18.063 22.375l0.813 0.75c-1.25 1.25-2.813 1.875-4.813 1.875s-3.625-0.625-4.875-1.875l0.813-0.75c1 1 2.375 1.5 4.063 1.5s3-0.5 4-1.5z"></path>
</svg>
