<!-- Generated by IcoMoon.io -->
<svg version="1.1" xmlns="http://www.w3.org/2000/svg" width="26" height="32" viewBox="0 0 26 32">
<title>ion-android-wifi</title>
<path d="M13 14.313c1.438 0 2.625 1.125 2.625 2.563s-1.188 2.563-2.625 2.563-2.625-1.125-2.625-2.563 1.188-2.563 2.625-2.563zM20.813 16.875c0 2.813-1.625 5.313-3.938 6.688l-1.25-2.25c1.563-0.875 2.563-2.5 2.563-4.438 0-2.813-2.313-5.125-5.188-5.125s-5.188 2.313-5.188 5.125c0 1.938 1 3.563 2.563 4.438l-1.25 2.25c-2.313-1.375-3.938-3.875-3.938-6.688 0-4.25 3.5-7.75 7.813-7.75s7.813 3.5 7.813 7.75zM13 4c7.125 0 13 5.813 13 12.875 0 4.75-2.625 8.875-6.5 11.125l-1.313-2.25c3.125-1.75 5.188-5.063 5.188-8.875 0-5.688-4.625-10.313-10.375-10.313s-10.375 4.625-10.375 10.313c0 3.813 2.063 7.063 5.188 8.875l-1.313 2.25c-3.875-2.25-6.5-6.375-6.5-11.125 0-7.063 5.875-12.875 13-12.875z"></path>
</svg>
