<!-- Generated by IcoMoon.io -->
<svg version="1.1" xmlns="http://www.w3.org/2000/svg" width="22" height="32" viewBox="0 0 22 32">
<title>ion-android-notifications-none</title>
<path d="M11.063 7.5h-0.125c-0.375 0-1.5 0.313-1.5 0.313-2.875 0.625-4.875 3.313-4.875 6.25v7.938l-0.563 0.625-0.5 0.5h15l-0.5-0.5-0.563-0.625v-7.938c0-2.938-2-5.625-4.875-6.25 0 0-1.063-0.313-1.5-0.313zM11 3v0c1.125 0 1.938 0.813 1.938 1.938v0.938c3.688 0.875 6.5 4.25 6.5 8.188v7.125l2.563 2.625v1.313h-22v-1.313l2.563-2.625v-7.125c0-3.938 2.813-7.313 6.5-8.188v-0.938c0-1.125 0.813-1.938 1.938-1.938zM13.563 26.375v0c0 1.438-1.125 2.625-2.563 2.625s-2.563-1.188-2.563-2.625h5.125z"></path>
</svg>
