<!-- Generated by IcoMoon.io -->
<svg version="1.1" xmlns="http://www.w3.org/2000/svg" width="20" height="32" viewBox="0 0 20 32">
<title>ion-soup-can-outline</title>
<path d="M10 9c-5.5 0-10-1.813-10-4s4.5-4 10-4 10 1.813 10 4-4.5 4-10 4zM10 2.063c-4.375 0-7.875 1.188-7.875 2.688s3.5 2.688 7.875 2.688 7.875-1.188 7.875-2.688-3.5-2.688-7.875-2.688zM10.063 10c5.5 0 9.875-1.813 9.938-4 0 0.313 0 2.063-0.5 2.5v15c0 2.188-4 4-9.5 4s-9.5-1.813-9.5-4v-15c-0.5-0.375-0.5-2.5-0.5-2.5 0 2.188 4.563 4 10.063 4zM17.5 23.5v-5c-1.125 0.625-2.688 1.063-4.5 1.313h-0.125c-0.375 1.25-1.5 2.188-2.875 2.188s-2.5-0.938-2.875-2.188h-0.125c-1.813-0.25-3.375-0.688-4.5-1.313v5c0.063 0.125 0.563 0.625 1.875 1.125 1.5 0.563 3.438 0.875 5.625 0.875s4.188-0.313 5.688-0.875c1.313-0.5 1.813-1 1.813-1.125zM17.5 16.5v-5.688c-2.063 0.75-4.688 1.188-7.438 1.188-2.813 0-5.438-0.438-7.563-1.188v5.688c1.125 0.625 2.688 1.063 4.563 1.313h0.188c0.438-1.063 1.5-1.813 2.75-1.813s2.313 0.75 2.75 1.813h0.188c1.875-0.25 3.438-0.688 4.563-1.313zM10 29v0zM19.5 26l0.5 1c0 0.438-0.188 0.875-0.5 1.25-1.313 1.625-5.063 2.75-9.5 2.75s-8.188-1.125-9.5-2.75c-0.313-0.375-0.5-0.813-0.5-1.25l0.5-1v-1c0 2.188 3.938 4 9.5 4s9.5-1.75 9.5-4v1z"></path>
</svg>
