<!-- Generated by IcoMoon.io -->
<svg version="1.1" xmlns="http://www.w3.org/2000/svg" width="25" height="32" viewBox="0 0 25 32">
<title>ion-ios-alarm-outline</title>
<path d="M24 12l-3.375-3.25-0.563 0.563c2.188 2 3.563 4.938 3.563 8.125 0 2.75-1 5.188-2.688 7.125l2.25 2.813-0.75 0.625-2.188-2.688c-2 1.875-4.688 3.063-7.625 3.063v0 0c-2.938 0-5.625-1.188-7.625-3.063l-2.188 2.688-0.75-0.625 2.25-2.813c-1.688-1.938-2.688-4.438-2.688-7.188 0-3.188 1.375-6.063 3.563-8.063l-0.563-0.563-3.375 3.25c-0.75-0.875-1.25-2-1.25-3.25 0-2.75 2.188-5 5-5.125h0.313c1.25 0 2.438 0.438 3.375 1.125l-3.375 3.25 0.688 0.688c1.625-1.188 3.5-2 5.625-2.188v0c0-0.5 0.5-1 1-1s0.938 0.5 0.938 1v0c2.125 0.188 4.063 1 5.688 2.188l0.688-0.688-3.375-3.25c0.938-0.688 2.125-1.125 3.375-1.125h0.313c2.813 0.125 5 2.375 5 5.125 0 1.25-0.5 2.375-1.25 3.25zM1.375 10.5l5.688-5.563c-0.563-0.313-1.188-0.438-2-0.375-2.313 0.125-4.063 2-4.063 4.188 0 0.625 0.125 1.188 0.375 1.75zM22.625 17.25c0-5.5-4.5-9.875-10-9.875s-10 4.375-10 9.875 4.5 9.875 10 9.875 10-4.375 10-9.875zM18.188 4.938l5.688 5.563c0.25-0.563 0.375-1.125 0.375-1.75 0-2.188-1.75-4.063-4.063-4.188-0.813-0.063-1.438 0.063-2 0.375zM12.625 10h1v9h-7v-1h6v-8z"></path>
</svg>
