<!-- Generated by IcoMoon.io -->
<svg version="1.1" xmlns="http://www.w3.org/2000/svg" width="32" height="32" viewBox="0 0 32 32">
<title>ion-aperture</title>
<path d="M14 2c7.75 0 14 6.25 14 14s-6.25 14-14 14-14-6.25-14-14 6.25-14 14-14zM22.5 24.5c2.25-2.25 3.5-5.313 3.5-8.5s-1.25-6.25-3.5-8.5-5.313-3.5-8.5-3.5-6.25 1.25-8.5 3.5-3.5 5.313-3.5 8.5 1.25 6.25 3.5 8.5 5.313 3.5 8.5 3.5 6.25-1.25 8.5-3.5zM10.5 6.625l3.5 5.375h-9.188c1.063-2.5 3.125-4.438 5.688-5.375zM23.813 18h-6.375l4.5-8.063c1.313 1.688 2.063 3.75 2.063 6.063 0 0.688-0.063 1.375-0.188 2zM20.5 8.375l-3.063 5.625-4.875-7.875c0.5-0.063 0.938-0.125 1.438-0.125 2.5 0 4.75 0.875 6.5 2.375zM4.188 14h6.375l-4.5 8.063c-1.313-1.688-2.063-3.75-2.063-6.063 0-0.688 0.063-1.375 0.188-2zM17.5 25.375l-3.5-5.375h9.188c-1.063 2.5-3.125 4.438-5.688 5.375zM7.5 23.625l3.063-5.625 4.875 7.875c-0.5 0.063-0.938 0.125-1.438 0.125-2.5 0-4.75-0.875-6.5-2.375z"></path>
</svg>
