<!-- Generated by IcoMoon.io -->
<svg version="1.1" xmlns="http://www.w3.org/2000/svg" width="24" height="32" viewBox="0 0 24 32">
<title>ion-social-wordpress-outline</title>
<path d="M12 4c6.625 0 12 5.375 12 12 0 0.563-0.063 1.125-0.125 1.625-0.75 5.313-4.938 9.563-10.313 10.25-0.5 0.063-1.063 0.125-1.563 0.125-6.625 0-12-5.375-12-12s5.375-12 12-12zM1.188 16c0 4.25 2.5 7.938 6.125 9.688l-5.188-14.063c-0.625 1.313-0.938 2.813-0.938 4.375zM13.375 26.688c0.75-0.125 1.5-0.25 2.188-0.5 0-0.063-0.063-0.125-0.063-0.188l-3.313-9.063-2.063 6-1.188 3.438c0.938 0.313 2 0.438 3.063 0.438 0.5 0 0.938-0.063 1.375-0.125zM13.5 10.938l3.875 11.625 1.063-3.625c0.563-1.375 0.813-2.563 0.813-3.5 0-1.313-0.438-2.188-0.875-2.938-0.563-0.875-1.063-1.688-1.063-2.563 0-1 0.75-1.875 1.813-1.875h0.125c-1.938-1.75-4.438-2.813-7.25-2.813-3.75 0-7.063 1.875-9 4.813 0.25 0 0.5 0.063 0.688 0.063 1.125 0 2.875-0.188 2.875-0.188 0.563-0.063 0.625 0.875 0.063 0.938 0 0-0.625 0.063-1.25 0.063l3.938 11.688 2.375-7.063-1.688-4.625c-0.563 0-1.125-0.063-1.125-0.063-0.563 0-0.5-1 0.063-0.938 0 0 1.75 0.188 2.813 0.188 1.125 0 2.875-0.188 2.875-0.188 0.563-0.063 0.688 0.875 0.125 0.938 0 0-0.625 0.063-1.25 0.063zM17.438 25.313c2.813-1.625 4.813-4.438 5.25-7.813 0.063-0.5 0.125-1 0.125-1.5 0-1.875-0.5-3.625-1.375-5.188 0.063 0.375 0.063 0.75 0.063 1.125 0 1.125-0.188 2.313-0.813 3.875l-2.438 7.063z"></path>
</svg>
