<!-- Generated by IcoMoon.io -->
<svg version="1.1" xmlns="http://www.w3.org/2000/svg" width="26" height="32" viewBox="0 0 26 32">
<title>ion-ios-help</title>
<path d="M13 3c7.188 0 13 5.813 13 13s-5.813 13-13 13-13-5.813-13-13 5.813-13 13-13zM13.25 22.875c0.563 0 1.063-0.5 1.063-1.063s-0.5-1.063-1.063-1.063-1.063 0.5-1.063 1.063 0.5 1.063 1.063 1.063zM15.375 15.688c0.938-0.875 1.625-1.813 1.625-3.188 0-2.125-1.688-3.375-3.75-3.375-2.688 0-4.25 1.25-4.25 3.875h1.188c-0.063-1.875 1-2.875 3-2.875 1.438 0 2.625 0.938 2.625 2.438 0 0.938-0.5 1.813-1.188 2.438-1.438 1.313-1.813 2.25-1.875 4h1.188c0.063-1.625 0-1.938 1.438-3.313z"></path>
</svg>
