<!-- Generated by IcoMoon.io -->
<svg version="1.1" xmlns="http://www.w3.org/2000/svg" width="20" height="32" viewBox="0 0 20 32">
<title>ion-android-lock</title>
<path d="M17.5 11.625c1.375 0 2.5 1.125 2.5 2.5v12.5c0 1.375-1.125 2.5-2.5 2.5h-15c-1.375 0-2.5-1.125-2.5-2.5v-12.5c0-1.375 1.125-2.5 2.5-2.5h1.25v-2.5c0-3.438 2.813-6.25 6.25-6.25s6.25 2.813 6.25 6.25v2.5h1.25zM10 23c1.375 0 2.5-1.125 2.5-2.5s-1.125-2.5-2.5-2.5-2.5 1.125-2.5 2.5 1.125 2.5 2.5 2.5zM13.875 11.625v-2.5c0-2.125-1.75-3.875-3.875-3.875s-3.875 1.75-3.875 3.875v2.5h7.75z"></path>
</svg>
