<!-- Generated by IcoMoon.io -->
<svg version="1.1" xmlns="http://www.w3.org/2000/svg" width="24" height="32" viewBox="0 0 24 32">
<title>ion-skip-forward</title>
<path d="M23.25 6c0.438 0 0.75 0.313 0.75 0.75v18.5c0 0.438-0.313 0.75-0.75 0.75h-0.5c-0.438 0-0.75-0.313-0.75-0.75v-7.063l-11.688 7.625c-0.188 0.125-0.313 0.188-0.5 0.188-0.5 0-0.938-0.438-0.938-1.063v-4l-7.438 4.875c-0.188 0.125-0.313 0.188-0.5 0.188-0.5 0-0.938-0.438-0.938-1.063v-17.875c0-0.625 0.438-1.063 0.938-1.063 0.188 0 0.375 0 0.5 0.125l7.438 4.875v-3.938c0-0.625 0.438-1.063 0.938-1.063 0.188 0 0.375 0.063 0.5 0.188l11.688 7.625v-7.063c0-0.438 0.313-0.75 0.75-0.75h0.5z"></path>
</svg>
