<!-- Generated by IcoMoon.io -->
<svg version="1.1" xmlns="http://www.w3.org/2000/svg" width="20" height="32" viewBox="0 0 20 32">
<title>ion-ios-rose</title>
<path d="M20 8v0c-4.813 6-1 9.438-1 14s-3.5 8-9 8-9-3.438-9-8 2.188-6.813 5.813-8.875c1.563-0.875 2.063-1.188 3.25-1.75 1.875-0.875 4.063-1.75 6.563-2.5 1.063-0.313 2.188-0.625 3.375-0.875zM0 6v0s4.125 0.938 7.188 2.688c0.938 0.5 1.75 1.125 2.313 1.813-0.75 0.375-1.5 0.75-2.25 1.188-0.438 0.25-0.875 0.5-1.25 0.75-1.563 1-2.75 1.938-3.563 2.625 0.313-2.563 0.125-6.125-2.438-9.063zM16 4v0s1.625 2 2 3.438c-2.063 0.5-5.25 1.563-7.563 2.625l-0.188-0.188c-0.563-0.688-1.375-1.375-2.438-2 3.25-3.75 8.188-3.875 8.188-3.875zM5 2v0s2.188 1 4 3.5c-0.75 0.563-1.438 1.25-2.063 1.938-1.625-0.813-2.5-1.313-3.813-1.688 0.313-0.938 0.938-2.375 1.875-3.75z"></path>
</svg>
