<!-- Generated by IcoMoon.io -->
<svg version="1.1" xmlns="http://www.w3.org/2000/svg" width="32" height="32" viewBox="0 0 32 32">
<title>ion-android-camera</title>
<path d="M10.063 17.5c0-2.625 1.313-3.938 3.938-3.938s3.938 1.313 3.938 3.938-1.313 3.938-3.938 3.938-3.938-1.313-3.938-3.938zM25.5 6c0.688 0 1.25 0.25 1.75 0.75s0.75 1.063 0.75 1.75v17c0 0.688-0.25 1.25-0.75 1.75s-1.063 0.75-1.75 0.75h-23c-0.688 0-1.25-0.25-1.75-0.75s-0.75-1.063-0.75-1.75v-17c0-0.688 0.25-1.25 0.75-1.75s1.063-0.75 1.75-0.75h5.5l2-2h8l2 2h5.5zM14 24.5c1.938 0 3.563-0.688 4.938-2.063s2.063-3 2.063-4.938-0.688-3.563-2.063-4.938-3-2.063-4.938-2.063-3.563 0.688-4.938 2.063-2.063 3-2.063 4.938 0.688 3.563 2.063 4.938 3 2.063 4.938 2.063z"></path>
</svg>
