<!-- Generated by IcoMoon.io -->
<svg version="1.1" xmlns="http://www.w3.org/2000/svg" width="32" height="32" viewBox="0 0 32 32">
<title>ion-ios-people-outline</title>
<path d="M14 7v0 0zM19.813 20.938c0.688 0.25-0.688-0.25 0 0 1.75 0.625 2.875 2.188 2.875 4.063h-17.375c0-1.375 0.563-2.625 1.688-3.438 0.938-0.688 1.938-0.75 3.063-1 0.438-0.063 1.5-0.313 1.625-0.813s0.063-0.938 0.063-1.438c0-0.188 0-0.188-0.125-0.313-0.25-0.25-0.375-0.563-0.5-0.875-0.125-0.5-0.188-1-0.25-1.5-0.563 0.125-0.625-1-0.75-1.313-0.063-0.25-0.438-1.5 0.188-1.313-0.188-0.313-0.25-0.813-0.313-1.188-0.125-0.813-0.125-1.625 0.188-2.438 0.625-1.625 2.313-2.438 4-2.375 1.625 0.063 3.188 1 3.688 2.625 0.25 0.75 0.188 1.625 0.063 2.438-0.063 0.313-0.125 0.688-0.25 0.938 0.625-0.188 0.25 1.25 0.188 1.438-0.125 0.313-0.188 1.313-0.75 1.188-0.063 0.625-0.125 1.375-0.438 1.938-0.063 0.125-0.438 0.5-0.438 0.625v0.688c0 0.313 0 0.625 0.125 0.938s0.625 0.438 0.875 0.5c0.875 0.313 1.688 0.313 2.563 0.625zM7.188 22.75c-0.375 0.375 0.563-0.625 0 0-0.375 0.375-0.625 0.75-0.75 1.25h15.125c-0.25-0.938-1.063-1.688-1.875-2.063s-1.75-0.25-2.563-0.563-1.563-0.563-1.75-1.563c-0.125-0.688-0.125-1.375-0.125-2.063 0-0.125 0.438-0.438 0.5-0.563 0.188-0.313 0.25-0.688 0.313-1.063 0.063-0.313 0-0.75 0.25-0.938 0.313-0.25 0.438-0.438 0.563-0.813 0.125-0.5 0.188-0.75-0.063-1.188-0.188-0.313 0-0.5 0.063-0.813 0.188-0.688 0.25-1.5 0.125-2.25-0.5-2.313-3.875-2.813-5.375-1.188-0.75 0.813-0.75 1.938-0.563 2.938 0.063 0.375 0.375 0.875 0.188 1.188-0.063 0.188-0.313 0.375-0.25 0.625 0.125 0.313 0.125 0.688 0.25 1 0.125 0.25 0.25 0.375 0.438 0.5s0.188 0.375 0.188 0.563c0.063 0.438 0.125 1.063 0.375 1.438 0.188 0.25 0.5 0.375 0.5 0.688v1.313c-0.063 0.5-0.125 1.125-0.5 1.5-0.438 0.375-1.125 0.625-1.688 0.75-0.688 0.188-1.438 0.188-2.063 0.438-0.5 0.188-0.938 0.5-1.313 0.875zM7 20.125c-0.938 0.438 0.563-0.25 0 0-0.563 0.313-1.125 0.688-1.563 1.188-0.063 0.125-0.375 0.688-0.438 0.688h-5c0-1.25 0.813-2.125 1.938-2.5 0.375-0.125 1.688-0.25 1.875-0.688 0.125-0.313 0-0.688 0-1-0.625 0.063-1.5-0.063-2-0.438-0.125-0.125 0.188-0.563 0.25-0.75l0.188-0.75c0.063-0.563 0.063-1.188 0.063-1.75 0-1-0.063-2.125 0.5-3 0.5-0.813 1.438-1.125 2.375-1.125 1.5 0 2.688 0.813 2.938 2.313 0.188 1 0.063 2 0.125 3 0 0.5 0.125 1 0.313 1.5 0.063 0.125 0.313 0.438 0.188 0.563l-0.375 0.188c-0.313 0.125-0.688 0.188-1.063 0.25-0.063 0-0.5 0-0.563 0.063s0 0.563 0 0.688c0 0.25 0.063 0.375 0.313 0.438 0.375 0.125 1.188 0.188 1.438 0.5 0.125 0.188 0.063 0.313-0.125 0.313-0.5 0.063-0.938 0.063-1.375 0.313zM4.438 21c0.375-0.625 1-1.125 1.625-1.5-0.563-0.563-0.313-1.625-0.25-2.313 0-0.125 0-0.313 0.125-0.313h0.5c0.375 0 0.688-0.063 1.063-0.125-0.438-1.438 0-2.938-0.313-4.375-0.188-1-0.938-1.438-1.938-1.438-1.063 0-1.688 0.563-1.875 1.563-0.25 1.375 0.188 2.875-0.25 4.25 0.563 0.063 1.063 0.125 1.625 0.125 0.063 0 0.063 1.75 0.063 1.813-0.063 0.75-0.5 1.125-1.188 1.375-0.75 0.25-1.813 0.188-2.25 0.938h3.063zM23 22c-0.125-0.5-0.625-0.875-1-1.188-0.5-0.375-1.125-0.813-1.75-0.938-0.188-0.063-1 0.063-0.813-0.313 0.125-0.25 0.563-0.313 0.813-0.375s0.938-0.125 1-0.438c0-0.063 0.063-0.875 0-0.875-0.375 0-0.75-0.063-1.125-0.125-0.25-0.063-0.438-0.125-0.688-0.25-0.375-0.188-0.125-0.375 0-0.688 0.875-2-0.625-5.5 2-6.563 0.938-0.375 2.125-0.313 3 0.188 0.938 0.563 1.25 1.688 1.25 2.75 0 1.25-0.25 2.75 0.438 3.875 0.125 0.188 0.25 0.25 0 0.375-0.125 0.063-0.25 0.063-0.375 0.125l-0.75 0.188s-0.563 0.063-0.813 0.063c0 0.25-0.125 0.813 0.063 1.063 0.375 0.438 1.313 0.438 1.813 0.625 1.125 0.375 1.938 1.25 1.938 2.5h-5zM22.938 20.313c0.25 0.25-0.313-0.313 0 0s0.5 0.688 0.938 0.688h2.75c-0.438-0.75-1.625-0.688-2.375-1-0.688-0.25-1-0.75-1.063-1.5 0-0.125-0.063-1.688 0.063-1.688 0.563 0 1.125 0 1.625-0.063-0.438-1.438 0.063-2.938-0.25-4.375-0.188-0.938-0.938-1.438-1.875-1.438-1.063 0-1.75 0.5-1.938 1.563-0.25 1.438 0.125 2.875-0.313 4.25 0.375 0.125 0.75 0.125 1.125 0.125s0.5-0.063 0.563 0.313c0.063 0.688 0.313 1.75-0.25 2.313 0.375 0.25 0.688 0.5 1 0.813z"></path>
</svg>
