<!-- Generated by IcoMoon.io -->
<svg version="1.1" xmlns="http://www.w3.org/2000/svg" width="24" height="32" viewBox="0 0 24 32">
<title>ion-ios-search</title>
<path d="M24 26.563l-1.438 1.438-7.063-7.063c-1.625 1.313-3.75 2.063-6 2.063-5.25 0-9.5-4.25-9.5-9.5s4.25-9.5 9.5-9.5 9.5 4.25 9.5 9.5c0 2.25-0.75 4.313-2.063 5.938zM3.5 19.563c1.625 1.625 3.75 2.438 6 2.438s4.375-0.875 6-2.5 2.5-3.75 2.5-6-0.875-4.375-2.5-6-3.75-2.5-6-2.5-4.375 0.875-6 2.5-2.5 3.75-2.5 6 0.875 4.438 2.5 6.063z"></path>
</svg>
