<!-- Generated by IcoMoon.io -->
<svg version="1.1" xmlns="http://www.w3.org/2000/svg" width="26" height="32" viewBox="0 0 26 32">
<title>ion-ios-football-outline</title>
<path d="M13 3c7.188 0 13 5.813 13 13s-5.813 13-13 13-13-5.813-13-13 5.813-13 13-13zM15.563 27.625c0.188-0.063 0.313-0.063 0.5-0.125l1.5-4-1.25-2.438v-0.063h-6.625l-1.25 2.438 1.563 4.063c0.125 0.063 0.313 0.063 0.438 0.125 0.75 0.188 1.563 0.313 2.375 0.313 0.875 0 1.875-0.125 2.75-0.313zM2.563 10.25c-0.938 1.688-1.438 3.563-1.5 5.563l2.688-2.313zM8.875 4.813c-2.25 0.875-4.25 2.375-5.625 4.313l1.375 4 0.313 0.125 3.063 1.438 4.438-3.75v-3.625zM17.313 15.438l-4.375-3.625-4.313 3.625v0.063l1.125 4.5h6.5l1.125-4.5zM24.938 15.813c-0.063-2-0.563-3.938-1.5-5.625l-1.188 3.313zM22.75 9.125c-1.375-1.938-3.375-3.5-5.625-4.313l-3.625 2.5v3.625l4.438 3.75 3.375-1.5zM1.125 17.063c0.188 2.125 0.938 4.125 2.063 5.75l4.375 0.063 1.313-2.438-1.25-4.813-0.063-0.063-3.063-1.375zM18.438 22.875l4.375-0.063c1.125-1.625 1.875-3.625 2.063-5.75l-3.375-2.875-3.125 1.438-1.25 4.813zM12.938 6.438l2.938-2c-0.938-0.25-1.875-0.375-2.875-0.375s-2 0.125-2.938 0.375zM7.375 23.875l-3.375-0.063c1.25 1.438 2.875 2.625 4.688 3.313l-1.25-3.125zM17.313 27.125c1.813-0.688 3.438-1.875 4.688-3.313l-3.5 0.063-0.125 0.188z"></path>
</svg>
