<!-- Generated by IcoMoon.io -->
<svg version="1.1" xmlns="http://www.w3.org/2000/svg" width="32" height="32" viewBox="0 0 32 32">
<title>ion-ios-cloud-download-outline</title>
<path d="M10.063 23.813l3.438 3.375v-15.125h1v15.125l3.438-3.375 0.75 0.75-4.688 4.563-4.625-4.563zM22.938 10.25c2.813 0 5.063 2.313 5.063 5.125s-2.313 5.125-5.125 5.125v0h-6.313v-1h6.313c2.313 0 4.125-1.875 4.125-4.125s-1.813-4.188-4.125-4.188h-0.938v-1.25c0-3.438-2.875-6.063-6.313-6.063-2.375 0-4.563 1.375-5.625 3.5l-0.375 0.875-0.875-0.438c-0.375-0.188-0.813-0.313-1.25-0.313-1.375 0-2.5 1.125-2.75 2.438l-0.063 0.563-0.563 0.188c-1.875 0.625-3.125 2.25-3.125 4.188 0 2.5 2.063 4.625 4.625 4.625h5.688v1h-5.688c-3.125 0-5.625-2.5-5.625-5.563 0-2.438 1.625-4.438 3.813-5.188 0.313-1.75 1.813-3.188 3.688-3.188 0.625 0 1.125 0.125 1.625 0.375 1.188-2.438 3.688-4.063 6.563-4.063 4 0 7.313 3.188 7.313 7.188 0 0.063-0.063 0.125-0.063 0.188z"></path>
</svg>
