<!-- Generated by IcoMoon.io -->
<svg version="1.1" xmlns="http://www.w3.org/2000/svg" width="20" height="32" viewBox="0 0 20 32">
<title>ion-social-foursquare-outline</title>
<path d="M18.875 10.25c-0.75 3.75-1.563 8.188-1.688 8.625zM17.563 2c2.188 0 2.813 1.25 2.313 3.563-0.188 1-0.625 2.75-1 4.688l-1.688 8.563c-0.188 0.813-0.5 2.188-2.438 2.188h-4.5c-0.188 0-0.188 0-0.375 0.188-0.125 0.125-7.188 8.313-7.188 8.313-0.563 0.625-1.438 0.5-1.75 0.375s-0.938-0.5-0.938-1.625v-23.75s0.625-2.5 2.688-2.5h14.875zM17.5 6c0.375-1.938 0.375-2-1.5-2h-12.188c-1.813 0-1.813 0.188-1.813 1.75v18.563c0 2.375 0.063 2.375 0.188 2.375s0.625-0.5 1.813-1.938c0 0 4.875-5.563 4.938-5.625 0.125-0.125 0.188-0.125 0.375-0.125h3.875c1.625 0 1.75-0.375 2.063-1.938 0.25-1.313 2.25-11.063 2.25-11.063zM18.875 10.25c0.375-1.938 0.813-3.688 1-4.688zM14.563 6c0.313 0 0.563 0.313 0.5 0.688l-0.5 2.75c-0.063 0.25-0.375 0.563-0.688 0.563h-4.688c-0.5 0-0.5 0.313-0.5 0.813v0.375c0 0.5 0 0.813 0.5 0.813h4s0.688 0.375 0.625 0.75-0.688 3.188-0.75 3.375-0.25 0.563-0.688 0.563h-3.875c-0.563 0-0.688 0.063-1.063 0.5l-3.375 3.938c-0.063 0.063-0.063 0.063-0.063 0v-14.438c0-0.313 0.313-0.688 0.688-0.688h9.875z"></path>
</svg>
