<!-- Generated by IcoMoon.io -->
<svg version="1.1" xmlns="http://www.w3.org/2000/svg" width="32" height="32" viewBox="0 0 32 32">
<title>ion-android-bulb</title>
<path d="M14 10.625c-1.563 0-3.125 0.625-4.25 1.75s-1.75 2.688-1.75 4.25c0 2.125 1.125 4.125 3 5.188l1 0.625v5.563h4v-5.563l1-0.625c0.938-0.5 1.688-1.25 2.188-2.125 0.563-0.938 0.813-1.938 0.813-3.063 0-1.563-0.625-3.125-1.75-4.25s-2.688-1.75-4.25-1.75zM15.313 2v0 4h-2.625v-4h2.625zM23.375 5.375v0l1.875 1.875-2.375 2.375-1.875-1.875zM4.625 5.375v0l2.375 2.375-1.875 1.875-2.375-2.375zM14 8.625v0c4.375 0 8 3.625 8 8 0 3-1.625 5.563-4 6.938v6.438h-8v-6.438c-2.375-1.375-4-4-4-6.938 0-4.375 3.625-8 8-8zM28 15.313v0 2.625h-4v-2.625h4zM4 15.313v0 2.625h-4v-2.625h4z"></path>
</svg>
