<!-- Generated by IcoMoon.io -->
<svg version="1.1" xmlns="http://www.w3.org/2000/svg" width="26" height="32" viewBox="0 0 26 32">
<title>ion-chatboxes</title>
<path d="M15.375 22.875l1.625 1.125c-0.25 1.313-1.813 2-3.25 2h-5.625c-0.5 0-0.688 0.125-0.813 0.188l-3.313 2.813v-3h-1c-1.625 0-3-1-3-2.563v-8.063c0-1.563 1.25-2.813 2.875-2.813h0.125v6.313c0 2.063 1.813 3.688 4 3.688h7.313c0.625 0 0.875 0.188 1.063 0.313zM22.063 3c2.188 0 3.938 1.688 3.938 3.75v10.5c0 2.063-1.75 3.75-3.938 3.75h-1.063v4l-4.688-3.75c-0.125-0.125-0.438-0.25-1.063-0.25h-6.313c-2.188 0-3.938-1.688-3.938-3.75v-10.5c0-2.063 1.313-3.75 3.5-3.75h13.563z"></path>
</svg>
