<!-- Generated by IcoMoon.io -->
<svg version="1.1" xmlns="http://www.w3.org/2000/svg" width="32" height="32" viewBox="0 0 32 32">
<title>ion-social-googleplus</title>
<path d="M13.125 17.25c1.375 1.125 2.813 2.25 2.813 4.563 0 3.063-2.938 6.188-8.688 6.188-5 0-7.25-2.438-7.25-4.813 0-0.625 0.188-2.625 2.625-4.063 1.688-1 3.813-1.313 5.313-1.438-0.25-0.438-0.5-0.938-0.5-1.625 0-0.25 0-0.438 0.063-0.625h-0.25c-1.188 0-2.875-0.25-4.188-1.625-0.938-0.938-1.5-2.25-1.5-3.563 0-1.625 0.813-3.313 2.188-4.438v0c2-1.563 4.313-1.813 5.875-1.813h8.375l-3.75 2.063h-0.813c0.688 0.813 1.438 1.938 1.438 3.625 0 2.5-1.563 3.688-2.813 4.625v0.063c-0.375 0.375-0.688 0.625-0.688 1.063 0 0.375 0.25 0.625 0.625 0.938v0zM5.313 8.75c0 0.813 0.25 2.063 0.875 3.188 0.438 0.75 1.313 1.688 2.563 1.688 0.625 0 1.313-0.25 1.75-0.688 0.625-0.625 0.625-1.563 0.625-1.875 0-1.125-0.375-2.313-0.938-3.313-0.5-0.813-1.25-1.75-2.5-1.75-0.688 0-1.438 0.313-1.813 0.813-0.375 0.438-0.563 1.125-0.563 1.938zM12.875 23c0-1.25-0.813-1.938-3.125-3.5-0.188 0-0.25-0.063-0.5-0.063-0.375 0-1.938 0.125-3.125 0.5-1 0.375-2.375 1-2.375 2.625 0 1.938 2 3.188 5 3.188 2.563 0 4.125-1.063 4.125-2.75zM23.125 8.875h4.875v2.125h-4.875v5.063h-2.125v-5.063h-5v-2.125h5v-4.875h2.125v4.875z"></path>
</svg>
