<!-- Generated by IcoMoon.io -->
<svg version="1.1" xmlns="http://www.w3.org/2000/svg" width="32" height="32" viewBox="0 0 32 32">
<title>ion-archive</title>
<path d="M14 19.25l-8-7.25h5v-6h6v6h5zM27.063 18.563c0.688 0.375 1.063 1.188 0.938 2l-0.563 4.188c-0.125 0.813-0.563 1.25-1.75 1.25h-23.375c-1.125 0-1.625-0.438-1.75-1.25l-0.563-4.188c-0.125-0.813 0.188-1.625 0.875-2l4.5-3.438h2.625l-3.875 3.875h3.125c0.125 0 0.313 0.063 0.375 0.188l1.125 2.813h10.5l1.125-2.813c0.063-0.125 0.188-0.188 0.313-0.188h3.188l-3.875-3.875h2.625z"></path>
</svg>
