<!-- Generated by IcoMoon.io -->
<svg version="1.1" xmlns="http://www.w3.org/2000/svg" width="18" height="32" viewBox="0 0 18 32">
<title>ion-mic-a</title>
<path d="M0 14.875c0-0.625 0.563-1.188 1.25-1.188s1.188 0.563 1.188 1.188v0.875c0 1.75 0.75 3.313 1.938 4.5s2.813 1.938 4.625 1.938 3.438-0.75 4.625-1.938 1.938-2.75 1.938-4.5v-0.875c0-0.625 0.5-1.188 1.188-1.188s1.25 0.563 1.25 1.188v0.875c0 4.125-2.875 7.5-6.75 8.5-0.063 0-0.188 0.063-0.25 0.063-0.375 0.125-0.625 0.438-0.75 0.813v3.625c0 0.688-0.563 1.25-1.25 1.25v0c-0.688 0-1.25-0.563-1.25-1.25v-3.625c-0.125-0.375-0.375-0.688-0.75-0.813-0.063 0-0.188-0.063-0.25-0.063-3.875-1-6.75-4.375-6.75-8.5v-0.875zM4.188 6.75c0-2.625 2.125-4.75 4.813-4.75s4.875 2.125 4.875 4.75v9c0 2.625-2.188 4.688-4.875 4.688s-4.813-2.063-4.813-4.688v-9z"></path>
</svg>
