<!-- Generated by IcoMoon.io -->
<svg version="1.1" xmlns="http://www.w3.org/2000/svg" width="20" height="32" viewBox="0 0 20 32">
<title>ion-social-usd-outline</title>
<path d="M7.813 6.438c0.688-0.125 1.188-0.188 1.188-0.188v8.188l-1.375-0.375c-0.938-0.313-1.688-0.688-2.25-1.188-0.75-0.625-1.188-1.563-1.188-2.688 0-0.813 0.25-1.5 0.688-2.063 0.375-0.5 0.813-0.875 1.375-1.188 0.438-0.25 1.063-0.375 1.563-0.5zM8 13.125v-5.75c-0.438 0.125-0.938 0.25-1.313 0.438-0.438 0.25-0.75 0.563-1.063 0.938s-0.438 0.875-0.438 1.438c0 0.813 0.25 1.5 0.813 1.938 0.5 0.438 1.25 0.75 2 1zM15.75 18.563c0.625 0.625 0.938 1.5 0.938 2.625 0 0.563-0.063 1.125-0.313 1.688s-0.688 1.063-1.25 1.5c-0.5 0.375-1.125 0.688-1.938 0.938-0.375 0.125-0.688 0.188-1.063 0.25s-1.125 0.063-1.125 0.063v-9.063l1.25 0.313c0.625 0.188 1.188 0.375 1.75 0.563 0.625 0.25 1.25 0.625 1.75 1.125zM15.438 22.438c0.188-0.438 0.25-0.813 0.25-1.25 0-0.875-0.188-1.5-0.625-1.938s-0.938-0.688-1.438-0.875-1-0.313-1.625-0.5v6.688c0.375-0.063 0.625-0.125 0.875-0.188 0.688-0.188 1.25-0.5 1.688-0.813s0.688-0.688 0.875-1.125zM19.688 18.938c0.188 0.625 0.313 1.188 0.313 1.813 0 1.313-0.313 2.375-0.875 3.313s-1.25 1.625-2.188 2.188-1.938 1.063-3.125 1.313c-0.625 0.125-1.188 0.188-1.813 0.25v2.188h-4v-2.188c-0.563-0.063-1.188-0.25-1.75-0.375-1.25-0.313-2.25-0.75-3.188-1.438s-1.625-1.5-2.188-2.563c-0.5-1-0.813-2.125-0.875-3.438h4.313c0 0.75 0.125 1.5 0.438 2.063 0.313 0.625 0.75 1.063 1.313 1.438s1.25 0.688 1.938 0.875v-7.5c-0.5-0.125-1.125-0.25-1.688-0.375-1.063-0.25-1.875-0.563-2.563-1s-1.25-0.938-1.688-1.438-0.688-1.063-0.875-1.625-0.25-1.125-0.25-1.75c0-1.125 0.25-2.125 0.75-3s1.188-1.563 2.063-2.125 1.813-1 2.875-1.25c0.438-0.125 0.938-0.188 1.375-0.25v-2.063h4v2.063c0.563 0.063 1 0.25 1.5 0.375 1.125 0.313 2.125 0.75 3 1.375s1.563 1.375 2.063 2.313c0.438 0.813 0.688 1.75 0.75 2.875h-4.313c-0.188-1.313-0.75-2.313-1.625-2.875-0.438-0.25-0.813-0.5-1.375-0.625v6.625c0.563 0.125 1 0.25 1.563 0.375 0.75 0.188 1.375 0.375 1.688 0.438 0.813 0.25 1.438 0.563 2.063 0.938 0.625 0.438 1.125 0.875 1.5 1.375s0.688 1.063 0.875 1.688zM18.313 23.5c0.438-0.75 0.688-1.688 0.688-2.75 0-0.5-0.063-1-0.25-1.5s-0.438-0.938-0.75-1.375-0.75-0.813-1.25-1.188c-0.5-0.313-1.125-0.625-1.813-0.813-0.313-0.063-0.813-0.188-1.5-0.375h-0.063l-0.25-0.063c-0.438-0.125-0.813-0.25-1.313-0.375l-0.813-0.188v-8.563s0.563 0.063 1.188 0.25 1.188 0.375 1.75 0.75c0.938 0.563 1.563 1.5 1.875 2.688h2.375c-0.125-0.5-0.25-0.938-0.5-1.375-0.438-0.813-1-1.5-1.75-2-0.75-0.563-1.688-1-2.688-1.25-0.5-0.125-1-0.25-1.438-0.313l-0.813-0.125v-1.938h-2v1.938l-0.875 0.125c-0.438 0.063-0.875 0.125-1.25 0.25-0.938 0.25-1.813 0.625-2.563 1.125s-1.313 1-1.75 1.75c-0.438 0.688-0.625 1.5-0.625 2.5 0 0.5 0.063 0.938 0.188 1.438 0.125 0.438 0.375 0.875 0.688 1.313s0.875 0.813 1.438 1.188c0.625 0.375 1.375 0.625 2.313 0.875v0 0c0.25 0.063 0.5 0.125 0.688 0.188 0.313 0.063 0.688 0.188 1 0.25l0.75 0.188v9.438s-0.5-0.063-1.25-0.25-1.625-0.5-2.25-0.938c-0.688-0.5-1.25-1.125-1.625-1.875-0.25-0.438-0.375-1-0.5-1.5h-2.25c0.125 0.688 0.313 1.438 0.625 2 0.5 0.875 1.063 1.625 1.875 2.188 0.813 0.625 1.75 1 2.875 1.313 0.5 0.125 1.063 0.25 1.625 0.313l0.875 0.125v2.063h2v-2.063l0.938-0.063c0.563-0.063 1.063-0.188 1.625-0.313 1.063-0.25 2-0.625 2.813-1.125s1.438-1.188 1.938-1.938z"></path>
</svg>
