<!-- Generated by IcoMoon.io -->
<svg version="1.1" xmlns="http://www.w3.org/2000/svg" width="20" height="32" viewBox="0 0 20 32">
<title>ion-ios-volume-high</title>
<path d="M17.375 8c1.625 2.25 2.625 5 2.625 8s-1 5.75-2.625 8l-0.875-0.625c1.5-2.063 2.438-4.625 2.438-7.375s-0.938-5.313-2.438-7.375zM14 22l-0.875-0.625c1.125-1.5 1.813-3.375 1.813-5.375s-0.688-3.875-1.813-5.375l0.875-0.625c1.25 1.688 2 3.75 2 6s-0.75 4.313-2 6zM11.063 20l-0.813-0.625c0.75-0.938 1.125-2.125 1.125-3.375s-0.375-2.438-1.125-3.375l0.813-0.625c0.875 1.125 1.375 2.5 1.375 4s-0.5 2.875-1.375 4zM3.625 13.5l4.375-3.5v12l-4.375-3.5h-3.625v-5h3.625z"></path>
</svg>
