<!-- Generated by IcoMoon.io -->
<svg version="1.1" xmlns="http://www.w3.org/2000/svg" width="24" height="32" viewBox="0 0 24 32">
<title>ion-folder</title>
<path d="M22.875 12c1.125 0 1.188 0.438 1.125 1.125l-0.75 11.625c-0.063 0.688-0.188 1.25-1.313 1.25h-19.813c-1.125 0-1.25-0.563-1.313-1.25l-0.813-11.5c-0.063-0.688 0-1.25 1.125-1.25h21.75zM22.625 8.938l0.125 2.063h-21.5c0-0.375 0.25-2.875 0.375-3.938 0.125-1.125 0.5-1.063 1.563-1.063h4.688c1.75 0 1.438 0 2.313 0.938 1 1.125 1.188 1.063 2.563 1.063h8.938c0.688 0 0.938 0.188 0.938 0.938z"></path>
</svg>
