<!-- Generated by IcoMoon.io -->
<svg version="1.1" xmlns="http://www.w3.org/2000/svg" width="32" height="32" viewBox="0 0 32 32">
<title>ion-ios-settings</title>
<path d="M20 6.5c-0.563 0-1 0.438-1 1s0.438 1 1 1 1-0.438 1-1-0.438-1-1-1zM20 5.5v0c1.125 0 2 0.875 2 2s-0.875 2-2 2-2-0.875-2-2 0.875-2 2-2zM20 23.5c-0.563 0-1 0.438-1 1s0.438 1 1 1 1-0.438 1-1-0.438-1-1-1zM20 22.5v0c1.125 0 2 0.875 2 2s-0.875 2-2 2-2-0.875-2-2 0.875-2 2-2zM8 15c-0.563 0-1 0.438-1 1s0.438 1 1 1 1-0.438 1-1-0.438-1-1-1zM8 14v0c1.125 0 2 0.875 2 2s-0.875 2-2 2-2-0.875-2-2 0.875-2 2-2zM10.938 15.5h17.063v1h-17.063c0-0.188 0.063-0.313 0.063-0.5s-0.063-0.313-0.063-0.5zM5 16c0 0.188 0.063 0.313 0.063 0.5h-5.063v-1h5.063c0 0.188-0.063 0.313-0.063 0.5zM22.938 24h5.063v1h-5.063c0-0.188 0.063-0.313 0.063-0.5s-0.063-0.313-0.063-0.5zM17 24.5c0 0.188 0.063 0.313 0.063 0.5h-17.063v-1h17.063c0 0.188-0.063 0.313-0.063 0.5zM22.938 7h5.063v1h-5.063c0-0.188 0.063-0.313 0.063-0.5s-0.063-0.313-0.063-0.5zM17.063 7c0 0.188-0.063 0.313-0.063 0.5s0.063 0.313 0.063 0.5h-17.063v-1h17.063z"></path>
</svg>
