<!-- Generated by IcoMoon.io -->
<svg version="1.1" xmlns="http://www.w3.org/2000/svg" width="21" height="32" viewBox="0 0 21 32">
<title>ion-loop</title>
<path d="M11.5 18.75v3.625c3.063-0.5 5.375-3.125 5.375-6.375 0-1-0.25-1.875-0.625-2.75-0.188-0.375-0.313-0.75-0.563-1.063l2.938-2.688c0.063 0.063 0.125 0.188 0.188 0.25 1.313 1.75 2.063 3.875 2.063 6.25v0.25c-0.125 4.5-2.938 8.188-6.938 9.625-0.75 0.25-1.625 0.5-2.438 0.563v3.563l-6.375-5.625 2.75-2.438zM0 15.75c0.125-4.5 3-8.313 7.063-9.688 0.75-0.25 1.5-0.438 2.313-0.5v-3.563l6.375 5.625-2.75 2.438-3.688 3.188 0.063-3.625c-3.063 0.5-5.375 3.188-5.375 6.375 0 1 0.25 1.938 0.625 2.813 0.188 0.375 0.313 0.688 0.563 1l-2.938 2.75c-0.063-0.125-0.125-0.188-0.188-0.313-1.25-1.75-2.063-3.938-2.063-6.25v-0.25z"></path>
</svg>
