<!-- Generated by IcoMoon.io -->
<svg version="1.1" xmlns="http://www.w3.org/2000/svg" width="24" height="32" viewBox="0 0 24 32">
<title>ion-beaker</title>
<path d="M5 12h15v14c0 0.563-0.438 1-1 1h-13c-0.563 0-1-0.438-1-1v-14zM18.5 21.5v-3c0-0.25-0.25-0.5-0.5-0.5s-0.5 0.25-0.5 0.5v3c0 0.25 0.25 0.5 0.5 0.5s0.5-0.25 0.5-0.5zM18 17c0.25 0 0.5-0.25 0.5-0.5s-0.25-0.5-0.5-0.5-0.5 0.25-0.5 0.5 0.25 0.5 0.5 0.5zM23.813 2c0.188 0 0.188 0.125 0.188 0.188s-0.125 0.188-0.188 0.313-0.813 1.25-0.813 2.5v21c0 2.188-1.813 4-4 4h-13c-2.188 0-4-1.813-4-4v-19.188c0-2-0.125-2.063-2-2.313 0-0.75 0.688-2.5 4.063-2.5h19.75zM21 5c0-0.313 0-1 0.063-1h-17.063c-0.063 0-0.188 0-0.25 0.063 0.313 0.438 0.25 2 0.25 2.75v19.188c0 1.125 0.875 2 2 2h13.125c1.063 0 1.875-0.875 1.875-2v-21z"></path>
</svg>
