<!-- Generated by IcoMoon.io -->
<svg version="1.1" xmlns="http://www.w3.org/2000/svg" width="20" height="32" viewBox="0 0 20 32">
<title>ion-fireball</title>
<path d="M18.563 14.875c0.875 1.5 1.438 3.25 1.438 5.125 0 2.063-0.625 3.938-1.625 5.5v0 0c-1.813 2.688-4.875 4.5-8.375 4.5-1.063 0-2-0.063-2.875-0.438s-1.563-0.813-2.063-1.563c-0.688-1-1.063-1.75-1.313-3.25-0.375 1.563 0.125 3 0.563 3.75-2.688-1.625-4.313-4.438-4.313-7.813v-0.25c0.313-4.875 4.063-6.813 5.625-9.438 0.5-0.875 0.813-1.875 0.625-3 0.688 0.563 0.938 1.563 0.938 2.438 0 1-0.188 1.813-0.188 1.813 0.25-0.5 0.438-1.125 0.563-1.938 0.375-2.188 0.125-5.313-2.313-8.25l-0.063-0.063s0.438 0 1.125 0.188c5.938 1 10.563 5.688 11.5 11.625 0.125 0.75 0.188 1.438 0.188 2.188 0 1-0.125 2-0.313 2.938 0.625-1.438 0.813-2.688 0.875-3.438v-0.625z"></path>
</svg>
