<!-- Generated by IcoMoon.io -->
<svg version="1.1" xmlns="http://www.w3.org/2000/svg" width="24" height="32" viewBox="0 0 24 32">
<title>ion-ios-book</title>
<path d="M6.25 4c2.188 0 4.188 0.625 5.25 1.938v22.063h-0.125c-0.5-2.25-2.625-4-5.125-4-2.125 0-4.063 1-4.875 2.625h-1.375v-17.688c0-3.313 2.813-4.938 6.25-4.938zM17.75 4c3.438 0 6.25 1.625 6.25 4.938v17.688h-1.375c-1.063-1.875-2.75-2.625-4.875-2.625-2.5 0-4.625 1.75-5.125 4h-0.125v-22.063c1.063-1.313 3.125-1.938 5.25-1.938z"></path>
</svg>
