<!-- Generated by IcoMoon.io -->
<svg version="1.1" xmlns="http://www.w3.org/2000/svg" width="32" height="32" viewBox="0 0 32 32">
<title>ion-medkit</title>
<path d="M27.5 9c0.25 0 0.5 0.25 0.5 0.5v18c0 0.25-0.25 0.5-0.5 0.5h-27c-0.25 0-0.5-0.25-0.5-0.5v-18c0-0.25 0.25-0.5 0.5-0.5h7.5v-1.938c0.063-1.75 1.375-3.063 3.188-3.063h5.625c1.875 0 3.125 1.313 3.188 3.063v1.938h7.5zM10 7.313v1.688h8v-1.813c0-0.625-0.563-1.188-1.188-1.188h-5.625c-0.625 0-1.188 0.563-1.188 1.188v0.125zM20 20v-4h-4v-4h-4v4h-4v4h4v4h4v-4h4z"></path>
</svg>
