<!-- Generated by IcoMoon.io -->
<svg version="1.1" xmlns="http://www.w3.org/2000/svg" width="26" height="32" viewBox="0 0 26 32">
<title>ion-ios-ionic-outline</title>
<path d="M23.625 8.438c1.5 2.125 2.375 4.75 2.375 7.563 0 7.188-5.75 13-12.938 13s-13.063-5.813-13.063-13 5.875-13 13.063-13c2.813 0 5.375 0.875 7.5 2.375 0.375-0.313 0.813-0.5 1.313-0.5 1.188 0 2.188 1 2.188 2.188 0 0.5-0.125 1-0.438 1.375zM21.875 5.688c-0.75 0-1.375 0.625-1.375 1.375s0.625 1.375 1.375 1.375 1.375-0.625 1.375-1.375-0.625-1.375-1.375-1.375zM21.5 24.5c1.125-1.125 1.938-2.438 2.563-3.875 0.625-1.5 0.938-3 0.938-4.625s-0.313-3.188-0.938-4.688c-0.313-0.813-0.75-1.563-1.25-2.25-0.313 0.125-0.625 0.188-0.938 0.188-1.188 0-2.188-1-2.188-2.188 0-0.313 0.125-0.688 0.25-0.938-0.688-0.5-1.438-0.938-2.25-1.25-1.5-0.625-3.063-0.875-4.688-0.875s-3.188 0.25-4.688 0.875c-1.438 0.625-2.688 1.5-3.813 2.625s-1.938 2.375-2.563 3.813c-0.625 1.5-0.938 3.063-0.938 4.688s0.313 3.125 0.938 4.625c0.625 1.438 1.438 2.75 2.563 3.875s2.375 1.938 3.813 2.563c1.5 0.625 3.063 0.938 4.688 0.938s3.188-0.313 4.688-0.938c1.438-0.625 2.688-1.438 3.813-2.563zM13 10c3.313 0 6 2.688 6 6s-2.688 6-6 6-6-2.688-6-6 2.688-6 6-6zM13 21c2.75 0 5-2.25 5-5s-2.25-5-5-5-4.938 2.25-4.938 5 2.188 5 4.938 5z"></path>
</svg>
