<!-- Generated by IcoMoon.io -->
<svg version="1.1" xmlns="http://www.w3.org/2000/svg" width="24" height="32" viewBox="0 0 24 32">
<title>ion-social-dribbble</title>
<path d="M12 4c6.625 0 12 5.375 12 12s-5.375 12-12 12-12-5.375-12-12 5.375-12 12-12zM12 26c5.5 0 10-4.5 10-10s-4.5-10-10-10-10 4.5-10 10 4.5 10 10 10zM15.125 15.438c-0.25-0.688-0.5-1.313-0.813-1.938 1.563-0.688 2.938-1.5 3.938-2.438 0.938 1.188 1.625 2.625 1.75 4.188-1.625 0-3.438 0.063-4.875 0.188zM16.938 9.75c-0.938 0.75-2.125 1.438-3.5 2-0.75-1.375-1.5-2.563-2.375-3.688 0.313-0.063 0.625-0.063 0.938-0.063 1.875 0 3.563 0.688 4.938 1.75zM8.875 8.625c0.938 1.125 1.75 2.438 2.563 3.875-2.125 0.625-4.5 1-7.063 1.063 0.688-2.25 2.375-4.063 4.5-4.938zM19.938 17c-0.25 2.063-1.313 3.938-2.875 5.188-0.188-0.875-0.313-1.75-0.563-2.688-0.188-0.813-0.5-1.625-0.75-2.375 1.313-0.125 2.813-0.188 4.188-0.125zM12.125 16c-2.688 1.125-4.938 2.875-6.5 4.875-1-1.375-1.625-3.063-1.625-4.875v-0.438c3.063-0.063 5.938-0.5 8.375-1.313 0.25 0.5 0.438 1 0.625 1.5-0.375 0.063-0.625 0.125-0.875 0.25zM13.688 17.375c0.375 1 0.688 2 0.938 3.063 0.25 0.938 0.438 1.938 0.625 2.875-1 0.438-2.125 0.688-3.25 0.688-1.938 0-3.688-0.688-5.063-1.813 1.375-1.875 3.313-3.375 5.625-4.438 0.25-0.125 0.688-0.25 1.125-0.375z"></path>
</svg>
