<!-- Generated by IcoMoon.io -->
<svg version="1.1" xmlns="http://www.w3.org/2000/svg" width="32" height="32" viewBox="0 0 32 32">
<title>ion-ios-cloud-outline</title>
<path d="M22.938 14.563c2.813 0 5.063 2.313 5.063 5.188 0 2.813-2.313 5.25-5.125 5.25h-17.25c-3.125 0-5.625-2.625-5.625-5.75 0-2.5 1.625-4.438 3.813-5.188 0.313-1.75 1.813-3.25 3.688-3.25 0.625 0 1.125 0.125 1.625 0.375 1.188-2.438 3.688-4.188 6.563-4.188 4 0 7.313 3.313 7.313 7.313 0 0.063-0.063 0.188-0.063 0.25zM22.875 24c2.313 0 4.125-2 4.125-4.313s-1.813-4.188-4.125-4.188h-0.938v-1.313c0-3.5-2.875-6.188-6.313-6.188-2.375 0-4.563 1.438-5.625 3.625l-0.375 0.875-0.875-0.438c-0.375-0.188-0.813-0.313-1.25-0.313-1.375 0-2.5 1.063-2.75 2.438l-0.063 0.563-0.563 0.188c-1.875 0.625-3.125 2.313-3.125 4.313 0 2.563 2.063 4.75 4.625 4.75h17.25z"></path>
</svg>
