<!-- Generated by IcoMoon.io -->
<svg version="1.1" xmlns="http://www.w3.org/2000/svg" width="32" height="32" viewBox="0 0 32 32">
<title>ion-paintbrush</title>
<path d="M7.375 17.688c3.25 0 6.375 2.563 5.625 6.375-0.688 3.25-3.375 4.438-5.625 4.813-1.875 0.313-6.25 0-7.375-2.188 1.5-0.563 2.125-1.625 2.125-3.063 0-3.063 2-5.938 5.25-5.938zM27.25 3.75c0.813 0.813 1.063 1.875 0.313 2.813l-9.625 10.938c0.125 0.563 0.063 1.063-0.188 1.438l-3.125 3.625c-0.125 0.125-0.25 0.125-0.375 0-0.063-0.063-0.063-0.125-0.063-0.188v-0.063c0.125-3.313-2.563-5.438-5.563-5.625v0h-0.125s-0.125 0-0.125-0.063c-0.125-0.125-0.125-0.25 0-0.375l3.688-3.063c0.375-0.25 0.875-0.25 1.438-0.125l10.938-9.625c0.938-0.75 2-0.5 2.813 0.313zM8.375 16.25v0 0 0z"></path>
</svg>
