<!-- Generated by IcoMoon.io -->
<svg version="1.1" xmlns="http://www.w3.org/2000/svg" width="20" height="32" viewBox="0 0 20 32">
<title>ion-icecream</title>
<path d="M2 16h16l-8 14zM19.188 10.813c0.5 0.313 0.813 0.813 0.813 1.438 0 1-0.875 1.75-1.875 1.75h-16.25c-1 0-1.875-0.813-1.875-1.75 0-0.625 0.375-1.125 0.875-1.438 0.063 0 0.063-0.125 0.125-0.125 0.25-0.188 0.438-0.438 0.5-0.75v-0.063c-0.125-0.375-0.125-0.75-0.125-1.125 0-2.625 2.125-4.75 4.75-4.75 0.5 0 1 0.125 1.438 0.25-0.188 0.75-0.25 1.938-0.25 1.938 0.125-0.938 0.688-1.813 0.688-1.813 1.125-1.438 2.875-2.375 4.813-2.375 3.313 0 6 2.688 6 6 0 0.688-0.125 1.313-0.313 1.875v0.063c0 0.25 0.25 0.563 0.5 0.75 0.063 0 0.125 0.125 0.188 0.125z"></path>
</svg>
