<!-- Generated by IcoMoon.io -->
<svg version="1.1" xmlns="http://www.w3.org/2000/svg" width="32" height="32" viewBox="0 0 32 32">
<title>ion-ios-speedometer</title>
<path d="M24.063 17.438v0.938h1.875c-0.063 1.375-0.375 2.75-0.938 4.063-0.5 1.125-1.188 2.188-2 3.125-2.438-2.313-5.625-3.625-9-3.625s-6.563 1.313-9 3.625c-0.813-0.938-1.5-2-2-3.125-0.563-1.313-0.875-2.688-0.938-4.063h1.813v-1h-1.813c0.063-1.438 0.375-2.813 0.938-4.125 0.563-1.25 1.25-2.375 2.188-3.375l1.563 1.5 0.688-0.688-1.563-1.563c1-0.938 2.25-1.625 3.5-2.188 1.313-0.563 2.688-0.875 4.125-0.938v2.125h0.938v-2.125c1.438 0.063 2.875 0.375 4.188 0.938s2.438 1.25 3.438 2.188l-1.5 1.563 0.688 0.688 1.563-1.563c0.938 1 1.625 2.188 2.188 3.438 0.563 1.313 0.875 2.688 0.938 4.125h-1.875v0.063zM17 18c0-0.625-0.188-1.25-0.563-1.75l3.938-4.75-0.125-0.063-4.563 4.063c-0.5-0.313-1.063-0.5-1.688-0.5-1.625 0-3 1.375-3 3 0 0.625 0.188 1.25 0.563 1.75l-0.75 0.75 0.688 0.688 0.813-0.75c0.5 0.313 1.063 0.563 1.688 0.563 1.625 0 3-1.375 3-3zM14 4c7.75 0 14 6.25 14 14 0 3.563-1.313 6.75-3.5 9.25-0.25 0.25-0.438 0.5-0.688 0.75h-1.438c-2-2.438-5-4-8.375-4s-6.375 1.563-8.375 4h-1.438c-0.25-0.25-0.438-0.5-0.688-0.75-2.188-2.5-3.5-5.688-3.5-9.25 0-7.75 6.25-14 14-14zM23.688 26.313c2.125-2.313 3.25-5.375 3.25-8.5 0-3.438-1.375-6.625-3.813-9.063s-5.688-3.75-9.125-3.75-6.688 1.313-9.125 3.75-3.813 5.625-3.813 9.063c0 3.125 1.125 6.188 3.25 8.5l0.688 0.688v-0.063l0.625-0.625c1.063-1.063 2.375-1.875 3.75-2.438 1.5-0.625 3-0.938 4.625-0.938s3.125 0.313 4.625 0.938c1.375 0.563 2.688 1.375 3.75 2.438v0l0.625 0.625v0.063l0.063-0.063zM12 18c0-1.313 0.688-2 2-2s2 0.688 2 2-0.688 2-2 2-2-0.688-2-2z"></path>
</svg>
