<!-- Generated by IcoMoon.io -->
<svg version="1.1" xmlns="http://www.w3.org/2000/svg" width="26" height="32" viewBox="0 0 26 32">
<title>ion-ios-americanfootball-outline</title>
<path d="M20.688 8.313c7 7 5.063 20.438 5.063 20.438s-1.625 0.25-4.063 0.25c-4.563 0-11.813-0.75-16.375-5.313-7-7-5.063-20.438-5.063-20.438s1.625-0.25 4.063-0.25c4.563 0 11.813 0.75 16.375 5.313zM1.063 4.063c-0.125 1.188-0.313 3.75 0 6.688 0.063 0.5 0.125 1 0.188 1.438l7.938-7.938c-1.563-0.188-3.188-0.313-4.875-0.313v0 0c-1.375 0-2.563 0.063-3.25 0.125zM6 23c1.875 1.875 4.5 3.313 7.75 4.125 0.625 0.188 1.25 0.313 1.938 0.438l8.875-8.875c-0.25-1.375-0.625-2.75-1.063-3.938-0.875-2.313-2-4.25-3.5-5.75-1.875-1.875-4.5-3.313-7.75-4.125-0.625-0.188-1.25-0.313-1.938-0.438l-8.875 8.875c0.25 1.375 0.625 2.75 1.063 3.938 0.875 2.313 2 4.25 3.5 5.75zM24.938 27.938c0.125-1.188 0.313-3.75 0-6.688-0.063-0.5-0.125-1-0.188-1.438l-7.938 7.938c1.563 0.188 3.188 0.313 4.875 0.313 1.375 0 2.563-0.063 3.25-0.125zM16.188 19.875l-1.75 1.813-0.75-0.75 1.813-1.75-1.438-1.438-1.75 1.813-0.75-0.75 1.813-1.75-1.438-1.438-1.75 1.813-0.75-0.75 1.813-1.75-1.438-1.438-1.75 1.813-0.75-0.75 1.813-1.75-1.375-1.438-1.813 1.813-0.688-0.75 4.188-4.188 0.75 0.688-1.813 1.813 1.438 1.375 1.75-1.813 0.75 0.75-1.813 1.75 1.438 1.438 1.75-1.813 0.75 0.75-1.813 1.75 1.438 1.438 1.75-1.813 0.75 0.75-1.813 1.75 1.375 1.438 1.813-1.813 0.75 0.75-1.813 1.75 1.375 1.438 1.813-1.813 0.688 0.75-4.188 4.188-0.75-0.688 1.813-1.813z"></path>
</svg>
