<!-- Generated by IcoMoon.io -->
<svg version="1.1" xmlns="http://www.w3.org/2000/svg" width="24" height="32" viewBox="0 0 24 32">
<title>ion-filing</title>
<path d="M19.813 8.063c0.75 0 1.188 0 1.188 1.25v1.75h-18v-1.75c0-1.25 0.5-1.25 1.25-1.25h15.563zM16.813 6c0.813 0 1.188 0.063 1.188 1.188h-12c0-1.125 0.438-1.188 1.25-1.188h9.563zM23 10.625c0.813 0.5 1.063 1.063 0.938 2.563l-1.063 11.5c-0.25 1.313-1 1.313-1.5 1.313h-18.75c-0.5 0-1.25 0-1.5-1.313l-1.063-11.563c-0.188-1.625 0.063-1.938 0.938-2.5l0.938-0.625v2h20.063v-2z"></path>
</svg>
