<!-- Generated by IcoMoon.io -->
<svg version="1.1" xmlns="http://www.w3.org/2000/svg" width="10" height="32" viewBox="0 0 10 32">
<title>ion-mic-b</title>
<path d="M5 2c2.188 0 4.063 1.438 4.75 3.688 0.375 1.125 0.25 2.813 0.125 3.438s-0.5 1.25-0.875 1.75c-0.188 0.25-0.438 0.438-0.688 0.563-0.063 0-0.063 0.063-0.125 0.063-0.188 0.063-0.375 0.125-0.625 0.188-0.75 0.188-1.563 0.313-2.438 0.313v0h-0.125c-0.875 0-1.813-0.125-2.563-0.313-0.25-0.063-0.438-0.125-0.625-0.188-0.063 0-0.063-0.063-0.125-0.063-0.25-0.125-0.5-0.313-0.688-0.563-0.375-0.5-0.75-1.125-0.875-1.75s-0.25-2.313 0.125-3.438c0.688-2.25 2.563-3.688 4.75-3.688zM7.438 12.563c0.375 0 0.75 0.313 0.75 0.75v0.125c-0.313 4.188-1.125 15.063-1.188 15.75 0 0-0.188 0.813-2 0.813v0c-1.813 0-2-0.813-2-0.813-0.063-0.688-0.813-11.563-1.125-15.75v-0.125c0-0.438 0.313-0.75 0.688-0.75h0.063c0.063 0 0.063 0.063 0.125 0.063 0.125 0 0.25 0.063 0.375 0.063 0.563 0.125 1.313 0.125 1.938 0.125s1.25 0 1.813-0.125c0.125 0 0.25-0.063 0.375-0.063 0.063 0 0.063-0.063 0.125-0.063h0.063zM5.625 17.625v-2.063c0-0.375-0.25-0.688-0.625-0.688s-0.625 0.313-0.625 0.688v2.063c0 0.375 0.25 0.688 0.625 0.688s0.625-0.313 0.625-0.688z"></path>
</svg>
