<!-- Generated by IcoMoon.io -->
<svg version="1.1" xmlns="http://www.w3.org/2000/svg" width="20" height="32" viewBox="0 0 20 32">
<title>ion-grid</title>
<path d="M4 9.563c0 0.25-0.188 0.438-0.438 0.438h-3.125c-0.25 0-0.438-0.188-0.438-0.438v-3.125c0-0.25 0.188-0.438 0.438-0.438h3.125c0.25 0 0.438 0.188 0.438 0.438v3.125zM12 9.563c0 0.25-0.188 0.438-0.438 0.438h-3.125c-0.25 0-0.438-0.188-0.438-0.438v-3.125c0-0.25 0.188-0.438 0.438-0.438h3.125c0.25 0 0.438 0.188 0.438 0.438v3.125zM20 9.563c0 0.25-0.188 0.438-0.438 0.438h-3.125c-0.25 0-0.438-0.188-0.438-0.438v-3.125c0-0.25 0.188-0.438 0.438-0.438h3.125c0.25 0 0.438 0.188 0.438 0.438v3.125zM4 17.563c0 0.25-0.188 0.438-0.438 0.438h-3.125c-0.25 0-0.438-0.188-0.438-0.438v-3.125c0-0.25 0.188-0.438 0.438-0.438h3.125c0.25 0 0.438 0.188 0.438 0.438v3.125zM12 17.563c0 0.25-0.188 0.438-0.438 0.438h-3.125c-0.25 0-0.438-0.188-0.438-0.438v-3.125c0-0.25 0.188-0.438 0.438-0.438h3.125c0.25 0 0.438 0.188 0.438 0.438v3.125zM20 17.563c0 0.25-0.188 0.438-0.438 0.438h-3.125c-0.25 0-0.438-0.188-0.438-0.438v-3.125c0-0.25 0.188-0.438 0.438-0.438h3.125c0.25 0 0.438 0.188 0.438 0.438v3.125zM4 25.563c0 0.25-0.188 0.438-0.438 0.438h-3.125c-0.25 0-0.438-0.188-0.438-0.438v-3.125c0-0.25 0.188-0.438 0.438-0.438h3.125c0.25 0 0.438 0.188 0.438 0.438v3.125zM12 25.563c0 0.25-0.188 0.438-0.438 0.438h-3.125c-0.25 0-0.438-0.188-0.438-0.438v-3.125c0-0.25 0.188-0.438 0.438-0.438h3.125c0.25 0 0.438 0.188 0.438 0.438v3.125zM20 25.563c0 0.25-0.188 0.438-0.438 0.438h-3.125c-0.25 0-0.438-0.188-0.438-0.438v-3.125c0-0.25 0.188-0.438 0.438-0.438h3.125c0.25 0 0.438 0.188 0.438 0.438v3.125z"></path>
</svg>
