<!-- Generated by IcoMoon.io -->
<svg version="1.1" xmlns="http://www.w3.org/2000/svg" width="22" height="32" viewBox="0 0 22 32">
<title>ion-social-android-outline</title>
<path d="M17 13h-12v9.313h2.5v4.188c0 0.25 0.25 0.5 0.5 0.5s0.5-0.25 0.5-0.5v-4.188h5.063v4.188c0 0.125 0.063 0.25 0.188 0.375h0.063c0.063 0.063 0.125 0.125 0.25 0.125h0.063c0.25 0 0.438-0.25 0.438-0.5v-4.188h2.438v-9.313zM18 12v0 10.375c0 0.438-0.188 0.938-0.625 0.938h-1.813v3.188c0 0.813-0.625 1.5-1.438 1.5v0h-0.063c-0.375 0-0.688-0.125-0.938-0.313-0.313-0.25-0.563-0.688-0.563-1.188v-3.188h-3.063v3.188c0 0.813-0.688 1.5-1.5 1.5s-1.5-0.688-1.5-1.5v-3.188h-1.75c-0.438 0-0.75-0.5-0.75-0.938v-10.375h14zM20.5 12c-0.25 0-0.5 0.25-0.5 0.5v6c0 0.25 0.25 0.5 0.5 0.5s0.5-0.25 0.5-0.5v-6c0-0.25-0.25-0.5-0.5-0.5zM20.5 11v0c0.813 0 1.5 0.688 1.5 1.5v6c0 0.813-0.688 1.5-1.5 1.5s-1.5-0.688-1.5-1.5v-6c0-0.813 0.688-1.5 1.5-1.5zM1.5 12c-0.25 0-0.5 0.25-0.5 0.5v6c0 0.25 0.25 0.5 0.5 0.5s0.5-0.25 0.5-0.5v-6c0-0.25-0.25-0.5-0.5-0.5zM1.5 11v0c0.813 0 1.5 0.688 1.5 1.5v6c0 0.813-0.688 1.5-1.5 1.5s-1.5-0.688-1.5-1.5v-6c0-0.813 0.688-1.5 1.5-1.5zM10.938 5.875c-0.875 0-1.688 0.188-2.375 0.375l-0.625 0.25c-1.75 0.75-2.5 2.313-2.75 3.5h11.625c-0.25-1.125-0.938-2.688-2.75-3.5l-0.625-0.25c-0.75-0.25-1.563-0.375-2.438-0.375v0 0h-0.063zM6.563 4v0h0.063l1.188 1.438c0.813-0.313 1.875-0.563 3.125-0.563h0.063c1.25 0 2.25 0.25 3.125 0.563l1.25-1.438s0.063 0.063 0.125 0.063c0.063 0.063 0.125 0.188 0.125 0.188l-1.188 1.375c3 1.313 3.5 4.438 3.563 5.375h-14c0.063-0.938 0.563-4.125 3.563-5.438l-1.188-1.375c0-0.063 0.063-0.063 0.125-0.125zM7.938 8.688c-0.438 0-0.875-0.375-0.875-0.813s0.375-0.875 0.875-0.875c0.438 0 0.813 0.438 0.813 0.875s-0.313 0.813-0.813 0.813zM14.063 8.688c-0.438 0-0.813-0.375-0.813-0.813s0.313-0.875 0.813-0.875c0.438 0 0.813 0.438 0.813 0.875s-0.375 0.813-0.813 0.813z"></path>
</svg>
