<!-- Generated by IcoMoon.io -->
<svg version="1.1" xmlns="http://www.w3.org/2000/svg" width="18" height="32" viewBox="0 0 18 32">
<title>ion-ipad</title>
<path d="M0 4.563c0-0.313 0.25-0.563 0.563-0.563h16.875c0.313 0 0.563 0.25 0.563 0.563v22.875c0 0.313-0.25 0.563-0.563 0.563h-16.875c-0.313 0-0.563-0.25-0.563-0.563v-22.875zM9 27.375c0.5 0 0.875-0.375 0.875-0.875s-0.438-0.875-0.875-0.875c-0.5 0-0.875 0.375-0.875 0.875s0.375 0.875 0.875 0.875zM2 7.438v17.188c0 0.25 0.188 0.375 0.375 0.375h13.188c0.188 0 0.438-0.125 0.438-0.375v-17.188c0-0.25-0.25-0.438-0.438-0.438h-13.188c-0.188 0-0.375 0.188-0.375 0.438z"></path>
</svg>
