<!-- Generated by IcoMoon.io -->
<svg version="1.1" xmlns="http://www.w3.org/2000/svg" width="26" height="32" viewBox="0 0 26 32">
<title>ion-ios-contact-outline</title>
<path d="M13 3c7.188 0 13 5.813 13 13s-5.813 13-13 13-13-5.813-13-13 5.813-13 13-13zM13 4.063c-6.563 0-11.938 5.375-11.938 11.938 0 2.938 1.063 5.563 2.813 7.625 1.125-0.5 3.875-1.5 5.625-2 0.125-0.063 0.188 0 0.188-0.625 0-0.688-0.063-1.125-0.25-1.5-0.25-0.5-0.438-1.25-0.563-1.938-0.25-0.313-0.625-0.938-0.875-2.063-0.188-1-0.063-1.375 0.063-1.75v-0.125c0.063-0.25 0-1.438-0.188-2.375-0.125-0.625 0.063-2.125 0.938-3.25 0.563-0.75 1.688-1.625 3.625-1.75h1.125c2 0.125 3.063 1 3.625 1.75 0.875 1.125 1.063 2.625 0.938 3.25-0.188 0.938-0.25 2.125-0.188 2.375 0 0 0.063 0.063 0.063 0.125 0.125 0.375 0.188 0.75 0 1.75-0.25 1.125-0.625 1.688-0.875 2-0.125 0.688-0.313 1.5-0.563 2-0.188 0.438-0.375 0.938-0.375 1.438 0 0.625 0 0.625 0.125 0.688 1.688 0.5 4.563 1.5 5.813 2 1.75-2.063 2.813-4.75 2.813-7.625 0-6.563-5.375-11.938-11.938-11.938z"></path>
</svg>
