<!-- Generated by IcoMoon.io -->
<svg version="1.1" xmlns="http://www.w3.org/2000/svg" width="32" height="32" viewBox="0 0 32 32">
<title>ion-tshirt-outline</title>
<path d="M9.125 5.375l-6.5 1.938 0.688 2 2.438-0.25 2.375-0.313-0.125 2.375-0.875 15.938h13.75l-0.875-15.938-0.125-2.375 2.375 0.313 2.438 0.25 0.688-2-6.5-1.938c-0.375 0.5-0.813 0.875-1.313 1.188-0.938 0.625-2.125 0.938-3.563 0.938v0 0c-2.125-0.063-3.688-0.688-4.875-2.125zM18 3v0l10 3-2 5.5-4-0.5 1 18.063h-18l1-18.063-4 0.5-2-5.5 10-3c0.875 1.688 1.938 2.438 4 2.5 2.063 0 3.125-0.813 4-2.5z"></path>
</svg>
