<!-- Generated by IcoMoon.io -->
<svg version="1.1" xmlns="http://www.w3.org/2000/svg" width="18" height="32" viewBox="0 0 18 32">
<title>ion-ios-lightbulb-outline</title>
<path d="M18 10.813c0 1.938-0.813 3.688-1.875 5.188v0c-0.688 0.938-1.375 1.75-2 2.813-1.375 2.375-1.125 4.563-1.125 5.125v0.063h-8v-0.063c0-0.438 0.188-2.75-1.188-5.125-0.625-1.063-1.25-1.875-1.938-2.813v0c-1.063-1.5-1.875-3.25-1.875-5.188 0-4.875 4.125-8.813 9-8.813s9 3.938 9 8.813zM14.938 15.875l0.375-0.5c1-1.375 1.688-2.938 1.688-4.563 0-2.063-1-4.063-2.5-5.563s-3.438-2.25-5.5-2.25-4 0.75-5.5 2.25-2.5 3.5-2.5 5.563c0 1.625 0.688 3.188 1.688 4.563l1.188 1.625c0.313 0.375 0.563 0.813 0.813 1.313 1.063 1.813 1.313 3.625 1.313 4.688h1v-7l-2-4h1.063l1.938 4v7h2v-7l1.938-4h1.063l-2 4v7h1c0-1.063 0.25-2.813 1.313-4.688 0.5-0.875 1-1.563 1.5-2.25 0.063-0.063 0.063-0.125 0.125-0.188zM7 30v-1h4v1h-4zM6 28v-1h6v1h-6zM6 26v-1h6v1h-6z"></path>
</svg>
