<!-- Generated by IcoMoon.io -->
<svg version="1.1" xmlns="http://www.w3.org/2000/svg" width="32" height="32" viewBox="0 0 32 32">
<title>ion-power</title>
<path d="M14 16c-1.125 0-2-0.875-2-2v-10c0-1.125 0.875-2 2-2s2 0.875 2 2v10c0 1.125-0.875 2-2 2zM21.688 4.313c3.813 2.5 6.313 6.813 6.313 11.688 0 7.75-6.25 14-14 14s-14-6.25-14-14c0-4.875 2.5-9.188 6.313-11.688v0c0.313-0.188 0.688-0.313 1.063-0.313 1.125 0 2 0.875 2 2 0 0.375-0.125 0.75-0.313 1.063-0.125 0.188-0.25 0.375-0.438 0.5-0.063 0.063-0.188 0.125-0.25 0.188-0.5 0.375-1 0.75-1.438 1.188-1.875 1.875-2.938 4.375-2.938 7.063s1.063 5.188 2.938 7.063 4.375 2.938 7.063 2.938 5.188-1.063 7.063-2.938 2.938-4.375 2.938-7.063-1.063-5.188-2.938-7.063c-0.438-0.438-0.938-0.813-1.438-1.188-0.063-0.063-0.188-0.125-0.25-0.188-0.188-0.125-0.313-0.313-0.438-0.5-0.188-0.313-0.313-0.688-0.313-1.063 0-1.125 0.875-2 2-2 0.375 0 0.75 0.125 1.063 0.313v0z"></path>
</svg>
