<!-- Generated by IcoMoon.io -->
<svg version="1.1" xmlns="http://www.w3.org/2000/svg" width="32" height="32" viewBox="0 0 32 32">
<title>ion-calendar</title>
<path d="M7 8c-1.125 0-2-0.875-2-2v-2c0-1.125 0.875-2 2-2s2 0.875 2 2v2c0 1.125-0.875 2-2 2zM21 8c-1.125 0-2-0.875-2-2v-2c0-1.125 0.875-2 2-2s2 0.875 2 2v2c0 1.125-0.875 2-2 2zM27.5 4c0.25 0 0.5 0.25 0.5 0.5v25c0 0.25-0.25 0.5-0.5 0.5h-27c-0.25 0-0.5-0.25-0.5-0.5v-25c0-0.25 0.25-0.5 0.5-0.5h3.5v2.563c0 1.375 1.5 2.438 3 2.438s3-1.063 3-2.438v-2.563h8v2.563c0 1.375 1.563 2.438 3.063 2.438s2.938-1.063 2.938-2.438v-2.563h3.5zM25 27v-16h-22v16h22z"></path>
</svg>
