<!-- Generated by IcoMoon.io -->
<svg version="1.1" xmlns="http://www.w3.org/2000/svg" width="20" height="32" viewBox="0 0 20 32">
<title>ion-social-apple</title>
<path d="M14.875 9.625v0c1.563 0 3.25 0.875 4.438 2.438-3.938 2.25-3.313 8 0.688 9.563-0.563 1.25-0.813 1.75-1.5 2.875-1 1.563-2.313 3.5-4.063 3.5h-0.063c-1.5 0-1.938-1-3.938-1v0c-2.063 0-2.5 1-4 1h-0.063c-1.75 0-3-1.75-4-3.313-2.75-4.313-3-9.375-1.313-12.063 1.188-1.875 3.125-3 4.875-3 1.813 0 2.938 1 4.438 1 1.438 0 2.375-1 4.5-1zM14.375 4v0c0.188 1.438-0.375 2.875-1.125 3.875-0.813 1.063-2.188 1.875-3.5 1.875h-0.063c-0.25-1.375 0.375-2.75 1.125-3.75 0.875-1.063 2.313-1.938 3.563-2z"></path>
</svg>
