<!-- Generated by IcoMoon.io -->
<svg version="1.1" xmlns="http://www.w3.org/2000/svg" width="26" height="32" viewBox="0 0 26 32">
<title>ion-ios-printer-outline</title>
<path d="M24 7c1.125 0 2 0.813 2 1.938v9.938c0 1.125-0.875 2-2 2h-3v7.125h-16v-7.125h-3c-1.125 0-2-0.875-2-2v-9.938c0-1.125 0.875-1.938 2-1.938h2v-3h18v3h2zM5 5v2h16v-2h-16zM20 27v-12h-14v12h14zM25 18.875v-9.938c0-0.563-0.438-0.938-1-0.938v0h-22c-0.563 0-1 0.375-1 0.938v9.938c0 0.563 0.438 1 1 1h3v-5.875h16v5.875h3c0.563 0 1-0.438 1-1z"></path>
</svg>
