<!-- Generated by IcoMoon.io -->
<svg version="1.1" xmlns="http://www.w3.org/2000/svg" width="26" height="32" viewBox="0 0 26 32">
<title>ion-film-marker</title>
<path d="M25 13c0.563 0 1 0.438 1 0.938v13.125c0 0.5-0.438 0.938-1 0.938h-24c-0.563 0-1-0.438-1-0.938v-13.125c0-0.5 0.375-0.875 0.813-0.938-0.125-0.125-0.188-0.25-0.25-0.438l-0.563-2.813c-0.125-0.5 0.313-1 0.813-1.125l23.125-4.625c0.5-0.125 1 0.25 1.125 0.75l0.563 2.875c0.125 0.5-0.25 1-0.75 1.125l-21.375 4.25h21.5zM16.063 25.125l-1.25-3.625 3.188-2.25h-3.875l-1.25-3.625-1.188 3.625h-3.938l3.188 2.25-1.188 3.625 3.125-2.25z"></path>
</svg>
