<!-- Generated by IcoMoon.io -->
<svg version="1.1" xmlns="http://www.w3.org/2000/svg" width="24" height="32" viewBox="0 0 24 32">
<title>ion-erlenmeyer-flask-bubbles</title>
<path d="M23.875 26.688c0.125 0.25 0.188 0.625 0 0.875s-0.5 0.438-0.813 0.438h-22.188c-0.313 0-0.563-0.188-0.75-0.438s-0.125-0.625 0-0.875l7.375-12.438v-9.375c0-0.5 0.375-0.875 0.875-0.875s0.938 0.375 0.938 0.875v5c0.25-0.188 0.625-0.313 1-0.313 0.938 0 1.688 0.75 1.688 1.688s-0.75 1.625-1.688 1.625c-0.375 0-0.75-0.125-1-0.313v1.938c0 0.125-0.063 0.25-0.125 0.375l-2.188 3.688h4.5c-0.938-0.375-1.625-1.25-1.625-2.313 0-1.438 1.188-2.625 2.688-2.625 0.938 0 1.688 0.5 2.188 1.188-0.063-0.125-0.063-0.188-0.063-0.313v-9.625c0-0.5 0.375-0.875 0.875-0.875s0.938 0.375 0.938 0.875v9.375zM13.625 18.563h3.313l-1.938-3.375c0.125 0.313 0.188 0.688 0.188 1.063 0 1.063-0.625 1.938-1.563 2.313zM12.563 8.063c-0.75 0-1.375-0.563-1.375-1.313s0.625-1.313 1.375-1.313 1.375 0.563 1.375 1.313-0.625 1.313-1.375 1.313z"></path>
</svg>
