<!-- Generated by IcoMoon.io -->
<svg version="1.1" xmlns="http://www.w3.org/2000/svg" width="24" height="32" viewBox="0 0 24 32">
<title>ion-coffee</title>
<path d="M19.938 16.063c2.313 0.438 4.063 2.5 4.063 4.938 0 1.25-0.5 2.438-1.313 3.375-0.938 1.063-2.313 1.625-3.813 1.625-0.5 0-1.063-0.063-1.563-0.188-0.375-0.063-0.625-0.188-0.938-0.313-0.688 0.938-1.438 1.563-2 2.063v0c-0.313 0.313-0.75 0.438-1.188 0.438h-6.375c-0.438 0-0.875-0.125-1.188-0.438v0c-1.063-0.938-2.563-2.25-3.875-5.375s-1.75-5.688-1.75-6.938 0.188-1.25 1-1.25h6.313c-0.313-1.063-2.313-1.188-2.313-2.875 0-1.063 0.938-2 1.75-2.313-0.125 0.5-0.188 0.875-0.188 1.313 0 1.188 2.438 1.875 2.438 3.313 0 0.188 0 0.375-0.063 0.563h3.5c0.063-0.313 0.125-0.625 0.125-0.875 0-2.25-3.5-2.25-3.5-5.25 0-1.75 1.313-3.438 2.938-3.875-0.25 0.875-0.563 1.438-0.563 2.188 0 2 3.563 3.125 3.563 5.5 0 0.813-0.313 1.563-0.75 2.313h4.75c0.813 0 1 0 1 1.25 0 0.25 0 0.5-0.063 0.813zM18.875 24c2.063 0 3.125-1.563 3.125-3s-1.063-2.688-2.438-2.938c-0.25 1.188-0.688 2.625-1.313 4.125-0.25 0.563-0.5 1.063-0.75 1.563 0.375 0.188 0.813 0.25 1.375 0.25z"></path>
</svg>
