<!-- Generated by IcoMoon.io -->
<svg version="1.1" xmlns="http://www.w3.org/2000/svg" width="32" height="32" viewBox="0 0 32 32">
<title>ion-checkmark-circled</title>
<path d="M14 2c7.75 0 14 6.25 14 14s-6.25 14-14 14-14-6.25-14-14 6.25-14 14-14zM21.188 11.313c0.063-0.063 0.063-0.125 0.063-0.188s0-0.188-0.063-0.25l-1.938-1.5c-0.063-0.063-0.188-0.063-0.25-0.063s-0.125 0-0.188 0.063l-6.938 8.938s-2.75-2.625-2.813-2.688-0.25-0.188-0.375-0.188-0.188 0.125-0.25 0.188l-1.625 1.625c-0.063 0.063-0.063 0.188-0.063 0.25s0 0.125 0.063 0.188l0.125 0.063s4.875 4.688 4.938 4.75 0.188 0.188 0.313 0.188 0.25-0.125 0.313-0.188z"></path>
</svg>
