<!-- Generated by IcoMoon.io -->
<svg version="1.1" xmlns="http://www.w3.org/2000/svg" width="32" height="32" viewBox="0 0 32 32">
<title>ion-ios-cloud-download</title>
<path d="M13.5 27.188v-6.688h1v6.688l3.438-3.375 0.75 0.75-4.688 4.563-4.625-4.563 0.688-0.75zM22.938 10.25c2.813 0 5.063 2.313 5.063 5.125s-2.313 5.125-5.125 5.125h-8.375v-8.438h-1v8.438h-7.875c-3.125 0-5.625-2.5-5.625-5.563 0-2.438 1.625-4.438 3.813-5.188 0.313-1.75 1.813-3.188 3.688-3.188 0.625 0 1.125 0.125 1.625 0.375 1.188-2.438 3.688-4.063 6.563-4.063 4 0 7.313 3.188 7.313 7.188 0 0.063-0.063 0.125-0.063 0.188z"></path>
</svg>
