<!-- Generated by IcoMoon.io -->
<svg version="1.1" xmlns="http://www.w3.org/2000/svg" width="26" height="32" viewBox="0 0 26 32">
<title>ion-ios-information-outline</title>
<path d="M11.5 10.75c0-0.813 0.438-1.25 1.25-1.25s1.25 0.438 1.25 1.25-0.438 1.25-1.25 1.25-1.25-0.438-1.25-1.25zM14 21.5h1v0.5h-4v-0.5h1v-7.5h-1v-0.5h3v8zM13 3c3.563 0 6.625 1.25 9.188 3.813s3.813 5.625 3.813 9.188-1.25 6.625-3.813 9.188-5.625 3.813-9.188 3.813-6.625-1.25-9.188-3.813-3.813-5.625-3.813-9.188 1.25-6.625 3.813-9.188 5.625-3.813 9.188-3.813zM13 27.938c3.313 0 6.125-1.188 8.438-3.5s3.5-5.125 3.5-8.438-1.188-6.125-3.5-8.438-5.125-3.5-8.438-3.5-6.125 1.188-8.438 3.5-3.5 5.125-3.5 8.438 1.188 6.125 3.5 8.438 5.125 3.5 8.438 3.5z"></path>
</svg>
