<!-- Generated by IcoMoon.io -->
<svg version="1.1" xmlns="http://www.w3.org/2000/svg" width="24" height="32" viewBox="0 0 24 32">
<title>ion-ios-body-outline</title>
<path d="M12 3c-1.125 0-2 0.875-2 2s0.875 2 2 2 2-0.875 2-2-0.875-2-2-2zM12 2v0c1.688 0 3 1.313 3 3s-1.313 3-3 3-3-1.313-3-3 1.313-3 3-3zM22.5 9c0.813 0 1.5 0.688 1.5 1.5s-0.688 1.5-1.5 1.5h-6.25c-0.313 0-0.875 0.313-1.125 0.938-0.313 0.75-0.125 2.063 0.063 3.188l0.25 1.313v0.063l2 10.75c0.125 0.813-0.375 1.625-1.188 1.75h-0.313c-0.688 0-1.375-0.5-1.5-1.25l-1.313-7.5s-0.313-1.938-1.063-1.938h-0.125c-0.75 0-1.188 1.938-1.188 1.938v0l-1.313 7.5c-0.125 0.75-0.688 1.25-1.375 1.25h-0.313c-0.813-0.125-1.313-0.938-1.188-1.75l2-10.75v-0.063l0.25-1.313c0.188-1.125 0.375-2.438 0.063-3.188-0.25-0.625-0.75-0.938-1.125-0.938h-6.25c-0.813 0-1.5-0.688-1.5-1.5s0.688-1.5 1.5-1.5h21zM1.5 11c-0.25 0-0.5-0.25-0.5-0.5s0.25-0.5 0.5-0.5h21c0.25 0 0.5 0.25 0.5 0.5s-0.25 0.5-0.5 0.5h-6.375c-1 0-1.625 0.938-1.875 1.5-0.313 0.813-0.375 2-0.063 3.813v0 0l0.188 1.188 0.063 0.188 2 10.75c0 0.188 0 0.313-0.063 0.375s-0.125 0.125-0.313 0.188h-0.125c-0.25 0-0.438-0.125-0.5-0.375l-1.313-7.5c0-0.125-0.125-0.625-0.313-1.188-0.125-0.375-0.313-0.688-0.5-0.938-0.438-0.563-0.875-0.688-1.25-0.688h-0.125c-0.313 0-0.813 0.125-1.25 0.688-0.188 0.25-0.375 0.563-0.5 0.938-0.25 0.563-0.375 1.063-0.375 1.125v0.063l-1.313 7.5c-0.063 0.25-0.188 0.375-0.438 0.375h-0.125c-0.188 0-0.25-0.125-0.313-0.188s-0.125-0.188-0.063-0.375l2-10.75v-0.063l0.25-1.313c0.313-1.813 0.313-3 0-3.813-0.25-0.563-0.875-1.5-2-1.5z"></path>
</svg>
