<!-- Generated by IcoMoon.io -->
<svg version="1.1" xmlns="http://www.w3.org/2000/svg" width="32" height="32" viewBox="0 0 32 32">
<title>ion-android-options</title>
<path d="M0 26v-2h17v2h-17zM23 26v-2h5v2h-5zM22 28c0 1.125-0.875 2-2 2v0c-1.125 0-2-0.875-2-2v-6c0-1.125 0.875-2 2-2v0c1.125 0 2 0.875 2 2v6zM0 17v-2h5v2h-5zM11 17v-2h17v2h-17zM10 19c0 1.125-0.875 2-2 2v0c-1.125 0-2-0.875-2-2v-6c0-1.125 0.875-2 2-2v0c1.125 0 2 0.875 2 2v6zM0 8v-2h17v2h-17zM23 8v-2h5v2h-5zM22 10c0 1.125-0.875 2-2 2v0c-1.125 0-2-0.875-2-2v-6c0-1.125 0.875-2 2-2v0c1.125 0 2 0.875 2 2v6z"></path>
</svg>
