<!-- Generated by IcoMoon.io -->
<svg version="1.1" xmlns="http://www.w3.org/2000/svg" width="32" height="32" viewBox="0 0 32 32">
<title>ion-social-vimeo-outline</title>
<path d="M27.813 7.125c0.438 2.063 0.063 4.125-0.813 6.063s-1.938 3.688-3.188 5.438c-1.625 2.25-3.25 4.438-5.313 6.313-1.188 1.125-2.563 2.188-4.125 2.75-0.625 0.25-1.188 0.313-1.688 0.313-1.063 0-1.938-0.563-2.75-1.688-0.875-1.188-1.375-2.5-1.75-3.938-0.75-2.813-1.563-5.625-2.375-8.375-0.25-0.75-0.563-1.375-0.938-2.063-0.188-0.313-0.5-0.625-0.75-0.875-0.125-0.125-0.313-0.188-0.5-0.188s-0.375 0.063-0.563 0.188c-0.625 0.375-1.75 1.125-1.75 1.125l-1.313-1.688c1.625-1.5 5.125-4.438 5.125-4.438 0.688-0.563 2.063-1.563 3-1.688h0.5c1.125 0 2 0.438 2.625 1.375 0.688 1.063 0.938 2.313 1.125 3.563 0.438 2.563 0.75 5.125 1.5 7.625 0.188 0.625 0.438 1.25 0.75 1.813 0.25 0.438 0.563 0.625 0.875 0.625 0.25 0 0.438-0.125 0.688-0.313s0.438-0.375 0.625-0.625c1.25-1.5 2.313-3.25 3-5.063 0.188-0.563 0.188-1.063 0.188-1.688 0-0.813-0.625-1.563-1.563-1.625h-0.438c-0.688 0-1.25 0.125-2 0.438 0.375-1.5 1.5-3.875 3.375-5.25 1.25-0.875 2.813-1.25 4.188-1.25 0.625 0 1.25 0.125 1.688 0.25 1.438 0.5 2.25 1.438 2.563 2.875zM26.125 12.75c0.813-1.875 1.063-3.688 0.688-5.438-0.25-1.188-0.813-1.75-1.875-2.125-0.375-0.125-0.875-0.188-1.375-0.188-1.313 0-2.625 0.375-3.563 1.063-1 0.75-1.813 1.875-2.375 3h0.875c1.438 0.063 2.438 1.188 2.5 2.563 0 0.625 0 1.375-0.25 2.125-0.688 1.813-1.813 3.625-3.188 5.313-0.25 0.25-0.438 0.563-0.75 0.813-0.438 0.375-0.938 0.5-1.375 0.5-0.5 0-1.125-0.188-1.688-1.125-0.438-0.688-0.688-1.375-0.875-2-0.625-1.938-0.875-4-1.188-5.938-0.125-0.625-0.188-1.188-0.313-1.813-0.188-1.063-0.375-2.25-1-3.188-0.438-0.625-1-0.938-1.75-0.938h-0.375c-0.5 0.063-1.563 0.688-2.5 1.438-0.125 0.125-2.688 2.313-4.375 3.813l0.125 0.188c0.313-0.25 0.75-0.438 1-0.625 0.375-0.188 0.75-0.313 1.125-0.313 0.438 0 0.813 0.188 1.125 0.438 0.5 0.438 0.813 0.75 1 1.125 0.375 0.688 0.75 1.5 1 2.313 0.813 2.75 1.625 5.5 2.375 8.313 0.313 1.188 0.813 2.563 1.625 3.688s1.438 1.25 1.938 1.25c0.375 0 0.813-0.063 1.313-0.25 1.438-0.5 2.688-1.563 3.813-2.563 2-1.813 3.563-3.938 5.188-6.188v0c1.313-1.75 2.313-3.438 3.125-5.25z"></path>
</svg>
