<!-- Generated by IcoMoon.io -->
<svg version="1.1" xmlns="http://www.w3.org/2000/svg" width="22" height="32" viewBox="0 0 22 32">
<title>ion-ios-telephone</title>
<path d="M21 21c1 1 1.625 2.188 0 4.125-1.563 1.875-2.625 1.875-4 1.875-1.5 0-3.625-0.875-5.813-2.5-2-1.438-2.875-2.125-4.875-4.188-2.125-2.188-3.438-4-4.938-6.688-1.688-3.125-1.5-4.625-1.125-5.75 0.25-0.75 0.875-1.5 1.75-2.063l0.063-0.063c0.375-0.25 1.125-0.75 2-0.75 0.813 0 1.5 0.375 2.125 1.125l0.063 0.063c0.688 0.875 1.5 1.938 2 2.938 0.625 1.313 0.625 2.375-0.063 3.313-0.563 0.75-0.75 1.188-0.75 1.438s0.313 0.563 0.813 1.125l0.063 0.063c1 1.125 1.25 1.438 1.625 1.813 0.063 0.063 0.188 0.125 0.25 0.188l0.125 0.125c0.438 0.438 0.688 0.75 1.813 1.75l0.063 0.063c0.438 0.375 0.563 0.5 0.75 0.5 0.313 0 1-0.438 1.813-0.938 0.25-0.188 0.688-0.313 1.063-0.313 1.688 0 4.25 1.813 5.188 2.75z"></path>
</svg>
