<!-- Generated by IcoMoon.io -->
<svg version="1.1" xmlns="http://www.w3.org/2000/svg" width="24" height="32" viewBox="0 0 24 32">
<title>ion-ios-gear</title>
<path d="M22 16c0 1.313 0.875 2.438 2 2.875-0.313 1.25-0.813 2.5-1.5 3.563-0.375-0.188-0.813-0.25-1.25-0.25-0.813 0-1.563 0.25-2.188 0.875-0.938 0.938-1.125 2.313-0.625 3.438-1.063 0.688-2.313 1.188-3.563 1.5-0.438-1.125-1.563-2-2.875-2s-2.438 0.875-2.875 2c-1.25-0.313-2.5-0.813-3.563-1.5 0.5-1.125 0.313-2.5-0.625-3.438-0.625-0.625-1.375-0.875-2.188-0.875-0.438 0-0.875 0.063-1.25 0.25-0.688-1.063-1.188-2.313-1.5-3.563 1.125-0.438 2-1.563 2-2.875s-0.813-2.438-2-2.875c0.313-1.25 0.813-2.5 1.5-3.563 0.375 0.188 0.813 0.25 1.25 0.25 0.813 0 1.563-0.25 2.188-0.875 0.938-0.938 1.125-2.313 0.625-3.438 1.063-0.688 2.313-1.188 3.563-1.5 0.438 1.188 1.563 2 2.875 2s2.438-0.813 2.875-2c1.25 0.313 2.5 0.813 3.563 1.5-0.5 1.125-0.313 2.5 0.625 3.438 0.625 0.625 1.375 0.875 2.188 0.875 0.438 0 0.875-0.063 1.25-0.25 0.688 1.063 1.188 2.313 1.5 3.563-1.188 0.438-2 1.563-2 2.875zM12.063 21c2.75 0 5-2.25 5-5s-2.25-5-5-5-5 2.25-5 5 2.25 5 5 5z"></path>
</svg>
