<!-- Generated by IcoMoon.io -->
<svg version="1.1" xmlns="http://www.w3.org/2000/svg" width="16" height="32" viewBox="0 0 16 32">
<title>ion-lightbulb</title>
<path d="M8 2c4.438 0 8 3.5 8 7.75 0 0.313 0 0.563-0.063 0.875s-0.125 0.688-0.188 1v0.125c-1.063 3.938-2.813 4.438-3.688 10.438v0.063c-0.125 0.563-0.625 0.75-1.25 0.75h-5.625c-0.625 0-1.125-0.188-1.25-0.75v-0.063c-0.875-6-2.625-6.5-3.688-10.438v-0.125c-0.063-0.313-0.125-0.688-0.188-1s-0.063-0.563-0.063-0.875c0-4.25 3.563-7.75 8-7.75zM11.875 24.75v0.063c-0.125 0.188-0.188 0.25-0.188 0.438s0.063 0.313 0.188 0.5v0.063c0.063 0.125 0.125 0.188 0.125 0.313s-0.063 0.25-0.125 0.375v0.063c-0.125 0.188-0.188 0.25-0.188 0.438s0.063 0.313 0.188 0.5v0.063c0.063 0.125 0.125 0.25 0.125 0.375 0 0.313-0.25 0.563-0.625 0.688h-0.063c-0.375 0.063-0.813 0.125-1.188 0.188h-0.125c-0.375 0.063-0.688 0.313-0.875 0.563v0c-0.25 0.313-0.625 0.625-1.125 0.625s-0.938-0.375-1.188-0.688v0c-0.188-0.25-0.438-0.438-0.813-0.5h-0.125c-0.375-0.063-0.813-0.125-1.188-0.188h-0.063c-0.375-0.125-0.625-0.375-0.625-0.688 0-0.125 0.063-0.25 0.125-0.375v-0.063c0.125-0.125 0.188-0.25 0.188-0.438s-0.063-0.313-0.188-0.5v-0.063c-0.063-0.125-0.125-0.25-0.125-0.375s0.063-0.188 0.125-0.313v-0.063c0.125-0.188 0.188-0.313 0.188-0.5s-0.063-0.25-0.188-0.438v-0.063c-0.063-0.125-0.125-0.25-0.125-0.375 0-0.25-0.063-0.375 0.438-0.375h7.125c0.5 0 0.438 0.125 0.438 0.375 0 0.125-0.063 0.25-0.125 0.375v0z"></path>
</svg>
