<!-- Generated by IcoMoon.io -->
<svg version="1.1" xmlns="http://www.w3.org/2000/svg" width="16" height="32" viewBox="0 0 16 32">
<title>ion-ios-flag</title>
<path d="M15 7c0.375-0.063 0.688-0.063 1-0.125v10.813c-0.313 0.063-0.625 0.063-1 0.125-0.688 0.063-1.5 0.188-2.438 0.188-1.563 0-2.938-0.25-4.313-0.563s-2.625-0.813-4-0.813c-1.875 0-2.875 0.313-3.25 0.438v8.938h-1v-19.125l0.188-0.188c0.125-0.063 1.125-0.688 4.063-0.688 1.5 0 2.813 0.25 4.188 0.563 1.313 0.25 2.625 0.688 4.063 0.688 0.938 0 1.813-0.188 2.5-0.25z"></path>
</svg>
