<?xml version="1.0" encoding="utf-8"?>
<!-- Generator: Adobe Illustrator 16.0.0, SVG Export Plug-In . SVG Version: 6.00 Build 0)  -->
<!DOCTYPE svg PUBLIC "-//W3C//DTD SVG 1.1//EN" "http://www.w3.org/Graphics/SVG/1.1/DTD/svg11.dtd">
<svg version="1.1" xmlns="http://www.w3.org/2000/svg" xmlns:xlink="http://www.w3.org/1999/xlink" x="0px" y="0px" width="70px"
	 height="70px" viewBox="0 0 70 70" enable-background="new 0 0 70 70" xml:space="preserve">
<g id="Layer_1">
	<path fill-rule="evenodd" clip-rule="evenodd" fill="none" stroke="#665E74" stroke-width="3" stroke-miterlimit="10" d="
		M26.0419922,35.5l20.3408203-20.3398438L66.7226562,35.5L46.3828125,55.8408203L26.0419922,35.5z"/>
	<path fill-rule="evenodd" clip-rule="evenodd" fill="#FFFFFF" stroke="#665E74" stroke-width="3" stroke-miterlimit="10" d="
		M64.4628906,32.1103516c1.8710938,0,3.3896484,1.5175781,3.3896484,3.3896484s-1.5185547,3.390625-3.3896484,3.390625
		c-1.8720703,0-3.390625-1.5185547-3.390625-3.390625S62.5908203,32.1103516,64.4628906,32.1103516z"/>
</g>
<g id="Layer_1_copy">
	<path fill-rule="evenodd" clip-rule="evenodd" fill="none" stroke="#665E74" stroke-width="3" stroke-miterlimit="10" d="
		M4.5722656,35.5l20.3398438-20.3398438L45.2529297,35.5L24.9121094,55.8408203L4.5722656,35.5z"/>
	<path fill-rule="evenodd" clip-rule="evenodd" fill="#FFFFFF" stroke="#665E74" stroke-width="3" stroke-miterlimit="10" d="
		M5.7021484,32.1103516c1.8720703,0,3.390625,1.5175781,3.390625,3.3896484s-1.5185547,3.390625-3.390625,3.390625
		S2.3125,37.3720703,2.3125,35.5S3.8300781,32.1103516,5.7021484,32.1103516z"/>
</g>
</svg>
