<?xml version="1.0" encoding="utf-8"?>
<!-- Generator: Adobe Illustrator 16.0.0, SVG Export Plug-In . SVG Version: 6.00 Build 0)  -->
<!DOCTYPE svg PUBLIC "-//W3C//DTD SVG 1.0//EN" "http://www.w3.org/TR/2001/REC-SVG-20010904/DTD/svg10.dtd">
<svg version="1.0" xmlns="http://www.w3.org/2000/svg" xmlns:xlink="http://www.w3.org/1999/xlink" x="0px" y="0px" width="151px"
	 height="41px" viewBox="0 0 151 41" enable-background="new 0 0 151 41" xml:space="preserve">
<g id="Layer_1">
</g>
<g id="Layer_2">
	<text transform="matrix(1 0 0 1 0 34.92969)" fill="#4B337F" font-family="'ArialMT'" font-size="32" letter-spacing="6">PENTA</text>
</g>
<g id="Layer_3">
	<path fill="#4B337F" d="M141.25391,1.92383c0.06836,0,0.14062,0,0.20898,0c0.06055,0.00977,0.11914,0.01855,0.17773,0.02832
		c0.41406,0.0625,0.76562,0.24219,1.07227,0.5293c0.46484,0.43457,1.02734,0.69434,1.63086,0.86914
		c0.46094,0.13281,0.92773,0.19824,1.4082,0.16016c0.18945-0.0166,0.38086-0.03418,0.57031-0.01855
		c0.81445,0.06641,1.53125,0.70215,1.68555,1.50879c0.10156,0.51172,0.30078,0.97754,0.58594,1.4082
		c0.37695,0.57129,0.83984,1.04785,1.44727,1.3877c0.78906,0.44434,1.14844,1.41016,0.86133,2.27148
		c-0.06445,0.18945-0.16016,0.36719-0.22266,0.55566c-0.17969,0.53027-0.23242,1.07812-0.19727,1.63574
		c0.02734,0.47461,0.11523,0.93457,0.32227,1.36719c0.14844,0.31445,0.2168,0.63965,0.1875,0.98438
		c-0.06055,0.66699-0.36523,1.18945-0.94336,1.52246c-0.45508,0.26221-0.84375,0.59424-1.16797,1.00049
		c-0.42578,0.5332-0.73828,1.12158-0.87305,1.80322c-0.17383,0.88281-0.97461,1.52344-1.875,1.51953
		c-0.16602,0-0.33008-0.02734-0.49414-0.03516c-0.48242-0.02344-0.95312,0.05469-1.41016,0.19922
		c-0.5918,0.18945-1.12695,0.47461-1.58984,0.89844c-0.72266,0.66016-1.85156,0.65625-2.57422-0.00977
		c-0.36523-0.33594-0.7793-0.58789-1.24023-0.76562c-0.62695-0.24609-1.27344-0.37695-1.95312-0.30469
		c-0.17969,0.01758-0.36523,0.02148-0.54297,0c-0.77148-0.0918-1.43945-0.68164-1.60547-1.43945
		c-0.10742-0.47266-0.26367-0.92188-0.51953-1.33447c-0.39062-0.63086-0.88086-1.16211-1.54102-1.53174
		c-0.74219-0.41504-1.10938-1.32031-0.88477-2.14355c0.05469-0.20215,0.15234-0.39062,0.22656-0.58887
		c0.19531-0.52637,0.25195-1.07324,0.23047-1.63086c-0.01953-0.51172-0.10938-1.00684-0.33203-1.47168
		c-0.0957-0.20312-0.16406-0.41504-0.17773-0.64062c-0.05078-0.80176,0.24414-1.44043,0.93945-1.85156
		c0.51953-0.30859,0.94922-0.69727,1.30273-1.17871c0.34961-0.47754,0.61133-0.99414,0.72852-1.58008
		c0.16211-0.81738,0.76172-1.39648,1.58789-1.5459c0.22266-0.04102,0.44336-0.02051,0.66406,0.00391
		c0.49219,0.05273,0.9707-0.02344,1.44141-0.16211c0.62891-0.18457,1.20703-0.46777,1.6875-0.92773
		c0.22266-0.21387,0.49414-0.35156,0.79492-0.42285C140.99805,1.96387,141.12695,1.94629,141.25391,1.92383z M136.93359,16.0957
		c0.00195,0,0.00391,0,0.00586,0c0,0.08789-0.00586,0.17529,0.00195,0.25928c0.05078,0.68945,0.60547,1.125,1.27539,0.97656
		c0.26172-0.05469,0.51562-0.15625,0.76367-0.25586c0.64648-0.26562,1.30273-0.49023,2.01367-0.51758
		c0.77734-0.0293,1.53516,0.03516,2.26562,0.33398c0.35156,0.14453,0.70703,0.2832,1.06836,0.4043
		c0.30664,0.10352,0.62109,0.10352,0.91016-0.06055c0.37695-0.20703,0.52734-0.56055,0.53711-0.9707
		c0.00391-0.31689-0.01367-0.63721-0.04102-0.95361c-0.04688-0.52832-0.02734-1.05078,0.0957-1.57031
		c0.16602-0.70801,0.41797-1.38574,0.85156-1.97949c0.23633-0.32031,0.50391-0.61816,0.75-0.93262
		c0.11133-0.14062,0.2207-0.28711,0.29883-0.44629c0.19141-0.38965,0.17969-0.77246-0.10742-1.12012
		c-0.14453-0.17676-0.33398-0.29688-0.54883-0.36719c-0.22852-0.07324-0.46094-0.13281-0.69336-0.19434
		c-0.49023-0.12793-0.98242-0.24414-1.43164-0.49023c-0.72266-0.39648-1.37109-0.88086-1.86133-1.5498
		c-0.26172-0.35938-0.48438-0.74707-0.73438-1.11816c-0.07617-0.11523-0.16406-0.22559-0.26172-0.32129
		c-0.35352-0.34863-0.81836-0.41699-1.22461-0.18652c-0.17773,0.10059-0.32422,0.2373-0.4375,0.40332
		c-0.13672,0.19824-0.27148,0.39746-0.39453,0.60449c-0.36719,0.62305-0.81641,1.17188-1.40039,1.60645
		c-0.51758,0.38672-1.06641,0.7168-1.69531,0.8916c-0.31445,0.08691-0.63086,0.16797-0.94922,0.24805
		c-0.26758,0.06738-0.5293,0.14648-0.74805,0.32617c-0.28516,0.2334-0.42188,0.5293-0.375,0.90234
		c0.03516,0.26953,0.16016,0.49902,0.32617,0.70801c0.15625,0.19434,0.31055,0.39062,0.47461,0.57812
		c0.41406,0.4668,0.73633,0.98633,0.95312,1.57227c0.23438,0.63086,0.39844,1.27539,0.38086,1.9541
		C136.99219,15.25391,136.95703,15.6748,136.93359,16.0957z"/>
</g>
</svg>
