<?xml version="1.0" standalone="no"?>
<!DOCTYPE svg PUBLIC "-//W3C//DTD SVG 20010904//EN"
 "http://www.w3.org/TR/2001/REC-SVG-20010904/DTD/svg10.dtd">
<svg version="1.0" xmlns="http://www.w3.org/2000/svg"
 width="43.000000pt" height="44.000000pt" viewBox="0 0 43.000000 44.000000"
 preserveAspectRatio="xMidYMid meet">
<metadata>
Created by potrace 1.15, written by Peter Selinger 2001-2017
</metadata>
<g transform="translate(0.000000,44.000000) scale(0.100000,-0.100000)"
fill="#000000" stroke="none">
<path d="M187 434 c-10 -11 -8 -52 3 -59 6 -3 10 -29 10 -57 l0 -52 -30 29
c-17 16 -30 36 -30 45 0 40 -61 55 -80 20 -15 -27 4 -60 33 -60 13 0 36 -13
52 -30 l29 -30 -50 0 c-28 0 -55 5 -61 11 -6 6 -21 9 -34 7 -20 -2 -24 -9 -24
-38 0 -29 4 -36 24 -38 13 -2 28 1 34 7 6 6 33 11 61 11 l50 0 -28 -29 c-15
-16 -40 -31 -56 -34 -36 -8 -46 -41 -19 -68 10 -10 23 -19 28 -19 16 0 41 30
41 49 0 9 14 30 30 46 l30 29 0 -50 c0 -28 -5 -55 -11 -61 -6 -6 -9 -21 -7
-34 2 -20 9 -24 38 -24 29 0 36 4 38 24 2 13 -1 28 -7 34 -6 6 -11 33 -11 61
l0 50 30 -29 c17 -16 30 -39 30 -52 0 -29 33 -48 60 -33 35 19 20 80 -20 80
-9 0 -29 14 -45 30 l-29 30 45 0 c25 0 50 -5 56 -11 6 -6 21 -9 34 -7 20 2 24
9 24 38 0 29 -4 36 -24 38 -13 2 -28 -1 -34 -7 -6 -6 -31 -11 -56 -11 l-45 0
28 29 c16 17 40 31 55 33 22 3 26 8 26 38 0 32 -3 35 -33 38 -29 3 -33 0 -38
-27 -3 -16 -19 -42 -35 -57 l-29 -28 0 50 c0 28 5 55 11 61 6 6 9 21 7 34 -2
18 -10 25 -33 27 -17 2 -34 0 -38 -4z"/>
</g>
</svg>
