<?xml version="1.0" standalone="no"?>
<!DOCTYPE svg PUBLIC "-//W3C//DTD SVG 20010904//EN"
 "http://www.w3.org/TR/2001/REC-SVG-20010904/DTD/svg10.dtd">
<svg version="1.0" xmlns="http://www.w3.org/2000/svg"
 width="47.000000pt" height="45.000000pt" viewBox="0 0 47.000000 45.000000"
 preserveAspectRatio="xMidYMid meet">
<metadata>
Created by potrace 1.15, written by Peter Selinger 2001-2017
</metadata>
<g transform="translate(0.000000,45.000000) scale(0.100000,-0.100000)"
fill="#000000" stroke="none">
<path d="M203 438 c-4 -7 -8 -33 -9 -58 0 -25 -6 -57 -12 -72 -10 -25 -16 -28
-62 -28 -27 0 -50 4 -50 9 0 16 -40 23 -55 11 -22 -18 -18 -57 6 -70 11 -7 23
-9 26 -6 3 3 25 -9 49 -25 l42 -31 -14 -41 c-8 -22 -23 -47 -35 -55 -13 -9
-19 -23 -17 -40 2 -22 9 -28 36 -30 25 -3 34 1 40 17 4 11 25 33 47 50 l39 29
42 -30 c23 -17 44 -39 47 -49 4 -13 14 -19 36 -19 25 0 32 5 37 26 5 20 2 31
-14 43 -12 9 -28 35 -36 57 l-14 42 42 31 c24 16 46 28 49 25 3 -3 15 -1 26 6
24 13 28 52 6 70 -15 12 -55 5 -55 -11 0 -5 -24 -9 -54 -9 l-53 0 -13 45 c-7
24 -9 56 -6 71 4 15 2 32 -5 40 -14 17 -55 18 -66 2z"/>
</g>
</svg>
