<?xml version="1.0" standalone="no"?>
<!DOCTYPE svg PUBLIC "-//W3C//DTD SVG 20010904//EN"
 "http://www.w3.org/TR/2001/REC-SVG-20010904/DTD/svg10.dtd">
<svg version="1.0" xmlns="http://www.w3.org/2000/svg"
 width="51.000000pt" height="46.000000pt" viewBox="0 0 51.000000 46.000000"
 preserveAspectRatio="xMidYMid meet">
<metadata>
Created by potrace 1.15, written by Peter Selinger 2001-2017
</metadata>
<g transform="translate(0.000000,46.000000) scale(0.100000,-0.100000)"
fill="#000000" stroke="none">
<path d="M220 445 c-6 -8 -9 -23 -6 -33 9 -27 -159 -320 -191 -335 -19 -8 -23
-17 -21 -41 3 -27 7 -31 36 -34 18 -2 32 1 32 7 0 7 61 11 185 11 124 0 185
-4 185 -11 0 -6 14 -9 33 -7 28 3 32 7 35 34 2 24 -2 33 -21 41 -32 15 -200
308 -191 335 7 25 -12 48 -41 48 -12 0 -28 -7 -35 -15z m84 -147 l39 -73 -44
-77 -44 -76 -38 66 c-22 37 -41 72 -44 79 -6 14 75 165 85 159 4 -3 25 -38 46
-78z"/>
</g>
</svg>
