<?xml version="1.0" standalone="no"?>
<!DOCTYPE svg PUBLIC "-//W3C//DTD SVG 20010904//EN"
 "http://www.w3.org/TR/2001/REC-SVG-20010904/DTD/svg10.dtd">
<svg version="1.0" xmlns="http://www.w3.org/2000/svg"
 width="41.000000pt" height="44.000000pt" viewBox="0 0 41.000000 44.000000"
 preserveAspectRatio="xMidYMid meet">
<metadata>
Created by potrace 1.15, written by Peter Selinger 2001-2017
</metadata>
<g transform="translate(0.000000,44.000000) scale(0.100000,-0.100000)"
fill="#000000" stroke="none">
<path d="M7 433 c-4 -3 -7 -19 -7 -34 0 -19 6 -30 20 -34 12 -4 35 -35 56 -78
l36 -71 -33 -67 c-23 -49 -39 -69 -56 -74 -20 -5 -24 -11 -21 -38 3 -27 8 -33
32 -35 32 -4 46 10 46 46 0 12 12 46 26 75 l27 52 31 -63 c16 -34 35 -62 41
-62 6 0 25 28 41 62 l31 63 27 -52 c14 -29 26 -63 26 -75 0 -36 14 -50 46 -46
24 2 29 8 32 35 3 27 -1 33 -21 38 -17 5 -33 25 -56 74 l-33 67 36 71 c22 44
44 74 56 78 17 5 20 14 18 38 -3 28 -7 32 -35 35 -27 3 -33 -1 -38 -21 -4 -13
-5 -28 -3 -33 4 -12 -43 -114 -52 -114 -3 0 -18 25 -33 55 -15 31 -33 55 -42
55 -9 0 -27 -24 -42 -55 -15 -30 -30 -55 -33 -55 -9 0 -56 102 -52 114 2 5 1
20 -3 33 -4 17 -12 23 -34 23 -15 0 -31 -3 -34 -7z"/>
</g>
</svg>
