<?xml version="1.0" encoding="UTF-8"?>
<!DOCTYPE svg  PUBLIC '-//W3C//DTD SVG 1.0//EN'  'http://www.w3.org/TR/2001/REC-SVG-20010904/DTD/svg10.dtd'>
<svg enable-background="new 0 0 151 41" version="1.0" viewBox="0 0 151 41" xml:space="preserve" xmlns="http://www.w3.org/2000/svg">
	<path d="m67 2h2c2.6289 2.8262 5.2578 5.6533 8.3066 8.9307 2.8789-3.3418 5.2852-6.1357 7.6934-8.9307h2c6.0801 6.3574 10.902 14.193 20 17v4c-9.0977 2.8057-13.92 10.643-20 17h-2c-2.4941-2.8486-4.9893-5.6973-7.8164-8.9258-3.1431 3.4277-5.6631 6.1768-8.1836 8.9258h-2c-5.7388-6.7588-10.782-14.335-20-17v-4c9.2178-2.665 14.261-10.241 20-17zm0.75342 2.2393c-4.4219 4.6807-8.7896 8.7978-12.441 13.475-1.102 1.4102-1.1562 5.1084-0.07275 6.4902 3.7524 4.7861 8.2173 9.0137 11.898 12.91 3.2388-2.8818 5.669-5.044 8.2852-7.3721-2.8403-2.9805-5.5405-5.8135-8.3252-8.7354 2.9741-3.1523 5.6572-5.9961 8.6084-9.124-2.5957-2.4951-4.8442-4.6563-7.9522-7.6436zm21.038 17.044c-4.2471 3.2754-7.2598 5.5986-9.8887 7.626 2.7363 3.2998 4.8887 5.8945 7.4277 8.9551 4.4746-4.6709 8.7285-8.4717 12.088-12.945 1.2754-1.6973 1.5967-5.7559 0.43848-7.3301-3.4951-4.749-7.9287-8.8076-11.688-12.807-3.3193 2.7783-5.9062 4.9434-9.4902 7.9424 3.7168 2.8623 6.7344 5.1865 11.113 8.5586zm-12.074 6.3711c2.7295-2.2188 5.3262-4.3301 7.2783-5.917-2.6787-2.9639-4.833-5.3447-6.7461-7.4619-2.3892 2.3662-4.6763 4.6318-6.9219 6.8555 2.2412 2.2881 4.499 4.5928 6.3896 6.5234z" fill="#4B337F"/>
	<path d="m67 2c-5.7388 6.7588-10.782 14.335-20 17v-17h20z" clip-rule="evenodd" fill="#fff" fill-rule="evenodd"/>
	<path d="m107 19c-9.0977-2.8066-13.92-10.643-20-17h20v17z" clip-rule="evenodd" fill="#fff" fill-rule="evenodd"/>
	<path d="m47 23c9.2178 2.665 14.261 10.241 20 17h-20v-17z" clip-rule="evenodd" fill="#fff" fill-rule="evenodd"/>
	<path d="m87 40c6.0801-6.3574 10.902-14.194 20-17v17h-20z" clip-rule="evenodd" fill="#fff" fill-rule="evenodd"/>
	<path d="m85 2c-2.4082 2.7949-4.8144 5.5889-7.6934 8.9307-3.0488-3.2773-5.6777-6.1045-8.3066-8.9307h16z" clip-rule="evenodd" fill="#fff" fill-rule="evenodd"/>
	<path d="m69 40c2.5205-2.749 5.0405-5.498 8.1836-8.9258 2.8272 3.2285 5.3223 6.0772 7.8164 8.9258h-16z" clip-rule="evenodd" fill="#fff" fill-rule="evenodd"/>
	<path d="m67.753 4.2393c3.1079 2.9873 5.3564 5.1484 7.9522 7.6436-2.9512 3.1279-5.6343 5.9717-8.6084 9.124 2.7847 2.9219 5.4849 5.7549 8.3252 8.7354-2.6162 2.3281-5.0464 4.4902-8.2852 7.3721-3.6807-3.8965-8.1455-8.124-11.898-12.91-1.0835-1.3818-1.0293-5.0801 0.07275-6.4902 3.6519-4.6768 8.0195-8.7939 12.441-13.475z" clip-rule="evenodd" fill="#fff" fill-rule="evenodd"/>
	<path d="m88.791 21.283c-4.3789-3.3721-7.3965-5.6963-11.113-8.5586 3.584-2.999 6.1709-5.1641 9.4902-7.9424 3.7598 3.999 8.1934 8.0576 11.688 12.807 1.1582 1.5742 0.83691 5.6328-0.43848 7.3301-3.3594 4.4736-7.6133 8.2744-12.088 12.945-2.5391-3.0606-4.6914-5.6553-7.4277-8.9551 2.6289-2.0273 5.6416-4.3506 9.8887-7.626z" clip-rule="evenodd" fill="#fff" fill-rule="evenodd"/>
	<path d="m76.717 27.654c-1.8906-1.9307-4.1484-4.2354-6.3896-6.5234 2.2456-2.2236 4.5327-4.4893 6.9219-6.8555 1.9131 2.1172 4.0674 4.498 6.7461 7.4619-1.9522 1.5869-4.5488 3.6982-7.2783 5.917z" clip-rule="evenodd" fill="#fff" fill-rule="evenodd"/>
</svg>
