<?xml version="1.0" standalone="no"?>
<!DOCTYPE svg PUBLIC "-//W3C//DTD SVG 20010904//EN"
 "http://www.w3.org/TR/2001/REC-SVG-20010904/DTD/svg10.dtd">
<svg version="1.0" xmlns="http://www.w3.org/2000/svg"
 width="46.000000pt" height="47.000000pt" viewBox="0 0 46.000000 47.000000"
 preserveAspectRatio="xMidYMid meet">
<metadata>
Created by potrace 1.15, written by Peter Selinger 2001-2017
</metadata>
<g transform="translate(0.000000,47.000000) scale(0.100000,-0.100000)"
fill="#000000" stroke="none">
<path d="M118 414 l-98 -55 0 -99 c0 -55 -4 -102 -10 -105 -5 -3 -10 -19 -10
-35 0 -23 6 -31 23 -35 13 -4 27 -5 33 -3 5 1 43 -16 85 -40 42 -23 82 -42 90
-42 7 0 57 25 111 56 l98 55 0 99 c0 55 4 102 10 105 19 12 11 63 -10 70 -11
3 -24 4 -29 1 -5 -3 -44 14 -87 39 -44 25 -86 45 -94 45 -8 0 -59 -25 -112
-56z m197 -25 c31 -17 60 -39 65 -49 7 -13 -6 -44 -57 -131 -36 -63 -67 -116
-69 -118 -2 -2 -4 71 -4 162 0 92 2 167 5 167 3 0 30 -14 60 -31z m-109 -336
c-7 -8 -116 59 -126 76 -7 14 7 45 58 134 l67 117 3 -162 c1 -88 1 -163 -2
-165z"/>
</g>
</svg>
