<?xml version="1.0" standalone="no"?>
<!DOCTYPE svg PUBLIC "-//W3C//DTD SVG 20010904//EN"
 "http://www.w3.org/TR/2001/REC-SVG-20010904/DTD/svg10.dtd">
<svg version="1.0" xmlns="http://www.w3.org/2000/svg"
 width="60.000000pt" height="38.000000pt" viewBox="0 0 60.000000 38.000000"
 preserveAspectRatio="xMidYMid meet">
<metadata>
Created by potrace 1.15, written by Peter Selinger 2001-2017
</metadata>
<g transform="translate(0.000000,38.000000) scale(0.100000,-0.100000)"
fill="#000000" stroke="none">
<path d="M120 305 c-40 -41 -83 -75 -94 -77 -31 -4 -31 -72 0 -76 11 -2 54
-36 94 -77 41 -41 81 -75 89 -75 8 0 32 17 53 37 l38 37 38 -37 c21 -20 45
-37 53 -37 8 0 48 34 89 75 40 41 83 75 94 77 31 4 31 72 0 76 -11 2 -54 36
-94 77 -41 41 -81 75 -89 75 -8 0 -32 -17 -53 -37 l-38 -37 -38 37 c-21 20
-45 37 -53 37 -8 0 -48 -34 -89 -75z m125 5 l29 -30 -37 -38 c-20 -21 -37 -44
-37 -52 0 -8 17 -31 37 -52 l37 -38 -32 -32 -32 -33 -65 65 c-84 83 -84 95 -3
177 34 35 65 63 68 63 4 0 19 -14 35 -30z m212 -32 c83 -82 82 -94 -2 -178
l-65 -65 -32 33 -32 32 44 45 44 45 -44 45 -44 45 29 30 c16 16 31 30 34 30 3
0 34 -28 68 -62z"/>
</g>
</svg>
