<!-- Generated by IcoMoon.io -->
<svg version="1.1" xmlns="http://www.w3.org/2000/svg" width="51" height="32" viewBox="0 0 51 32">
<title>icon1</title>
<path d="M10.105 6.316c-3.368 3.453-6.989 6.316-7.916 6.484-2.611 0.337-2.611 6.063 0 6.4 0.926 0.168 4.547 3.032 7.916 6.484 3.453 3.453 6.821 6.316 7.495 6.316s2.695-1.432 4.463-3.116l3.2-3.116 3.2 3.116c1.768 1.684 3.789 3.116 4.463 3.116s4.042-2.863 7.495-6.316c3.368-3.453 6.989-6.316 7.916-6.484 2.611-0.337 2.611-6.063 0-6.4-0.926-0.168-4.547-3.032-7.916-6.484-3.453-3.453-6.821-6.316-7.495-6.316s-2.695 1.432-4.463 3.116l-3.2 3.116-3.2-3.116c-1.768-1.684-3.789-3.116-4.463-3.116s-4.042 2.863-7.495 6.316zM20.632 5.895l2.442 2.526-3.116 3.2c-1.684 1.768-3.116 3.705-3.116 4.379s1.432 2.611 3.116 4.379l3.116 3.2-2.695 2.695-2.695 2.779-5.474-5.474c-7.074-6.989-7.074-8-0.253-14.905 2.863-2.947 5.474-5.305 5.726-5.305 0.337 0 1.6 1.179 2.947 2.526zM38.484 8.589c6.989 6.905 6.905 7.916-0.168 14.989l-5.474 5.474-2.695-2.779-2.695-2.695 7.411-7.579-7.411-7.579 2.442-2.526c1.347-1.347 2.611-2.526 2.863-2.526s2.863 2.358 5.726 5.221z"></path>
</svg>
