<!-- Generated by IcoMoon.io -->
<svg version="1.1" xmlns="http://www.w3.org/2000/svg" width="31" height="32" viewBox="0 0 31 32">
<title>icon2</title>
<path d="M13.6 0.436c-0.727 0.8-0.582 3.782 0.218 4.291 0.436 0.218 0.727 2.109 0.727 4.145v3.782l-2.182-2.109c-1.236-1.164-2.182-2.618-2.182-3.273 0-2.909-4.436-4-5.818-1.455-1.091 1.964 0.291 4.364 2.4 4.364 0.945 0 2.618 0.945 3.782 2.182l2.109 2.182h-3.636c-2.036 0-4-0.364-4.436-0.8s-1.527-0.655-2.473-0.509c-1.455 0.145-1.745 0.655-1.745 2.764s0.291 2.618 1.745 2.764c0.945 0.145 2.036-0.073 2.473-0.509s2.4-0.8 4.436-0.8h3.636l-2.036 2.109c-1.091 1.164-2.909 2.255-4.073 2.473-2.618 0.582-3.345 2.982-1.382 4.945 0.727 0.727 1.673 1.382 2.036 1.382 1.164 0 2.982-2.182 2.982-3.564 0-0.655 1.018-2.182 2.182-3.345l2.182-2.109v3.636c0 2.036-0.364 4-0.8 4.436s-0.655 1.527-0.509 2.473c0.145 1.455 0.655 1.745 2.764 1.745s2.618-0.291 2.764-1.745c0.145-0.945-0.073-2.036-0.509-2.473s-0.8-2.4-0.8-4.436v-3.636l2.182 2.109c1.236 1.164 2.182 2.836 2.182 3.782 0 2.109 2.4 3.491 4.364 2.4 2.545-1.382 1.455-5.818-1.455-5.818-0.655 0-2.109-1.018-3.273-2.182l-2.109-2.182h3.273c1.818 0 3.636 0.364 4.073 0.8s1.527 0.655 2.473 0.509c1.455-0.145 1.745-0.655 1.745-2.764s-0.291-2.618-1.745-2.764c-0.945-0.145-2.036 0.073-2.473 0.509s-2.255 0.8-4.073 0.8h-3.273l2.036-2.109c1.164-1.236 2.909-2.255 4-2.4 1.6-0.218 1.891-0.582 1.891-2.764 0-2.327-0.218-2.545-2.4-2.764-2.109-0.218-2.4 0-2.764 1.964-0.218 1.164-1.382 3.055-2.545 4.145l-2.109 2.036v-3.636c0-2.036 0.364-4 0.8-4.436s0.655-1.527 0.509-2.473c-0.145-1.309-0.727-1.818-2.4-1.964-1.236-0.145-2.473 0-2.764 0.291z"></path>
</svg>
