<!-- Generated by IcoMoon.io -->
<svg version="1.1" xmlns="http://www.w3.org/2000/svg" width="35" height="32" viewBox="0 0 35 32">
<title>icon3</title>
<path d="M15.304 1.043c-0.417 0.557-0.626 1.6-0.417 2.296 0.626 1.878-11.061 22.261-13.287 23.304-1.322 0.557-1.6 1.183-1.461 2.852 0.209 1.878 0.487 2.157 2.504 2.365 1.252 0.139 2.226-0.070 2.226-0.487 0-0.487 4.243-0.765 12.87-0.765s12.87 0.278 12.87 0.765c0 0.417 0.974 0.626 2.296 0.487 1.948-0.209 2.226-0.487 2.435-2.365 0.139-1.67-0.139-2.296-1.461-2.852-2.226-1.043-13.913-21.426-13.287-23.304 0.487-1.739-0.835-3.339-2.852-3.339-0.835 0-1.948 0.487-2.435 1.043zM21.148 11.27l2.713 5.078-3.061 5.357-3.061 5.287-2.643-4.591c-1.53-2.574-2.852-5.009-3.061-5.496-0.417-0.974 5.217-11.478 5.913-11.061 0.278 0.209 1.739 2.643 3.2 5.426z"></path>
</svg>
