<!-- Generated by IcoMoon.io -->
<svg version="1.1" xmlns="http://www.w3.org/2000/svg" width="30" height="32" viewBox="0 0 30 32">
<title>icon5</title>
<path d="M0.509 0.509c-0.291 0.218-0.509 1.382-0.509 2.473 0 1.382 0.436 2.182 1.455 2.473 0.873 0.291 2.545 2.545 4.073 5.673l2.618 5.164-2.4 4.873c-1.673 3.564-2.836 5.018-4.073 5.382-1.455 0.364-1.745 0.8-1.527 2.764s0.582 2.4 2.327 2.545c2.327 0.291 3.345-0.727 3.345-3.345 0-0.873 0.873-3.345 1.891-5.455l1.964-3.782 2.255 4.582c1.164 2.473 2.545 4.509 2.982 4.509s1.818-2.036 2.982-4.509l2.255-4.582 1.964 3.782c1.018 2.109 1.891 4.582 1.891 5.455 0 2.618 1.018 3.636 3.345 3.345 1.745-0.145 2.109-0.582 2.327-2.545s-0.073-2.4-1.527-2.764c-1.236-0.364-2.4-1.818-4.073-5.382l-2.4-4.873 2.618-5.164c1.6-3.2 3.2-5.382 4.073-5.673 1.236-0.364 1.455-1.018 1.309-2.764-0.218-2.036-0.509-2.327-2.545-2.545-1.964-0.218-2.4 0.073-2.764 1.527-0.291 0.945-0.364 2.036-0.218 2.4 0.291 0.873-3.127 8.291-3.782 8.291-0.218 0-1.309-1.818-2.4-4-1.091-2.255-2.4-4-3.055-4s-1.964 1.745-3.055 4c-1.091 2.182-2.182 4-2.4 4-0.655 0-4.073-7.418-3.782-8.291 0.145-0.364 0.073-1.455-0.218-2.4-0.291-1.236-0.873-1.673-2.473-1.673-1.091 0-2.255 0.218-2.473 0.509z"></path>
</svg>
