<!-- Generated by IcoMoon.io -->
<svg version="1.1" xmlns="http://www.w3.org/2000/svg" width="30" height="32" viewBox="0 0 30 32">
<title>ion-email-unread</title>
<path d="M22 10c0-2.688 1.313-4 4-4s4 1.313 4 4-1.313 4-4 4-4-1.313-4-4zM13.063 10h7.938c0 1.063 0.313 2.063 0.938 2.938-0.375 0.188-0.875 0.5-1.375 0.75s-1 0.5-1.438 0.75-0.875 0.5-1.375 0.75-0.938 0.5-1.313 0.688-0.688 0.375-1 0.563-0.563 0.313-0.75 0.438-0.25 0.188-0.313 0.188c-0.375 0.188-0.813 0.25-1.313 0.25s-0.938-0.063-1.313-0.25c-0.063-0.063-0.938-0.5-2.625-1.438s-3.375-1.813-5.063-2.75-2.688-1.438-2.875-1.563c-0.438-0.25-0.75-0.5-0.813-0.688-0.063-0.25-0.063-0.375 0.063-0.5s0.375-0.125 0.688-0.125h11.938zM17.313 17.063c1.125-0.688 2.813-1.875 5.188-3.5 1 0.938 2.125 1.438 3.5 1.438v9.688c0 0.125-0.063 0.25-0.125 0.438s-0.188 0.313-0.313 0.438-0.25 0.25-0.438 0.313-0.375 0.125-0.5 0.125h-23.125c-0.313 0-0.688-0.125-1-0.438s-0.5-0.563-0.5-0.875v-12.813c0-0.375 0.188-0.5 0.563-0.313 0.125 0.063 0.688 0.438 1.625 1.063s2 1.375 3.313 2.25 2.438 1.625 3.313 2.188l-5.188 5.813c-0.125 0.125-0.125 0.25-0.063 0.313 0.125 0.063 0.25 0.063 0.375-0.063l6.125-5.188c1 0.625 1.563 1 1.688 1.063 0.375 0.188 0.813 0.25 1.313 0.25s0.938-0.063 1.313-0.25c0.125-0.063 0.688-0.438 1.688-1.063l6.125 5.188c0.125 0.125 0.313 0.125 0.375 0.063s0-0.188-0.125-0.313z"></path>
</svg>
