<!-- Generated by IcoMoon.io -->
<svg version="1.1" xmlns="http://www.w3.org/2000/svg" width="24" height="32" viewBox="0 0 24 32">
<title>ion-android-volume-off</title>
<path d="M21.375 16c0-4.313-2.813-8-6.688-9.188v-2.813c5.313 1.25 9.313 6.188 9.313 12 0 2.188-0.5 4.25-1.5 6l-2-2c0.563-1.188 0.875-2.563 0.875-4zM12 5v6.5l-3.188-3.188zM22.313 24.813v0l1.5 1.5-1.5 1.5-2.5-2.5c-1.438 1.313-3.188 2.25-5.125 2.688v-2.813c1.188-0.375 2.313-0.938 3.25-1.75l-5.938-5.938v9.5l-6.688-7h-5.313v-8h5.313l0.563-0.625-5.688-5.688 1.5-1.5zM18 16c0 0.438 0 0.938-0.125 1.375l-3.188-3.188v-3.75c2 1 3.313 3.188 3.313 5.563z"></path>
</svg>
