<!-- Generated by IcoMoon.io -->
<svg version="1.1" xmlns="http://www.w3.org/2000/svg" width="26" height="32" viewBox="0 0 26 32">
<title>ion-chatbubbles</title>
<path d="M1.563 24.438c-0.063-0.063 0-0.125-0.063-0.188-0.938-1.375-1.5-3.063-1.5-4.813 0-2.625 1.188-5 3.063-6.625-0.125 0.688-0.25 1.375-0.25 2.125 0 5.75 4.875 10.5 10.875 10.5 0.938 0 1.875-0.125 2.75-0.375-1.688 2-4.313 3.313-7.188 3.313-1.25 0-2.5-0.313-3.625-0.75h-0.063c-0.125-0.063-0.313-0.125-0.5-0.125s-0.375 0.063-0.563 0.125l-3.5 1.375 0.75-3.938c0-0.25-0.063-0.438-0.188-0.625v0zM15.125 3c6 0 10.875 4.75 10.875 10.5 0 2.063-0.688 4-1.75 5.625-0.063 0.063-0.063 0.125-0.125 0.188v0c-0.125 0.25-0.188 0.5-0.188 0.75l1.063 4.625-4.313-1.625c-0.188-0.063-0.375-0.125-0.625-0.125-0.188 0-0.375 0.063-0.563 0.125v0l-0.125 0.063c-0.5 0.188-1 0.313-1.5 0.438-0.875 0.25-1.813 0.375-2.75 0.375-6 0-10.813-4.688-10.813-10.438 0-0.75 0.063-1.5 0.188-2.188 1-4.75 5.375-8.313 10.625-8.313z"></path>
</svg>
