<!-- Generated by IcoMoon.io -->
<svg version="1.1" xmlns="http://www.w3.org/2000/svg" width="24" height="32" viewBox="0 0 24 32">
<title>ion-ios-camera</title>
<path d="M22.125 10c1.125 0 1.875 0.813 1.875 1.938v11c0 1.125-0.75 2.063-1.875 2.063h-20c-1.125 0-2.125-0.938-2.125-2.063v-11c0-1.125 1-1.938 2.125-1.938h0.813v-1h2.125v1h0.813c2-2.25 2.688-3 3.438-3h5.5c0.75 0 1.438 0.75 3.438 3h3.875zM12 22.5c2.938 0 5.375-2.375 5.375-5.313s-2.438-5.313-5.375-5.313-5.375 2.375-5.375 5.313 2.438 5.313 5.375 5.313zM19.063 13.063v-1.063h-1.063v1.063h1.063zM12 12.875c2.375 0 4.375 1.938 4.375 4.313s-2 4.313-4.375 4.313-4.375-1.938-4.375-4.313 2-4.313 4.375-4.313zM12 19.188c1.125 0 2-0.875 2-2s-0.875-2-2-2-2 0.875-2 2 0.875 2 2 2z"></path>
</svg>
