<!-- Generated by IcoMoon.io -->
<svg version="1.1" xmlns="http://www.w3.org/2000/svg" width="26" height="32" viewBox="0 0 26 32">
<title>ion-ios-football</title>
<path d="M13 3c7.188 0 13 5.813 13 13s-5.813 13-13 13-13-5.813-13-13 5.813-13 13-13zM15.563 27.625c0.188-0.063 0.313-0.063 0.5-0.125l1.5-4-1.25-2.438v-0.063h-6.625l-1.25 2.438 1.563 4.063c0.125 0.063 0.313 0.063 0.438 0.125 0.75 0.188 1.563 0.313 2.375 0.313 0.875 0 1.875-0.125 2.75-0.313zM8.875 4.813c-2.25 0.875-4.25 2.375-5.625 4.313l1.375 4 0.313 0.125 3.063 1.438 4.438-3.75v-3.625zM22.75 9.125c-1.375-1.938-3.375-3.5-5.625-4.313l-3.625 2.5v3.625l4.438 3.75 3.375-1.5zM1.125 17.063c0.188 2.125 0.938 4.125 2.063 5.75l4.375 0.063 1.313-2.438-1.25-4.813-0.063-0.063-3.063-1.375zM18.438 22.875l4.375-0.063c1.125-1.625 1.875-3.625 2.063-5.75l-3.375-2.875-3.125 1.438-1.25 4.813z"></path>
</svg>
