<!-- Generated by IcoMoon.io -->
<svg version="1.1" xmlns="http://www.w3.org/2000/svg" width="14" height="32" viewBox="0 0 14 32">
<title>ion-ios-moon-outline</title>
<path d="M12.188 19.688c0.438 0 0.875-0.063 1.313-0.188-0.25 0.438-0.438 0.75-0.75 1.125-1.313 1.563-3.313 2.563-5.5 2.563-4 0-7.25-3.188-7.25-7.188 0-3.25 2.125-6 5.063-6.938 0.438-0.125 0.875-0.188 1.375-0.25-0.25 0.375-0.5 0.75-0.688 1.125-0.438 0.875-0.688 1.875-0.688 2.938 0 1.813 0.688 3.5 2 4.813s3 2 4.813 2h0.313zM7.25 22.188c1.563 0 3-0.563 4.063-1.5-4.063-0.313-7.25-3.688-7.25-7.813 0-0.875 0.125-1.75 0.375-2.5-2.063 1-3.438 3.188-3.438 5.625 0 3.438 2.813 6.188 6.25 6.188z"></path>
</svg>
