<!-- Generated by IcoMoon.io -->
<svg version="1.1" xmlns="http://www.w3.org/2000/svg" width="32" height="32" viewBox="0 0 32 32">
<title>ion-compass</title>
<path d="M14 2c7.75 0 14 6.25 14 14s-6.25 14-14 14-14-6.25-14-14c0-2.438 0.625-4.75 1.688-6.75-1-0.75-1.688-1.875-1.688-3.25 0-2.188 1.813-4 4-4 1.375 0 2.5 0.688 3.25 1.688 2-1.063 4.313-1.688 6.75-1.688zM2 6c0 0.625 0.313 1.25 0.813 1.625 0.813-1.063 1.75-2 2.813-2.813-0.375-0.5-1-0.813-1.625-0.813-1.125 0-2 0.875-2 2zM22.5 24.5c2.25-2.25 3.5-5.313 3.5-8.5s-1.25-6.25-3.5-8.5-5.313-3.5-8.5-3.5-6.25 1.25-8.5 3.5-3.5 5.313-3.5 8.5 1.25 6.25 3.5 8.5 5.313 3.5 8.5 3.5 6.25-1.25 8.5-3.5zM20 8c0 0-3.375 8.125-4.5 9.5s-7.5 6.5-7.5 6.5 3.375-8.25 4.5-9.5 7.5-6.5 7.5-6.5z"></path>
</svg>
