<!-- Generated by IcoMoon.io -->
<svg version="1.1" xmlns="http://www.w3.org/2000/svg" width="24" height="32" viewBox="0 0 24 32">
<title>ion-ios-reverse-camera</title>
<path d="M22.125 10c1.125 0 1.875 0.875 1.875 1.938v11c0 1.063-0.75 2.063-1.875 2.063h-20c-1.125 0-2.125-1-2.125-2.063v-11c0-1.063 1-1.938 2.125-1.938h0.813v-1h2.125v1h0.813c2-2.25 2.688-3 3.438-3h5.5c0.75 0 1.438 0.75 3.438 3h3.875zM15.563 20.688l0.125-0.125-0.688-0.75-0.125 0.125c-0.813 0.688-1.813 1.063-2.875 1.063-2.25 0-4.125-1.813-4.438-3.875h1.938l-2.438-3.125-2.375 3.125h1.875c0.313 2.625 2.625 4.875 5.438 4.875 1.313 0 2.563-0.438 3.563-1.313zM16.938 19.188l2.375-3.188h-1.875c-0.125-1.25-0.688-2.688-1.688-3.563-1-0.938-2.375-1.438-3.75-1.438-1.313 0-2.563 0.438-3.563 1.313l-0.125 0.125 0.688 0.75 0.125-0.125c0.813-0.688 1.813-1.063 2.875-1.063 2.25 0 4.125 1.813 4.438 4h-1.938z"></path>
</svg>
