<!-- Generated by IcoMoon.io -->
<svg version="1.1" xmlns="http://www.w3.org/2000/svg" width="20" height="32" viewBox="0 0 20 32">
<title>ion-ios-locked-outline</title>
<path d="M16.5 14h3.5v15h-20v-15h3.5v-4.5c0-3.563 2.938-6.5 6.5-6.5s6.5 2.938 6.5 6.5v4.5zM4.5 9.5v4.5h11v-4.5c0-3.063-2.438-5.5-5.5-5.5s-5.5 2.438-5.5 5.5zM19 28v-13h-18v13h18zM10 18c1.125 0 2 0.875 2 2 0 0.938-0.625 1.688-1.5 1.938v2.063h-1v-2.063c-0.875-0.25-1.5-1-1.5-1.938 0-1.125 0.875-2 2-2zM10 21c0.563 0 1-0.438 1-1s-0.438-1-1-1-1 0.438-1 1 0.438 1 1 1z"></path>
</svg>
