<!-- Generated by IcoMoon.io -->
<svg version="1.1" xmlns="http://www.w3.org/2000/svg" width="20" height="32" viewBox="0 0 20 32">
<title>ion-soup-can</title>
<path d="M0 5c0-2.688 3.313-4 10-4s10 1.313 10 4-3.313 4-10 4-10-1.313-10-4zM10 27.5c-2.75 0-5-0.375-6.813-1.125s-2.688-1.75-2.688-2.875v-8c0 0.563 0.25 1.188 0.813 1.688s1.313 0.938 2.313 1.313 2.063 0.625 3.375 0.813c0.063 0.75 0.438 1.438 1 1.938s1.25 0.75 2 0.75 1.438-0.25 2-0.75 0.938-1.188 1-1.938c1.938-0.25 3.5-0.75 4.688-1.438s1.813-1.5 1.813-2.375v8c0 1.125-0.875 2.125-2.688 2.875s-4.063 1.125-6.813 1.125zM10 10c2.75 0 5.125-0.375 7.063-1.125s2.938-1.75 2.938-2.875v0.5c0 0.313-0.063 0.688-0.125 1.125s-0.188 0.688-0.375 0.875v6c0 0.875-0.625 1.688-1.813 2.375s-2.75 1.188-4.75 1.438c-0.125-0.688-0.5-1.188-1.063-1.625s-1.188-0.688-1.875-0.688-1.313 0.25-1.875 0.688-0.938 0.938-1.063 1.625c-2-0.25-3.563-0.75-4.75-1.438s-1.813-1.5-1.813-2.375v-6c-0.313-0.313-0.5-1.125-0.5-2.5 0 1.125 1 2.125 2.938 2.875s4.313 1.125 7.063 1.125zM19.5 24.5v1.5l0.5 1c0 0.438-0.188 0.875-0.5 1.25-0.688 0.813-1.875 1.5-3.625 2s-3.688 0.75-5.875 0.75-4.125-0.25-5.875-0.75-2.938-1.188-3.625-2c-0.313-0.375-0.5-0.813-0.5-1.25l0.5-1v-1.5c0 1.125 0.875 2.125 2.688 2.875s4.063 1.125 6.813 1.125 5-0.375 6.813-1.125 2.688-1.75 2.688-2.875z"></path>
</svg>
