<!-- Generated by IcoMoon.io -->
<svg version="1.1" xmlns="http://www.w3.org/2000/svg" width="16" height="32" viewBox="0 0 16 32">
<title>ion-help</title>
<path d="M13.563 4.813c1.563 1.188 2.438 2.875 2.438 5.188 0 1.375-0.5 2.625-1.188 3.563-0.438 0.563-1.313 1.313-2.5 2.25l-1.313 0.875c-0.625 0.5-1.063 1.125-1.25 1.75-0.125 0.375-0.188 1.188-0.188 1.813 0 0.125-0.063 0.375-0.438 0.375h-3.875c-0.438 0-0.438-0.188-0.438-0.313 0.063-1.625 0.25-3.063 0.938-4.125 0.938-1.438 3.563-3 3.563-3 0.375-0.313 0.688-0.563 0.938-0.938 0.438-0.625 0.75-1.313 0.75-2 0-0.813-0.188-1.625-0.688-2.25-0.625-0.75-1.313-1.125-2.563-1.125s-2 0.688-2.5 1.5-0.438 1.813-0.438 2.688h-4.813c0-3.375 0.875-5.5 2.75-6.75 1.25-0.875 2.813-1.25 4.688-1.25 2.438 0 4.375 0.438 6.125 1.75zM7.125 23.125c1.688 0.063 2.938 1.25 2.875 3s-1.375 2.875-3.063 2.813c-1.625-0.063-2.875-1.188-2.813-2.938s1.375-2.938 3-2.875z"></path>
</svg>
