<!-- Generated by IcoMoon.io -->
<svg version="1.1" xmlns="http://www.w3.org/2000/svg" width="32" height="32" viewBox="0 0 32 32">
<title>ion-umbrella</title>
<path d="M21.5 18v0 0 0zM6.5 18v0 0 0zM15 3.063c7.25 0.5 13 6.813 13 14.188v0.75c-0.25-1.563-1.625-3.25-3.25-3.25-1.813 0-3.25 1.438-3.25 3.25v0c0-1.813-1.438-3.25-3.25-3.25s-3.063 0.75-3.25 2.813v8.438c0 1.063-0.375 2.063-1.125 2.813s-1.813 1.188-2.875 1.188c-2.188 0-3.938-1.813-3.938-4 0-0.563 0.438-1 1-1s1 0.438 1 1c0 1.125 0.875 2 1.938 2 1.125 0 2-0.875 2-2v-8.375c-0.063-1.5-1.625-2.875-3.25-2.875-1.813 0-3.25 1.438-3.25 3.25v0c0-1.813-1.438-3.25-3.25-3.25-1.688 0-3.063 1.625-3.25 3.25v-1.125c0-7.375 5.75-13.313 13-13.813v-0.063c0-0.563 0.438-1 1-1s1 0.438 1 1v0.063z"></path>
</svg>
