<!-- Generated by IcoMoon.io -->
<svg version="1.1" xmlns="http://www.w3.org/2000/svg" width="32" height="32" viewBox="0 0 32 32">
<title>ion-social-chrome-outline</title>
<path d="M14 2c7.688 0 14 6.313 14 14s-6.313 14-14 14-14-6.313-14-14 6.313-14 14-14zM14 4.813c-3.563 0-6.813 1.688-8.813 4.25l3.375 5.813c0.5-2.5 2.688-4.5 5.438-4.5h9.688c-1.875-3.375-5.563-5.563-9.688-5.563zM18.188 16c0-2.313-1.875-4.188-4.188-4.188s-4.188 1.875-4.188 4.188 1.875 4.188 4.188 4.188 4.188-1.875 4.188-4.188zM2.813 16c0 5.688 4.188 10.375 9.625 11.063l3.375-5.813c-0.563 0.188-1.188 0.375-1.813 0.375-2.125 0-3.813-1.125-4.813-2.813v0l-4.875-8.438c-1 1.688-1.5 3.625-1.5 5.625zM14 27.188c6.188 0 11.188-5 11.188-11.188 0-1.5-0.25-2.875-0.813-4.188h-6.75c1.188 1.063 2 2.5 2 4.188 0 1.063-0.313 2-0.813 2.813v0z"></path>
</svg>
