<!-- Generated by IcoMoon.io -->
<svg version="1.1" xmlns="http://www.w3.org/2000/svg" width="24" height="32" viewBox="0 0 24 32">
<title>ion-social-nodejs</title>
<path d="M12 30c-0.375 0-0.75-0.125-1.063-0.313l-3.313-2c-0.5-0.313-0.25-0.375-0.063-0.438 0.688-0.25 0.875-0.313 1.563-0.75 0.063-0.063 0.188-0.063 0.25 0l2.438 1.438c0.063 0.063 0.25 0.063 0.313 0l9.75-5.75c0.063-0.063 0.125-0.125 0.125-0.25v-11.688c0-0.125 0-0.25-0.125-0.313l-9.75-5.875c-0.063-0.063-0.188-0.063-0.25 0l-9.688 5.875c-0.125 0.063-0.188 0.188-0.188 0.313v11.688c0 0.125 0 0.188 0.125 0.25l2.5 1.5c1.5 0.75 2.375-0.063 2.375-0.938v-11.438c0-0.188 0.125-0.313 0.313-0.313h1.375c0.188 0 0.313 0.125 0.313 0.313v11.438c0 2.063-1.188 3.25-3.063 3.25-0.563 0-1.063-0.063-2.313-0.688l-2.563-1.5c-0.625-0.375-1.063-1.125-1.063-1.875v-11.875c0-0.75 0.438-1.5 1.063-1.875l9.875-5.938c0.625-0.375 1.5-0.375 2.125 0l9.875 5.938c0.625 0.375 1.063 1.125 1.063 1.875v11.875c0 0.75-0.438 1.5-1.063 1.875l-9.875 5.875c-0.313 0.188-0.688 0.313-1.063 0.313v0zM15.063 22c-4.063 0-5.25-1.938-5.25-3.688 0-0.188 0.063-0.313 0.25-0.313h1.313c0.125 0 0.313 0.125 0.313 0.25 0.188 1.375 1 1.938 3.375 1.938 2.063 0 2.938-0.688 2.938-1.813 0-0.688-0.188-1.125-3.438-1.438-2.688-0.25-4.438-0.938-4.438-3.188 0-2.063 1.75-3.25 4.563-3.25 2.875 0 4.75 0.875 4.938 3.188 0 0.063-0.063 0.125-0.125 0.188s-0.125 0.125-0.188 0.125h-1.25c-0.125 0-0.313-0.125-0.313-0.25-0.25-1.063-1-1.438-3.063-1.438-2.25 0-2.563 0.75-2.563 1.375 0 0.75 0.313 1 3.375 1.438s4.5 1 4.5 3.188c0 2.25-1.813 3.688-4.938 3.688v0 0z"></path>
</svg>
