<!-- Generated by IcoMoon.io -->
<svg version="1.1" xmlns="http://www.w3.org/2000/svg" width="24" height="32" viewBox="0 0 24 32">
<title>ion-bonfire</title>
<path d="M12.938 21.938l0.938 5.563c0.063 0.188 0.063 0.313 0.063 0.5 0 1.125-0.875 2-2 2s-2-0.875-2-2c0-0.125 0-0.313 0.063-0.438l0.938-5.75c0.125-0.438 0.5-0.813 1-0.813s0.938 0.438 1 0.938zM15.125 22.188v0 0 0zM20.563 24.375c0.563 0.5 0.625 1.563 0 2.188s-1.688 0.563-2.188 0c-0.063-0.063-0.125-0.188-0.188-0.25l-3.063-4.125c-0.188-0.313-0.125-0.688 0.125-0.938 0.313-0.313 0.625-0.313 1-0.063l4 2.938c0.125 0.063 0.188 0.188 0.313 0.25zM19.313 20.938v0 0 0zM23.188 20.125c0.563 0.063 0.813 0.438 0.813 1.188 0 0.563-0.625 0.875-1.125 0.75l-3.563-1.125c-0.188-0.125-0.375-0.313-0.313-0.563s0.25-0.438 0.5-0.375zM4.688 20.938v0 0 0zM4.688 20.938v0l-3.625 1.125c-0.5 0.125-1.063-0.188-1.063-0.75 0-0.75 0.188-1.125 0.75-1.188l3.75-0.125c0.25-0.063 0.438 0.125 0.5 0.375s-0.125 0.438-0.313 0.563v0zM7.75 21.188c0.313-0.25 0.688-0.25 1 0.063 0.25 0.25 0.313 0.625 0.125 0.938l-3.063 4.125c-0.063 0.063-0.125 0.188-0.188 0.25-0.625 0.625-1.563 0.625-2.188 0s-0.625-1.563 0-2.188c0.125-0.125 0.188-0.188 0.313-0.25zM18 8c0 2-0.563 3.625-3.125 5.375-2.313 1.625-5.875 2.875-6.875 6.625 0 0-3.625-1.5-3-6s7.75-6.625 7-12c1.5 0 6 2.188 6 6zM18 16c-1 3.125-2.75 4-5 4-0.938 0-2-0.563-2.688-1.625 0.75-0.938 1.75-1.625 2.938-2.313 0.563-0.313 1.25-0.625 1.813-1 1.313-0.875 2.375-1.938 2.938-3.063 0.313 0.938 0.313 3 0 4zM5.5 10c-0.375-0.25-0.563-0.875-0.5-1.688 0.125-1.375 2.125-2.438 2-4.313 0.875-0.125 1.938 0.188 2.625 1.5-0.313 0.688-0.938 1.313-1.75 2.125s-1.625 1.375-2.375 2.375z"></path>
</svg>
