<!-- Generated by IcoMoon.io -->
<svg version="1.1" xmlns="http://www.w3.org/2000/svg" width="26" height="32" viewBox="0 0 26 32">
<title>ion-android-globe</title>
<path d="M13 3c7.188 0 13 5.813 13 13s-5.813 13-13 13-13-5.813-13-13 5.813-13 13-13zM11.625 27.063c0.375-0.938 1.313-1.813 0.5-2.438-0.5-0.438-1-0.875-1.438-1.313-0.125-0.125-0.688-1.25-0.563-1.438 0.313-0.563 0.375-0.875 0.5-1.5 0.188-0.75-0.188-1-0.813-1.375-0.938-0.625-1.813-1.438-2.688-2.125-0.438-0.313-1.063-0.625-1.25-1.188s-0.313-1.25-0.625-1.75c-0.875-1.25-0.75-2.125-0.625-3.625 0-0.438-0.063-1-0.125-1.563-1.75 2-2.625 4.563-2.625 7.25 0 3 1.125 5.75 3.25 7.875 1.813 1.813 4.063 2.875 6.5 3.188zM20.875 23.875c1.438-1.438 2.438-3.188 2.938-5.125-0.5 0.063-1.188-0.125-1.188-0.125s-1.313-1.5-1.438-2.813c-0.125-1.375 0-2.438-0.188-3.563-0.188-1-1.25-1.938-1.688-2.875-0.438-0.875-0.813-1.75-1.25-2.625 0.125 0.063 0.313 0.125 0.438 0.188 0.313-0.063 0.625-0.125 0.875-0.125-1.438-1-3.063-1.563-4.75-1.813v0.5l0.25 0.563-0.875 0.813-0.563-0.188-0.625-0.625-0.625-0.75-0.875-0.313c-1 0.125-1.938 0.438-2.813 0.813v0.438c0.438-0.188 1-0.313 1.438-0.5 0.188-0.063 0.813 0.438 1 0.563-0.25 0.313-1.313 0.938-1.375 1.313 0 0.125 0.438 0.375 0.438 0.625 0 0.375-0.063 0.688-0.063 1.063 0.188-0.188 1.25-1.313 1.375-1.313 0.813-0.188 2.188 1.188 2.313 1.625s-1.375 1.5-2.063 2.125c-0.5 0.5-1.563 0.75-1.25 1.5 0.125 0.25 0.625 1.25 0.313 1.5-0.375 0.313-0.875-0.563-1.063-0.75-0.5-0.625-1.625-0.438-2.375-0.438 0 1.063-0.063 1.938 0.938 2.688 0.938 0.688 1.875 1.563 2.938 2.063 0.813 0.375 2.25-0.438 2.938 0.063 1 0.688 1.813 1.313 2.938 1.813 0.5 0.188 2.063 1.25 1.625 1.938-0.313 0.5-0.625 0.938-0.875 1.438s-0.813 1.25-1.25 1.563c-0.5 0.375-1 1.063-1.313 1.813 2.188-0.438 4.125-1.438 5.75-3.063z"></path>
</svg>
