<!-- Generated by IcoMoon.io -->
<svg version="1.1" xmlns="http://www.w3.org/2000/svg" width="26" height="32" viewBox="0 0 26 32">
<title>ion-ios-americanfootball</title>
<path d="M20.688 8.313c7 7 5.063 20.438 5.063 20.438s-1.625 0.25-4.063 0.25c-4.563 0-11.813-0.75-16.375-5.313-7-7-5.063-20.438-5.063-20.438s1.625-0.25 4.063-0.25c4.563 0 11.813 0.75 16.375 5.313zM1.25 12.188l0.188 1.125 8.875-8.875-1.125-0.188zM13.688 20.938l0.75 0.75 1.75-1.813 1.438 1.375-1.813 1.813 0.75 0.688 4.188-4.188-0.688-0.75-1.813 1.813-1.375-1.438 1.813-1.75-0.75-0.75-1.75 1.813-1.438-1.438 1.813-1.75-0.75-0.75-1.75 1.813-1.438-1.438 1.813-1.75-0.75-0.75-1.75 1.813-1.438-1.438 1.813-1.75-0.75-0.75-1.75 1.813-1.438-1.375 1.813-1.813-0.75-0.688-4.188 4.188 0.688 0.75 1.813-1.813 1.375 1.438-1.813 1.75 0.75 0.75 1.75-1.813 1.438 1.438-1.813 1.75 0.75 0.75 1.75-1.813 1.438 1.438-1.813 1.75 0.75 0.75 1.75-1.813 1.438 1.438zM16.813 27.75l7.938-7.938-0.188-1.125-8.875 8.875z"></path>
</svg>
