<!-- Generated by IcoMoon.io -->
<svg version="1.1" xmlns="http://www.w3.org/2000/svg" width="24" height="32" viewBox="0 0 24 32">
<title>ion-social-rss-outline</title>
<path d="M3.5 21c1.938 0 3.5 1.563 3.5 3.5s-1.563 3.5-3.5 3.5-3.5-1.563-3.5-3.5 1.563-3.5 3.5-3.5zM3.5 27c1.375 0 2.5-1.125 2.5-2.5s-1.125-2.5-2.5-2.5-2.5 1.125-2.5 2.5 1.125 2.5 2.5 2.5zM0 12c8.75 0 16 7.25 16 16h-5c0-3-0.875-5.875-3-8s-5-3-8-3v-5zM15 27c-0.125-1.625-0.5-3.25-1.188-4.813-0.75-1.75-1.875-3.375-3.25-4.75s-3-2.5-4.75-3.25c-1.563-0.625-3.188-1-4.813-1.125v2.938c3.125 0.188 5.75 1.375 7.688 3.313s3.125 4.563 3.313 7.688h3zM0 4c13.25 0 24 10.75 24 24h-5c0-10.688-8.313-19-19-19v-5zM14.188 13.75c3.5 3.5 5.563 8.188 5.813 13.25h3c-0.5-11.875-10.125-21.5-22-22v3c5.063 0.25 9.688 2.25 13.188 5.75z"></path>
</svg>
