<!-- Generated by IcoMoon.io -->
<svg version="1.1" xmlns="http://www.w3.org/2000/svg" width="22" height="32" viewBox="0 0 22 32">
<title>ion-android-bus</title>
<path d="M0 22v-12.75c0-4.688 5.125-5.25 11-5.25s11 0.563 11 5.25v12.75c0 1.125-0.875 1.5-1.688 2.25v2.438c0 0.75-0.563 1.313-1.313 1.313h-1.313c-0.75 0-1.375-0.563-1.375-1.313v-1.375h-10.625v1.375c0 0.75-0.625 1.313-1.375 1.313h-1.313c-0.75 0-1.313-0.563-1.313-1.313v-2.438c-0.813-0.75-1.688-1.063-1.688-2.25zM5 23c1.125 0 2-0.875 2-2s-0.875-2-2-2-2 0.875-2 2 0.875 2 2 2zM17 23c1.125 0 2-0.875 2-2s-0.875-2-2-2-2 0.875-2 2 0.875 2 2 2zM19 15.313v-6.625h-16v6.625h16z"></path>
</svg>
