<!-- Generated by IcoMoon.io -->
<svg version="1.1" xmlns="http://www.w3.org/2000/svg" width="26" height="32" viewBox="0 0 26 32">
<title>ion-ios-world-outline</title>
<path d="M13 3c7.188 0 13 5.813 13 13s-5.813 13-13 13v0 0 0c-7.188 0-13-5.813-13-13s5.813-13 13-13v0 0 0zM13.5 10.75v4.75h4.688c-0.063-1.938-0.313-3.75-0.688-5.25-1.313 0.313-2.625 0.438-4 0.5zM13.5 9.75c1.25-0.063 2.563-0.188 3.75-0.5-0.875-2.875-2.375-4.75-3.75-5.125v5.625zM12.5 4.125c-1.438 0.375-2.813 2.25-3.75 5.125 1.188 0.313 2.438 0.438 3.75 0.5v-5.625zM12.5 10.75c-1.375-0.063-2.75-0.188-4.063-0.5-0.375 1.5-0.625 3.313-0.688 5.25h4.75v-4.75zM6.75 15.5c0.063-2 0.25-3.875 0.688-5.5-1.313-0.375-2.563-0.938-3.688-1.563-1.625 1.938-2.563 4.375-2.688 7.063h5.688zM6.75 16.5h-5.688c0.125 2.688 1.063 5.125 2.688 7.063 1.188-0.625 2.375-1.188 3.688-1.563-0.438-1.625-0.625-3.5-0.688-5.5zM7.75 16.5c0.063 1.938 0.313 3.75 0.688 5.25 1.313-0.313 2.688-0.5 4.063-0.563v-4.688h-4.75zM12.5 22.25c-1.313 0.063-2.563 0.188-3.75 0.5 0.938 2.875 2.313 4.75 3.75 5.125v-5.625zM13.5 27.875c1.375-0.375 2.875-2.25 3.75-5.125-1.188-0.313-2.5-0.438-3.75-0.5v5.625zM13.5 21.188c1.375 0.063 2.688 0.25 4 0.563 0.375-1.5 0.625-3.313 0.688-5.25h-4.688v4.688zM19.25 16.5c-0.063 2-0.313 3.875-0.75 5.5 1.313 0.375 2.563 0.938 3.75 1.563 1.625-1.938 2.563-4.375 2.688-7.063h-5.688zM19.25 15.5v0h5.688c-0.125-2.688-1.063-5.125-2.688-7.063-1.188 0.625-2.375 1.188-3.688 1.563 0.438 1.625 0.625 3.5 0.688 5.5zM21.5 7.625c-1.563-1.563-3.5-2.75-5.688-3.25 1 1.063 1.813 2.688 2.438 4.625 1.125-0.375 2.188-0.813 3.25-1.375zM10.188 4.375c-2.188 0.5-4.188 1.688-5.688 3.25 1 0.563 2.125 0.938 3.25 1.313 0.625-1.938 1.438-3.5 2.438-4.563zM4.5 24.375c1.563 1.563 3.5 2.75 5.688 3.25-1-1.063-1.875-2.688-2.5-4.625-1.125 0.375-2.188 0.813-3.188 1.375zM15.813 27.625c2.188-0.5 4.125-1.688 5.688-3.25-1.063-0.563-2.125-1-3.25-1.375-0.625 1.938-1.438 3.563-2.438 4.625z"></path>
</svg>
