<!-- Generated by IcoMoon.io -->
<svg version="1.1" xmlns="http://www.w3.org/2000/svg" width="32" height="32" viewBox="0 0 32 32">
<title>ion-speedometer</title>
<path d="M19.5 16l0.5 0.5-4 5.25v0.25c0 1.125-0.875 2-2 2s-2-0.875-2-2 0.875-2 2-2h0.25zM14 6c7.75 0 14 6.25 14 14 0 2.125-0.5 4.188-1.375 6h-2.25c0.938-1.688 1.563-3.563 1.625-5.5h-2v-1h2c-0.063-1.813-0.563-3.5-1.375-5.063l-1.688 0.938-0.5-0.813 1.688-1c-0.5-0.75-1-1.438-1.625-2.063s-1.313-1.125-2.063-1.625l-1 1.688-0.875-0.5 1-1.688c-1.563-0.813-3.25-1.313-5.063-1.375v2h-1v-2c-1.813 0.063-3.5 0.563-5.063 1.375l1 1.688-0.875 0.5-1-1.688c-0.75 0.5-1.438 1-2.063 1.625s-1.188 1.313-1.625 2.063l1.75 1-0.5 0.813-1.75-0.938c-0.813 1.563-1.313 3.25-1.375 5.063h2v1h-2c0.063 1.938 0.688 3.813 1.625 5.5h-2.25c-0.875-1.813-1.375-3.875-1.375-6 0-7.75 6.25-14 14-14z"></path>
</svg>
