<!-- Generated by IcoMoon.io -->
<svg version="1.1" xmlns="http://www.w3.org/2000/svg" width="32" height="32" viewBox="0 0 32 32">
<title>ion-disc</title>
<path d="M14 9.938c3.375 0 6.063 2.688 6.063 6.063s-2.688 6.063-6.063 6.063-6.063-2.688-6.063-6.063 2.688-6.063 6.063-6.063zM14 18.75c1.5 0 2.75-1.25 2.75-2.75s-1.25-2.75-2.75-2.75-2.75 1.25-2.75 2.75 1.25 2.75 2.75 2.75zM14 2c7.75 0 14 6.25 14 14s-6.25 14-14 14-14-6.25-14-14 6.25-14 14-14zM14 23.688c4.25 0 7.688-3.438 7.688-7.688s-3.438-7.688-7.688-7.688-7.688 3.438-7.688 7.688 3.438 7.688 7.688 7.688z"></path>
</svg>
