<!-- Generated by IcoMoon.io -->
<svg version="1.1" xmlns="http://www.w3.org/2000/svg" width="26" height="32" viewBox="0 0 26 32">
<title>ion-ios-tennisball</title>
<path d="M0 15.75v0 0 0zM13.25 29v0zM13 3c7.188 0 13 5.813 13 13 0 0.5 0 1-0.063 1.5v0 0c-0.688 6.063-5.625 10.875-11.688 11.438v0 0c-0.375 0.063-0.813 0.063-1.25 0.063-7.188 0-13-5.813-13-13v-0.25c0-0.375 0-0.688 0.063-1v0 0c0.563-6.063 5.375-11 11.438-11.688v0 0c0.375-0.063 0.688-0.063 1-0.063v0 0h0.5zM5.188 16.688c1.625 0.625 3 1.625 4.25 2.875s2.25 2.625 2.875 4.25c0.5 1.313 0.875 2.75 0.938 4.125 0.313 0 0.688 0 1-0.063-0.188-3.313-1.563-6.563-4.063-9.063s-5.75-3.875-9.063-4.063c-0.063 0.313-0.063 0.688-0.063 1 1.375 0.063 2.813 0.438 4.125 0.938zM15.625 13.375c2.563 2.563 5.813 3.938 9.188 4.125 0.063-0.313 0.063-0.688 0.063-1-1.5-0.063-2.875-0.375-4.25-0.938-1.625-0.625-3.063-1.625-4.313-2.875s-2.25-2.688-2.875-4.313c-0.563-1.375-0.875-2.75-0.938-4.25-0.313 0-0.688 0-1 0.063 0.188 3.375 1.563 6.625 4.125 9.188z"></path>
</svg>
