<!-- Generated by IcoMoon.io -->
<svg version="1.1" xmlns="http://www.w3.org/2000/svg" width="12" height="32" viewBox="0 0 12 32">
<title>ion-woman</title>
<path d="M1.875 9.313c0.188-0.75 1.063-2.063 2.625-2.125h3c1.5 0.063 2.375 1.375 2.625 2.125l1.813 6.5c0.375 1.438-1.313 2-1.688 0.625l-1.625-6h-0.563l2.875 10.563h-2.688v7.938c0 1.438-1.938 1.438-1.938 0v-7.938h-0.625v7.938c0 1.438-2 1.438-2 0v-7.938h-2.625l2.813-10.563h-0.438l-1.688 6c-0.438 1.313-2.063 0.813-1.688-0.625zM8.313 4.313c0 1.313-1.063 2.313-2.313 2.313s-2.313-1-2.313-2.313 1.063-2.313 2.313-2.313 2.313 1 2.313 2.313z"></path>
</svg>
