<!-- Generated by IcoMoon.io -->
<svg version="1.1" xmlns="http://www.w3.org/2000/svg" width="24" height="32" viewBox="0 0 24 32">
<title>ion-ios-book-outline</title>
<path d="M17.75 4c3.438 0 6.25 1.625 6.25 4.938v17.688h-1.375c-1.063-1.875-2.75-2.625-4.875-2.625-2.5 0-4.625 1.75-5.125 4h-1.25c-0.5-2.25-2.625-4-5.125-4-2.125 0-4.063 1-4.875 2.625h-1.375v-17.688c0-3.313 2.813-4.938 6.25-4.938 2.563 0 4.875 0.875 5.75 2.75 0.75-1.875 3.188-2.75 5.75-2.75zM11.5 25.688v-16.813c-0.063-2.688-2.438-3.875-5.25-3.875-2.75 0-5.063 1.188-5.25 3.813v16.438h0.063c1.188-1.625 3-2.25 5.188-2.25s4.125 1.063 5.25 2.688zM23 9.25v-0.938c-0.188-2.625-2.5-3.313-5.25-3.313-2.875 0-5.25 1.25-5.25 4v16.688c1.125-1.625 3.063-2.688 5.25-2.688s4.125 0.625 5.25 2.25v-16z"></path>
</svg>
