<!-- Generated by IcoMoon.io -->
<svg version="1.1" xmlns="http://www.w3.org/2000/svg" width="26" height="32" viewBox="0 0 26 32">
<title>ion-ios-basketball-outline</title>
<path d="M13 3c7.188 0 13 5.813 13 13s-5.813 13-13 13-13-5.813-13-13 5.813-13 13-13zM24.938 16c0-3.438-1.5-6.563-3.875-8.75-0.875 2.125-1.938 4.063-3.25 5.938 0.938 0.75 1.938 1.313 3.063 1.813 1.313 0.563 2.688 0.875 4.063 1v0zM20.313 6.563c-2-1.563-4.563-2.5-7.313-2.5v0c0.125 1.375 0.375 2.75 0.938 4.063 0.625 1.563 1.625 2.938 2.813 4.125 0.125 0.063 0.125 0.188 0.25 0.25 1.25-1.813 2.375-3.75 3.25-5.813 0-0.063 0.063-0.063 0.063-0.125zM12 4.125c-3.188 0.25-6 1.813-8 4.063 4 1.75 7.563 4.313 10.563 7.438 0.688-0.75 1.313-1.5 1.875-2.313-2.5-2.313-4.188-5.563-4.438-9.188zM14.563 17.125c-0.938 1-1.938 1.875-3 2.75 1.75 2.188 2.813 4.938 2.938 7.938 2.063-0.25 3.938-1.063 5.5-2.188-1.375-3.125-3.188-5.938-5.438-8.5zM13.375 16.875l0.5-0.5-0.625-0.625c-2.875-2.875-6.188-5.125-9.875-6.75-1.125 1.563-1.938 3.438-2.188 5.5 3.875 0.188 7.25 1.938 9.688 4.625 0.875-0.688 1.688-1.438 2.5-2.25zM1.125 15.5c0 0.188-0.063 0.313-0.063 0.5 0 2.813 1 5.438 2.688 7.5 2.25-1 4.438-2.25 6.375-3.75l-0.438-0.438c-1.188-1.188-2.563-2.188-4.125-2.813-1.375-0.563-2.875-0.938-4.438-1zM4.438 24.313c2.188 2.25 5.188 3.625 8.563 3.625 0.188 0 0.313-0.063 0.5-0.063-0.063-1.563-0.375-3-1-4.438-0.438-1.063-1.063-2.063-1.75-2.938-1.938 1.5-4.063 2.813-6.313 3.813zM20.813 25c2.313-2 3.813-4.813 4.063-8-2.875-0.188-5.563-1.313-7.688-3-0.625 0.813-1.25 1.625-1.938 2.375 2.25 2.563 4.188 5.438 5.563 8.625z"></path>
</svg>
