<!-- Generated by IcoMoon.io -->
<svg version="1.1" xmlns="http://www.w3.org/2000/svg" width="24" height="32" viewBox="0 0 24 32">
<title>ion-ios-eye</title>
<path d="M23.938 16l0.063 0.063-0.375 0.375c-1.313 1.313-2.938 3-4.875 4.313-2.25 1.5-4.5 2.25-6.75 2.25-5.188 0-8.125-3.063-11.563-6.563l-0.438-0.438 0.063-0.063c2.438-2.5 4.188-4 5.875-5.063 2-1.25 3.938-1.875 6.063-1.875 5.188 0 9.125 3.75 11.938 7zM12 21c2.75 0 5-2.25 5-5s-2.25-5-5-5-5 2.25-5 5 2.25 5 5 5zM11.625 14.188c0 1.188 1 2.188 2.188 2.188 0.438 0 0.875-0.125 1.188-0.375v0c0 1.688-1.375 3-3 3s-3-1.313-3-3 1.375-3 3-3c-0.25 0.313-0.375 0.75-0.375 1.188z"></path>
</svg>
