<!-- Generated by IcoMoon.io -->
<svg version="1.1" xmlns="http://www.w3.org/2000/svg" width="26" height="32" viewBox="0 0 26 32">
<title>ion-ios-videocam-outline</title>
<path d="M16.063 8c1.188 0 2.063 0.875 2.063 2.063v11.75c0 1.188-0.875 2.188-2.063 2.188h-13.813c-1.188 0-2.25-1-2.25-2.188v-11.75c0-1.188 1.063-2.063 2.25-2.063h13.813zM17.063 21.813v-11.75c0-0.563-0.5-1-1.063-1h-13.813c-0.563 0-1.125 0.438-1.125 1v11.75c0 0.563 0.625 1.125 1.188 1.125h13.813c0.563 0 1-0.563 1-1.125zM20 13.313l6.125-3.313v12l-6.125-3.313v-5.375zM25.063 11.875v0l-4 2.063v4.125l4 2.063v-8.25z"></path>
</svg>
