<!-- Generated by IcoMoon.io -->
<svg version="1.1" xmlns="http://www.w3.org/2000/svg" width="26" height="32" viewBox="0 0 26 32">
<title>ion-ionic</title>
<path d="M23.5 8.313c1.563 2.125 2.5 4.813 2.5 7.688 0 7.188-5.813 13-13 13s-13-5.813-13-13 5.813-13 13-13c2.875 0 5.563 0.938 7.688 2.5 0.313-0.188 0.688-0.313 1.125-0.313 1.125 0 2 0.875 2 2 0 0.438-0.125 0.813-0.313 1.125zM21.5 24.5c1.125-1.125 1.938-2.375 2.563-3.813 0.625-1.5 0.938-3.063 0.938-4.688s-0.313-3.188-0.938-4.688c-0.375-0.813-0.813-1.625-1.313-2.375-0.25 0.125-0.625 0.25-0.938 0.25-1.125 0-2-0.875-2-2 0-0.313 0.125-0.688 0.25-0.938-0.75-0.5-1.563-0.938-2.375-1.313-1.5-0.625-3.063-0.938-4.688-0.938s-3.188 0.313-4.688 0.938c-1.438 0.625-2.688 1.438-3.813 2.563s-1.938 2.375-2.563 3.813c-0.625 1.5-0.938 3.063-0.938 4.688s0.313 3.188 0.938 4.688c0.625 1.438 1.438 2.688 2.563 3.813s2.375 1.938 3.813 2.563c1.5 0.625 3.063 0.938 4.688 0.938s3.188-0.313 4.688-0.938c1.438-0.625 2.688-1.438 3.813-2.563zM7 16c0-4 2-6 6-6s6 2 6 6-2 6-6 6-6-2-6-6z"></path>
</svg>
