<!-- Generated by IcoMoon.io -->
<svg version="1.1" xmlns="http://www.w3.org/2000/svg" width="32" height="32" viewBox="0 0 32 32">
<title>ion-ios-game-controller-a</title>
<path d="M21.063 9.125c3.813 0 6.938 2.813 6.938 6.813s-3.125 6.938-6.938 6.938h-14.125c-3.813 0-6.938-2.938-6.938-6.938s3.125-6.813 6.938-6.813h14.125zM10.5 16.688v0-1.375c0-0.188-0.125-0.313-0.313-0.313h-2.188v-2.188c0-0.188-0.125-0.313-0.313-0.313h-1.375c-0.188 0-0.313 0.125-0.313 0.313v2.188h-2.188c-0.188 0-0.313 0.125-0.313 0.313v1.313c0 0.188 0.125 0.375 0.313 0.375h2.188v2.188c0 0.188 0.125 0.313 0.313 0.313h1.313c0.188 0 0.375-0.125 0.375-0.313v-2.188h2.188c0.188 0 0.313-0.125 0.313-0.313zM18 17.188c0.688 0 1.188-0.5 1.188-1.188s-0.5-1.188-1.188-1.188-1.25 0.5-1.25 1.188 0.563 1.188 1.25 1.188zM20.625 19.813c0.688 0 1.25-0.5 1.25-1.188s-0.563-1.188-1.25-1.188-1.188 0.5-1.188 1.188 0.5 1.188 1.188 1.188zM20.625 14.625c0.688 0 1.25-0.563 1.25-1.25s-0.563-1.188-1.25-1.188-1.188 0.5-1.188 1.188 0.5 1.25 1.188 1.25zM23.313 17.188c0.688 0 1.188-0.5 1.188-1.188s-0.5-1.188-1.188-1.188-1.25 0.5-1.25 1.188 0.563 1.188 1.25 1.188z"></path>
</svg>
