<!-- Generated by IcoMoon.io -->
<svg version="1.1" xmlns="http://www.w3.org/2000/svg" width="32" height="32" viewBox="0 0 32 32">
<title>ion-shuffle</title>
<path d="M21.125 11.313c-3.25 0-5.188 2.688-7.5 5.75-2.563 3.438-5.5 7.5-10.688 7.5h-2.938v-3.938h2.938c3.25 0 5.25-2.938 7.563-6 2.563-3.438 5.438-7.25 10.625-7.25h1.813v-3.375l5.063 5.063-5.063 5.25v-3h-1.813zM7.563 13.625c-1.313-1.313-2.625-2.188-4.625-2.25-2.125-0.063-2.938 0-2.938 0v-3.938h2.938c3 0 5.188 1.25 7.063 3-0.625 0.75-1.188 1.5-1.75 2.25-0.25 0.313-0.438 0.625-0.688 0.938zM22.938 20.625v-2.938l5.063 5.25-5.063 5.063v-3.375h-1.813c-3.125 0-5.438-1.438-7.313-3.313 0.75-0.875 1.375-1.75 2-2.563 0.125-0.188 0.313-0.375 0.438-0.563 1.375 1.5 2.875 2.438 4.875 2.438h1.813z"></path>
</svg>
