<!-- Generated by IcoMoon.io -->
<svg version="1.1" xmlns="http://www.w3.org/2000/svg" width="24" height="32" viewBox="0 0 24 32">
<title>ion-compose</title>
<path d="M23.688 6.25c0.438 0.438 0.438 1.125 0 1.563l-2 1.938-3.438-3.438 1.938-2c0.438-0.438 1.125-0.438 1.563 0zM17.625 6.875l3.438 3.438-11.063 10.813-4 0.875 0.875-4zM20 16l2-2v12.563c0 0.813-0.625 1.438-1.438 1.438h-19.125c-0.813 0-1.438-0.625-1.438-1.438v-19.125c0-0.813 0.625-1.438 1.438-1.438h12.563l-2 2h-9.313c-0.375 0-0.688 0.313-0.688 0.625v16.75s0.25 0.625 0.625 0.625h16.813s0.563-0.313 0.563-0.625v-9.375z"></path>
</svg>
