<!-- Generated by IcoMoon.io -->
<svg version="1.1" xmlns="http://www.w3.org/2000/svg" width="20" height="32" viewBox="0 0 20 32">
<title>ion-ios-more-outline</title>
<path d="M10 14.875c-0.625 0-1.125 0.5-1.125 1.125s0.5 1.125 1.125 1.125 1.125-0.5 1.125-1.125-0.5-1.125-1.125-1.125zM10 14v0c1.125 0 2 0.875 2 2s-0.875 2-2 2-2-0.875-2-2 0.875-2 2-2zM2 14.875c-0.625 0-1.125 0.5-1.125 1.125s0.5 1.125 1.125 1.125 1.125-0.5 1.125-1.125-0.5-1.125-1.125-1.125zM2 14v0c1.125 0 2 0.875 2 2s-0.875 2-2 2-2-0.875-2-2 0.875-2 2-2zM18 14.875c-0.625 0-1.125 0.5-1.125 1.125s0.5 1.125 1.125 1.125 1.125-0.5 1.125-1.125-0.5-1.125-1.125-1.125zM18 14v0c1.125 0 2 0.875 2 2s-0.875 2-2 2-2-0.875-2-2 0.875-2 2-2z"></path>
</svg>
