<!-- Generated by IcoMoon.io -->
<svg version="1.1" xmlns="http://www.w3.org/2000/svg" width="32" height="32" viewBox="0 0 32 32">
<title>ion-closed-captioning</title>
<path d="M0 4h32v24h-32v-24zM29 16c0-1.688 0-2.75-0.25-5s-1.438-3.5-3.688-3.75-5.688-0.25-8.625-0.25h-0.875c-2.938 0-6.375 0-8.625 0.25s-3.438 1.5-3.688 3.75-0.25 3.313-0.25 5 0.125 2.938 0.25 5 1.188 3.5 3.688 3.75 6 0.25 9.063 0.25 6.563 0 9.063-0.25 3.563-1.688 3.688-3.75 0.25-3.313 0.25-5zM23.25 17.75v-0.25h3.313c0 1.688-0.438 3-1.188 3.875s-2 1.313-3.813 1.313c-0.875 0-1.625-0.125-2.25-0.313s-1.125-0.563-1.563-1.063-0.75-1.188-0.938-2.063-0.313-1.875-0.313-3.188 0.188-2.438 0.438-3.313 0.563-1.563 1.063-2.063 1.063-0.875 1.688-1.063 1.375-0.313 2.125-0.313c1.563 0 2.75 0.438 3.563 1.313s1.188 2.313 1.188 3.875h-3.25v-0.063c0-1.25-0.75-2.063-1.688-2.063s-1.563 0.688-1.75 1.875c0 0-0.125 0.688-0.125 1.813s0.125 1.75 0.125 1.75c0.063 1.063 0.75 1.813 1.688 1.813s1.688-0.625 1.688-1.813v-0.063zM12.188 17.75v-0.25h3.313c0 1.688-0.438 3-1.188 3.875s-2 1.313-3.813 1.313c-0.875 0-1.625-0.125-2.25-0.313s-1.125-0.563-1.563-1.063-0.75-1.188-0.938-2.063-0.313-1.875-0.313-3.188 0.188-2.438 0.438-3.313 0.563-1.563 1.063-2.063 1.063-0.875 1.688-1.063 1.375-0.313 2.125-0.313c1.563 0 2.75 0.438 3.563 1.313s1.188 2.313 1.188 3.875h-3.25v-0.063c0-1.25-0.75-2.063-1.688-2.063s-1.563 0.688-1.75 1.875c0 0-0.125 0.688-0.125 1.813s0.125 1.75 0.125 1.75c0.063 1.063 0.75 1.813 1.688 1.813s1.688-0.625 1.688-1.813v-0.063z"></path>
</svg>
