<!-- Generated by IcoMoon.io -->
<svg version="1.1" xmlns="http://www.w3.org/2000/svg" width="24" height="32" viewBox="0 0 24 32">
<title>ion-social-python</title>
<path d="M8.063 15.563c-1.813 0.313-3.063 1.875-3.063 3.563v2.875h-0.938c-1.813 0-3.375-1.813-3.875-4.313-0.125-0.563-0.188-1.063-0.188-1.688v-0.063c0-3.313 1.813-5.938 4.063-5.938h7.938v-1h-6v-1.813c0-1.625 0.438-2.5 2.875-2.938 0.813-0.125 1.813-0.25 2.813-0.25s2.438 0.063 3.438 0.25c1.563 0.25 2.875 1.375 2.875 2.938v5.5c0 1.313-0.875 2.375-2.063 2.688-0.25 0.063-0.5 0.125-0.813 0.125h-6.313c-0.25 0-0.5 0-0.75 0.063zM8.75 7.938c0.625 0 1.063-0.438 1.063-1.063s-0.438-1.125-1.063-1.125-1.125 0.5-1.125 1.125 0.5 1.063 1.125 1.063zM23.75 13.938c0.188 0.625 0.25 1.313 0.25 2.063 0 1-0.188 1.875-0.438 2.688-0.688 1.938-2.063 3.313-3.625 3.313h-7.938v1h6v1.625c0 1.625-1.438 2.5-2.875 2.938-2.188 0.625-4.25 0.563-6.063 0-1.563-0.438-3.063-1.375-3.063-2.938v-5.438c0-1.313 0.875-2.25 2.063-2.563 0.25-0.063 0.5-0.125 0.813-0.125h6.5c0.188 0 0.375-0.063 0.563-0.063 1.688-0.25 3.063-1.75 3.063-3.875v-2.563h0.938c1.75 0 3.25 1.625 3.813 3.938zM15.25 23.938c-0.625 0-1.125 0.438-1.125 1.063s0.5 1.125 1.125 1.125 1.063-0.5 1.063-1.125-0.438-1.063-1.063-1.063z"></path>
</svg>
