<!-- Generated by IcoMoon.io -->
<svg version="1.1" xmlns="http://www.w3.org/2000/svg" width="32" height="32" viewBox="0 0 32 32">
<title>ion-android-contacts</title>
<path d="M12.938 21.5c2.938 0.875 4.75 3.875 5.438 6.5h-18.375c0.688-2.625 2.5-5.625 5.438-6.5 1.125 0.625 2.375 1 3.75 1s2.625-0.375 3.75-1zM9.188 7.5c3.625 0 6.625 3 6.625 6.625s-3 6.625-6.625 6.625-6.625-3-6.625-6.625 3-6.625 6.625-6.625zM9.188 19.188c2.125 0 3.875-1.438 4.625-3.188h-9.25c0.75 1.75 2.5 3.188 4.625 3.188zM18.188 24c-0.813-1.25-2.125-2.688-3.75-3.313 0.688-0.563 1.313-1.438 1.75-2.188 0.813 0.313 1.688 0.5 2.625 0.5 1.375 0 2.625-0.375 3.75-1 2.938 0.875 4.75 3.375 5.438 6h-9.813zM17.188 12.5c-0.5-2.313-1.938-4.313-3.938-5.438 1.188-1.813 3.25-3.063 5.563-3.063 3.625 0 6.625 3 6.625 6.625s-3 6.625-6.625 6.625c-0.688 0-1.375-0.125-2-0.313 0.188-0.5 0.375-1 0.438-1.563 0.5 0.188 1 0.25 1.563 0.25 2.125 0 3.875-1.375 4.625-3.125h-6.25z"></path>
</svg>
