<!-- Generated by IcoMoon.io -->
<svg version="1.1" xmlns="http://www.w3.org/2000/svg" width="24" height="32" viewBox="0 0 24 32">
<title>ion-social-yen-outline</title>
<path d="M24 2l-7 13h3v3h-4.563l-0.938 1.938v1.063h5.5v3h-5.5v6h-5v-6h-5.5v-3h5.5v-1.063l-0.875-1.938h-4.625v-3h3l-7-13h5l7 13.813 7-13.813h5zM19 16h-3.688l0.813-1.5 6.188-11.5h-2.688l-7.625 15-7.625-15h-2.688l6.188 11.5 0.813 1.5h-3.688v1h4.25l1.25 2.75v2.25h-5.5v1h5.5v6h3v-6h5.5v-1h-5.5v-2.313l1.313-2.688h4.188v-1z"></path>
</svg>
