<!-- Generated by IcoMoon.io -->
<svg version="1.1" xmlns="http://www.w3.org/2000/svg" width="24" height="32" viewBox="0 0 24 32">
<title>ion-flag</title>
<path d="M22.625 11.375c0 0 0.75-0.125 1.375-0.375 0 1-0.438 2-0.563 2.25-1.75 3.125-6.188 7.688-11.313 5.25-4.063-1.938-5.75-1.875-7.313-1.5-0.063 0-0.125 0.063-0.188 0.063-0.188 0.063-0.938 0.313-1.625 0.063v-12.313c0-1 0.875-1.938 2.063-2.188 2.438-0.438 6.625-0.313 9.25 4.625 2.438 4.625 6.063 4.5 8.313 4.125zM1.5 2c0.25 0 0.5 0.25 0.5 0.5v27c0 0.25-0.25 0.5-0.5 0.5h-1c-0.25 0-0.5-0.25-0.5-0.5v-27c0-0.25 0.25-0.5 0.5-0.5h1z"></path>
</svg>
