<!-- Generated by IcoMoon.io -->
<svg version="1.1" xmlns="http://www.w3.org/2000/svg" width="20" height="32" viewBox="0 0 20 32">
<title>ion-social-bitcoin</title>
<path d="M19.625 17.438c0.25 0.625 0.438 1.875 0.375 2.75-0.063 1-0.313 2.313-1 3.188s-1.625 1.5-2.813 1.938c-0.938 0.375-2.063 0.625-3.688 0.688v4h-2.5v-4h-2v4h-2.563v-4h-5.438l0.563-3h1.625c0.563 0 0.563 0 0.75-0.063s0.25-0.25 0.313-0.438 0.125-0.5 0.125-1.063v-10.813c0-0.563-0.063-1-0.125-1.125s-0.188-0.25-0.375-0.375-0.563-0.125-1.125-0.125h-1.75v-3h5.438v-4h2.563v4h2v-4h2.5v4c1.25 0.063 2.063 0.25 2.875 0.563 1 0.375 1.75 0.938 2.313 1.688s0.75 1.75 0.813 2.813c0.063 0.625 0 1.25-0.188 1.75-0.125 0.5-0.5 1-1 1.438-0.375 0.375-0.688 0.563-1 0.688 0.563 0.125 1.063 0.375 1.563 0.625 0.938 0.5 1.438 1.125 1.75 1.875zM8 9.375v4.625h2v-4.625h-2zM8 22.625h2v-5.625h-2v5.625zM12.5 9.625v4.125c0.375-0.188 0.563-0.438 0.813-0.75 0.313-0.375 0.438-0.75 0.438-1.25s-0.125-0.938-0.375-1.313c-0.25-0.313-0.5-0.688-0.875-0.813zM14.313 21.313c0.5-0.438 0.625-0.938 0.625-1.625 0-0.563-0.188-1.188-0.5-1.563s-0.75-0.625-1.25-0.813c-0.25-0.125-0.375-0.125-0.688-0.188v5.125c0.125 0 0.313-0.063 0.438-0.125 0.625-0.25 0.875-0.375 1.375-0.813z"></path>
</svg>
