<!-- Generated by IcoMoon.io -->
<svg version="1.1" xmlns="http://www.w3.org/2000/svg" width="32" height="32" viewBox="0 0 32 32">
<title>ion-steam</title>
<path d="M30 13c0 1.25-1 2.313-2.313 2.313-1.25 0-2.313-1-2.313-2.313 0-1.25 1-2.313 2.313-2.313 1.25 0 2.313 1.063 2.313 2.313zM27.688 8.688c2.375 0 4.313 1.938 4.313 4.313s-1.938 4.375-4.313 4.375l-4.188 3c-0.125 1.625-1.5 2.938-3.188 2.938-1.563 0-2.875-1.125-3.188-2.563l-12.25-4.875c-0.5 0.313-1 0.438-1.625 0.438-1.75 0-3.25-1.5-3.25-3.25s1.5-3.25 3.25-3.25c1.563 0 2.813 1.125 3.125 2.563l12.25 4.938c0.5-0.313 1.063-0.5 1.688-0.5 0.125 0 0.188 0.063 0.313 0.063l2.688-3.875c0-2.375 2-4.313 4.375-4.313zM27.688 10.125c-1.625 0-2.938 1.25-2.938 2.875s1.313 2.938 2.938 2.938 2.875-1.313 2.875-2.938-1.25-2.875-2.875-2.875zM3.25 10.688c-1.313 0-2.375 1.063-2.375 2.375s1.063 2.375 2.375 2.375c0.188 0 0.313 0 0.5-0.063l-1-0.375c-0.938-0.438-1.375-1.5-1-2.438s1.5-1.438 2.438-1.063v0l1.188 0.438c-0.375-0.75-1.188-1.25-2.125-1.25zM20.313 17.688c-0.188 0-0.375 0.063-0.563 0.063l1 0.375c1 0.375 1.438 1.5 1.063 2.5s-1.438 1.438-2.438 1.063c-0.375-0.188-0.813-0.375-1.188-0.5 0.375 0.75 1.188 1.25 2.125 1.25 1.313 0 2.375-1.063 2.375-2.375s-1.063-2.375-2.375-2.375z"></path>
</svg>
