<!-- Generated by IcoMoon.io -->
<svg version="1.1" xmlns="http://www.w3.org/2000/svg" width="24" height="32" viewBox="0 0 24 32">
<title>ion-ios-keypad</title>
<path d="M20.688 21.313c1.875 0 3.313 1.5 3.313 3.375s-1.438 3.313-3.313 3.313-3.375-1.438-3.375-3.313 1.5-3.375 3.375-3.375zM12 21.313c1.875 0 3.313 1.5 3.313 3.375s-1.438 3.313-3.313 3.313-3.313-1.438-3.313-3.313 1.438-3.375 3.313-3.375zM3.313 21.313c1.875 0 3.375 1.5 3.375 3.375s-1.5 3.313-3.375 3.313-3.313-1.438-3.313-3.313 1.438-3.375 3.313-3.375zM20.688 12.688c1.875 0 3.313 1.438 3.313 3.313s-1.438 3.313-3.313 3.313-3.375-1.438-3.375-3.313 1.5-3.313 3.375-3.313zM12 12.688c1.875 0 3.313 1.438 3.313 3.313s-1.438 3.313-3.313 3.313-3.313-1.438-3.313-3.313 1.438-3.313 3.313-3.313zM3.313 12.688c1.875 0 3.375 1.438 3.375 3.313s-1.5 3.313-3.375 3.313-3.313-1.438-3.313-3.313 1.438-3.313 3.313-3.313zM20.688 10.688c-1.875 0-3.375-1.5-3.375-3.375s1.5-3.313 3.375-3.313 3.313 1.438 3.313 3.313-1.438 3.375-3.313 3.375zM12 4c1.875 0 3.313 1.438 3.313 3.313s-1.438 3.375-3.313 3.375-3.313-1.5-3.313-3.375 1.438-3.313 3.313-3.313zM3.313 4c1.875 0 3.375 1.438 3.375 3.313s-1.5 3.375-3.375 3.375-3.313-1.5-3.313-3.375 1.438-3.313 3.313-3.313z"></path>
</svg>
