<!-- Generated by IcoMoon.io -->
<svg version="1.1" xmlns="http://www.w3.org/2000/svg" width="26" height="32" viewBox="0 0 26 32">
<title>ion-ios-timer-outline</title>
<path d="M11.813 17l-0.063-0.125s-5.563-7.375-5.375-7.5 7.563 5.313 7.563 5.313c0.063 0.063 0.063 0.125 0.125 0.188 0.313 0.313 0.5 0.688 0.5 1.125 0 0.875-0.688 1.563-1.563 1.563-0.5 0-0.875-0.188-1.188-0.563zM13 3c7.188 0 13 5.813 13 13s-5.813 13-13 13-13-5.813-13-13c0-3.563 1.438-6.813 3.813-9.188l0.75 0.75c-2.188 2.188-3.5 5.125-3.5 8.438 0 6.625 5.313 11.938 11.938 11.938s11.938-5.313 11.938-11.938c0-6.25-4.813-11.438-10.938-11.938v5.938h-1v-7z"></path>
</svg>
