<!-- Generated by IcoMoon.io -->
<svg version="1.1" xmlns="http://www.w3.org/2000/svg" width="16" height="32" viewBox="0 0 16 32">
<title>ion-ios-flame-outline</title>
<path d="M6 2c5.438 4 10.625 11.188 9.938 18-0.813 8.375-6.5 10-7.938 10s-7.938-2.5-8-10c-0.063-9.125 7.625-8.938 6-18zM8 29.5c0 0 2.5-2.25 2.5-5s-2.5-5-2.5-5-2.563 2.25-2.563 5 2.563 5 2.563 5zM14.938 19.875c0.313-2.938-0.625-6.188-2.563-9.438-1.375-2.25-3.125-4.375-5.188-6.188 0 3.563-1.5 5.688-3.063 7.688-1.625 2.125-3.125 4.063-3.125 8.063 0 1.563 0.313 3 0.938 4.25 0.5 1.063 1.25 2 2.188 2.813 0.5 0.438 1 0.75 1.438 1-0.563-1-1.125-2.188-1.125-3.563 0-3.188 2.75-5.625 2.875-5.75l0.688-0.563 0.688 0.563c0.125 0.125 2.813 2.563 2.813 5.75 0 1.438-0.563 2.75-1.188 3.75 0.438-0.25 0.813-0.5 1.25-0.875 0.875-0.75 1.563-1.688 2.125-2.75 0.688-1.313 1.063-2.938 1.25-4.75z"></path>
</svg>
