<!-- Generated by IcoMoon.io -->
<svg version="1.1" xmlns="http://www.w3.org/2000/svg" width="32" height="32" viewBox="0 0 32 32">
<title>ion-cube</title>
<path d="M27.188 10.5c0.438 0 0.813 0.375 0.813 0.75v11.438c0 0.563-0.375 1.063-0.875 1.375v0.063l-10.938 5.75v0.063c-0.125 0.063-0.25 0.063-0.375 0.063-0.438 0-0.813-0.375-0.813-0.75v-11.563c0-0.563 0.313-1.063 0.813-1.375v0l0.188-0.125 10.875-5.625c0.125-0.063 0.188-0.063 0.313-0.063zM26.375 7.438c0 0 0.5 0.188 0.5 0.563 0 0.438-0.5 0.688-0.5 0.688l-11.563 6.125c-0.25 0.125-0.5 0.188-0.813 0.188s-0.563-0.063-0.813-0.188l-0.125-0.063-11.438-6s-0.5-0.313-0.5-0.75c0-0.375 0.5-0.563 0.5-0.563l11.313-5.125s0.688-0.313 1.063-0.313 1.063 0.313 1.063 0.313zM12.188 16.313c0.5 0.313 0.813 0.813 0.813 1.375v11.563c0 0.375-0.375 0.75-0.813 0.75-0.125 0-0.25-0.063-0.375-0.125v0l-10.938-5.75v-0.063c-0.5-0.313-0.875-0.813-0.875-1.375v-11.438c0-0.375 0.375-0.75 0.813-0.75 0.125 0 0.25 0 0.313 0.063l0.125 0.063 10.688 5.563z"></path>
</svg>
