<!-- Generated by IcoMoon.io -->
<svg version="1.1" xmlns="http://www.w3.org/2000/svg" width="20" height="32" viewBox="0 0 20 32">
<title>ion-eject</title>
<path d="M18.938 20h-17.875c-0.625 0-1.063-0.438-1.063-1 0-0.188 0.063-0.313 0.188-0.5l8.625-11.938c0.313-0.313 0.688-0.563 1.188-0.563s0.875 0.25 1.188 0.563l8.625 11.875c0.125 0.188 0.188 0.375 0.188 0.563 0 0.563-0.438 1-1.063 1v0zM19.25 22c0.438 0 0.75 0.313 0.75 0.75v2.5c0 0.438-0.313 0.75-0.75 0.75h-18.5c-0.438 0-0.75-0.313-0.75-0.75v-2.5c0-0.438 0.313-0.75 0.75-0.75h18.5z"></path>
</svg>
