<!-- Generated by IcoMoon.io -->
<svg version="1.1" xmlns="http://www.w3.org/2000/svg" width="32" height="32" viewBox="0 0 32 32">
<title>ion-eye</title>
<path d="M14 8c6.188 0 10.75 4.375 14 8.063-3.188 3.125-7.75 7.938-14 7.938s-9.813-3.75-14-8c4.875-4.938 8.875-8 14-8zM14 21.688c3.063 0 5.625-2.563 5.625-5.688s-2.563-5.688-5.625-5.688-5.625 2.563-5.625 5.688 2.563 5.688 5.625 5.688zM14 14c0 1.125 0.875 2 2 2 0.5 0 0.875-0.188 1.25-0.438v0.438c0 1.813-1.438 3.313-3.25 3.313s-3.25-1.5-3.25-3.313 1.438-3.313 3.25-3.313h0.5c-0.313 0.375-0.5 0.813-0.5 1.313z"></path>
</svg>
