<!-- Generated by IcoMoon.io -->
<svg version="1.1" xmlns="http://www.w3.org/2000/svg" width="26" height="32" viewBox="0 0 26 32">
<title>ion-ios-world</title>
<path d="M13 3c7.188 0 13 5.813 13 13s-5.813 13-13 13v0 0 0c-7.188 0-13-5.813-13-13s5.813-13 13-13v0 0 0zM13 27.938c6.625 0 11.938-5.313 11.938-11.938s-5.313-11.938-11.938-11.938v0 0 0c-6.625 0-11.938 5.313-11.938 11.938s5.375 11.938 11.938 11.938v0 0 0zM17.125 10.75c0.375 1.375 0.563 3 0.625 4.75h-4.25v-4.25c1.25-0.063 2.438-0.25 3.625-0.5zM13.5 5.125c1.25 0.375 2.563 2.125 3.375 4.688-1.063 0.25-2.25 0.375-3.375 0.438v-5.125zM9.063 9.813c0.813-2.625 2.188-4.313 3.438-4.688v5.125c-1.188-0.063-2.313-0.188-3.438-0.438zM20.813 8.313c-0.938 0.5-1.938 0.938-3 1.25-0.563-1.813-1.313-3.25-2.25-4.188 2 0.5 3.813 1.5 5.25 2.938zM18.688 15.5c-0.063-1.813-0.25-3.5-0.625-5 1.188-0.375 2.313-0.875 3.375-1.438 1.438 1.75 2.375 4 2.5 6.438h-5.25zM8.25 15.5c0.063-1.75 0.188-3.375 0.563-4.75 1.188 0.313 2.438 0.438 3.688 0.5v4.25h-4.25zM17.75 16.5c-0.063 1.75-0.25 3.375-0.625 4.75-1.188-0.313-2.375-0.438-3.625-0.5v-4.25h4.25zM8.813 21.25c-0.375-1.375-0.5-3-0.563-4.75h4.25v4.25c-1.25 0.063-2.5 0.188-3.688 0.5zM12.5 26.875c-1.25-0.375-2.625-2.063-3.438-4.688 1.125-0.25 2.25-0.375 3.438-0.438v5.125zM15.563 26.625c0.938-0.938 1.688-2.375 2.25-4.188 1.063 0.313 2.063 0.688 3 1.188-1.438 1.438-3.25 2.5-5.25 3zM10.438 5.375c-0.938 0.938-1.688 2.438-2.25 4.188-1-0.313-2.063-0.688-3-1.188 1.375-1.438 3.25-2.5 5.25-3zM18.063 21.5c0.375-1.5 0.563-3.188 0.625-5h5.25c-0.125 2.438-1.063 4.688-2.5 6.438-1.063-0.563-2.188-1.063-3.375-1.438zM13.5 21.75c1.125 0.063 2.313 0.188 3.375 0.438-0.813 2.625-2.125 4.313-3.375 4.688v-5.125zM7.938 10.5c-0.375 1.5-0.688 3.188-0.688 5h-5.188c0.125-2.438 1.063-4.688 2.5-6.438 1.063 0.563 2.188 1.063 3.375 1.438zM7.25 16.5c0.063 1.813 0.25 3.5 0.625 5-1.188 0.375-2.25 0.875-3.313 1.438-1.438-1.75-2.375-4-2.5-6.438h5.188zM5.188 23.625c0.938-0.5 2-0.875 3-1.188 0.563 1.75 1.313 3.25 2.25 4.188-2-0.5-3.875-1.563-5.25-3z"></path>
</svg>
