<!-- Generated by IcoMoon.io -->
<svg version="1.1" xmlns="http://www.w3.org/2000/svg" width="24" height="32" viewBox="0 0 24 32">
<title>ion-merge</title>
<path d="M20 14c2.188 0 4 1.813 4 4s-1.813 4-4 4c-1.5 0-2.75-0.813-3.438-2h-0.625c-3.813 0-7.188-1.563-9.938-4.625v7.188c1.188 0.688 2 1.938 2 3.438 0 2.188-1.813 4-4 4s-4-1.813-4-4c0-1.5 0.813-2.75 2-3.438v-13.125c-1.188-0.688-2-1.938-2-3.438 0-2.188 1.813-4 4-4s4 1.813 4 4c0 1.188-0.5 2.313-1.375 3.063 0.25 0.563 1.063 2.188 2.313 3.625 2 2.188 4.375 3.313 7 3.313h0.625c0.688-1.188 1.938-2 3.438-2zM4 4c-1.125 0-2 0.875-2 2s0.875 2 2 2 2-0.875 2-2-0.875-2-2-2zM4 28c1.125 0 2-0.875 2-2s-0.875-2-2-2-2 0.875-2 2 0.875 2 2 2zM20 20c1.125 0 2-0.875 2-2s-0.875-2-2-2-2 0.875-2 2 0.875 2 2 2z"></path>
</svg>
