<!-- Generated by IcoMoon.io -->
<svg version="1.1" xmlns="http://www.w3.org/2000/svg" width="32" height="32" viewBox="0 0 32 32">
<title>ion-code-download</title>
<path d="M18.688 17.75l-4 4-0.125 0.063-0.063 0.063-0.125 0.063h-0.125c-0.063 0-0.188 0.063-0.25 0.063s-0.188-0.063-0.25-0.063h-0.125l-0.125-0.063-0.063-0.063c-0.063-0.063-0.125-0.063-0.188-0.125v0l-3.938-3.938c-0.375-0.375-0.375-1.063 0-1.438s1.125-0.375 1.5 0l2.188 2.125v-7.375c0-0.563 0.438-1.063 1-1.063s1 0.5 1 1.063v7.375l2.188-2.125c0.375-0.375 1.125-0.375 1.5 0s0.375 1.063 0 1.438zM8.5 24.5c-0.375 0-0.75-0.125-1.063-0.438l-7-7c-0.563-0.563-0.563-1.563 0-2.125l7-7c0.563-0.563 1.563-0.563 2.125 0s0.563 1.563 0 2.125l-5.938 5.938 5.938 5.938c0.563 0.563 0.563 1.563 0 2.125-0.313 0.313-0.688 0.438-1.063 0.438zM19.5 24.5c-0.375 0-0.75-0.125-1.063-0.438-0.563-0.563-0.563-1.563 0-2.125l5.938-5.938-5.938-5.938c-0.563-0.563-0.563-1.563 0-2.125s1.563-0.563 2.125 0l7 7c0.563 0.563 0.563 1.563 0 2.125l-7 7c-0.313 0.313-0.688 0.438-1.063 0.438z"></path>
</svg>
