<!-- Generated by IcoMoon.io -->
<svg version="1.1" xmlns="http://www.w3.org/2000/svg" width="24" height="32" viewBox="0 0 24 32">
<title>ion-ios-paw</title>
<path d="M23.75 12.25c0.375 1.063 0.313 2.375-0.188 3.563-0.625 1.563-1.938 2.688-3.188 2.688-0.313 0-0.625-0.063-0.938-0.188-1.375-0.625-1.875-2.813-1.063-4.938 0.625-1.75 1.938-2.875 3.188-2.875 0.313 0 0.625 0.063 0.875 0.188 0.625 0.25 1.063 0.813 1.313 1.563zM5.625 13.375c0.813 2.125 0.313 4.313-1.063 4.938-0.313 0.125-0.625 0.188-0.938 0.188-1.25 0-2.563-1.125-3.188-2.688-0.5-1.188-0.563-2.5-0.188-3.563 0.25-0.75 0.688-1.313 1.313-1.563 0.25-0.125 0.563-0.188 0.875-0.188 1.25 0 2.563 1.125 3.188 2.875zM8.375 13.188c-1.75-0.063-3.25-2-3.5-4.313-0.125-1.438 0.25-2.813 1-3.75 0.5-0.625 1.188-1.063 1.938-1.125h0.375c1.688 0.063 2.875 1.813 3.125 4.188 0.188 1.5-0.063 3-0.813 3.938-0.5 0.563-1.063 0.938-1.75 1-0.125 0-0.25 0.063-0.375 0.063zM12 15c4 0 8 4.75 8 9.313 0 1.375-0.688 2.5-1.375 2.938-0.813 0.563-1.438 0.75-2.625 0.75-1.438 0-1.813-0.5-2.5-0.938-0.5-0.313-0.875-0.625-1.5-0.625s-1 0.313-1.5 0.625c-0.688 0.438-1.063 0.938-2.5 0.938-1.188 0-1.813-0.188-2.625-0.75-0.688-0.438-1.375-1.563-1.375-2.938 0-4.563 4-9.313 8-9.313zM15.25 13.125c-0.688-0.063-1.25-0.438-1.75-1-0.75-0.938-1-2.438-0.813-3.938 0.25-2.375 1.438-4.125 3.125-4.188h0.438c0.75 0.063 1.375 0.5 1.875 1.125 0.75 0.938 1.125 2.313 1 3.75-0.25 2.313-1.75 4.188-3.5 4.25h-0.375z"></path>
</svg>
