<!-- Generated by IcoMoon.io -->
<svg version="1.1" xmlns="http://www.w3.org/2000/svg" width="32" height="32" viewBox="0 0 32 32">
<title>ion-ios-speedometer-outline</title>
<path d="M14 4c7.75 0 14 6.25 14 14 0 3.563-1.313 6.75-3.5 9.25-0.25 0.25-0.438 0.5-0.688 0.75l-0.625-0.625-0.063-0.125c-1.188-1.125-2.563-2.063-4.063-2.688-1.625-0.688-3.313-1-5.063-1s-3.438 0.313-5.063 1c-1.5 0.625-2.875 1.563-4.063 2.688l-0.063 0.125-0.625 0.625c-0.25-0.25-0.438-0.5-0.688-0.75-2.188-2.5-3.5-5.688-3.5-9.25 0-7.75 6.25-14 14-14zM26 23.063c0.625-1.438 0.938-3 1-4.563h-2v-1h2c-0.063-1.563-0.375-3.125-1-4.563-0.563-1.375-1.438-2.625-2.438-3.75l-1.688 1.688-0.688-0.688h-0.063l1.688-1.688c-1.125-1.063-2.375-1.938-3.75-2.5-1.438-0.625-3-0.938-4.625-1v2.375h-1v-2.375c-1.563 0.063-3.063 0.375-4.5 1-1.375 0.625-2.688 1.438-3.813 2.5l1.688 1.688-0.688 0.688-1.688-1.688c-1 1.125-1.875 2.375-2.438 3.75-0.625 1.438-0.938 3.063-1 4.625h2v1h-2c0.063 1.563 0.375 3.063 1 4.5 0.563 1.25 1.25 2.438 2.188 3.5 2.5-2.5 6-4 9.813-4s7.313 1.5 9.813 4c0.938-1.063 1.625-2.25 2.188-3.5zM21 10.938l0.125 0.063-4.688 5.25c0.375 0.5 0.563 1.125 0.563 1.75 0 1.625-1.375 3-3 3-0.625 0-1.188-0.25-1.688-0.563l-0.813 0.75-0.688-0.688 0.75-0.75c-0.375-0.5-0.563-1.125-0.563-1.75 0-1.625 1.375-3 3-3 0.625 0 1.188 0.188 1.688 0.5zM14 20c1.125 0 2-0.875 2-2s-0.875-2-2-2-2 0.875-2 2 0.875 2 2 2z"></path>
</svg>
