<!-- Generated by IcoMoon.io -->
<svg version="1.1" xmlns="http://www.w3.org/2000/svg" width="12" height="32" viewBox="0 0 12 32">
<title>ion-social-facebook-outline</title>
<path d="M8 12h4l-0.5 4h-3.5v12h-5.188v-12h-2.813v-4h2.813v-2.688c0-3.375 1.438-5.313 5.688-5.313h3.5v4h-2.125c-1.688 0-1.875 0.563-1.875 1.625v2.375zM10.625 15l0.25-2h-3.875v-3.375c0-0.625 0.063-1.313 0.563-1.875 0.625-0.688 1.563-0.75 2.313-0.75h1.125v-2h-2.5c-1.75 0-3.063 0.375-3.75 1.125-0.625 0.688-0.938 1.688-0.938 3.188v3.688h-2.813v2h2.813v12h3.188v-12h3.625z"></path>
</svg>
