<!-- Generated by IcoMoon.io -->
<svg version="1.1" xmlns="http://www.w3.org/2000/svg" width="32" height="32" viewBox="0 0 32 32">
<title>ion-ios-toggle</title>
<path d="M6 20c1.625 0 3 1.375 3 3s-1.375 3-3 3-3-1.375-3-3 1.375-3 3-3zM22 17c3.313 0 6 2.688 6 6s-2.688 6-6 6h-16c-3.313 0-6-2.688-6-6s2.688-6 6-6h16zM6 27c2.188 0 4-1.813 4-4s-1.813-4-4-4-4 1.813-4 4 1.813 4 4 4zM22 12c-1.625 0-3-1.375-3-3s1.375-3 3-3 3 1.375 3 3-1.375 3-3 3zM6 15c-3.313 0-6-2.688-6-6s2.688-6 6-6h16c3.313 0 6 2.688 6 6s-2.688 6-6 6h-16zM22 5c-2.188 0-4 1.813-4 4s1.813 4 4 4 4-1.813 4-4-1.813-4-4-4z"></path>
</svg>
