<!-- Generated by IcoMoon.io -->
<svg version="1.1" xmlns="http://www.w3.org/2000/svg" width="32" height="32" viewBox="0 0 32 32">
<title>ion-plane</title>
<path d="M15.625 19.5c0 0.438 0.063 4.313-0.375 6.375-0.063 0.25 0.188 0.25 0.313 0.438l3.188 2.063c0.125 0.125 0.188 0.5 0.188 0.5l0.063 1.125-4.25-1-0.75 2-0.75-2-4.25 1 0.063-1.125s0-0.375 0.125-0.5l3.25-2.063c0.125-0.188 0.375-0.188 0.313-0.438-0.438-2.063-0.375-5.938-0.375-6.375s-0.5-0.313-0.5-0.313l-3.875 0.813-8 3.063c0-1.438 0.125-1.625 0.563-1.938l11.438-8.188s0.313-3.938 0.313-7.063c0-1.5 0.75-4.875 1.688-4.875s1.688 3.375 1.688 4.875c0 3.313 0.313 7.063 0.313 7.063l11.438 8.188c0.375 0.25 0.563 0.438 0.563 1.938l-8-3.063-3.875-0.813s-0.5-0.125-0.5 0.313z"></path>
</svg>
