<!-- Generated by IcoMoon.io -->
<svg version="1.1" xmlns="http://www.w3.org/2000/svg" width="20" height="32" viewBox="0 0 20 32">
<title>ion-ios-arrow-thin-right</title>
<path d="M14.125 21.875c-0.188-0.188-0.188-0.563 0-0.75l4.188-4.625h-17.813c-0.25 0-0.5-0.25-0.5-0.5s0.25-0.5 0.5-0.5h17.813l-4.188-4.625c-0.188-0.188-0.188-0.563 0-0.75s0.563-0.188 0.75 0c0 0 4.938 5.438 5 5.5s0.125 0.188 0.125 0.375-0.063 0.313-0.125 0.375-5 5.5-5 5.5c-0.125 0.125-0.25 0.125-0.375 0.125s-0.25 0-0.375-0.125z"></path>
</svg>
