<!-- Generated by IcoMoon.io -->
<svg version="1.1" xmlns="http://www.w3.org/2000/svg" width="32" height="32" viewBox="0 0 32 32">
<title>ion-ios-heart-outline</title>
<path d="M20.438 5c4.313 0 7.563 2.688 7.563 7.25 0 1.938-0.813 4.438-2.563 6.563s-2.813 3.25-6.25 5.5-5.188 2.688-5.188 2.688-1.75-0.438-5.188-2.688-4.5-3.375-6.25-5.5-2.563-4.625-2.563-6.563c0-4.563 3.25-7.25 7.563-7.25 2.438 0 5.125 1.125 6.438 3.313 1.313-2.188 4-3.313 6.438-3.313zM24.688 18.188c0.75-0.875 1.375-1.938 1.75-3.063 0.375-1 0.563-1.938 0.563-2.875 0-1.875-0.625-3.5-1.813-4.625-0.563-0.5-1.25-0.938-2.063-1.188-0.813-0.313-1.75-0.438-2.688-0.438-2.375 0-4.563 1.125-5.563 2.813l-0.875 1.438-0.875-1.438c-1-1.688-3.188-2.813-5.563-2.813-0.938 0-1.875 0.125-2.688 0.438-0.813 0.25-1.5 0.688-2.063 1.188-1.188 1.125-1.813 2.75-1.813 4.625 0 0.938 0.188 1.875 0.563 2.875 0.375 1.125 1 2.188 1.75 3.063 1.688 2 2.625 3.063 6.063 5.313 2.5 1.688 4.063 2.25 4.625 2.438 0.563-0.188 2.125-0.75 4.625-2.438 3.438-2.25 4.375-3.313 6.063-5.313z"></path>
</svg>
