<!-- Generated by IcoMoon.io -->
<svg version="1.1" xmlns="http://www.w3.org/2000/svg" width="32" height="32" viewBox="0 0 32 32">
<title>ion-cash</title>
<path d="M0 6h32v16h-32v-16zM12.063 20c-1.25-1.438-2.063-3.625-2.063-6s0.813-4.563 2.063-6h-6.063c0 2.188-1.813 4-4 4v5c1.688 0 3 1.313 3 3h7.063zM18.625 16.313c0.188-0.25 0.25-0.563 0.25-0.938 0-0.188 0-0.313-0.063-0.5s-0.125-0.375-0.25-0.5-0.25-0.25-0.438-0.375-0.375-0.25-0.625-0.313c-0.063 0-0.25-0.063-0.438-0.125s-0.313 0-0.5-0.063v-1.938c0.125 0.063 0.313 0.125 0.438 0.188 0.25 0.188 0.375 0.438 0.438 0.813h1.25c0-0.313-0.125-0.563-0.25-0.813s-0.313-0.5-0.563-0.688-0.563-0.313-0.875-0.375c-0.125-0.063-0.313-0.125-0.438-0.125v-0.563h-1.125v0.563c-0.125 0-0.25 0.063-0.375 0.125-0.313 0.063-0.625 0.125-0.875 0.313s-0.438 0.375-0.563 0.625-0.25 0.563-0.25 0.875c0 0.188 0 0.313 0.063 0.5s0.125 0.313 0.25 0.438 0.313 0.313 0.5 0.438 0.438 0.25 0.75 0.313c0.188 0.063 0.375 0 0.5 0.063v2.188c-0.188-0.063-0.375-0.125-0.563-0.25s-0.313-0.25-0.375-0.438-0.125-0.375-0.125-0.563h-1.25c0 0.313 0.125 0.688 0.25 1 0.188 0.313 0.375 0.5 0.625 0.688s0.563 0.375 0.938 0.438c0.188 0.063 0.313 0.125 0.5 0.125v0.563h1.125v-0.563c0.188 0 0.375-0.063 0.563-0.125 0.313-0.063 0.625-0.125 0.875-0.313s0.438-0.438 0.625-0.688zM30 17v-5c-2.188 0-4-1.813-4-4h-6.063c1.25 1.438 2.063 3.625 2.063 6s-0.813 4.563-2.063 6h7.063c0-1.688 1.375-3 3-3zM4 14c0-1.313 0.688-2 2-2s2 0.688 2 2-0.688 2-2 2-2-0.688-2-2zM24 14c0-1.313 0.688-2 2-2s2 0.688 2 2-0.688 2-2 2-2-0.688-2-2zM17.063 14.688c0.125 0.063 0.25 0.125 0.375 0.25s0.188 0.313 0.188 0.563c0 0.125 0 0.25-0.063 0.375s-0.125 0.25-0.25 0.313-0.313 0.188-0.5 0.25c-0.063 0-0.125 0.063-0.25 0.063v-1.938c0.188 0.063 0.375 0.063 0.5 0.125zM14.75 11.938c0.063-0.125 0.188-0.188 0.313-0.25s0.25-0.125 0.375-0.125v1.625c-0.25-0.063-0.438-0.188-0.563-0.313s-0.25-0.25-0.25-0.5c0-0.188 0.063-0.313 0.125-0.438zM0 26v-2h32v2h-32z"></path>
</svg>
