<!-- Generated by IcoMoon.io -->
<svg version="1.1" xmlns="http://www.w3.org/2000/svg" width="27" height="32" viewBox="0 0 27 32">
<title>ion-android-alarm-clock</title>
<path d="M26.75 7.813l-1.75 2.063-6.125-5.125 1.75-2.063zM7.813 4.688l-6.063 5.188-1.75-2.063 6.063-5.188zM14.063 10.813v0 6.938l5.313 3.125-1 1.688-6.313-3.813v-7.938h2zM13.375 5.5c6.625 0 12.063 5.375 12.063 11.938s-5.438 11.938-12.063 11.938c-6.688 0-12.063-5.375-12.063-11.938s5.375-11.938 12.063-11.938zM13.375 26.75c5.125 0 9.375-4.125 9.375-9.313 0-5.125-4.25-9.313-9.375-9.313s-9.375 4.188-9.375 9.313 4.25 9.313 9.375 9.313z"></path>
</svg>
