<!-- Generated by IcoMoon.io -->
<svg version="1.1" xmlns="http://www.w3.org/2000/svg" width="32" height="32" viewBox="0 0 32 32">
<title>ion-beer</title>
<path d="M24 10c2.188 0 4 1.813 4 4v6c0 2.188-1.813 4-4 4h-2v5c0 0.563-0.438 1-1 1h-16c-0.563 0-1-0.438-1-1v-13.938c-1.625 0-3-1.375-3-3v-3.438c-0.625-0.688-1-1.625-1-2.625 0-2.188 1.813-4 4-4 1.125 0 2.125 0.5 2.875 1.25 0.625-0.75 1.625-1.25 2.688-1.25 0.875 0 1.688 0.375 2.313 0.875 0.75-0.563 1.625-0.875 2.625-0.875 1.063 0 2.125 0.375 2.875 1 0.688-0.625 1.625-1 2.625-1 2.188 0 4 1.813 4 4 0 1.5-1.125 2.75-2 3v1h2zM18.5 19c0.25 0 0.5-0.188 0.5-0.5v0-3c0-0.25-0.25-0.5-0.5-0.5s-0.5 0.25-0.5 0.5v3c0 0.188 0.125 0.375 0.25 0.438 0.063 0.063 0.125 0.063 0.25 0.063zM18.938 14.25c0.063-0.125 0.063-0.25 0.063-0.375s-0.063-0.25-0.188-0.313-0.25-0.063-0.375-0.063-0.25 0.125-0.313 0.25-0.125 0.25-0.125 0.375 0.125 0.25 0.25 0.313 0.25 0.063 0.375 0.063 0.25-0.125 0.313-0.25zM20 10v-2h-1.25c-0.188 0.5-0.438 1-0.813 1.438-0.813 1-2.063 1.563-3.438 1.563-1.625 0-3-0.813-3.813-2.063-0.375 0.125-0.75 0.188-1.125 0.188-0.75 0-1.438-0.25-2-0.625-0.125-0.063-0.188-0.188-0.313-0.25-0.063 0.125-0.125 0.188-0.188 0.313-0.313 0.375-0.688 0.625-1.063 0.875v2.563h5c0-0.25 0.25-0.5 0.5-0.5s0.5 0.25 0.5 0.5h8v-2zM21.938 6.563c0.063-0.188 0.063-0.375 0.063-0.563 0-1.125-0.875-2-2-2-0.563 0-1.063 0.25-1.438 0.625-0.125 0.125-0.375 0.313-1 0.375h-0.5c-0.375-0.063-0.75-0.188-0.875-0.313-0.438-0.438-1-0.688-1.688-0.688-0.563 0-1.125 0.25-1.563 0.563l-0.438 0.438c0 0.063 0 0.063-0.063 0.125-0.188 0.188-0.438 0.313-0.688 0.313-0.313 0-0.5-0.188-0.688-0.375-0.063-0.125-0.125-0.188-0.188-0.313s-0.188-0.25-0.313-0.375-0.625-0.375-1-0.375c-0.625 0-1.125 0.563-1.563 1-0.438 0.5-1.688 0.5-2.125 0s-1.125-1-1.875-1c-1.125 0-2 0.875-2 2 0 0.125 0.063 0.313 0.063 0.438 0.125 0.563 0.438 1.063 0.938 1.313v4.313c0 0.563 0.438 1 1 1v-5.063c0.625 0 1.125-0.25 1.5-0.688 0.125-0.125 0.188-0.25 0.25-0.375 0 0 0.375-0.625 0.75-0.688s1.25-0.375 1.875 0.313c0.25 0.313 0.688 0.563 1.188 0.563 0.188 0 0.313-0.063 0.438-0.125 0.188-0.063 0.438-0.125 0.563-0.25v0c0.188-0.125 0.375-0.25 0.625-0.25 0.438 0 0.75 0.25 0.875 0.625 0 0 0.063 0.063 0.063 0.125 0.063 0.188 0.063 0.313 0.188 0.5 0.438 0.75 1.25 1.25 2.188 1.25 0.813 0 1.563-0.375 2-1 0.313-0.438 0.5-0.938 0.5-1.5s0.563-0.5 0.563-0.5h3.438c0.375 0 0.813 0.188 0.938 0.563zM26 20v-6c0-1.125-0.875-2-2-2h-2v10h2c1.125 0 2-0.875 2-2zM8 10.5c0-0.313 0.188-0.5 0.5-0.5s0.5 0.188 0.5 0.5-0.188 0.5-0.5 0.5-0.5-0.188-0.5-0.5zM18 10.5c0-0.313 0.188-0.5 0.5-0.5s0.5 0.188 0.5 0.5-0.188 0.5-0.5 0.5-0.5-0.188-0.5-0.5z"></path>
</svg>
