<!-- Generated by IcoMoon.io -->
<svg version="1.1" xmlns="http://www.w3.org/2000/svg" width="20" height="32" viewBox="0 0 20 32">
<title>ion-social-bitcoin-outline</title>
<path d="M11.5 3h-0.5v4h-4v-4h-0.563v4h-5.5v1h0.813c0.688 0 1.188 0 1.563 0.188s0.625 0.438 0.813 0.813 0.188 0.5 0.188 1.25v11.125c0 0.688 0 1.125-0.188 1.5v0.063c-0.063 0.188-0.25 0.625-0.75 0.875h-0.063c-0.313 0.188-0.5 0.188-1.063 0.188h-0.813l-0.188 1h5.188v4h0.563v-4h4v4h0.5v-4.063h0.938c1.438-0.063 2.563-0.313 3.438-0.625 1-0.375 1.75-0.938 2.313-1.625 0.5-0.688 0.75-1.813 0.813-2.625 0.063-0.875-0.063-1.813-0.25-2.25s-0.5-1-1.313-1.438c-0.438-0.25-0.875-0.375-1.313-0.5l-2.875-0.688 2.688-1.188c0.25-0.125 0.438-0.25 0.75-0.563 0.375-0.313 0.563-0.75 0.688-1 0.125-0.313 0.25-0.813 0.188-1.375-0.063-1.063-0.25-1.813-0.625-2.313-0.438-0.563-1.063-1-1.938-1.313-0.75-0.313-1.5-0.438-2.563-0.5l-0.938-0.063v-3.875zM12.5 2v0 3.938c1.25 0.063 2 0.25 2.813 0.563 1 0.375 1.813 0.938 2.375 1.688s0.75 1.75 0.813 2.813c0.063 0.625 0 1.25-0.188 1.75s-0.5 1-1 1.438c-0.375 0.375-0.688 0.563-1 0.688 0.563 0.125 1.063 0.375 1.563 0.625 0.938 0.5 1.5 1.125 1.813 1.875 0.25 0.625 0.375 1.875 0.313 2.75-0.063 1-0.375 2.313-1 3.188-0.688 0.875-1.625 1.5-2.813 1.938-0.938 0.375-2.063 0.625-3.688 0.688v4.063h-2.5v-4h-2v4h-2.563v-4h-5.438l0.5-3h1.75c0.563 0 0.5-0.063 0.688-0.125s0.25-0.188 0.313-0.375 0.063-0.563 0.063-1.125v-11.125c0-0.563 0-0.625-0.063-0.75s-0.188-0.25-0.375-0.375-0.563-0.125-1.125-0.125h-1.75v-3h5.438v-4h2.563v4h2v-4h2.5zM10 9.375v4.625h-2v-4.625h2zM10 17v0 5.625h-2v-5.625h2zM12.5 9.625v0c0.375 0.125 0.625 0.438 0.875 0.75 0.25 0.375 0.375 0.813 0.375 1.313s-0.125 0.938-0.438 1.313c-0.25 0.313-0.438 0.563-0.813 0.75v-4.125zM12.5 17.125v0c0.313 0.063 0.5 0.063 0.75 0.188 0.5 0.188 0.875 0.438 1.188 0.813s0.5 0.938 0.5 1.5c0 0.688-0.125 1.188-0.625 1.625s-0.813 0.688-1.438 0.938c-0.125 0.063-0.25 0-0.375 0.063v-5.125z"></path>
</svg>
