<!-- Generated by IcoMoon.io -->
<svg version="1.1" xmlns="http://www.w3.org/2000/svg" width="12" height="32" viewBox="0 0 12 32">
<title>ion-iphone</title>
<path d="M10.5 4c0.813 0 1.5 0.688 1.5 1.5v21c0 0.813-0.688 1.5-1.5 1.5h-9c-0.813 0-1.5-0.688-1.5-1.5v-21c0-0.813 0.688-1.5 1.5-1.5h9zM5 6.25v0c0 0.125 0.125 0.25 0.25 0.25h1.5c0.125 0 0.25-0.125 0.25-0.25v0c0-0.125-0.125-0.25-0.25-0.25h-1.5c-0.125 0-0.25 0.125-0.25 0.25zM4.25 6c-0.125 0-0.25 0.125-0.25 0.25s0.125 0.25 0.25 0.25 0.25-0.125 0.25-0.25-0.125-0.25-0.25-0.25zM6 27c0.563 0 1-0.438 1-1s-0.438-1-1-1-1 0.438-1 1 0.438 1 1 1zM11 24v-16h-10v16h10z"></path>
</svg>
