<!-- Generated by IcoMoon.io -->
<svg version="1.1" xmlns="http://www.w3.org/2000/svg" width="24" height="32" viewBox="0 0 24 32">
<title>ion-ios-flask</title>
<path d="M20.438 23.938v0c0.313 0.5 0.5 1.125 0.5 1.5 0 0.5-0.188 0.875-0.438 1.125-0.313 0.25-0.813 0.438-1.438 0.438h-14.125c-0.688 0-1.25-0.125-1.5-0.375-0.063-0.063-0.375-0.313-0.375-1.125 0-0.375 0.25-1.063 0.563-1.563v0 0l4.188-6.938h8.438l4.188 6.938zM23.313 23.125c0.5 1 0.688 2 0.688 2.875-0.063 2.25-1.688 4-3.938 4h-16c-2.25 0-4-1.688-4.063-4 0-0.875 0.25-1.875 0.75-2.875l7.25-12.188v-7.938h-1v-1h10v1h-1v7.938zM9 4v1h3v-1h-3zM9 7v1h2v-1h-2zM9 10v1h3v-1h-3zM7.938 13l-0.563 1h3.625v-1h-3.063zM21.938 25.5c0-0.563-0.188-1.375-0.625-2.063l-4.5-7.438h-9.625l-4.438 7.438c-0.438 0.688-0.688 1.5-0.688 2.063 0 1.75 1 2.5 2.875 2.5h14.125c1.875 0 2.813-1 2.875-2.5z"></path>
</svg>
