<!-- Generated by IcoMoon.io -->
<svg version="1.1" xmlns="http://www.w3.org/2000/svg" width="24" height="32" viewBox="0 0 24 32">
<title>ion-ios-color-wand-outline</title>
<path d="M8 9.375l16 16-2.125 2.125-16-16zM9.313 13.5l12.563 12.563 0.688-0.688-12.563-12.625zM7.5 6.5v-2.5h1v2.5h-1zM7.5 19.25v-2.5h1v2.5h-1zM13.5 12v-1h2.5v1h-2.5zM0 12v-1h2.5v1h-2.5zM2.938 5.875l1.813 1.813-0.75 0.688-1.75-1.75zM4.75 15.625l-1.813 1.75-0.688-0.688 1.75-1.75zM13.75 6.625l-1.75 1.75-0.75-0.688 1.813-1.813z"></path>
</svg>
