<!-- Generated by IcoMoon.io -->
<svg version="1.1" xmlns="http://www.w3.org/2000/svg" width="32" height="32" viewBox="0 0 32 32">
<title>ion-ios-game-controller-b-outline</title>
<path d="M17.25 12.75c0.688 0 1.25 0.563 1.25 1.25s-0.563 1.25-1.25 1.25-1.25-0.563-1.25-1.25 0.563-1.25 1.25-1.25zM20 15.5c0.688 0 1.25 0.563 1.25 1.25s-0.563 1.25-1.25 1.25-1.25-0.563-1.25-1.25 0.563-1.25 1.25-1.25zM6.438 11.5c1.375 0 2.438 1.125 2.438 2.5s-1.063 2.5-2.438 2.5-2.438-1.125-2.438-2.5 1.063-2.5 2.438-2.5zM6.438 15.188c0.688 0 1.188-0.5 1.188-1.188s-0.5-1.188-1.188-1.188-1.188 0.5-1.188 1.188 0.5 1.188 1.188 1.188zM20 10c0.688 0 1.25 0.563 1.25 1.25s-0.563 1.25-1.25 1.25-1.25-0.563-1.25-1.25 0.563-1.25 1.25-1.25zM22.75 12.75c0.688 0 1.25 0.563 1.25 1.25s-0.563 1.25-1.25 1.25-1.25-0.563-1.25-1.25 0.563-1.25 1.25-1.25zM27.125 15.563c1.313 5.5 1.125 9.5-0.438 10.25-0.25 0.125-0.563 0.188-0.813 0.188-1.375 0-2.813-1.5-4.25-3.25-1.625-2-2-2.063-6.875-2.063h-1.5c-4.875 0-5.25 0.063-6.875 2.063-1.438 1.75-2.875 3.25-4.25 3.25-0.25 0-0.563-0.063-0.813-0.188-1.563-0.75-1.75-4.75-0.438-10.25s2.688-8.5 5.5-9.313c0.625-0.188 1.125-0.25 1.625-0.25 1.75 0 2.938 0.938 6 0.938s4.25-0.938 6-0.938c0.5 0 1 0.063 1.625 0.25 2.813 0.813 4.188 3.813 5.5 9.313zM26.25 24.938c0.625-0.313 1.438-3-0.063-9.125-1.313-5.625-2.688-8-4.875-8.625-0.5-0.125-0.875-0.188-1.313-0.188-0.625 0-1.188 0.125-1.875 0.313-1 0.25-2.25 0.625-4.125 0.625s-3.125-0.375-4.125-0.625c-0.688-0.188-1.25-0.313-1.875-0.313-0.438 0-0.813 0.063-1.313 0.188-2.188 0.625-3.563 3-4.875 8.625-1.5 6.125-0.688 8.813-0.063 9.125 0.125 0.063 0.25 0.063 0.375 0.063 0.375 0 0.875-0.25 1.438-0.75s1.188-1.125 2-2.125 1.5-1.75 2.75-2.125c1.063-0.313 2.375-0.313 4.938-0.313h1.5c2.563 0 3.875 0 4.938 0.313 1.25 0.375 1.938 1.125 2.75 2.125s1.438 1.625 2 2.125 1.063 0.75 1.438 0.75c0.125 0 0.25 0 0.375-0.063z"></path>
</svg>
