<!-- Generated by IcoMoon.io -->
<svg version="1.1" xmlns="http://www.w3.org/2000/svg" width="8" height="32" viewBox="0 0 8 32">
<title>ion-fork</title>
<path d="M4.875 9.313v0 0 0zM8 10.375c0 1.625-0.938 3-2.313 3.625-0.75 0.375-0.688 0.688-0.688 0.688s1 12.5 1 13.313-0.188 1.125-0.563 1.5-0.938 0.5-1.438 0.5v0 0c-0.5 0-1-0.125-1.375-0.5s-0.625-0.813-0.625-1.5 1-13.313 1-13.313 0-0.375-0.688-0.688c-1.375-0.625-2.313-2-2.313-3.625 0-2.688 0.938-5.813 1.5-8.375h0.5v7.313c0 0.375 0.188 0.688 0.563 0.688s0.563-0.25 0.625-0.625v-0.063l0.563-7.313h0.5l0.625 7.313v0.063c0.063 0.375 0.188 0.625 0.563 0.625s0.563-0.313 0.563-0.688v-7.313h0.5c0.563 2.5 1.5 5.688 1.5 8.375z"></path>
</svg>
