<!-- Generated by IcoMoon.io -->
<svg version="1.1" xmlns="http://www.w3.org/2000/svg" width="32" height="32" viewBox="0 0 32 32">
<title>ion-ios-time</title>
<path d="M14 2c7.75 0 14 6.25 14 14s-6.25 14-14 14-14-6.25-14-14 6.25-14 14-14zM14 4.5c-0.25 0-0.5 0.25-0.5 0.5s0.25 0.5 0.5 0.5 0.5-0.25 0.5-0.5-0.25-0.5-0.5-0.5zM3 16.5c0.25 0 0.5-0.25 0.5-0.5s-0.25-0.5-0.5-0.5-0.5 0.25-0.5 0.5 0.25 0.5 0.5 0.5zM4.75 21.938c0.25-0.125 0.25-0.438 0.125-0.688s-0.375-0.313-0.625-0.188-0.313 0.438-0.188 0.688 0.438 0.313 0.688 0.188zM4.875 10.75c0.125-0.25 0.125-0.563-0.125-0.688s-0.563-0.063-0.688 0.188-0.063 0.563 0.188 0.688 0.5 0.063 0.625-0.188zM8.25 6.063c-0.25 0.125-0.313 0.438-0.188 0.688s0.438 0.25 0.688 0.125 0.313-0.375 0.188-0.625-0.438-0.313-0.688-0.188zM8.938 25.75c0.125-0.25 0.063-0.5-0.188-0.625s-0.563-0.125-0.688 0.125-0.063 0.563 0.188 0.688 0.563 0.063 0.688-0.188zM14 27.5c0.25 0 0.5-0.25 0.5-0.5s-0.25-0.5-0.5-0.5-0.5 0.25-0.5 0.5 0.25 0.5 0.5 0.5zM14.5 16.875c0.5-0.25 0.625-0.875 0.375-1.375-0.188-0.313-0.563-0.5-0.875-0.5l-2.375-4c-0.125-0.25-0.438-0.25-0.688-0.125s-0.25 0.438-0.125 0.688l2.313 3.938c-0.188 0.313-0.188 0.688 0 1 0.125 0.125 0.25 0.313 0.375 0.375v7.625c0 0.25 0.25 0.5 0.5 0.5s0.5-0.25 0.5-0.5v-7.625zM19.75 25.938c0.25-0.125 0.313-0.438 0.188-0.688s-0.438-0.25-0.688-0.125-0.313 0.375-0.188 0.625 0.438 0.313 0.688 0.188zM19.938 6.75c0.125-0.25 0.063-0.563-0.188-0.688s-0.563-0.063-0.688 0.188-0.063 0.5 0.188 0.625 0.563 0.125 0.688-0.125zM23.938 21.75c0.125-0.25 0.063-0.563-0.188-0.688s-0.5-0.063-0.625 0.188-0.125 0.563 0.125 0.688 0.563 0.063 0.688-0.188zM23.75 10.938c0.25-0.125 0.313-0.438 0.188-0.688s-0.438-0.313-0.688-0.188-0.25 0.438-0.125 0.688 0.375 0.313 0.625 0.188zM25 16.5c0.25 0 0.5-0.25 0.5-0.5s-0.25-0.5-0.5-0.5-0.5 0.25-0.5 0.5 0.25 0.5 0.5 0.5z"></path>
</svg>
