<!-- Generated by IcoMoon.io -->
<svg version="1.1" xmlns="http://www.w3.org/2000/svg" width="16" height="32" viewBox="0 0 16 32">
<title>ion-mic-c</title>
<path d="M12.563 2c1.875 0 3.438 1.438 3.438 3.25v1.75h-3.688v2.313h3.688v2.688h-3.688v2.313h3.688v2.688h-3.688v2.313h3.688v2.625c0 1.813-1.563 3.25-3.438 3.25h-1.875v4.813h-5.375v-4.813h-1.875c-1.875 0-3.438-1.438-3.438-3.25v-2.625h9.5v-2.313h-9.5v-2.688h9.5v-2.313h-9.5v-2.688h9.5v-2.313h-9.5v-1.75c0-1.813 1.563-3.25 3.438-3.25h9.125z"></path>
</svg>
