<!-- Generated by IcoMoon.io -->
<svg version="1.1" xmlns="http://www.w3.org/2000/svg" width="26" height="32" viewBox="0 0 26 32">
<title>ion-android-chat</title>
<path d="M21.5 4c0.25 0 0.438 0.25 0.438 0.5v13.375c0 0.25-0.188 0.563-0.438 0.563h-11.688l-5.625 5.563v-5.563h-3.563c-0.25 0-0.625-0.313-0.625-0.563v-13.375c0-0.25 0.375-0.5 0.625-0.5h20.875zM25.5 7.938c0.25 0 0.5 0.313 0.5 0.563v13.375c0 0.25-0.25 0.563-0.5 0.563h-3.563v5.563l-5.625-5.563h-8.125l2.438-2.438h11.313c1.125 0 1.563-0.625 1.563-1.625v-10.438h2z"></path>
</svg>
