<!-- Generated by IcoMoon.io -->
<svg version="1.1" xmlns="http://www.w3.org/2000/svg" width="26" height="32" viewBox="0 0 26 32">
<title>ion-android-archive</title>
<path d="M25.375 6.25c0.438 0.438 0.625 1.063 0.625 1.813v18.063c0 1.563-1.313 2.875-2.875 2.875h-20.25c-1.563 0-2.875-1.313-2.875-2.875v-18.063c0-0.75 0.188-1.375 0.625-1.813l2.063-2.438c0.375-0.5 1-0.813 1.625-0.813h17.375c0.625 0 1.25 0.313 1.625 0.813zM13 23.938l7.938-7.938h-5.063v-2.875h-5.75v2.875h-5.063zM3.063 5.875h19.813l-1.375-1.438h-17.313z"></path>
</svg>
