<!-- Generated by IcoMoon.io -->
<svg version="1.1" xmlns="http://www.w3.org/2000/svg" width="26" height="32" viewBox="0 0 26 32">
<title>ion-ios-tennisball-outline</title>
<path d="M26 16v0.5c0 0.313 0 0.688-0.063 1v0c-0.688 6.063-5.625 10.875-11.688 11.438v0h-0.375s-0.063 0.063-0.125 0.063h-0.75c-7.188 0-13-5.813-13-13s5.813-13 13-13 13 5.813 13 13zM24.938 16c0-6.563-5.375-11.938-11.938-11.938-0.188 0-0.313 0.063-0.5 0.063 0.063 1.5 0.375 2.875 0.938 4.25 0.625 1.625 1.625 3.063 2.875 4.313s2.688 2.25 4.313 2.875c1.375 0.563 2.75 0.875 4.25 0.938 0-0.188 0.063-0.313 0.063-0.5zM1.063 16c0 6.563 5.375 11.938 11.938 11.938h0.25c-0.063-1.375-0.438-2.813-0.938-4.125-0.625-1.625-1.625-3-2.875-4.25s-2.625-2.25-4.25-2.875c-1.313-0.5-2.75-0.875-4.125-0.938v0.25zM14.25 27.875c5.5-0.563 9.875-4.875 10.563-10.375-3.375-0.188-6.625-1.563-9.188-4.125s-3.938-5.813-4.125-9.188c-5.5 0.688-9.813 5.063-10.375 10.563 3.313 0.188 6.563 1.563 9.063 4.063s3.875 5.75 4.063 9.063z"></path>
</svg>
