<!-- Generated by IcoMoon.io -->
<svg version="1.1" xmlns="http://www.w3.org/2000/svg" width="22" height="32" viewBox="0 0 22 32">
<title>ion-trash-a</title>
<path d="M16.313 8v0h5.688v2h-0.563s-0.313 0.063-0.5 0.25-0.25 0.563-0.25 0.563l-1.188 15.063c-0.125 1.813-0.125 2.125-2.25 2.125h-12.5c-2.125 0-2.125-0.313-2.25-2.125l-1.188-15.125s-0.063-0.375-0.25-0.563-0.5-0.188-0.5-0.188h-0.563v-2h5.688v-1.813c0-1.188 0.875-2.188 2.125-2.188h6.313c1.25 0 2.188 1 2.188 2.188v1.813zM7 6.188v1.813h8v-1.813c0-0.625-0.563-0.938-1.188-0.938h-5.688c-0.625 0-1.125 0.313-1.125 0.938zM6.5 24h1.25l-0.625-12h-1.313zM11.688 24v-12h-1.375v12h1.375zM15.563 24l0.625-12h-1.25l-0.688 12h1.313z"></path>
</svg>
