<!-- Generated by IcoMoon.io -->
<svg version="1.1" xmlns="http://www.w3.org/2000/svg" width="24" height="32" viewBox="0 0 24 32">
<title>ion-social-linkedin-outline</title>
<path d="M7.438 24v0h-3.438v-10.688h3.438v10.688zM5.813 11.688v0 0c-1.125 0-1.813-0.813-1.813-1.813 0-1.063 0.75-1.875 1.875-1.875s1.813 0.813 1.813 1.875c0 1-0.75 1.813-1.875 1.813zM16.063 13.063c2.25 0 3.938 1.5 3.938 4.688v6.25h-3.438v-5.875c0-1.375-0.5-2.313-1.75-2.313-0.938 0-1.5 0.625-1.75 1.25-0.125 0.25-0.125 0.563-0.125 0.875v6.063h-3.438v-10.688h3.438v1.5c0.5-0.688 1.313-1.75 3.125-1.75zM22.063 4c1.125 0 1.938 0.813 1.938 1.875v20.063c0 1.063-0.813 2.063-1.938 2.063h-20c-1.125 0-2.063-1-2.063-2.063v-20.063c0-1.063 0.938-1.875 2.063-1.875h20zM21.875 26c0.063 0 0.125-0.063 0.125-0.125v-19.75c0-0.063-0.063-0.125-0.125-0.125h-19.75s-0.125 0.063-0.125 0.125v19.688s0.063 0.188 0.188 0.188h19.688z"></path>
</svg>
