<!-- Generated by IcoMoon.io -->
<svg version="1.1" xmlns="http://www.w3.org/2000/svg" width="32" height="32" viewBox="0 0 32 32">
<title>ion-speakerphone</title>
<path d="M2.438 11.375c0 2.313 1.25 4.313 3.125 5.375-0.063 0-0.125-0.063-0.188-0.063s-0.25-0.063-0.313-0.063v0c-2.188-0.188-3.875-2.063-4.313-4.313-0.375 0-0.75-0.438-0.75-1 0-0.5 0.313-0.938 0.688-1 0.375-2.625 2.5-4.688 5.063-4.688h0.5c-2.25 0.938-3.813 3.188-3.813 5.75zM27.063 5.688c0.625 1.563 0.938 3.5 0.938 5.5s-0.313 3.938-0.938 5.5l-0.188 0.563c-0.375 0.875-0.938 1.625-1.5 2.125-0.625 0.625-1.375 1.188-2.125 1.25h-0.188c-0.438 0-0.938-0.125-1.375-0.313-0.188-0.125-0.625-0.313-0.625-0.313-1.375-0.625-5.25-1.75-7.188-1.813-0.25 0.5-0.625 1.25-0.75 1.875-0.125 0.563-0.375 1.688-0.438 3.813-0.063 2 0.063 3.688 0.188 5.125 0 0.125 0.063 0.313 0.063 0.438 0 0.375-0.125 0.563-0.563 0.563h-4.813c-0.375 0-0.563-0.188-0.563-0.375v-0.438c0.125-4.5 1.563-8.75 1.625-9.063 0.125-0.563 0.313-1.063 0.438-1.875 0.125-0.75-1.688-0.813-2.5-1.5-1.813-1.063-2.938-3.063-2.938-5.375 0-2.563 1.563-4.813 3.688-5.75h3.813c3.625-0.188 7.125-1.313 10.188-3.125 0.063-0.063 0.188-0.063 0.25-0.125v0c0.5-0.25 1-0.375 1.5-0.375 0.813 0 1.625 0.375 2.313 1 0.563 0.563 1.125 1.313 1.5 2.188 0.063 0.188 0.125 0.313 0.188 0.5zM25.625 16.75c0.563-1.375 0.938-3.375 0.938-5.563s-0.375-4.125-0.938-5.5c-0.5-1.125-1.188-1.813-1.875-1.813s-1.313 0.688-1.813 1.813c-0.563 1.375-0.938 3.313-0.938 5.5s0.375 4.188 0.938 5.563c0.5 1.188 1.125 2.063 1.813 2.063s1.375-0.938 1.875-2.063z"></path>
</svg>
