<!-- Generated by IcoMoon.io -->
<svg version="1.1" xmlns="http://www.w3.org/2000/svg" width="24" height="32" viewBox="0 0 24 32">
<title>ion-ios-nutrition</title>
<path d="M18.438 14.625v0c0.375 0.375 0.563 0.813 0.563 1.375 0 0.688-0.313 1.25-0.813 1.625v0s-3.188 2.375-6.625 4.875l-2.375-2c-0.25-0.188-0.5-0.188-0.625-0.063v0c-0.125 0.125-0.125 0.375 0.063 0.625l1.813 2.188-7.125 5.25c-0.375 0.25-0.813 0.5-1.313 0.5-1.125 0-2-0.875-2-2 0-0.438 0.125-0.813 0.313-1.125v0c0.063-0.125 1-1.563 2.25-3.563l1.25 1.063c0.25 0.188 0.5 0.188 0.625 0.063v0c0.125-0.125 0.125-0.375-0.063-0.625l-1.25-1.438c1.688-2.688 3.75-6 5.25-8.375l2.25 1.875c0.25 0.188 0.5 0.188 0.625 0.063v0c0.125-0.125 0.125-0.375-0.063-0.625l-2.063-2.5c0.688-1.125 1.125-1.813 1.125-1.813v0c0.375-0.625 1-1 1.75-1 0.563 0 1.125 0.25 1.5 0.625v0l4.938 5zM24 8.688l-6.438 3.688-1.75-1.813 4.375-7.563 1.75 1-3.125 5.313 4.188-2.375z"></path>
</svg>
