<!-- Generated by IcoMoon.io -->
<svg version="1.1" xmlns="http://www.w3.org/2000/svg" width="32" height="32" viewBox="0 0 32 32">
<title>ion-ios-glasses-outline</title>
<path d="M27.063 15.438v0h0.938v1.125h-0.938c-0.125 1.375-0.813 2.688-1.813 3.625-1.063 1-2.438 1.563-3.875 1.563-3.188 0-5.75-2.563-5.75-5.75v0 0c0-0.625-0.75-1.375-1.625-1.375s-1.625 0.75-1.625 1.375v0 0c0 3.188-2.563 5.75-5.75 5.75-1.438 0-2.813-0.563-3.875-1.563-1-0.938-1.688-2.25-1.813-3.625h-0.938v-1.125h0.938c0.125-1.375 0.813-2.688 1.813-3.688 1.063-1 2.438-1.5 3.875-1.5 2.625 0 4.875 1.688 5.563 4.188 0.438-0.438 1.125-0.75 1.813-0.75s1.375 0.313 1.813 0.75c0.688-2.5 2.938-4.188 5.563-4.188 1.438 0 2.813 0.563 3.875 1.563 1 0.938 1.688 2.25 1.813 3.625zM21.375 20.813c2.625 0 4.813-2.188 4.813-4.813s-2.188-4.813-4.813-4.813-4.813 2.188-4.813 4.813 2.188 4.813 4.813 4.813zM6.625 20.813c2.625 0 4.813-2.188 4.813-4.813s-2.188-4.813-4.813-4.813-4.813 2.188-4.813 4.813 2.188 4.813 4.813 4.813z"></path>
</svg>
