<!-- Generated by IcoMoon.io -->
<svg version="1.1" xmlns="http://www.w3.org/2000/svg" width="26" height="32" viewBox="0 0 26 32">
<title>ion-ios-baseball</title>
<path d="M13 3c7.188 0 13 5.813 13 13 0 0.5 0 1-0.063 1.5v0 0c-0.75 6.5-6.25 11.5-12.938 11.5-7.188 0-13-5.813-13-13 0-6.688 5-12.188 11.5-12.938v0 0c0.5-0.063 1-0.063 1.5-0.063zM13.25 27.938c0.313 0 0.688 0 1-0.063-0.063-0.625-0.125-1.25-0.25-1.875l1.5-0.5-0.313-0.938-1.438 0.438c-0.25-0.875-0.563-1.75-1-2.625l1.25-0.813-0.563-0.875-1.188 0.813c-0.5-0.813-1.063-1.563-1.75-2.313l1.063-1.063-0.688-0.688-1.063 1.063c-0.688-0.688-1.438-1.25-2.25-1.75l0.813-1.125-0.875-0.563-0.813 1.188c-0.875-0.438-1.75-0.75-2.625-1l0.438-1.375-0.938-0.313-0.5 1.438c-0.625-0.125-1.313-0.188-1.938-0.25-0.063 0.313-0.063 0.688-0.063 1 0.563 0.063 1.125 0.063 1.688 0.188l-0.438 1.438 0.938 0.313 0.5-1.5c0.5 0.125 1 0.313 1.438 0.5 0.313 0.125 0.625 0.313 0.938 0.438l-0.875 1.25 0.875 0.563 0.875-1.313c0.75 0.438 1.5 0.938 2.125 1.563l-1.063 1.063 0.688 0.688 1.063-1.063c0.625 0.688 1.188 1.438 1.625 2.188l-1.313 0.875 0.563 0.813 1.25-0.813c0.125 0.313 0.25 0.563 0.375 0.875 0.188 0.5 0.375 1 0.5 1.5l-1.438 0.438 0.313 1 1.375-0.438c0.125 0.5 0.125 1.063 0.188 1.625zM22.688 17.188c0.688 0.125 1.438 0.25 2.125 0.313 0.063-0.313 0.063-0.688 0.063-1-0.625-0.063-1.25-0.125-1.875-0.25l0.375-1.188-0.938-0.313-0.438 1.25c-0.5-0.125-0.938-0.25-1.375-0.438-0.313-0.125-0.625-0.313-0.938-0.438l0.75-1.063-0.875-0.563-0.75 1.125c-0.75-0.438-1.438-0.938-2.125-1.563l0.938-0.938-0.75-0.75-0.938 0.938c-0.625-0.625-1.125-1.313-1.563-2.063l1.188-0.813-0.563-0.813-1.063 0.75c-0.188-0.313-0.375-0.688-0.5-1-0.188-0.438-0.313-0.875-0.438-1.313l1.313-0.438-0.313-0.938-1.25 0.375c-0.125-0.625-0.188-1.25-0.25-1.938-0.313 0-0.688 0-1 0.063 0.063 0.75 0.188 1.438 0.313 2.188l-1.625 0.5 0.313 1 1.563-0.5c0.25 0.875 0.563 1.75 1 2.563l-1.375 0.938 0.563 0.813 1.313-0.875c0.5 0.813 1.063 1.563 1.688 2.25l-1.188 1.188 0.688 0.688 1.188-1.188c0.688 0.688 1.5 1.25 2.313 1.75l-0.875 1.313 0.813 0.563 0.938-1.438c0.813 0.438 1.688 0.813 2.563 1.063l-0.5 1.563 0.938 0.313z"></path>
</svg>
