<!-- Generated by IcoMoon.io -->
<svg version="1.1" xmlns="http://www.w3.org/2000/svg" width="26" height="32" viewBox="0 0 26 32">
<title>ion-ios-checkmark-outline</title>
<path d="M18.25 11.063l1.125 1.125-8.375 8.438c-0.125 0.125-0.375 0.25-0.563 0.25s-0.438-0.125-0.563-0.25l-3.5-3.5 1.125-1.125 2.938 2.938zM13 3c7.188 0 13 5.813 13 13s-5.813 13-13 13-13-5.813-13-13 5.813-13 13-13zM13 27.938c6.563 0 11.938-5.375 11.938-11.938s-5.375-11.938-11.938-11.938-11.938 5.375-11.938 11.938 5.375 11.938 11.938 11.938z"></path>
</svg>
