<!-- Generated by IcoMoon.io -->
<svg version="1.1" xmlns="http://www.w3.org/2000/svg" width="24" height="32" viewBox="0 0 24 32">
<title>ion-skip-backward</title>
<path d="M0.75 6h0.5c0.438 0 0.75 0.313 0.75 0.75v7.063l11.688-7.625c0.125-0.125 0.313-0.188 0.5-0.188 0.5 0 1 0.438 1 1.063v3.938l7.375-4.875c0.125-0.125 0.313-0.125 0.5-0.125 0.5 0 0.938 0.438 0.938 1.063v17.875c0 0.625-0.438 1.063-0.938 1.063-0.188 0-0.313-0.063-0.5-0.188l-7.375-4.875v4c0 0.625-0.5 1.063-1 1.063-0.188 0-0.313-0.063-0.5-0.188l-11.688-7.625v7.063c0 0.438-0.313 0.75-0.75 0.75h-0.5c-0.438 0-0.75-0.313-0.75-0.75v-18.5c0-0.438 0.313-0.75 0.75-0.75z"></path>
</svg>
