<!-- Generated by IcoMoon.io -->
<svg version="1.1" xmlns="http://www.w3.org/2000/svg" width="31" height="32" viewBox="0 0 31 32">
<title>ion-ios-loop</title>
<path d="M29.875 16l0.688 0.688-3.25 3.313-3.313-3.313 0.625-0.688 2.688 2.563zM28.063 16v0 0c0 0.438 0 0.875-0.063 1.313l-1-0.063c0.063-0.438 0.063-0.875 0.063-1.313-0.063-6.438-5.313-11.688-11.75-11.688-4.25 0-8.188 2.313-10.25 6l-0.875-0.5c2.25-4 6.5-6.5 11.125-6.5 7 0 12.688 5.688 12.75 12.625v0 0.125zM25.563 21.75l0.875 0.5c-2.25 4-6.5 6.5-11.125 6.5-6.938 0-12.625-5.625-12.75-12.5v0-0.25c0-0.438 0-0.875 0.063-1.313l1 0.063c-0.063 0.438-0.063 0.875-0.063 1.313 0 6.438 5.313 11.688 11.75 11.688 4.25 0 8.188-2.313 10.25-6zM3.313 12l3.25 3.313-0.688 0.688-2.563-2.563-2.625 2.563-0.688-0.688z"></path>
</svg>
