<!-- Generated by IcoMoon.io -->
<svg version="1.1" xmlns="http://www.w3.org/2000/svg" width="24" height="32" viewBox="0 0 24 32">
<title>ion-unlocked</title>
<path d="M1.375 30c-0.75 0-1.375-0.625-1.375-1.375v-13.25c0-0.75 0.625-1.375 1.375-1.375h1.375v-1.938c0-2.625 1.063-5.438 2.688-7.188s4-2.875 6.563-2.875v0 0c2.563 0 4.938 1.125 6.563 2.875 1.25 1.313 2.063 3.188 2.438 5.125h-3.313c-0.313-1.125-0.813-2.188-1.5-2.938v0-0.063c-1.125-1.188-2.625-1.813-4.188-1.813v0 0c-1.563 0-3.063 0.625-4.188 1.813v0.063c-1.125 1.188-1.75 3.313-1.75 5v1.938h16.563c0.75 0 1.375 0.625 1.375 1.375v13.25c0 0.75-0.625 1.375-1.375 1.375h-21.25z"></path>
</svg>
