<!-- Generated by IcoMoon.io -->
<svg version="1.1" xmlns="http://www.w3.org/2000/svg" width="16" height="32" viewBox="0 0 16 32">
<title>ion-ios-snowy</title>
<path d="M15.75 19.813c0.25 0.125 0.313 0.438 0.188 0.688s-0.438 0.313-0.688 0.188l-1.813-1.063c-0.125 0.5-0.125 1 0 1.5 0.063 0.25-0.188 0.563-0.438 0.625s-0.5-0.125-0.563-0.375c-0.125-0.75-0.188-1.5 0.063-2.25l-4-2.25v4.563c0.688 0.188 1.375 0.5 1.938 1 0.188 0.188 0.25 0.5 0.063 0.688s-0.5 0.25-0.688 0.063c-0.375-0.313-0.813-0.625-1.313-0.75v2.063c0 0.25-0.25 0.5-0.5 0.5s-0.5-0.25-0.5-0.5v-2.063c-0.5 0.125-0.938 0.438-1.313 0.75-0.188 0.188-0.5 0.125-0.688-0.063s-0.188-0.5 0-0.688c0.563-0.5 1.25-0.813 2-1v-4.563l-4.063 2.25c0.25 0.75 0.25 1.438 0.125 2.188-0.063 0.25-0.313 0.5-0.563 0.438s-0.5-0.375-0.438-0.625c0.125-0.5 0.125-1 0-1.5l-1.813 1.063c-0.25 0.125-0.563 0.063-0.688-0.188s-0.063-0.563 0.188-0.688l1.813-1c-0.375-0.375-0.813-0.625-1.313-0.813-0.25-0.063-0.375-0.375-0.313-0.625 0.125-0.25 0.375-0.375 0.625-0.313 0.75 0.25 1.375 0.688 1.875 1.188l4.063-2.25-4.063-2.313c-0.5 0.563-1.125 0.938-1.875 1.188-0.25 0.063-0.563 0-0.625-0.25s0.063-0.625 0.313-0.688c0.5-0.188 0.938-0.375 1.313-0.75l-1.813-1c-0.25-0.125-0.313-0.438-0.188-0.688s0.438-0.313 0.688-0.188l1.813 1c0.125-0.5 0.125-0.938 0-1.438-0.063-0.25 0.188-0.563 0.438-0.625s0.5 0.125 0.563 0.375c0.125 0.75 0.063 1.563-0.125 2.25l4.063 2.25v-4.563c-0.75-0.188-1.438-0.5-2-1-0.188-0.188-0.188-0.5 0-0.688s0.5-0.25 0.688-0.063c0.375 0.313 0.813 0.625 1.313 0.75v-2.063c0-0.25 0.25-0.5 0.5-0.5s0.5 0.25 0.5 0.5v2.063c0.5-0.125 0.938-0.438 1.313-0.75 0.188-0.188 0.5-0.125 0.688 0.063s0.125 0.5-0.063 0.688c-0.563 0.5-1.25 0.813-1.938 1v4.563l4-2.25c-0.188-0.688-0.25-1.5-0.125-2.25 0.063-0.25 0.375-0.438 0.625-0.375s0.438 0.375 0.375 0.625c-0.125 0.5-0.063 0.938 0.063 1.438l1.813-1c0.25-0.125 0.563-0.063 0.688 0.188s0.063 0.563-0.188 0.688l-1.813 1c0.375 0.375 0.813 0.625 1.313 0.813 0.25 0.063 0.375 0.375 0.313 0.625s-0.375 0.375-0.625 0.313c-0.75-0.25-1.438-0.625-1.938-1.188l-4 2.25 4 2.25c0.5-0.5 1.188-0.938 1.938-1.188 0.25-0.063 0.563 0.063 0.625 0.313s-0.063 0.563-0.313 0.625c-0.5 0.188-0.938 0.438-1.313 0.813z"></path>
</svg>
