<!-- Generated by IcoMoon.io -->
<svg version="1.1" xmlns="http://www.w3.org/2000/svg" width="32" height="32" viewBox="0 0 32 32">
<title>ion-wifi</title>
<path d="M14 6c5 0 9.75 1.875 13.375 5.25l0.625 0.625-0.625 0.563-2.625 2.625-0.563-0.563c-2.75-2.563-6.438-4-10.188-4s-7.438 1.438-10.188 4l-0.563 0.563-2.625-2.625-0.625-0.563 0.625-0.625c3.625-3.375 8.375-5.25 13.375-5.25v0zM22.813 16l0.688 0.625-0.625 0.625-2.063 2-0.563 0.563-0.625-0.5c-1.563-1.375-3.563-2.188-5.625-2.188s-4.063 0.813-5.625 2.188l-0.625 0.5-0.563-0.563-2.063-2-0.625-0.625 0.688-0.625c2.313-2.063 5.188-3.25 8.25-3.375v0h0.563c3.25 0 6.375 1.188 8.813 3.375zM14 26l-3.875-3.875-0.688-0.625 0.75-0.625c1.063-0.688 2-1.25 3.813-1.25s2.938 0.563 3.875 1.25l0.688 0.625-0.625 0.625-3.313 3.25z"></path>
</svg>
