<!-- Generated by IcoMoon.io -->
<svg version="1.1" xmlns="http://www.w3.org/2000/svg" width="32" height="32" viewBox="0 0 32 32">
<title>ion-android-laptop</title>
<path d="M27.313 26h4.688c0 1.438-4 2-6 2h-20c-2 0-6-0.563-6-2h4.688c-1.438 0-2.688-1.25-2.688-2.688v-16.625c0-1.438 1.25-2.688 2.688-2.688h22.625c1.438 0 2.688 1.25 2.688 2.688v16.625c0 1.438-1.25 2.688-2.688 2.688zM4.688 6.688v17h22.625v-17h-22.625zM16 27.188c0.75 0 1.313-0.625 1.313-1.375s-0.563-1.313-1.313-1.313-1.313 0.563-1.313 1.313 0.563 1.375 1.313 1.375z"></path>
</svg>
