<!-- Generated by IcoMoon.io -->
<svg version="1.1" xmlns="http://www.w3.org/2000/svg" width="32" height="32" viewBox="0 0 32 32">
<title>ion-social-github-outline</title>
<path d="M14 2c7.75 0 14 6.438 14 14.375 0 6.313-4 11.75-9.563 13.625h-0.25c-0.5 0-0.75-0.438-0.75-0.75 0-0.5 0.063-1.938 0.063-3.875 0-1.313-0.5-2.25-1-2.688 3.125-0.375 6.438-1.563 6.438-7.063 0-1.563-0.563-2.875-1.438-3.875 0.125-0.375 0.625-1.813-0.125-3.813h-0.313c-0.5 0-1.688 0.188-3.563 1.5-1.125-0.313-2.313-0.5-3.5-0.5s-2.375 0.188-3.5 0.5c-1.875-1.313-3.063-1.5-3.563-1.5h-0.313c-0.75 2-0.25 3.438-0.125 3.813-0.875 1-1.438 2.313-1.438 3.875 0 5.5 3.25 6.688 6.375 7.063-0.375 0.375-0.75 1-0.875 1.938-0.375 0.188-1 0.375-1.625 0.375-0.813 0-1.75-0.313-2.438-1.563 0 0-0.813-1.375-2.188-1.5v0c-0.125 0-1.313 0-0.063 0.875 0 0 0.938 0.5 1.563 2.125 0 0 0.625 2.063 3.313 2.063 0.438 0 0.875 0 1.375-0.125v2.438c0 0.313-0.188 0.688-0.688 0.688h-0.25c-5.563-1.875-9.563-7.25-9.563-13.625 0-7.938 6.25-14.375 14-14.375zM9.125 28c-0.938 0-1.75-0.25-2.375-0.563 0.875 0.625 1.75 1.063 2.75 1.438v-0.875h-0.375zM9.813 23.438c-1-0.25-2.188-0.625-3.25-1.5 0.375 0.375 0.688 0.688 0.813 1 0.438 0.75 0.875 1.063 1.563 1.063 0.25 0 0.563-0.063 0.75-0.125 0.063-0.125 0.063-0.313 0.125-0.438zM21.688 27.125c1.063-0.813 2-1.75 2.813-2.875 1.625-2.313 2.5-5 2.5-7.875 0-1.813-0.313-3.625-1-5.25-0.625-1.563-1.625-3-2.813-4.25s-2.563-2.125-4.125-2.813c-1.625-0.688-3.313-1.063-5.063-1.063s-3.438 0.375-5.063 1.063c-1.563 0.688-2.938 1.563-4.125 2.813s-2.188 2.625-2.813 4.25c-0.688 1.625-1 3.438-1 5.25 0 2.875 0.875 5.563 2.5 7.875 0.625 0.875 1.375 1.688 2.188 2.375-0.438-0.5-0.688-1-0.813-1.375-0.438-1.125-0.938-1.5-1.063-1.563h-0.125v-0.063c-0.313-0.188-1.25-0.813-0.938-1.75 0.188-0.563 0.75-0.938 1.563-0.938h0.063c0.813 0.063 1.5 0.375 2 0.813-1.313-1.188-2.313-3-2.313-6.125 0-1.5 0.438-2.938 1.313-4.125-0.188-0.813-0.375-2.125 0.313-3.875l0.188-0.5 0.438-0.125c0.125 0 0.313-0.063 0.625-0.063 0.75 0 1.938 0.188 3.75 1.375 1.063-0.25 2.188-0.375 3.313-0.375v0 0c1.125 0 2.25 0.125 3.313 0.375 1.813-1.188 3-1.375 3.75-1.375 0.313 0 0.5 0.063 0.625 0.063l0.438 0.125 0.188 0.438c0.688 1.688 0.5 3.125 0.313 3.938 0.875 1.188 1.313 2.563 1.313 4.125 0 5.75-3.438 7.313-5.75 7.813 0.188 0.5 0.313 1.125 0.313 1.875v3.563c1.125-0.438 2.188-1 3.188-1.75z"></path>
</svg>
