<!-- Generated by IcoMoon.io -->
<svg version="1.1" xmlns="http://www.w3.org/2000/svg" width="24" height="32" viewBox="0 0 24 32">
<title>ion-ios-nutrition-outline</title>
<path d="M18.375 14.625v0c0.375 0.375 0.625 0.875 0.625 1.438 0 0.688-0.313 1.25-0.813 1.625v0s-3.188 2.313-6.625 4.813l-2.375-1.938c-0.125-0.125-0.25-0.188-0.375-0.188-0.063 0-0.125 0-0.188 0.063v0c-0.125 0.125-0.125 0.375 0.063 0.625l1.813 2.188-7.188 5.25c-0.375 0.25-0.813 0.5-1.313 0.5-1.125 0-2-0.875-2-2 0-0.438 0.063-0.813 0.25-1.125v0c0.125-0.125 1.063-1.563 2.313-3.563l1.313 1.063c0.125 0.125 0.25 0.125 0.375 0.125 0.063 0 0.188 0 0.25-0.063v0c0.125-0.125 0.063-0.375-0.125-0.625l-1.188-1.438c1.688-2.688 3.75-6 5.25-8.375l2.25 1.875c0.125 0.125 0.25 0.188 0.375 0.188 0.063 0 0.125-0.063 0.188-0.125v0c0.125-0.125 0.125-0.313-0.063-0.563l-2.063-2.5c0.688-1.125 1.188-1.813 1.188-1.813v0c0.375-0.625 0.938-1 1.688-1 0.563 0 1.125 0.25 1.5 0.625v0l4.875 4.938zM17.625 16.875c0.25-0.188 0.375-0.5 0.375-0.813 0-0.25-0.125-0.563-0.313-0.75l-0.313-0.25v-0.063l-4.625-4.625c-0.188-0.188-0.5-0.313-0.75-0.313-0.375 0-0.625 0.188-0.813 0.5l-0.313 0.5c-0.125 0.188-0.313 0.438-0.5 0.75l1.563 1.875 0.063 0.063c0.5 0.625 0.5 1.375 0 1.875l-0.125 0.125c-0.25 0.188-0.5 0.313-0.813 0.313s-0.688-0.125-1-0.375v-0.063h-0.063l-1.313-1.125-1.5 2.438-2.75 4.375 0.75 0.875c0.5 0.625 0.5 1.438 0 1.938v0c-0.25 0.25-0.563 0.375-0.938 0.375-0.313 0-0.688-0.125-1-0.375v0 0l-0.438-0.313c-0.188 0.313-0.313 0.563-0.5 0.813-0.75 1.188-1 1.625-1.125 1.813-0.063 0.188-0.125 0.375-0.125 0.563 0 0.563 0.438 1 1 1 0.188 0 0.375-0.125 0.688-0.313l6.313-4.625-1.125-1.375h-0.063c-0.5-0.625-0.5-1.438 0-1.938v0 0 0c0.25-0.25 0.625-0.375 0.938-0.375s0.688 0.125 1 0.375v0h0.063l1.75 1.5c3.063-2.25 5.813-4.25 6-4.375zM23.5 7.188l0.5 0.875-0.313 0.188-6.438 3.75-1.063-1.063 4.438-7.688 0.125-0.25 0.875 0.5-0.188 0.25-3.938 6.938 5.688-3.313z"></path>
</svg>
