<!-- Generated by IcoMoon.io -->
<svg version="1.1" xmlns="http://www.w3.org/2000/svg" width="32" height="32" viewBox="0 0 32 32">
<title>ion-social-whatsapp-outline</title>
<path d="M11.125 9.625c0.25 0.688 0.938 2.438 1 2.625s0.125 0.375 0 0.625-0.188 0.375-0.375 0.563-0.375 0.438-0.563 0.563c-0.188 0.188-0.375 0.375-0.188 0.75s0.875 1.5 1.875 2.438c1.313 1.25 2.375 1.688 2.75 1.875s0.563 0.188 0.75-0.063 0.938-1 1.188-1.313 0.5-0.313 0.813-0.188 1.938 1.063 2.313 1.25 0.625 0.313 0.688 0.438 0 0.813-0.313 1.625-1.75 1.5-2.375 1.563-0.688 0.5-4.188-1-5.625-5.25-5.813-5.5-1.375-1.938-1.313-3.625 1.063-2.563 1.375-2.875 0.688-0.438 0.938-0.438h0.625s0.563 0 0.813 0.688zM14.25 4c-3.125 0-6.063 1.25-8.313 3.438-2.188 2.188-3.438 5.063-3.438 8.188 0 2.125 0.563 4.188 1.688 6l0.5 0.813-0.313 0.875-1.188 3.563 4.625-1.438 0.75 0.375c1.75 0.938 3.688 1.438 5.688 1.438 3.125 0 6.063-1.188 8.313-3.375 2.188-2.188 3.438-5.125 3.438-8.25s-1.25-6-3.438-8.188c-2.25-2.188-5.188-3.438-8.313-3.438zM14.25 2v0c7.563 0 13.75 6.063 13.75 13.625s-6.188 13.625-13.75 13.625c-2.438 0-4.625-0.625-6.625-1.688l-7.625 2.438 2.5-7.313c-1.25-2.063-2-4.5-2-7.063 0-7.563 6.188-13.625 13.75-13.625z"></path>
</svg>
