<!-- Generated by IcoMoon.io -->
<svg version="1.1" xmlns="http://www.w3.org/2000/svg" width="32" height="32" viewBox="0 0 32 32">
<title>ion-bowtie</title>
<path d="M12 13.25c0 0 0.5-0.313 1.25-0.438 1.313-0.25 2.438-0.313 2.938 0.563 0.625 1.063 1.188 3.313 1.063 5.313-0.063 1.063-0.313 1.375-0.313 1.375s-0.938 0.625-2.938 0.438c-2.188-0.188-2.5-0.938-2.5-0.938s0.313-0.75 0.5-2.688 0-3.625 0-3.625zM9.5 17.813c-1.063 0.25-2.375 0.625-2.375 0.625s2.813-0.25 4-0.563c-0.25 1.313-0.625 2.125-0.625 2.125s-5.188 5-7.25 5c-1.75 0-3.25-4.25-3.25-9s1.625-9 3.25-9c2.188 0 6.625 3.563 8 6.063 0 0 0.188 1 0.125 2-0.625-0.313-1.5-0.625-2.75-0.875-1.75-0.375-2.625-0.188-2.625-0.188s1.125 0.25 3.563 1.063c0.938 0.313 1.375 0.5 1.813 0.625 0 0.188-0.063 0.438-0.063 0.625 0 0.313 0 0.625-0.063 0.938-0.313 0.125-0.938 0.375-1.75 0.563zM24.75 7c1.625 0 3.25 4.25 3.25 9s-1.5 9-3.25 9c-2.313 0-6.5-4.25-7-4.938 0 0 0.25-0.313 0.313-1.375v-0.563c1 0.438 4.375 0.813 4.375 0.813s-1.313-0.375-2.5-0.688c-0.813-0.25-1.563-0.5-1.875-0.625-0.063-0.688-0.125-1.438-0.25-2.063 1.063-0.688 4.313-2.125 4.313-2.125s-0.938 0.125-2.188 0.563c-0.875 0.313-1.813 0.688-2.313 0.875-0.188-0.625-0.438-1.125-0.625-1.5 0-0.063-0.063-0.25-0.063-0.25v-0.063c1.375-2.5 5.563-6.063 7.813-6.063z"></path>
</svg>
