<!-- Generated by IcoMoon.io -->
<svg version="1.1" xmlns="http://www.w3.org/2000/svg" width="29" height="32" viewBox="0 0 29 32">
<title>ion-ios-infinite</title>
<path d="M27.063 11.375c1.25 1.25 1.938 2.875 1.938 4.625s-0.688 3.375-1.938 4.625-3 1.875-4.75 1.875-3.438-0.625-4.688-1.875l-7.813-7.688c-0.813-0.813-2-1.25-3.188-1.25s-2.313 0.438-3.125 1.25-1.313 1.938-1.313 3.063c0 1.188 0.5 2.25 1.313 3.063s1.938 1.25 3.125 1.25 2.375-0.438 3.188-1.25l2.438-2.375 1.563 1.563-2.438 2.375c-1.25 1.25-3 1.875-4.75 1.875s-3.438-0.625-4.688-1.875-1.938-2.875-1.938-4.625 0.688-3.375 1.938-4.625 2.938-1.875 4.688-1.875 3.5 0.625 4.75 1.875l7.813 7.688c0.813 0.813 1.938 1.25 3.125 1.25s2.375-0.438 3.188-1.25 1.25-1.938 1.25-3.063c0-1.188-0.438-2.25-1.25-3.063s-2-1.25-3.188-1.25-2.313 0.438-3.125 1.25l-2.438 2.375-1.563-1.563 2.438-2.375c1.25-1.25 3-1.875 4.75-1.875s3.438 0.625 4.688 1.875z"></path>
</svg>
