<!-- Generated by IcoMoon.io -->
<svg version="1.1" xmlns="http://www.w3.org/2000/svg" width="20" height="32" viewBox="0 0 20 32">
<title>ion-android-sync</title>
<path d="M10 5.813c5.5 0 10 4.563 10 10.188 0 2-0.563 3.875-1.563 5.438l-1.813-1.875c0.563-1.063 0.875-2.313 0.875-3.563 0-4.188-3.375-7.625-7.5-7.625v3.813l-5-5.125 5-5.063v3.813zM10 23.625v-3.813l5 5.125-5 5.063v-3.813c-5.5 0-10-4.563-10-10.188 0-2 0.563-3.938 1.563-5.438l1.813 1.875c-0.563 1.063-0.875 2.313-0.875 3.563 0 4.188 3.375 7.625 7.5 7.625z"></path>
</svg>
