<!-- Generated by IcoMoon.io -->
<svg version="1.1" xmlns="http://www.w3.org/2000/svg" width="18" height="32" viewBox="0 0 18 32">
<title>ion-ios-calculator-outline</title>
<path d="M2 10v-4h14v4h-14zM3 7v2h12v-2h-12zM16 4c1.125 0 2 0.875 2 2v20c0 1.125-0.875 2-2 2h-14c-1.125 0-2-0.875-2-2v-20c0-1.125 0.875-2 2-2h14zM17 26v-20c0-0.563-0.438-1-1-1h-14c-0.563 0-1 0.438-1 1v20c0 0.563 0.438 1 1 1h14c0.563 0 1-0.438 1-1zM3 15h3v1h-4v-4h1v3zM3 20h3v1h-4v-4h1v3zM3 25h3v1h-4v-4h1v3zM8 15h3v1h-4v-4h1v3zM13 15h3v1h-4v-4h1v3zM8 20h3v1h-4v-4h1v3zM8 25h3v1h-4v-4h1v3zM13 25h3v1h-4v-9h1v8z"></path>
</svg>
