<!-- Generated by IcoMoon.io -->
<svg version="1.1" xmlns="http://www.w3.org/2000/svg" width="26" height="32" viewBox="0 0 26 32">
<title>ion-ios-close-outline</title>
<path d="M22.188 6.813c5.063 5.063 5.063 13.313 0 18.375s-13.313 5.063-18.375 0-5.063-13.313 0-18.375 13.313-5.063 18.375 0zM21.438 24.438c4.625-4.625 4.625-12.25 0-16.875s-12.25-4.625-16.875 0-4.625 12.25 0 16.875 12.25 4.625 16.875 0zM18.25 10l0.75 0.75-5.25 5.25 5.25 5.25-0.75 0.75-5.25-5.25-5.25 5.25-0.75-0.75 5.25-5.25-5.25-5.25 0.75-0.75 5.25 5.25z"></path>
</svg>
