<!-- Generated by IcoMoon.io -->
<svg version="1.1" xmlns="http://www.w3.org/2000/svg" width="32" height="32" viewBox="0 0 32 32">
<title>ion-ios-toggle-outline</title>
<path d="M6 20c-1.625 0-3 1.375-3 3s1.375 3 3 3 3-1.375 3-3-1.375-3-3-3zM6 19v0c2.188 0 4 1.813 4 4s-1.813 4-4 4-4-1.813-4-4 1.813-4 4-4zM21.938 18v0h-15.938c-2.75 0-5 2.25-5 5s2.25 5 5 5h16c2.75 0 5-2.25 5-5s-2.313-5-5.063-5zM22 17v0c3.313 0 6 2.688 6 6s-2.688 6-6 6h-16c-3.313 0-6-2.688-6-6s2.688-6 6-6h16zM22 6c-1.625 0-3 1.375-3 3s1.375 3 3 3 3-1.375 3-3-1.375-3-3-3zM22 5v0c2.188 0 4 1.813 4 4s-1.813 4-4 4-4-1.813-4-4 1.813-4 4-4zM6.063 4v0c-2.75 0-5.063 2.25-5.063 5s2.25 5 5 5h16c2.75 0 5-2.25 5-5s-2.25-5-5-5h-15.938zM6 3v0h16c3.313 0 6 2.688 6 6s-2.688 6-6 6h-16c-3.313 0-6-2.688-6-6s2.688-6 6-6z"></path>
</svg>
