<!-- Generated by IcoMoon.io -->
<svg version="1.1" xmlns="http://www.w3.org/2000/svg" width="32" height="32" viewBox="0 0 32 32">
<title>ion-android-boat</title>
<path d="M3.25 25.813l-3.188-8.688c-0.125-0.375-0.063-0.75 0.063-1.063s0.5-0.5 0.813-0.625l2.375-0.813v-6.125c0-1.438 1.25-2.688 2.688-2.688h4l1-3.313h6l1 3.313h4c1.438 0 2.688 1.25 2.688 2.688v6.125l2.375 0.813c0.313 0.125 0.688 0.313 0.813 0.625s0.188 0.75 0.063 1.063l-3.188 8.688h-0.063c-2.125 0-4.063-1.25-5.375-2.688-1.313 1.438-3.188 2.688-5.313 2.688s-4-1.188-5.313-2.625c-1.313 1.438-3.25 2.625-5.375 2.625h-0.063zM6 8.5v5.25l8-2.563 8 2.563v-5.25h-16zM19.313 25.5c0 0 3.688 4 6.688 4h-1.313c-1.875 0-3.688-0.75-5.375-1.625-3.313 1.75-7.313 1.75-10.625 0-1.688 0.875-3.5 1.625-5.375 1.625h-1.313c3.063 0 6.688-4 6.688-4 3.25 2.25 7.375 2.25 10.625 0z"></path>
</svg>
