<!-- Generated by IcoMoon.io -->
<svg version="1.1" xmlns="http://www.w3.org/2000/svg" width="17" height="32" viewBox="0 0 17 32">
<title>ion-ios-cloudy-outline</title>
<path d="M7.813 11c-2.125 0-3.938 1.75-3.938 3.875v0.75s0.063 0.625 0.063 0.625c-0.375 0-0.75 0.063-0.875 0.063-1.188 0.188-2.063 1.125-2.063 2.313 0 0.625 0.188 1.188 0.625 1.625s1 0.688 1.625 0.688h9.813c1.688 0 3.063-1.375 3.063-3.063s-1.375-3.125-3.063-3.125c-0.125 0-0.25 0.063-0.375 0.063l-0.875 0.125-0.188-0.875c-0.188-0.875-0.688-1.625-1.375-2.188s-1.563-0.875-2.438-0.875zM7.813 10v0c2.313 0 4.25 1.625 4.75 3.813h0.5c2.25 0 4.063 1.813 4.063 4.063s-1.813 4.125-4.063 4.125h-9.813c-1.75 0-3.25-1.5-3.25-3.313 0-1.688 1.313-3.188 2.938-3.313v-0.5c0-2.688 2.188-4.875 4.875-4.875z"></path>
</svg>
