<!-- Generated by IcoMoon.io -->
<svg version="1.1" xmlns="http://www.w3.org/2000/svg" width="32" height="32" viewBox="0 0 32 32">
<title>ion-social-vimeo</title>
<path d="M27.813 7.125c0.438 2.063 0.063 4.125-0.813 6.063s-1.938 3.688-3.188 5.438c-1.625 2.25-3.25 4.438-5.313 6.313-1.188 1.125-2.563 2.188-4.125 2.75-1.938 0.688-3.25 0.313-4.438-1.375-0.875-1.188-1.375-2.5-1.75-3.938-0.75-2.813-1.563-5.625-2.375-8.375-0.25-0.75-0.563-1.375-0.938-2.063-0.188-0.313-0.5-0.625-0.75-0.875-0.313-0.25-0.688-0.188-1.063 0-0.625 0.375-1.75 1.125-1.75 1.125l-1.313-1.688c1.625-1.5 5.125-4.438 5.125-4.438 0.688-0.563 2.063-1.563 3-1.688 1.313-0.188 2.375 0.25 3.125 1.375 0.688 1.063 0.938 2.313 1.125 3.563 0.438 2.563 0.688 5.125 1.438 7.625 0.188 0.625 0.5 1.25 0.813 1.813 0.438 0.688 0.938 0.813 1.563 0.313 0.25-0.188 0.438-0.375 0.625-0.625 1.25-1.5 2.313-3.25 3-5.063 0.188-0.563 0.188-1.063 0.188-1.688 0-0.813-0.625-1.563-1.563-1.625s-1.5 0.063-2.438 0.438c0.375-1.5 1.5-3.875 3.375-5.25 1.813-1.313 4.438-1.5 5.875-1s2.25 1.438 2.563 2.875z"></path>
</svg>
