<!-- Generated by IcoMoon.io -->
<svg version="1.1" xmlns="http://www.w3.org/2000/svg" width="24" height="32" viewBox="0 0 24 32">
<title>ion-ios-partlysunny-outline</title>
<path d="M9 9.375v-3.375h1v3.375h-1zM0 16v-1h3.438v1h-3.438zM2.75 9.313l0.625-0.688 2 2-0.688 0.688zM13.938 11.25l-0.688-0.688 2-2 0.688 0.688zM3.5 22l-0.625-0.688 1.938-1.938 0.688 0.688zM8.063 18.438c-0.25 0.188-0.5 0.438-0.75 0.75-1.438-0.75-2.438-2.25-2.438-3.938 0-2.438 2-4.438 4.438-4.438 1.313 0 2.5 0.625 3.313 1.563-0.25 0.125-0.563 0.25-0.875 0.5-0.625-0.688-1.438-1.063-2.438-1.063-1.875 0-3.438 1.563-3.438 3.438 0 1.438 0.938 2.688 2.188 3.188zM14.688 15c-2.125 0-3.938 1.75-3.938 3.875v0.75s0.063 0.625 0.063 0.625c-0.313 0-0.75 0.063-0.875 0.063-1.188 0.188-2.063 1.125-2.063 2.313 0 0.625 0.188 1.188 0.625 1.625s1 0.688 1.625 0.688h9.813c1.688 0 3.063-1.375 3.063-3.063s-1.375-3.125-3.063-3.125c-0.125 0-0.25 0.063-0.375 0.063l-0.875 0.125-0.188-0.875c-0.188-0.875-0.688-1.625-1.375-2.188s-1.563-0.875-2.438-0.875zM14.688 14v0c2.313 0 4.25 1.625 4.75 3.813h0.5c2.25 0 4.063 1.813 4.063 4.063s-1.813 4.125-4.063 4.125h-9.813c-1.75 0-3.25-1.5-3.25-3.313 0-1.688 1.313-3.188 2.938-3.313v-0.5c0-2.688 2.188-4.875 4.875-4.875z"></path>
</svg>
