<!-- Generated by IcoMoon.io -->
<svg version="1.1" xmlns="http://www.w3.org/2000/svg" width="32" height="32" viewBox="0 0 32 32">
<title>ion-ios-flower</title>
<path d="M22.688 14.25c3.5 0 5.313 0.75 5.313 1.75s-1.813 1.75-5.313 1.75c-1.813 0-4.063-0.438-5.813-0.875-0.063 0.188-0.125 0.375-0.25 0.563 1.563 0.938 3.5 2.25 4.75 3.5 2.5 2.5 3.313 4.25 2.563 5s-2.5-0.063-5-2.563c-1.25-1.25-2.563-3.188-3.5-4.75-0.188 0.125-0.438 0.188-0.625 0.25 0.438 1.75 0.938 4 0.938 5.813 0 3.5-0.75 5.313-1.75 5.313s-1.75-1.813-1.75-5.313c0-1.813 0.5-4.063 0.938-5.813-0.188-0.063-0.438-0.125-0.625-0.25-0.938 1.563-2.25 3.5-3.5 4.75-2.5 2.5-4.25 3.313-5 2.563s0.063-2.5 2.563-5c1.25-1.25 3.188-2.563 4.75-3.5-0.125-0.188-0.188-0.375-0.25-0.563-1.75 0.438-4 0.875-5.813 0.875-3.5 0-5.313-0.75-5.313-1.75s1.813-1.75 5.313-1.75c1.813 0 4.063 0.5 5.813 0.938 0.063-0.188 0.125-0.438 0.25-0.625-1.563-0.938-3.5-2.188-4.75-3.438-2.5-2.5-3.313-4.25-2.563-5s2.5 0 5 2.5c1.25 1.25 2.563 3.188 3.5 4.75 0.188-0.125 0.375-0.188 0.563-0.25-0.438-1.75-0.875-4-0.875-5.813 0-3.5 0.75-5.313 1.75-5.313s1.75 1.813 1.75 5.313c0 1.813-0.438 4.063-0.875 5.813 0.188 0.063 0.375 0.125 0.563 0.25 0.938-1.563 2.25-3.5 3.5-4.75 2.5-2.5 4.25-3.25 5-2.5s-0.063 2.5-2.563 5c-1.25 1.25-3.188 2.5-4.75 3.438 0.125 0.188 0.188 0.438 0.25 0.625 1.75-0.438 4-0.938 5.813-0.938zM16.5 22.125c0 0 1.5 2.125 3.063 3.25 0.625 2.125 0.438 3.313-0.313 3.625-0.125 0.063-0.188 0.063-0.313 0.063-0.688 0-1.563-0.813-2.313-2.188 0.313-2.188-0.125-4.75-0.125-4.75zM11.438 9.875c0 0-1.688-2.188-3-3.188-0.625-2.188-0.438-3.375 0.313-3.688 0.125-0.063 0.188-0.063 0.313-0.063 0.688 0 1.5 0.75 2.313 2.25-0.375 2.188 0.063 4.688 0.063 4.688zM7.875 18.563c0 0-2.125 1.5-3.188 3-0.75 0.25-1.625 0.375-2.188 0.375-0.813 0-1.313-0.25-1.5-0.688-0.313-0.688 0.438-1.563 2.125-2.563 2.188 0.25 4.75-0.125 4.75-0.125zM20.125 13.5c0 0 2.063-1.563 3.188-3.063 0.813-0.25 1.625-0.313 2.188-0.313 0.813 0 1.313 0.188 1.5 0.625 0.313 0.688-0.438 1.625-2.125 2.625-2.188-0.313-4.75 0.125-4.75 0.125zM8.188 25.563c1.938-1.5 3.313-3.438 3.313-3.438s-0.438 2.438-0.188 4.438c-0.938 1.625-1.75 2.438-2.438 2.438-0.125 0-0.25 0-0.375-0.063-0.688-0.313-0.813-1.5-0.313-3.375zM19.813 6.5c-1.813 1.313-3.313 3.438-3.313 3.438s0.5-3 0.188-4.438c0.813-1.563 1.75-2.438 2.438-2.438 0.125 0 0.25 0 0.375 0.063 0.688 0.313 0.813 1.375 0.313 3.375zM3.5 13.313c-1.75-0.938-2.688-2-2.375-2.75 0.188-0.438 0.625-0.688 1.375-0.688 0.5 0 1.313 0.063 1.938 0.313 1.125 1.5 3.438 3.313 3.438 3.313s-2.5-0.438-4.375-0.188zM24.5 18.688c1.875 1.063 2.688 2.063 2.375 2.813-0.188 0.438-0.625 0.625-1.375 0.625-0.5 0-1.188-0.063-1.938-0.313-1.25-1.688-3.438-3.25-3.438-3.25s2.813 0.5 4.375 0.125z"></path>
</svg>
