<!-- Generated by IcoMoon.io -->
<svg version="1.1" xmlns="http://www.w3.org/2000/svg" width="24" height="32" viewBox="0 0 24 32">
<title>ion-person</title>
<path d="M24 28h-24s0-1.625 0.125-2.5c0.125-0.688 1.063-1.563 5.063-3.063 3.938-1.438 3.75-0.75 3.75-3.438 0-1.75-0.875-0.688-1.438-4-0.25-1.313-0.375-0.438-0.875-2.5-0.25-1.063 0.188-1.188 0.125-1.688s-0.125-1-0.25-2.063c-0.125-1.313 1.125-4.75 5.5-4.75s5.625 3.438 5.5 4.75c-0.125 1.063-0.188 1.563-0.25 2.063s0.375 0.625 0.125 1.688c-0.5 2.063-0.625 1.188-0.875 2.5-0.563 3.313-1.438 2.25-1.438 4 0 2.688-0.188 2 3.75 3.438 4 1.5 4.938 2.375 5.063 3.063 0.125 0.875 0.125 2.5 0.125 2.5z"></path>
</svg>
