<!-- Generated by IcoMoon.io -->
<svg version="1.1" xmlns="http://www.w3.org/2000/svg" width="16" height="32" viewBox="0 0 16 32">
<title>ion-ios-at-outline</title>
<path d="M14.75 20.063v-0.063h1.188l-0.188 0.375c-0.188 0.375-0.813 1.188-1.375 1.688s-1.125 0.875-1.75 1.25-1.313 0.625-2 0.813-1.438 0.313-2.125 0.313c-1 0-2.063-0.188-3.063-0.5s-1.875-0.813-2.688-1.5c-0.75-0.688-1.625-1.813-2.125-2.875-0.438-1-0.625-2.063-0.625-3.625 0-1.125 0.25-2.375 0.688-3.438 0.438-1 1.063-1.875 1.813-2.625s1.688-1.313 2.688-1.75c0.938-0.375 2.063-0.563 3.313-0.563 1 0 2 0.188 2.875 0.5 0.938 0.313 1.75 0.75 2.438 1.375s1.063 1.313 1.5 2.188c0.375 0.813 0.5 1.625 0.5 2.75 0 0.875-0.125 1.75-0.438 2.5s-0.563 1.25-1.063 1.875c-0.5 0.563-0.813 0.938-1.438 1.313-0.688 0.375-1.25 0.563-1.813 0.563-0.5 0-0.938-0.125-1.25-0.438-0.188-0.125-0.313-0.375-0.375-0.563-0.375 0.375-0.688 0.625-1.063 0.75-0.625 0.188-1.125 0.25-1.625 0.25s-0.938-0.063-1.313-0.25-0.75-0.438-1.063-0.75-0.5-0.688-0.688-1.125-0.313-0.875-0.313-1.375c0-0.75 0.188-1.5 0.438-2.25v-0.125c0.25-0.688 0.313-1 0.813-1.625 0.5-0.688 1.063-1.188 1.75-1.625s1.5-0.688 2.375-0.688c0.75 0 1.313 0.188 1.938 0.563 0.438 0.25 0.75 0.625 1 1l0.375-1.063h1.125l-2.375 6.375c-0.125 0.313-0.25 0.625-0.313 0.875s-0.063 0.438-0.063 0.625c0 0.125 0.063 0.25 0.188 0.313s0.25 0.125 0.5 0.125c0.375 0 0.688-0.125 1.25-0.438 0.5-0.25 0.75-0.563 1.188-1.063 0.375-0.5 0.625-0.875 0.875-1.563s0.375-1.438 0.375-2.188c0-0.938-0.125-1.563-0.438-2.25-0.375-0.813-0.625-1.375-1.188-1.875s-1.25-0.938-2.063-1.25-1.688-0.438-2.625-0.438c-1.188 0-2.188 0.188-3 0.563-0.938 0.375-1.688 0.875-2.313 1.5-0.688 0.625-1.188 1.438-1.563 2.313-0.375 0.938-0.625 2-0.625 3 0 1.375 0.125 2.25 0.5 3.063 0.375 0.938 1.063 1.938 1.75 2.563s1.5 1.125 2.375 1.438 1.875 0.438 2.875 0.438c0.625 0 1.25-0.063 1.875-0.25s1.125-0.375 1.688-0.688 1.063-0.688 1.5-1.125 0.875-0.813 1.188-1.313zM9.188 18.375c0.25-0.313 0.5-0.75 0.688-1.25l1.313-3.563c-0.125-0.313-0.25-0.625-0.438-0.813-0.188-0.25-0.375-0.375-0.625-0.5-0.063 0-0.063-0.063-0.125-0.063-0.188-0.125-0.313-0.188-0.563-0.25-0.313-0.063-0.563-0.125-0.813-0.125-0.625 0-1.188 0.188-1.75 0.563s-1.063 0.813-1.438 1.375c-0.313 0.5-0.438 0.688-0.625 1.25 0 0.063-0.063 0.188-0.063 0.25-0.25 0.688-0.313 1.25-0.313 1.875 0 0.375 0.063 0.688 0.188 1s0.313 0.563 0.5 0.813 0.438 0.375 0.75 0.5 0.563 0.188 0.938 0.188c0.25 0 0.563-0.063 0.875-0.125 0.25-0.063 0.5-0.125 0.75-0.313s0.5-0.438 0.75-0.813z"></path>
</svg>
