<!-- Generated by IcoMoon.io -->
<svg version="1.1" xmlns="http://www.w3.org/2000/svg" width="32" height="32" viewBox="0 0 32 32">
<title>ion-no-smoking</title>
<path d="M20.5 19v-3h1v3h-1zM5 19v-3h5.625l3 3h-8.625zM20.75 3.75c4.313 2.375 7.25 7 7.25 12.25 0 7.75-6.25 14-14 14-1.5 0-2.938-0.25-4.25-0.688-0.125-0.063-0.188-0.063-0.313-0.125-0.75-0.25-1.5-0.563-2.188-0.938h-0.063c-4.313-2.375-7.188-7-7.188-12.25 0-7.75 6.25-14 14-14 1.5 0 2.938 0.25 4.25 0.688 0.125 0.063 0.188 0.063 0.313 0.125 0.75 0.25 1.5 0.563 2.188 0.938v0zM14 26.625c2.313 0 4.5-0.75 6.25-2l-14.875-14.875c-1.25 1.75-2 3.938-2 6.25 0 4.063 2.25 7.563 5.625 9.375 0.375 0.188 0.813 0.438 1.188 0.563 0.125 0.063 0.188 0.063 0.313 0.125 0.563 0.188 1.188 0.313 1.813 0.438 0.563 0.125 1.125 0.125 1.688 0.125zM22.625 22.188c1.25-1.75 2-3.875 2-6.188 0-4.125-2.313-7.688-5.688-9.438-0.375-0.188-0.75-0.375-1.125-0.5-0.125-0.063-0.188-0.063-0.313-0.125-0.563-0.188-1.188-0.313-1.813-0.438-0.563-0.125-1.125-0.125-1.688-0.125-2.313 0-4.438 0.75-6.188 2zM20 18.625l-2.625-2.625h2.625v2.625zM22 19v-3h1v3h-1zM20.5 13.313c1 0.438 1 1.688 1 2.125v0.063h-1v-0.063c0-0.5-0.063-1.063-0.438-1.25-0.25-0.125-0.813-0.25-2.438-0.25h-0.188c-0.813 0-1.5 0-2.063-0.813-0.313-0.5-0.313-1.188-0.125-1.813-0.25-0.063-0.5-0.063-0.75-0.188-1.063-0.438-1.625-1.25-1.625-2.375 0-2.063 1.688-2.75 2.438-2.75v1c-0.063 0-1.438 0.125-1.438 1.75 0 0.688 0.313 1.188 1 1.438 0.563 0.25 1.125 0.188 1.125 0.188 0.188 0 0.375 0.125 0.438 0.313s0.125 0.375 0 0.5c-0.313 0.438-0.438 1.125-0.25 1.375 0.25 0.375 0.438 0.375 1.25 0.375h0.188c1.5 0 2.313 0.125 2.875 0.375zM23 15.5v0h-1c0-1.75-0.25-2.563-0.438-2.875-0.375-0.625-0.875-0.875-1.563-0.875h-1.875c-0.188 0-0.313-0.125-0.375-0.25s-0.063-0.375 0-0.5c0 0 0.5-1.125 0.375-2-0.063-0.5-0.375-1.063-1.688-1.063v-1c1.5 0 2.5 0.688 2.688 1.875 0.125 0.688 0 1.438-0.188 1.938h1.063c1 0 1.875 0.5 2.438 1.375 0.375 0.625 0.563 1.75 0.563 3.375z"></path>
</svg>
