<!-- Generated by IcoMoon.io -->
<svg version="1.1" xmlns="http://www.w3.org/2000/svg" width="22" height="32" viewBox="0 0 22 32">
<title>ion-social-android</title>
<path d="M4 16.75v-4.75h14v10.375c0 0.438-0.25 0.875-0.688 0.875h-1.75v3.25c0 0.813-0.688 1.5-1.5 1.5v0h-0.063c-0.375 0-0.625-0.125-0.875-0.313-0.313-0.25-0.563-0.688-0.563-1.188v-3.25h-3.063v3.25c0 0.813-0.688 1.5-1.5 1.5s-1.5-0.688-1.5-1.5v-3.25h-1.813c-0.438 0-0.688-0.438-0.688-0.875v-5.625zM20.5 11c0.813 0 1.5 0.688 1.5 1.5v6c0 0.813-0.688 1.5-1.5 1.5s-1.5-0.688-1.5-1.5v-6c0-0.813 0.688-1.5 1.5-1.5zM1.5 11c0.813 0 1.5 0.688 1.5 1.5v6c0 0.813-0.688 1.5-1.5 1.5s-1.5-0.688-1.5-1.5v-6c0-0.813 0.688-1.5 1.5-1.5zM14.438 5.563c3 1.313 3.5 4.5 3.563 5.438h-14c0.063-0.938 0.5-4.125 3.5-5.438l-1.125-1.375c0-0.063 0-0.063 0.063-0.125s0.188-0.063 0.188-0.063l1.188 1.438c0.875-0.313 1.938-0.563 3.188-0.563s2.25 0.25 3.125 0.563l1.25-1.438c0-0.063 0.063 0 0.125 0.063l0.125 0.125zM7.938 8.688c0.5 0 0.813-0.375 0.813-0.813s-0.375-0.875-0.813-0.875c-0.5 0-0.875 0.438-0.875 0.875s0.438 0.813 0.875 0.813zM14.063 8.688c0.438 0 0.875-0.375 0.875-0.813s-0.438-0.875-0.875-0.875c-0.5 0-0.813 0.438-0.813 0.875s0.375 0.813 0.813 0.813z"></path>
</svg>
