<!-- Generated by IcoMoon.io -->
<svg version="1.1" xmlns="http://www.w3.org/2000/svg" width="32" height="32" viewBox="0 0 32 32">
<title>ion-social-windows-outline</title>
<path d="M27 17.563h-13.5v9.313l13.5 2v-11.313zM28 16.563v0 13.438l-15.5-2.25v-11.188h15.5zM10.5 17.563h-9.5v7.5l9.5 1.375v-8.875zM11.5 16.563v0 11.063l-11.5-1.688v-9.375h11.5zM27 3.125v0l-13.5 1.938v9.5h13.5v-11.438zM28 2v0 13.563h-15.5v-11.375zM10.5 5.5v0l-9.5 1.375v7.688h9.5v-9.063zM11.5 4.375v0 11.188h-11.5v-9.563z"></path>
</svg>
