<!-- Generated by IcoMoon.io -->
<svg version="1.1" xmlns="http://www.w3.org/2000/svg" width="14" height="32" viewBox="0 0 14 32">
<title>ion-ipod</title>
<path d="M7 19.438c1.125 0 2 0.875 2 2s-0.875 2-2 2-2-0.875-2-2 0.875-2 2-2zM12.25 4c0.938 0 1.75 0.75 1.75 1.75v20.5c0 1-0.813 1.75-1.75 1.75h-10.5c-0.938 0-1.75-0.75-1.75-1.75v-20.5c0-1 0.813-1.75 1.75-1.75h10.5zM7 26c2.5 0 4.5-2 4.5-4.5s-2-4.5-4.5-4.5-4.5 2-4.5 4.5 2 4.5 4.5 4.5zM12 14.188v-7.375c-0.063-0.438-0.375-0.75-0.75-0.813h-8.5c-0.438 0.063-0.75 0.438-0.75 0.938v7.125c0 0.5 0.375 0.938 0.875 0.938h8.188c0.5 0 0.875-0.313 0.938-0.813z"></path>
</svg>
