<!-- Generated by IcoMoon.io -->
<svg version="1.1" xmlns="http://www.w3.org/2000/svg" width="14" height="32" viewBox="0 0 14 32">
<title>ion-pin</title>
<path d="M11.75 14.25c1.25 0.625 2.25 1.938 2.25 3.438 0 1.063-0.188 1.313-0.938 1.313h-5.063l-0.75 11h-0.5l-0.75-11h-5.063c-0.75 0-0.938-0.313-0.938-1.313 0-1.5 1-2.813 2.25-3.438v0c0.063 0 0.188-0.063 0.25-0.125 0.438-0.25 0.75-0.688 0.875-1.188l1.125-7.375v-0.313c0-0.438-0.25-0.625-0.625-0.813v0c-0.063 0-0.063-0.063-0.125-0.063-0.438-0.188-0.75-0.563-0.75-1.063 0-1.25 0.375-1.313 1.125-1.313h5.75c0.75 0 1.125 0.063 1.125 1.313 0 0.5-0.313 0.875-0.75 1.063-0.063 0-0.063 0.063-0.125 0.063v0c-0.375 0.188-0.625 0.375-0.625 0.813v0.313l1.125 7.375c0.125 0.5 0.438 0.938 0.875 1.188 0.063 0.063 0.188 0.125 0.25 0.125v0z"></path>
</svg>
