<!-- Generated by IcoMoon.io -->
<svg version="1.1" xmlns="http://www.w3.org/2000/svg" width="32" height="32" viewBox="0 0 32 32">
<title>ion-person-stalker</title>
<path d="M24.563 20.313c2.625 1 3.25 1.625 3.313 2.063 0.125 0.563 0.125 5.625 0.125 5.625h-6.125c0-1.125 0-4.438-0.063-4.813-0.063-0.625-0.063-1.813-3.438-3.125-0.5-0.188-0.875-0.313-1.188-0.438 1.125-0.5 0.938-0.938 0.938-1.75 0-1.188-0.563-0.688-0.938-2.938-0.125-0.875-0.25-0.313-0.563-1.75-0.188-0.75 0.063-0.75 0.063-1.125s-0.063-0.625-0.125-1.375c-0.063-0.875 0.688-3.25 3.563-3.25s3.688 2.375 3.625 3.25c-0.063 0.75-0.125 1-0.125 1.375-0.063 0.375 0.25 0.375 0.063 1.125-0.313 1.438-0.438 0.875-0.563 1.75-0.375 2.25-1 1.75-1 2.938 0 1.813-0.125 1.438 2.438 2.438zM20.313 28h-20.313s0-4.063 0.125-4.813c0.125-0.625 0.938-1.375 4.313-2.688 3.375-1.25 3.125-1.063 3.125-3.438 0-1.5-0.75-0.5-1.25-3.375-0.188-1.125-0.313-0.438-0.688-2.25-0.188-0.938 0.125-1 0.063-1.438s-0.125-0.875-0.188-1.813c-0.125-1.188 0.938-4.188 4.625-4.188s4.813 3.063 4.688 4.188c-0.063 0.938-0.125 1.375-0.188 1.813s0.313 0.5 0.125 1.438c-0.375 1.813-0.563 1.125-0.75 2.25-0.5 2.875-1.25 1.875-1.25 3.375 0 2-0.125 2.25 1.938 3 0.375 0.125 0.688 0.25 1.188 0.438 3.375 1.313 4.188 2.063 4.313 2.688 0.063 0.375 0.125 1.75 0.125 2.938v1.875z"></path>
</svg>
