<!-- Generated by IcoMoon.io -->
<svg version="1.1" xmlns="http://www.w3.org/2000/svg" width="32" height="32" viewBox="0 0 32 32">
<title>ion-load-b</title>
<path d="M16 10c0 1.125-0.875 2-2 2v0c-1.125 0-2-0.875-2-2v-6c0-1.125 0.875-2 2-2v0c1.125 0 2 0.875 2 2v6zM14 20v0c1.125 0 2 0.875 2 2v6c0 1.125-0.875 2-2 2s-2-0.875-2-2v-6c0-1.125 0.875-2 2-2zM26 14v0c1.125 0 2 0.875 2 2s-0.875 2-2 2h-6c-1.125 0-2-0.875-2-2s0.875-2 2-2h6zM8 14v0c1.125 0 2 0.875 2 2s-0.875 2-2 2h-6c-1.125 0-2-0.875-2-2s0.875-2 2-2h6zM19.625 13.188c-0.75 0.75-2.063 0.75-2.813 0v0c-0.75-0.75-0.75-2.125 0-2.875l4.25-4.188c0.75-0.75 2.063-0.75 2.813 0v0c0.75 0.75 0.75 2.063 0 2.813zM11.188 18.813v0c0.75 0.75 0.75 2.063 0 2.875l-4.25 4.188c-0.75 0.75-2.063 0.75-2.813 0s-0.75-2.063 0-2.813l4.188-4.25c0.75-0.75 2.125-0.75 2.875 0zM23.875 23.063v0c0.75 0.75 0.75 2.063 0 2.813s-2.063 0.75-2.813 0l-4.25-4.25c-0.75-0.75-0.75-2.063 0-2.813s2.063-0.75 2.813 0zM11.188 10.375v0c0.75 0.75 0.75 2.063 0 2.813s-2.125 0.75-2.875 0l-4.188-4.25c-0.75-0.75-0.75-2.063 0-2.813s2.063-0.75 2.813 0z"></path>
</svg>
