<!-- Generated by IcoMoon.io -->
<svg version="1.1" xmlns="http://www.w3.org/2000/svg" width="32" height="32" viewBox="0 0 32 32">
<title>ion-ios-game-controller-a-outline</title>
<path d="M10.188 15c0.188 0 0.313 0.125 0.313 0.313v1.375c0 0.188-0.125 0.313-0.313 0.313h-2.188v2.188c0 0.188-0.188 0.313-0.375 0.313h-1.313c-0.188 0-0.313-0.125-0.313-0.313v-2.188h-2.188c-0.188 0-0.313-0.188-0.313-0.375v-1.313c0-0.188 0.125-0.313 0.313-0.313h2.188v-2.188c0-0.188 0.125-0.313 0.313-0.313h1.375c0.188 0 0.313 0.125 0.313 0.313v2.188h2.188zM20.625 17.438c0.688 0 1.25 0.5 1.25 1.188s-0.563 1.188-1.25 1.188-1.188-0.5-1.188-1.188 0.5-1.188 1.188-1.188zM18 14.813c0.688 0 1.188 0.5 1.188 1.188s-0.5 1.188-1.188 1.188-1.25-0.5-1.25-1.188 0.563-1.188 1.25-1.188zM23.313 14.813c0.688 0 1.188 0.5 1.188 1.188s-0.5 1.188-1.188 1.188-1.25-0.5-1.25-1.188 0.563-1.188 1.25-1.188zM20.625 12.188c0.688 0 1.25 0.5 1.25 1.188s-0.563 1.25-1.25 1.25-1.188-0.563-1.188-1.25 0.5-1.188 1.188-1.188zM21.063 10.125h-14.125c-1.625 0-3.063 0.563-4.188 1.625s-1.75 2.563-1.75 4.188 0.625 3.188 1.75 4.25 2.563 1.688 4.188 1.688h14.125c1.625 0 3.063-0.625 4.188-1.688s1.75-2.625 1.75-4.25-0.625-3.125-1.75-4.188-2.563-1.625-4.188-1.625zM21.063 9.125v0c3.813 0 6.938 2.813 6.938 6.813s-3.125 6.938-6.938 6.938h-14.125c-3.813 0-6.938-2.938-6.938-6.938s3.125-6.813 6.938-6.813h14.125z"></path>
</svg>
