<!-- Generated by IcoMoon.io -->
<svg version="1.1" xmlns="http://www.w3.org/2000/svg" width="26" height="32" viewBox="0 0 26 32">
<title>ion-qr-scanner</title>
<path d="M3 7.75v4.25h-3v-4.25c0-2.063 1.75-3.75 3.813-3.75h4.188v3h-4.25c-0.438 0-0.75 0.313-0.75 0.75zM22.25 4c2.063 0 3.75 1.688 3.75 3.75v4.25h-3v-4.25c0-0.438-0.375-0.75-0.813-0.75h-4.188v-3h4.25zM23 24.188v-4.188h3v4.188c0 2.063-1.688 3.813-3.75 3.813h-4.25v-3.063h4.25c0.438 0 0.75-0.313 0.75-0.75zM3.75 24.938h4.25v3.063h-4.188c-2.063 0-3.813-1.75-3.813-3.813v-4.188h3v4.188c0 0.438 0.313 0.75 0.75 0.75z"></path>
</svg>
