<!-- Generated by IcoMoon.io -->
<svg version="1.1" xmlns="http://www.w3.org/2000/svg" width="32" height="32" viewBox="0 0 32 32">
<title>ion-map</title>
<path d="M27.563 8.563c0.25 0.188 0.438 0.5 0.438 0.875v17.563c0 0.375-0.125 0.688-0.438 0.875-0.125 0.063-0.313 0.125-0.438 0.125-0.188 0-0.375 0-0.5-0.125l-6.063-4.125-6.063 4.125c-0.313 0.188-0.625 0.188-0.938 0l-6.063-4.125-6.063 4.125c-0.313 0.188-0.625 0.188-0.938 0s-0.5-0.5-0.5-0.875v-17.563c0-0.375 0.188-0.688 0.438-0.875l6.563-4.438c0.313-0.188 0.625-0.188 0.938 0l6.063 4.125 6.125-4.125c0.313-0.188 0.625-0.188 0.938 0zM6.438 22.063v-15.125l-4.438 3.125v15.125zM8.438 22.063l4.563 3.063v-8.063l-0.25 0.688c-0.438-0.125-0.813-0.375-1.25-0.625l0.5-0.813c0.313 0.188 0.688 0.375 1 0.5v-6.813l-4.563-3.063v6.313c0.25 0.125 0.563 0.25 0.813 0.438l-0.625 0.813c-0.063-0.063-0.125-0.063-0.188-0.125v7.688zM15 25.125l4.563-3.063v-6.813c0 0.063-0.063 0.063-0.063 0.125l-0.375 0.375-0.75-0.688 0.375-0.375c0.188-0.188 0.313-0.438 0.5-0.625l0.313 0.313v-7.438l-4.563 3.063v7h0.438l0.188 0.938c-0.188 0-0.375 0.063-0.563 0.063h-0.063v7.125zM26 25.125v-15.125l-4.438-3.063v5.5c0.188-0.063 0.313-0.063 0.5-0.125l0.25 1c-0.25 0.063-0.5 0.063-0.75 0.188v8.563zM6.063 13.813c-0.188 0.063-0.688 0.313-0.875 0.438l-0.688-0.75c0.25-0.188 0.5-0.375 0.75-0.5 0.188-0.125 0.375-0.188 0.563-0.25l0.313 0.938c-0.125 0.063 0.063 0.063-0.063 0.125zM16.563 16.625c0.313-0.188 0.625-0.313 0.938-0.625l0.688 0.75c-0.375 0.375-0.75 0.625-1.188 0.813zM4.188 16v0.063l-0.938-0.313v-0.063c0.125-0.438 0.25-0.813 0.563-1.25l0.813 0.563c-0.25 0.313-0.313 0.625-0.438 1zM10.375 14.875c0.188 0.25 0.438 0.5 0.688 0.688l-0.688 0.75c-0.25-0.25-0.5-0.563-0.75-0.813l-0.188-0.188 0.75-0.688c0.063 0.063 0.125 0.188 0.188 0.25zM23.5 14.375l-0.688-0.75 0.625-0.625-0.625-0.625 0.688-0.75 0.625 0.688 0.688-0.688 0.688 0.75-0.625 0.625 0.625 0.625-0.688 0.75-0.688-0.688z"></path>
</svg>
