<!-- Generated by IcoMoon.io -->
<svg version="1.1" xmlns="http://www.w3.org/2000/svg" width="32" height="32" viewBox="0 0 32 32">
<title>ion-help-circled</title>
<path d="M14 2c7.75 0 14 6.25 14 14s-6.25 14-14 14-14-6.25-14-14 6.25-14 14-14zM15.25 22.438c0.063-1.125-0.75-1.938-1.813-1.938-1 0-1.875 0.688-1.875 1.813s0.75 1.875 1.75 1.875c1.063 0 1.938-0.625 1.938-1.75zM18.313 14.438c0.438-0.625 0.75-1.375 0.75-2.25 0-1.438-0.563-2.5-1.563-3.25-1.063-0.813-2.313-1.125-3.875-1.125-1.188 0-2.125 0.25-2.938 0.813-1.188 0.813-1.75 2.125-1.75 4.25h3.063c0-0.563-0.063-1.188 0.25-1.688s0.813-0.938 1.625-0.938 1.188 0.188 1.563 0.688c0.313 0.438 0.5 0.938 0.5 1.438 0 0.438-0.25 0.875-0.5 1.25-0.125 0.25-0.375 0.438-0.625 0.625 0 0-1.625 0.938-2.188 1.875-0.438 0.688-0.563 1.5-0.625 2.563 0 0.063 0 0.25 0.25 0.25h2.438s0.313-0.188 0.313-0.25c0-0.375 0.063-0.938 0.125-1.188 0.125-0.438 0.375-0.75 0.75-1.063l0.875-0.563c0.75-0.563 1.313-1.063 1.563-1.438z"></path>
</svg>
