<!-- Generated by IcoMoon.io -->
<svg version="1.1" xmlns="http://www.w3.org/2000/svg" width="12" height="32" viewBox="0 0 12 32">
<title>ion-key</title>
<path d="M9 18.813c1.75 1.063 3 3 3 5.188 0 3.313-2.688 6-6 6s-6-2.688-6-6c0-2.25 1.188-4.188 3-5.25 0 0 0.438-1 0.75-2.563 0-0.25 0.688-0.375 0.688-0.75v-1.25c0-0.313-0.438-0.563-0.438-0.688v-1c0-0.125 0-0.25 0.063-0.375 0-0.063 0.063-0.063 0.063-0.125l0.125-0.063 0.25-0.25v-0.063c0.125-0.125 0.188-0.25 0.188-0.375 0-0.063 0.063-0.5 0.063-0.563 0-0.188-0.125-0.375-0.25-0.5l-0.375-0.375c-0.125-0.125-0.188-0.313-0.188-0.5v-0.438c0-0.188 0.125-0.438 0.25-0.563v0l0.313-0.313c0.125-0.125 0.25-0.188 0.25-0.375v-1.5c0-0.188-0.125-0.375-0.25-0.5v-0.063l-0.313-0.313c-0.125-0.125-0.188-0.313-0.188-0.5v-1.125c0-0.688 0-1.188 0.563-1.438 0.188-0.063 0.875-0.188 1.438-0.188 1.25 0 1.875 0.5 2 2.25 0 0 0.438 5.063 0.563 8.938s0.438 5.625 0.438 5.625zM6 28c1.125 0 2-0.875 2-2s-0.875-2-2-2-2 0.875-2 2 0.875 2 2 2z"></path>
</svg>
