<!-- Generated by IcoMoon.io -->
<svg version="1.1" xmlns="http://www.w3.org/2000/svg" width="32" height="32" viewBox="0 0 32 32">
<title>ion-pricetag</title>
<path d="M27.438 16.313c0.75 0.75 0.75 1.938 0 2.688l-10.313 10.438c-0.688 0.688-1.875 0.688-2.625 0.063l-0.188-0.188-12.875-13.063-0.375-0.313c-0.375-0.438-0.563-0.938-0.625-1.5v0-0.125l-0.438-6.125v-0.25c0-0.75 0.25-1.5 0.813-2.063l3.063-3.063c0.5-0.563 1.25-0.813 1.938-0.813h0.25l6.25 0.25c0.75 0 1.375 0.25 1.875 0.75v0l0.125 0.125 13.125 13.188zM7 12c1.625 0 3-1.375 3-3s-1.375-3-3-3-3 1.375-3 3 1.375 3 3 3z"></path>
</svg>
