<!-- Generated by IcoMoon.io -->
<svg version="1.1" xmlns="http://www.w3.org/2000/svg" width="11" height="32" viewBox="0 0 11 32">
<title>ion-man</title>
<path d="M5.25 6.688c-1.313 0-2.313-1.063-2.313-2.375s1-2.313 2.313-2.313 2.313 1 2.313 2.313-1 2.375-2.313 2.375zM7.563 7.188c1.75 0 2.938 1.5 2.938 3v7.125c0 1.375-2 1.375-2 0v-6.563h-0.313v17.875c0 1.75-2.563 1.938-2.688 0v-10.313h-0.5v10.313c-0.063 1.813-2.688 1.875-2.688 0v-17.875h-0.375v6.563c0 1.375-1.938 1.375-1.938 0v-7.125c0-1.5 1.188-3 2.938-3h4.625z"></path>
</svg>
