<!-- Generated by IcoMoon.io -->
<svg version="1.1" xmlns="http://www.w3.org/2000/svg" width="24" height="32" viewBox="0 0 24 32">
<title>ion-social-instagram</title>
<path d="M7 16c0-3.313 1.688-5 5-5s5 1.688 5 5-1.688 5-5 5-5-1.688-5-5zM7.063 11.063c-0.875 0.875-1.438 1.813-1.75 2.938h-5.313v-7c0-0.813 0.25-1.563 0.875-2.125s1.375-0.875 2.188-0.875h18c0.813 0 1.5 0.313 2.063 0.875s0.875 1.313 0.875 2.125v7h-5.25c-0.313-1.125-0.875-2.063-1.75-2.938-1.375-1.375-3.063-2.063-5-2.063s-3.563 0.688-4.938 2.063zM22 9.25v-2.438c0-0.25-0.125-0.438-0.25-0.563s-0.313-0.25-0.563-0.25h-2.375c-0.25 0-0.438 0.125-0.563 0.25s-0.25 0.313-0.25 0.563v2.438c0 0.25 0.125 0.438 0.25 0.563s0.313 0.188 0.563 0.188h2.375c0.25 0 0.438-0.063 0.563-0.188s0.25-0.313 0.25-0.563zM17 20.938c1.375-1.375 2-3 2-4.938h5v9c0 0.813-0.313 1.5-0.875 2.125s-1.25 0.875-2.063 0.875h-18c-0.813 0-1.5-0.25-2.125-0.875s-0.938-1.313-0.938-2.125v-9h5.063c0 1.938 0.625 3.563 2 4.938s3 2.063 4.938 2.063 3.625-0.688 5-2.063z"></path>
</svg>
