<!-- Generated by IcoMoon.io -->
<svg version="1.1" xmlns="http://www.w3.org/2000/svg" width="32" height="32" viewBox="0 0 32 32">
<title>ion-card</title>
<path d="M26.25 6c1 0 1.75 0.75 1.75 1.75v0 16.5c0 1-0.75 1.75-1.75 1.75h-24.5c-1 0-1.75-0.75-1.75-1.75v0 0-16.5c0-1 0.75-1.75 1.75-1.75h24.5zM2.813 8c-0.438 0-0.75 0.313-0.813 0.75v1.25h24v-1.25c-0.063-0.438-0.375-0.75-0.813-0.75h-22.375zM25.188 24c0.438 0 0.75-0.313 0.813-0.75v-7.25h-24v7.25c0.063 0.438 0.375 0.75 0.813 0.75h22.375zM4 20v-1h12v1h-12zM4 22v-1h6v1h-6zM20 22v-3h4v3h-4z"></path>
</svg>
