<!-- Generated by IcoMoon.io -->
<svg version="1.1" xmlns="http://www.w3.org/2000/svg" width="32" height="32" viewBox="0 0 32 32">
<title>ion-clock</title>
<path d="M14 2c7.75 0 14 6.25 14 14s-6.25 14-14 14-14-6.25-14-14 6.25-14 14-14zM22.5 24.5c0.625-0.625 1.188-1.313 1.625-2.063l-1.688-1 0.5-0.875 1.688 1c0.813-1.563 1.313-3.25 1.375-5.063h-2v-1h2c-0.063-1.813-0.563-3.5-1.375-5.063l-1.688 1-0.5-0.875 1.688-1c-0.438-0.75-1-1.438-1.625-2.063s-1.313-1.188-2.063-1.625l-1 1.688-0.875-0.5 1-1.688c-1.563-0.813-3.25-1.313-5.063-1.375v2h-1v-2c-1.813 0.063-3.5 0.563-5.063 1.375l1 1.688-0.875 0.5-1-1.688c-0.75 0.438-1.438 1-2.063 1.625s-1.188 1.313-1.625 2.063l1.688 1-0.5 0.875-1.688-1c-0.813 1.563-1.313 3.25-1.375 5.063h2v1h-2c0.063 1.813 0.563 3.5 1.375 5.063l1.688-1 0.5 0.875-1.688 1c0.438 0.75 1 1.438 1.625 2.063s1.313 1.188 2.063 1.625l1-1.688 0.875 0.5-1 1.688c1.563 0.813 3.25 1.313 5.063 1.375v-2h1v2c1.813-0.063 3.5-0.563 5.063-1.375l-1-1.688 0.875-0.5 1 1.688c0.75-0.438 1.438-1 2.063-1.625zM23 15.063v2h-7.313c-0.375 0.563-1 0.938-1.688 0.938-1.125 0-2-0.875-2-2 0-0.75 0.375-1.375 1-1.75v-4.25h2v4.25c0.313 0.188 0.563 0.5 0.75 0.813h7.25z"></path>
</svg>
