<!-- Generated by IcoMoon.io -->
<svg version="1.1" xmlns="http://www.w3.org/2000/svg" width="30" height="32" viewBox="0 0 30 32">
<title>ion-social-twitter-outline</title>
<path d="M29.5 6.875c-0.813 1.25-1.813 2.25-3 3.125v0.75c0 8-6.125 17.25-17.25 17.25-3.438 0-6.563-1-9.25-2.75 0.5 0.063 0.938 0.125 1.438 0.125 2.813 0 5.438-1 7.5-2.625-2.625-0.063-4.875-1.813-5.625-4.188 0.375 0.063 0.75 0.125 1.125 0.125 0.563 0 1.125-0.125 1.625-0.25-2.75-0.563-4.875-3-4.875-5.938v-0.063c0.813 0.438 1.75 0.75 2.75 0.75-1.625-1.063-2.688-2.938-2.688-5.063 0-1.125 0.313-2.125 0.813-3 3 3.688 7.438 6.063 12.438 6.313-0.125-0.438-0.125-0.875-0.125-1.375 0-3.375 2.688-6.063 6.063-6.063 1.75 0 3.25 0.75 4.375 1.938 1.375-0.25 2.688-0.813 3.875-1.5-0.438 1.438-1.438 2.625-2.688 3.375 1.25-0.125 2.438-0.438 3.5-0.938zM25.875 9.188c0.188-0.125 0.5-0.375 0.688-0.5-0.125 0-0.688 0.125-1.188 0.063s-1.313-0.313-1.313-0.313 0.875-0.813 1.125-1.063l0.688-0.688c-0.25 0.063-0.625 0.125-0.875 0.188l-0.5 0.125-0.375-0.375c-0.938-1-2.313-1.625-3.688-1.625-2.813 0-5.063 2.313-5.063 5.063 0 0.375 0.063 0.75 0.125 1.125l0.313 1.313-1.375-0.063c-2.625-0.125-5.063-0.813-7.375-2-1.75-0.875-3.313-2.125-4.688-3.5-0.063 0.375-0.125 0.813-0.125 1.188 0 1.688 0.875 3.313 2.25 4.25 0 0 2.063 1.438 2.875 1.813-1.5 0.125-3.5 0-3.5 0-0.5 0-1-0.063-1.5-0.188 0.5 1.75 2 3.125 3.875 3.5l3.813 0.625-3.813 1.313c-0.438 0.125-0.875 0.188-1.313 0.188 0.938 1.25 2.375 2.125 4 2.125l2.813 0.063-2.188 1.75c-1.125 0.875-2.375 1.563-3.75 2.063-0.625 0.188-1.188 0.375-1.813 0.5 1.688 0.563 3.438 0.875 5.25 0.875 2.5 0 4.875-0.5 7-1.5 1.938-0.875 3.625-2.125 5.063-3.75 1.375-1.5 2.375-3.313 3.125-5.25 0.688-1.875 1.063-3.875 1.063-5.75v-0.75l-0.063-0.5z"></path>
</svg>
