<!-- Generated by IcoMoon.io -->
<svg version="1.1" xmlns="http://www.w3.org/2000/svg" width="18" height="32" viewBox="0 0 18 32">
<title>ion-document</title>
<path d="M17.938 10.563c0.063 0.188 0.063 0.313 0.063 0.563v15.25c0 0.813-0.563 1.625-1.313 1.625h-15.188c-0.75 0-1.5-0.813-1.5-1.625v-20.938c0-0.813 0.75-1.438 1.5-1.438h10c0.188 0 0.375 0 0.563 0.125 0.125 0.063 0.313 0.125 0.438 0.25l5.188 5.75c0.125 0.125 0.188 0.25 0.25 0.438zM12.063 6.938v3.938h3.625zM2 26h14v-13.125h-4.188c-0.938 0-1.75-0.813-1.75-1.75v-5.125h-8.063v20z"></path>
</svg>
