<!-- Generated by IcoMoon.io -->
<svg version="1.1" xmlns="http://www.w3.org/2000/svg" width="24" height="32" viewBox="0 0 24 32">
<title>ion-android-car</title>
<path d="M21.188 7.313l2.813 7.375v10c0 0.75-0.563 1.313-1.313 1.313h-1.375c-0.75 0-1.313-0.563-1.313-1.313v-0.688h-16v0.688c0 0.75-0.563 1.313-1.313 1.313h-1.375c-0.75 0-1.313-0.563-1.313-1.313v-10l2.813-7.375c0.25-0.813 1-1.313 1.875-1.313h14.625c0.875 0 1.625 0.5 1.875 1.313zM4.688 20c1.125 0 2-0.875 2-2s-0.875-2-2-2-2 0.875-2 2 0.875 2 2 2zM19.313 20c1.125 0 2-0.875 2-2s-0.875-2-2-2-2 0.875-2 2 0.875 2 2 2zM2.688 13.313h18.625l-2-5.313h-14.625z"></path>
</svg>
