<!-- Generated by IcoMoon.io -->
<svg version="1.1" xmlns="http://www.w3.org/2000/svg" width="24" height="32" viewBox="0 0 24 32">
<title>ion-scissors</title>
<path d="M21.313 7.25c-0.813 2.063-7.313 10.75-7.313 10.75l-2 2s-1.938 0.813-3.125 2.688-2.063 4.438-2.063 4.438v0c-0.438 1.625-1.75 2.875-3.313 2.875-1.938 0-3.5-1.813-3.5-4s1.563-4 3.5-4c0.813 0 1.563 0.313 2.125 0.813 0.125 0.063 0.188 0.188 0.25 0.25v0l0.125 0.125c0.25 0.25 0.438 0.125 0.875-0.688 0.5-0.938 1.063-2.188 1.688-3.375s2.375-3.688 2.375-3.688l1.063-1.438 9-12c1.438 1.25 1.125 3.188 0.313 5.25zM3.5 28c0.938 0 1.75-0.875 1.75-2s-0.813-2-1.75-2-1.75 0.875-1.75 2 0.813 2 1.75 2zM12 18c0.563 0 1-0.438 1-1s-0.438-1-1-1-1 0.438-1 1 0.438 1 1 1zM8.938 16.563c-1.875-2.563-5.625-7.813-6.25-9.313-0.813-2.063-1.125-4 0.313-5.25l8.375 11.125-0.188 0.25-1.063 1.438v0.063c-0.063 0.063-0.625 0.813-1.188 1.688zM20.5 22c1.938 0 3.5 1.813 3.5 4s-1.563 4-3.5 4c-1.563 0-2.938-1.25-3.375-2.875v0s-0.813-2.563-2-4.438c-0.688-1.063-1.625-1.75-2.25-2.188l1.875-1.875h0.063c0.063-0.063 0.063-0.125 0.125-0.25 0.188 0.25 0.313 0.563 0.438 0.75 0.625 1.188 1.25 2.438 1.75 3.375 0.438 0.813 0.625 0.938 0.875 0.688 0.063-0.063 0-0.063 0.063-0.125h0.063c0.063-0.063 0.125-0.188 0.25-0.25 0.563-0.5 1.313-0.813 2.125-0.813zM20.5 28c0.938 0 1.75-0.875 1.75-2s-0.813-2-1.75-2-1.75 0.875-1.75 2 0.813 2 1.75 2z"></path>
</svg>
