<!-- Generated by IcoMoon.io -->
<svg version="1.1" xmlns="http://www.w3.org/2000/svg" width="12" height="32" viewBox="0 0 12 32">
<title>ion-ios-arrow-thin-down</title>
<path d="M11.875 20.125c0.125 0.125 0.125 0.25 0.125 0.375s0 0.25-0.125 0.375c0 0-5.438 4.938-5.5 5s-0.188 0.125-0.375 0.125-0.313-0.063-0.375-0.125-5.5-5-5.5-5c-0.188-0.188-0.188-0.563 0-0.75s0.563-0.188 0.75 0l4.625 4.188v-17.813c0-0.25 0.25-0.5 0.5-0.5s0.5 0.25 0.5 0.5v17.813l4.625-4.188c0.188-0.188 0.563-0.188 0.75 0z"></path>
</svg>
