<!-- Generated by IcoMoon.io -->
<svg version="1.1" xmlns="http://www.w3.org/2000/svg" width="24" height="32" viewBox="0 0 24 32">
<title>ion-ios-reverse-camera-outline</title>
<path d="M14.875 19.938l0.125-0.125 0.688 0.75-0.125 0.125c-1 0.875-2.25 1.313-3.563 1.313-2.813 0-5.125-2.25-5.438-4.875h-1.875l2.375-3.125 2.438 3.125h-1.938c0.313 2.063 2.188 3.875 4.438 3.875 1.063 0 2.063-0.375 2.875-1.063zM15.75 12.438c1 0.875 1.563 2.313 1.688 3.563h1.875l-2.375 3.188-2.438-3.188h1.938c-0.313-2.188-2.188-4-4.438-4-1.063 0-2.063 0.375-2.875 1.063l-0.125 0.125-0.688-0.75 0.125-0.125c1-0.875 2.25-1.313 3.563-1.313 1.375 0 2.75 0.5 3.75 1.438zM22.125 10c1.125 0 1.875 0.875 1.875 1.938v11c0 1.063-0.75 2.063-1.875 2.063h-20c-1.125 0-2.125-1-2.125-2.063v-11c0-1.063 1-1.938 2.125-1.938h0.813v-1h2.125v1h0.813c2-2.25 2.688-3 3.438-3h5.5c0.75 0 1.438 0.75 3.438 3h3.875zM23 22.938v-11c0-0.563-0.313-0.938-0.875-0.938h-4.25s-0.25-0.063-0.375-0.188-0.375-0.5-0.563-0.688c-0.75-0.813-1.313-1.5-1.688-1.875-0.313-0.313-0.438-0.25-0.438-0.25h-5.5s-0.063 0-0.375 0.25c-0.375 0.313-0.938 0.875-1.625 1.688-0.188 0.25-0.5 0.688-0.688 0.875s-0.25 0.188-0.375 0.188h-4.125c-0.563 0-1.125 0.438-1.125 0.938v11c0 0.563 0.563 1.063 1.125 1.063h20c0.5 0 0.875-0.5 0.875-1.063z"></path>
</svg>
