<!-- Generated by IcoMoon.io -->
<svg version="1.1" xmlns="http://www.w3.org/2000/svg" width="24" height="32" viewBox="0 0 24 32">
<title>ion-android-search</title>
<path d="M17.125 19.063l6.875 6.875-2.063 2.063-6.813-6.875v-1.063l-0.438-0.375c-1.563 1.313-3.625 2.125-5.813 2.125-4.938 0-8.875-3.938-8.875-8.875s3.938-8.938 8.813-8.938c4.938 0 8.875 4 8.875 8.938 0 2.25-0.813 4.25-2.125 5.813l0.438 0.313h1.125zM8.875 19.063c3.438 0 6.188-2.688 6.188-6.125s-2.75-6.188-6.188-6.188-6.125 2.75-6.125 6.188 2.688 6.125 6.125 6.125z"></path>
</svg>
