<!-- Generated by IcoMoon.io -->
<svg version="1.1" xmlns="http://www.w3.org/2000/svg" width="24" height="32" viewBox="0 0 24 32">
<title>ion-android-contact</title>
<path d="M16.688 21.125c3.688 1.125 6.5 3.625 7.313 6.875h-24c0.813-3.25 3.625-5.75 7.313-6.875 1.375 0.813 3 1.25 4.688 1.25s3.313-0.438 4.688-1.25zM12 4c4.563 0 8.25 3.688 8.25 8.25s-3.688 8.25-8.25 8.25-8.25-3.688-8.25-8.25 3.688-8.25 8.25-8.25zM12 18.438c2.625 0 4.875-1.625 5.75-3.938h-11.5c0.875 2.313 3.125 3.938 5.75 3.938z"></path>
</svg>
