<!-- Generated by IcoMoon.io -->
<svg version="1.1" xmlns="http://www.w3.org/2000/svg" width="26" height="32" viewBox="0 0 26 32">
<title>ion-leaf</title>
<path d="M25.75 23.688c1.125 0.188 0.625 2.563-0.313 2.438 0 0-1.313 0.063-3.938-0.75 0 0-1 1.188-2.438 1.875-1.625 0.75-7.375 2.063-12.313-2.375-6.75-6.063-7.5-22.125-6.25-20.813 5.375 5.625 12.313 2.938 16.875 6.625 3.438 2.75 5.5 7.938 4.813 12 0 0 0.313 0.5 3.563 1zM19.75 23.938c0.313-0.313 0.625-1 0.625-1.5-10.063-3.25-15.75-10-15.75-10s6.5 8.938 15.125 11.5z"></path>
</svg>
