<!-- Generated by IcoMoon.io -->
<svg version="1.1" xmlns="http://www.w3.org/2000/svg" width="32" height="32" viewBox="0 0 32 32">
<title>ion-ios-analytics</title>
<path d="M14 2c7.75 0 14 6.25 14 14 0 0.813-0.063 1.563-0.188 2.313-0.063 0.375-0.125 0.75-0.188 1.063-1.5 6.125-7.063 10.625-13.625 10.625-7.625 0-13.813-6.125-14-13.688v-0.313c0-0.563 0.063-1.063 0.125-1.625 0.813-6.938 6.688-12.375 13.875-12.375zM26.938 17.5c0.063-0.5 0.063-1 0.063-1.5 0-1.75-0.313-3.438-1-5.063-0.625-1.563-1.625-2.938-2.813-4.125s-2.563-2.188-4.125-2.813c-1.625-0.688-3.313-1-5.063-1s-3.438 0.313-5.063 1c-1.563 0.625-2.938 1.625-4.125 2.813s-2.188 2.563-2.813 4.125c-0.688 1.625-1 3.313-1 5.063v0c0.875 1.313 1.813 2.125 1.813 2.125h0.063v0.063c0.063 0.063 0.938 1 2.25 0.813 0.75-0.125 1.688-1.625 2.375-2.625 0.25-0.375 0.563-0.75 0.75-1 1.063-1.313 2.125-1.438 2.813-1.313 1.5 0.188 2.813 1.688 3.375 3.125 0.438 1.125 1.125 1.75 2 1.813 0.938 0.063 1.938-0.563 2.688-1.813 0.063-0.125 0.188-0.25 0.25-0.438 0.563-1.063 1.5-2.75 3.25-2.75 1.938 0 3.25 2.188 3.313 2.25 0.188 0.25 0.563 0.75 1 1.25z"></path>
</svg>
