<!-- Generated by IcoMoon.io -->
<svg version="1.1" xmlns="http://www.w3.org/2000/svg" width="24" height="32" viewBox="0 0 24 32">
<title>ion-android-clipboard</title>
<path d="M21.313 5c1.438 0 2.688 1.25 2.688 2.688v19.625c0 1.438-1.25 2.688-2.688 2.688h-18.625c-1.438 0-2.688-1.25-2.688-2.688v-19.625c0-1.438 1.25-2.688 2.688-2.688h5.438c0.438-1.75 2-3 3.875-3s3.438 1.25 3.875 3h5.438zM12 5c-0.75 0-1.313 0.563-1.313 1.313s0.563 1.375 1.313 1.375 1.313-0.625 1.313-1.375-0.563-1.313-1.313-1.313zM21.5 27.5v-20h-2.5v4.5h-14v-4.5h-2.5v20h19z"></path>
</svg>
