<!-- Generated by IcoMoon.io -->
<svg version="1.1" xmlns="http://www.w3.org/2000/svg" width="24" height="32" viewBox="0 0 24 32">
<title>ion-search</title>
<path d="M23.813 24.188c0.25 0.25 0.25 0.625 0 0.875l-2.688 2.75c-0.125 0.125-0.313 0.188-0.5 0.188s-0.313-0.063-0.438-0.188l-5.25-5.375c-1.563 0.938-3.25 1.438-5 1.438-5.438 0-9.938-4.438-9.938-9.938s4.5-9.938 9.938-9.938 9.875 4.438 9.875 9.938c0 1.688-0.438 3.375-1.313 4.875zM9.938 7.875c-3.313 0-6.063 2.688-6.063 6.063s2.75 6.063 6.063 6.063 6-2.688 6-6.063-2.688-6.063-6-6.063z"></path>
</svg>
