<!-- Generated by IcoMoon.io -->
<svg version="1.1" xmlns="http://www.w3.org/2000/svg" width="22" height="32" viewBox="0 0 22 32">
<title>ion-ios-telephone-outline</title>
<path d="M21 21c1 1 1.625 2.188 0 4.125-1.563 1.875-2.625 1.875-4 1.875-1.5 0-3.625-0.875-5.813-2.5-2-1.438-2.875-2.125-4.875-4.188-2.125-2.188-3.438-4-4.938-6.688-1.688-3.125-1.5-4.625-1.125-5.75 0.25-0.75 0.875-1.5 1.75-2.063l0.063-0.063c0.375-0.25 1.125-0.75 2-0.75 0.813 0 1.5 0.375 2.125 1.125l0.063 0.063c0.688 0.875 1.5 1.938 2 2.938 0.625 1.313 0.625 2.375-0.063 3.313-0.563 0.75-0.75 1.188-0.75 1.438s0.313 0.563 0.813 1.125l0.063 0.063c1 1.125 1.25 1.438 1.625 1.813 0.063 0.063 0.188 0.125 0.25 0.188l0.125 0.125c0.438 0.438 0.688 0.75 1.813 1.75l0.063 0.063c0.438 0.375 0.563 0.5 0.75 0.5 0.313 0 1-0.438 1.813-0.938 0.25-0.188 0.688-0.313 1.063-0.313 1.688 0 4.25 1.813 5.188 2.75zM20.25 24.438c1.188-1.375 0.813-1.938 0.063-2.688-0.813-0.875-3.125-2.438-4.5-2.438-0.188 0-0.375 0.063-0.5 0.125-1.188 0.75-1.75 1.125-2.313 1.125s-0.938-0.375-1.438-0.813h-0.063c-1.188-1-1.438-1.313-1.875-1.813l-0.125-0.125c-0.063-0.063-0.188-0.125-0.25-0.188-0.375-0.375-0.688-0.75-1.688-1.875v-0.063c-0.625-0.688-1.063-1.125-1.125-1.75s0.313-1.25 1-2.125c0.938-1.25-0.313-3-1.938-4.938l-0.063-0.063c-0.438-0.5-0.875-0.75-1.375-0.75-0.625 0-1.125 0.375-1.438 0.563-0.063 0-0.125 0.063-0.125 0.063-0.688 0.438-1.125 1-1.313 1.5-0.313 1-0.438 2.188 1.063 4.938 1.438 2.625 2.688 4.375 4.75 6.5 1.938 2 2.813 2.625 4.75 4 2 1.438 4 2.375 5.25 2.375 1.313 0 2-0.063 3.25-1.563z"></path>
</svg>
