<!-- Generated by IcoMoon.io -->
<svg version="1.1" xmlns="http://www.w3.org/2000/svg" width="26" height="32" viewBox="0 0 26 32">
<title>ion-android-happy</title>
<path d="M13 3c7.125 0 13 5.875 13 13s-5.813 13-13 13-13-5.875-13-13 5.813-13 13-13zM13 26.375c5.75 0 10.375-4.625 10.375-10.375s-4.625-10.375-10.375-10.375-10.375 4.625-10.375 10.375 4.625 10.375 10.375 10.375zM17.563 14.688c-1.125 0-1.938-0.813-1.938-1.938s0.813-1.938 1.938-1.938 1.938 0.813 1.938 1.938-0.813 1.938-1.938 1.938zM8.438 14.688c-1.125 0-1.938-0.813-1.938-1.938s0.813-1.938 1.938-1.938 1.938 0.813 1.938 1.938-0.813 1.938-1.938 1.938zM13 23.125c-3.063 0-5.563-1.813-6.625-4.5h13.25c-1.063 2.688-3.563 4.5-6.625 4.5z"></path>
</svg>
