<!-- Generated by IcoMoon.io -->
<svg version="1.1" xmlns="http://www.w3.org/2000/svg" width="32" height="32" viewBox="0 0 32 32">
<title>ion-eye-disabled</title>
<path d="M21.5 9.875c2.563 1.688 4.75 4.125 6.5 6.25-3.188 3.375-7.75 8.438-14 8.438-2.25 0-4.063-0.5-5.75-1.375l-4.813 4.813-1.438-1.438 4.438-4.438c-2.25-1.563-4.25-3.813-6.438-6.125 4.875-5.313 8.875-8.563 14-8.563 2.125 0 4 0.563 5.75 1.438l4.813-4.875 1.438 1.438zM8.375 16c0 1.188 0.375 2.25 1 3.188l1.688-1.688c-0.25-0.438-0.313-0.938-0.313-1.5 0-1.813 1.438-3.313 3.25-3.313h0.5c-0.313 0.375-0.5 0.813-0.5 1.313 0 0.188 0 0.313 0.063 0.5l3.188-3.125c-0.938-0.688-2.063-1.063-3.25-1.063-3.063 0-5.625 2.563-5.625 5.688zM14 21.688c3.063 0 5.625-2.563 5.625-5.688 0-1.188-0.375-2.313-1-3.25l-3.125 3.188c0.188 0.063 0.313 0.063 0.5 0.063 0.5 0 0.875-0.188 1.25-0.438v0.438c0 1.813-1.438 3.313-3.25 3.313-0.563 0-1.063-0.125-1.5-0.375l-1.75 1.688c0.938 0.688 2.063 1.063 3.25 1.063z"></path>
</svg>
