<!-- Generated by IcoMoon.io -->
<svg version="1.1" xmlns="http://www.w3.org/2000/svg" width="32" height="32" viewBox="0 0 32 32">
<title>ion-radio-waves</title>
<path d="M10 16c0-2.688 1.313-4 4-4s4 1.313 4 4-1.313 4-4 4-4-1.313-4-4zM7 16c0 1.125 0.313 2.188 0.813 3.125s1.188 1.75 2.063 2.313l-1.438 1.563c-0.375-0.313-0.813-0.625-1.125-1-1.563-1.625-2.313-3.688-2.313-6s0.75-4.375 2.313-6c0.313-0.375 0.75-0.688 1.125-1l1.438 1.563c-0.875 0.563-1.563 1.375-2.063 2.313s-0.813 2-0.813 3.125zM21 16c0-1.125-0.313-2.188-0.813-3.125s-1.188-1.75-2.063-2.313l1.438-1.563c0.375 0.313 0.813 0.625 1.125 1 1.563 1.625 2.313 3.688 2.313 6s-0.75 4.375-2.313 6c-0.313 0.375-0.75 0.688-1.125 1l-1.438-1.563c0.875-0.563 1.563-1.375 2.063-2.313s0.813-2 0.813-3.125zM2 16c0 1.688 0.375 3.313 1.063 4.813s1.688 2.688 2.938 3.688l-1.438 1.5c-0.375-0.313-0.75-0.625-1.063-1-1.125-1.188-1.938-2.563-2.563-4.063-0.625-1.563-0.938-3.188-0.938-4.938s0.313-3.375 0.938-4.938c0.625-1.5 1.438-2.875 2.563-4.063 0.313-0.375 0.688-0.688 1.063-1l1.438 1.5c-0.625 0.5-1.125 1.063-1.625 1.688s-0.875 1.313-1.25 2-0.625 1.5-0.813 2.313-0.313 1.625-0.313 2.5zM26 16c0-1.688-0.375-3.313-1.063-4.813s-1.688-2.688-2.938-3.688l1.438-1.5c0.375 0.313 0.75 0.625 1.063 1 1.125 1.188 1.938 2.563 2.563 4.063 0.625 1.563 0.938 3.188 0.938 4.938s-0.313 3.375-0.938 4.938c-0.625 1.5-1.438 2.875-2.563 4.063-0.25 0.313-0.625 0.625-1.063 1l-1.438-1.5c1.25-1 2.25-2.188 2.938-3.688s1.063-3.125 1.063-4.813z"></path>
</svg>
