<!-- Generated by IcoMoon.io -->
<svg version="1.1" xmlns="http://www.w3.org/2000/svg" width="24" height="32" viewBox="0 0 24 32">
<title>ion-social-dropbox-outline</title>
<path d="M7.063 4.813l4.938 4.125-7.125 4.438-4.875-3.938zM1.688 9.563l3.25 2.625 5.375-3.313-3.313-2.875zM19.125 13.313l4.875 3.938-4.875 3.188v2.438l-7.125 4.313-7.125-4.25v-2.438l-4.875-3.25 4.875-3.938 7.125 4.438-4.938 4.125-1.188-0.75v1.25l6.125 3.688 6.125-3.688v-1.25l-1.188 0.75-4.938-4.125zM4.938 14.438l-3.25 2.75 5.313 3.438 3.313-2.75zM13.688 17.875l3.313 2.75 5.313-3.5-3.25-2.688zM24 9.438l-4.875 3.938-7.125-4.438 4.938-4.125zM13.688 8.938l5.375 3.25 3.25-2.625-5.313-3.5z"></path>
</svg>
