<!-- Generated by IcoMoon.io -->
<svg version="1.1" xmlns="http://www.w3.org/2000/svg" width="32" height="32" viewBox="0 0 32 32">
<title>ion-android-sunny</title>
<path d="M14 10c-1.563 0-3.125 0.625-4.25 1.75s-1.75 2.688-1.75 4.25 0.625 3.125 1.75 4.25 2.688 1.75 4.25 1.75 3.125-0.625 4.25-1.75 1.75-2.688 1.75-4.25-0.625-3.125-1.75-4.25-2.688-1.75-4.25-1.75zM15.313 2v0 4h-2.625v-4h2.625zM23.375 4.75v0l1.875 1.875-2.375 2.375-1.875-1.875zM4.625 4.75v0l2.375 2.375-1.875 1.875-2.375-2.375zM14 8v0c4.375 0 8 3.625 8 8s-3.625 8-8 8-8-3.625-8-8 3.625-8 8-8zM28 14.688v0 2.625h-4v-2.625h4zM4 14.688v0 2.625h-4v-2.625h4zM22.875 23v0l2.375 2.375-1.875 1.875-2.375-2.375zM5.125 23v0l1.875 1.875-2.375 2.375-1.875-1.875zM15.313 26v0 4h-2.625v-4h2.625z"></path>
</svg>
