<!-- Generated by IcoMoon.io -->
<svg version="1.1" xmlns="http://www.w3.org/2000/svg" width="24" height="32" viewBox="0 0 24 32">
<title>ion-close</title>
<path d="M23.75 24.188c0.188 0.188 0.25 0.375 0.25 0.625s-0.063 0.438-0.25 0.625l-2.375 2.313c-0.188 0.188-0.313 0.25-0.563 0.25s-0.438-0.063-0.625-0.25l-8.188-8.188-8.188 8.188c-0.188 0.188-0.313 0.25-0.563 0.25s-0.438-0.063-0.625-0.25l-2.375-2.313c-0.188-0.188-0.25-0.375-0.25-0.625s0.063-0.438 0.25-0.625l8.25-8.188-8.25-8.125c-0.313-0.313-0.313-0.938 0-1.25l2.313-2.375c0.188-0.125 0.375-0.25 0.625-0.25s0.438 0.063 0.625 0.25l8.188 8.125 8.188-8.125c0.188-0.125 0.375-0.25 0.625-0.25s0.438 0.063 0.625 0.25l2.313 2.375c0.313 0.313 0.313 0.875 0 1.188l-8.25 8.125z"></path>
</svg>
