<!-- Generated by IcoMoon.io -->
<svg version="1.1" xmlns="http://www.w3.org/2000/svg" width="24" height="32" viewBox="0 0 24 32">
<title>ion-ios-cloudy-night-outline</title>
<path d="M7.813 14c-2.125 0-3.938 1.75-3.938 3.875v0.75s0.063 0.625 0.063 0.625c-0.313 0-0.75 0.063-0.875 0.063-1.188 0.188-2.063 1.125-2.063 2.313 0 0.625 0.188 1.188 0.625 1.625s1 0.688 1.625 0.688h9.813c1.688 0 3.063-1.375 3.063-3.063s-1.375-3.125-3.063-3.125c-0.125 0-0.25 0.063-0.375 0.063l-0.875 0.125-0.188-0.875c-0.188-0.875-0.688-1.625-1.375-2.188s-1.563-0.875-2.438-0.875zM7.813 13v0c2.313 0 4.25 1.625 4.75 3.813h0.5c2.25 0 4.063 1.813 4.063 4.063s-1.813 4.125-4.063 4.125h-9.813c-1.75 0-3.25-1.5-3.25-3.313 0-1.688 1.313-3.188 2.938-3.313v-0.5c0-2.688 2.188-4.875 4.875-4.875zM22.563 19.125c0.5 0 0.938-0.125 1.438-0.25-0.25 0.438-0.563 0.875-0.875 1.25-1.313 1.5-3.125 2.563-5.25 2.813 0.25-0.375 0.375-0.75 0.5-1.188 1.188-0.25 2.25-0.813 3.125-1.563-1.125-0.063-2.188-0.375-3.125-0.813-1.438-0.688-2.625-1.813-3.5-3.188-0.875-1.313-1.375-3-1.375-4.688 0-0.938 0.125-1.875 0.438-2.75-1.5 0.75-2.688 2.063-3.313 3.688-0.313-0.125-0.75-0.25-1.125-0.313 0.875-2.25 2.813-4.063 5.125-4.813 0.5-0.125 1-0.25 1.5-0.313-0.313 0.375-0.563 0.813-0.75 1.25-0.5 1-0.75 2.125-0.75 3.25 0 2 0.75 3.938 2.188 5.375s3.375 2.25 5.375 2.25h0.375z"></path>
</svg>
