<!-- Generated by IcoMoon.io -->
<svg version="1.1" xmlns="http://www.w3.org/2000/svg" width="26" height="32" viewBox="0 0 26 32">
<title>ion-ios-help-outline</title>
<path d="M13 3c7.188 0 13 5.813 13 13s-5.813 13-13 13-13-5.813-13-13 5.813-13 13-13zM13 27.938c6.563 0 11.938-5.375 11.938-11.938s-5.375-11.938-11.938-11.938-11.938 5.375-11.938 11.938 5.375 11.938 11.938 11.938zM13.25 9.125c2.063 0 3.75 1.313 3.75 3.438 0 1.375-0.688 2.25-1.625 3.125-1.438 1.438-1.375 1.688-1.438 3.313h-1.188c0.063-1.75 0.438-2.688 1.875-4 0.688-0.625 1.188-1.438 1.188-2.375 0-1.5-1.188-2.5-2.625-2.5-2 0-3.063 1-3 2.875h-1.188c0-2.625 1.563-3.875 4.25-3.875zM13.25 20.75c0.563 0 1.063 0.5 1.063 1.063s-0.5 1.063-1.063 1.063-1.063-0.5-1.063-1.063 0.5-1.063 1.063-1.063z"></path>
</svg>
