<!-- Generated by IcoMoon.io -->
<svg version="1.1" xmlns="http://www.w3.org/2000/svg" width="24" height="32" viewBox="0 0 24 32">
<title>ion-ios-cloudy-night</title>
<path d="M22.563 19.125c0.5 0 0.938-0.125 1.438-0.25-0.25 0.438-0.563 0.938-0.875 1.313-1.313 1.5-3.125 2.5-5.25 2.75h-0.188c0.25-0.625 0.438-1.313 0.438-2 0-1.375-0.563-2.688-1.5-3.625-0.875-0.938-2.063-1.438-3.313-1.5-0.375-1-1-1.813-1.813-2.5-0.625-0.5-1.25-0.813-2-1.063v-0.125c0.875-2.25 2.813-4.063 5.125-4.813 0.5-0.125 1-0.25 1.5-0.313-0.313 0.375-0.563 0.813-0.75 1.25-0.5 1-0.75 2.125-0.75 3.25 0 2 0.75 3.938 2.188 5.375s3.375 2.25 5.375 2.25h0.375zM7.813 13.063v0c2.313 0 4.25 1.625 4.75 3.813h0.5c2.25 0 4.063 1.813 4.063 4.063s-1.813 4.125-4.063 4.125h-9.813c-1.75 0-3.25-1.5-3.25-3.313 0-1.688 1.313-3.188 2.938-3.313v-0.438c0-2.688 2.188-4.938 4.875-4.938z"></path>
</svg>
