<!-- Generated by IcoMoon.io -->
<svg version="1.1" xmlns="http://www.w3.org/2000/svg" width="32" height="32" viewBox="0 0 32 32">
<title>ion-android-people</title>
<path d="M19.063 14.5c-2.125 0-3.813-1.688-3.813-3.75s1.688-3.75 3.813-3.75 3.875 1.688 3.875 3.75-1.75 3.75-3.875 3.75zM8.938 14.5c-2.125 0-3.875-1.688-3.875-3.75s1.75-3.75 3.875-3.75 3.813 1.688 3.813 3.75-1.688 3.75-3.813 3.75zM8.938 17.25c3 0 9.063 1.438 9.063 4.375v3.375h-18v-3.375c0-2.938 5.938-4.375 8.938-4.375zM19.063 17.938c3 0 8.938 0.75 8.938 3.688v3.375h-8v-3.375c0-1.875-0.563-2.563-2-3.625 0.438-0.063 0.688-0.063 1.063-0.063z"></path>
</svg>
