<!-- Generated by IcoMoon.io -->
<svg version="1.1" xmlns="http://www.w3.org/2000/svg" width="24" height="32" viewBox="0 0 24 32">
<title>ion-ios-cog-outline</title>
<path d="M24 17.063l-2.063 0.5-0.188 0.875 1.688 1.25-0.75 1.875-2.125-0.313-0.5 0.688 1.063 1.813-1.438 1.438-1.813-1.063-0.625 0.438 0.313 2.125-1.813 0.75-1.313-1.688-0.875 0.188-0.5 2.063h-2l-0.563-2.063-0.813-0.188-1.313 1.75-1.813-0.75 0.25-2.125-0.688-0.5-1.875 1.188-1.438-1.438 1.125-1.938-0.438-0.688-2.188 0.313-0.75-1.813 1.75-1.375-0.125-0.75-2.188-0.563v-2l2.188-0.563 0.125-0.75-1.813-1.375 0.75-1.875 2.25 0.313 0.438-0.625-1.188-2 1.375-1.375 2 1.188 0.688-0.5-0.25-2.188 1.813-0.813 1.375 1.813 0.75-0.125 0.563-2.188h2l0.563 2.188 0.75 0.125 1.375-1.75 1.813 0.75-0.313 2.188 0.688 0.5 1.875-1.125 1.375 1.438-1.063 1.875 0.438 0.625 2.188-0.313 0.75 1.875-1.75 1.313 0.188 0.813 2.063 0.563v2zM22.25 20.063l-1.625-1.25 0.375-2.063 2-0.5v-0.438l-2-0.5-0.375-2.063 1.625-1.188-0.188-0.438-2 0.313-1.188-1.688 1.063-1.75-0.313-0.375-1.75 1.063-1.75-1.125 0.313-2.125-0.375-0.125-1.25 1.625-2-0.375-0.5-2.063h-0.438l-0.563 2.063-2 0.375-1.25-1.688-0.438 0.188 0.313 2.125-1.75 1.125-0.563-0.375-1.313-0.75-0.313 0.313 1.125 1.875-1.125 1.688-2.063-0.313-0.188 0.438 1.688 1.25-0.375 2-2.063 0.5v0.438l2.063 0.563 0.375 2-1.688 1.25 0.188 0.375 2.063-0.25 1.125 1.688-1.063 1.813 0.313 0.375 1.813-1.125 1.75 1.125-0.313 2.063 0.438 0.188 1.188-1.688 2.063 0.438 0.5 1.938h0.5l0.438-1.938 2.063-0.438 1.25 1.625 0.438-0.188-0.313-2 1.625-1.125 1.75 1 0.313-0.313-1-1.688 1.188-1.75 2 0.25zM12 8c4.438 0 8 3.563 8 8s-3.563 8-8 8-8-3.563-8-8 3.563-8 8-8zM5 16c0 0.438 0.063 0.938 0.125 1.375l6.5-1.75 1.75-6.5c-0.438-0.063-0.938-0.125-1.375-0.125-1.875 0-3.625 0.75-4.938 2.063s-2.063 3.063-2.063 4.938zM12 23c1.688 0 3.313-0.625 4.563-1.688l-4.688-4.688-6.5 1.75c0.375 0.938 0.938 1.813 1.688 2.563 1.313 1.313 3.063 2.063 4.938 2.063zM17.25 20.625c1.125-1.25 1.75-2.938 1.75-4.625 0-1.875-0.75-3.625-2.063-4.938-0.75-0.75-1.625-1.375-2.625-1.688l-1.75 6.563z"></path>
</svg>
