<!-- Generated by IcoMoon.io -->
<svg version="1.1" xmlns="http://www.w3.org/2000/svg" width="20" height="32" viewBox="0 0 20 32">
<title>ion-social-euro</title>
<path d="M8.625 17h7.75l-0.438 3h-7.313v0.813c0 2.75 0.938 3.938 4.938 3.938 1.625 0 3.5-0.188 5.813-0.563l0.625 4.063c-2.375 0.563-4.438 0.75-6.625 0.75-7.188 0-10.25-2.563-10.25-7.313v-1.688h-3.125v-3h3.125v-3h-3.125v-3h3.125v-0.688c0-4.75 3.063-7.313 10.25-7.313 2.188 0 4.25 0.188 6.625 0.75l-0.625 4.063c-2.313-0.375-4.188-0.563-5.813-0.563-4 0-4.938 1.375-4.938 3.625v0.125h8.625l-0.438 3h-8.188v3z"></path>
</svg>
