<!-- Generated by IcoMoon.io -->
<svg version="1.1" xmlns="http://www.w3.org/2000/svg" width="26" height="32" viewBox="0 0 26 32">
<title>ion-ios-baseball-outline</title>
<path d="M25.938 17.438v0.063c-0.688 6.063-5.625 10.875-11.688 11.438v0h-0.125c-0.125 0-0.188 0.063-0.313 0.063h-0.813c-7.188 0-13-5.813-13-13v-0.813c0-0.125 0.063-0.188 0.063-0.313v-0.125c0.563-6.063 5.375-11 11.438-11.688v0 0c0.5-0.063 1-0.063 1.5-0.063 7.188 0 13 5.813 13 13 0 0.438 0 0.875-0.063 1.25v0 0.188zM24.938 16c0-6.563-5.375-11.938-11.938-11.938-0.188 0-0.313 0.063-0.5 0.063 0 0.688 0.125 1.313 0.25 1.938l1.25-0.375 0.313 0.938-1.313 0.438c0.125 0.438 0.25 0.875 0.438 1.313 0.125 0.313 0.313 0.688 0.5 1l1.063-0.75 0.563 0.813-1.188 0.813c0.438 0.75 1 1.438 1.625 2.063l0.875-0.938 0.75 0.75-0.938 0.938c0.688 0.625 1.375 1.125 2.125 1.563l0.75-1.125 0.875 0.563-0.75 1.063c0.313 0.125 0.625 0.313 0.938 0.438 0.438 0.188 0.875 0.313 1.375 0.438l0.438-1.25 0.938 0.313-0.375 1.188c0.625 0.125 1.25 0.25 1.875 0.25 0-0.188 0.063-0.313 0.063-0.5zM1.063 16c0 6.563 5.375 11.938 11.938 11.938h0.25c-0.063-0.563-0.063-1.063-0.188-1.625l-1.375 0.438-0.313-1 1.438-0.438c-0.125-0.5-0.313-1-0.5-1.5-0.125-0.313-0.25-0.563-0.375-0.875l-1.25 0.813-0.563-0.813 1.313-0.875c-0.438-0.75-1-1.5-1.625-2.188l-1.063 1.063-0.688-0.688 1.063-1.063c-0.625-0.625-1.375-1.125-2.125-1.563l-0.875 1.313-0.875-0.563 0.875-1.25c-0.313-0.125-0.625-0.313-0.938-0.438-0.438-0.188-0.938-0.375-1.438-0.5l-0.5 1.5-0.938-0.313 0.438-1.438c-0.563-0.125-1.125-0.125-1.688-0.188v0.25zM14.25 27.875c5.5-0.563 9.875-4.875 10.563-10.375-0.688-0.063-1.438-0.188-2.125-0.313l-0.563 1.688-0.938-0.313 0.5-1.563c-0.875-0.25-1.75-0.625-2.563-1.063l-0.938 1.438-0.813-0.563 0.875-1.313c-0.813-0.5-1.625-1.063-2.313-1.75l-1.188 1.188-0.688-0.688 1.188-1.188c-0.625-0.688-1.188-1.438-1.688-2.25l-1.313 0.875-0.563-0.813 1.375-0.938c-0.438-0.813-0.75-1.688-1-2.563l-1.563 0.5-0.313-1 1.625-0.5c-0.125-0.75-0.25-1.438-0.313-2.188-5.5 0.688-9.813 5.063-10.375 10.563 0.625 0.063 1.313 0.125 1.938 0.25l0.5-1.438 0.938 0.313-0.438 1.375c0.875 0.25 1.75 0.563 2.625 1l0.813-1.188 0.875 0.563-0.813 1.125c0.813 0.5 1.563 1.063 2.25 1.75l1.063-1.063 0.688 0.688-1.063 1.063c0.688 0.75 1.25 1.5 1.75 2.313l1.188-0.813 0.563 0.875-1.25 0.813c0.438 0.875 0.75 1.75 1 2.625l1.438-0.438 0.313 0.938-1.5 0.5c0.125 0.625 0.188 1.25 0.25 1.875z"></path>
</svg>
