<!-- Generated by IcoMoon.io -->
<svg version="1.1" xmlns="http://www.w3.org/2000/svg" width="32" height="32" viewBox="0 0 32 32">
<title>ion-outlet</title>
<path d="M21.125 2c3.813 0 6.875 3.188 6.875 7.063v13.875c0 3.875-3.063 7.063-6.875 7.063h-14.25c-3.813 0-6.875-3.188-6.875-7.063v-13.875c0-3.875 3.063-7.063 6.875-7.063h14.25zM8.938 15.688v-6.375c0-0.688-0.563-1.313-1.25-1.313h-1.438c-0.688 0-1.188 0.563-1.25 1.25v6.5c0 0.688 0.563 1.25 1.25 1.25h1.438c0.688 0 1.25-0.563 1.25-1.25v-0.063zM16.563 24.75v-1.813c0-1.438-1.125-2.625-2.563-2.625s-2.563 1.188-2.563 2.625v1.813c0 0.688 0.563 1.25 1.25 1.25h2.625c0.688 0 1.25-0.438 1.25-1.125v-0.125zM23 15.688v-6.375c0-0.688-0.563-1.313-1.25-1.313h-1.5c-0.688 0-1.188 0.563-1.25 1.25v6.5c0 0.688 0.563 1.25 1.25 1.25h1.5c0.688 0 1.25-0.563 1.25-1.25v-0.063z"></path>
</svg>
