<!-- Generated by IcoMoon.io -->
<svg version="1.1" xmlns="http://www.w3.org/2000/svg" width="32" height="32" viewBox="0 0 32 32">
<title>ion-volume-mute</title>
<path d="M14 13.563l2.938-3.188v11.25l-2.938-3.188h-4.063v-4.875h4.063zM20.75 3.75c4.313 2.375 7.25 7 7.25 12.25 0 7.75-6.25 14-14 14-2.438 0-4.75-0.625-6.75-1.688l-0.063-0.063c-4.313-2.375-7.188-7-7.188-12.25 0-7.75 6.25-14 14-14 2.438 0 4.688 0.625 6.688 1.75h0.063zM22.625 22.188c1.25-1.75 2.063-3.875 2.063-6.188 0-4.125-2.375-7.688-5.75-9.438-0.375-0.188-0.688-0.375-1.063-0.5-1.188-0.438-2.5-0.688-3.875-0.688-2.313 0-4.438 0.75-6.188 2l4.563 4.625h-4.75l-2.25-2.188c-1.25 1.75-2 3.875-2 6.188 0 4.063 2.25 7.563 5.625 9.375 0.375 0.188 0.813 0.438 1.188 0.563 1.188 0.438 2.438 0.688 3.813 0.688 2.313 0 4.5-0.75 6.25-2l-1.25-1.25v-4.813z"></path>
</svg>
