<!-- Generated by IcoMoon.io -->
<svg version="1.1" xmlns="http://www.w3.org/2000/svg" width="18" height="32" viewBox="0 0 18 32">
<title>ion-ios-mic-off</title>
<path d="M16.625 30l-16.125-27.5 0.875-0.5 16.125 27.5zM8 22.063c-2.75 0-4.938-2.313-4.938-5.188v-7.375l7.063 12.063c-0.625 0.313-1.375 0.5-2.125 0.5zM12.938 16.875c0 0.625-0.125 1.188-0.313 1.75l-8.5-14.625c0.875-1.25 2.313-2 3.875-2 2.75 0 4.938 2.375 4.938 5.25v9.625zM16 17c0 1.75-0.563 3.375-1.5 4.688l-0.625-1.063c0.688-1.063 1.063-2.25 1.063-3.625v-5h1.063v5zM8.688 24.938v0 3.938h4.313v1.125h-10.063v-1.125h4.563v-3.938c-4.188-0.313-7.5-3.75-7.5-7.938v-5h1.188v5c0 3.75 3.125 6.813 6.875 6.813 1.063 0 2.125-0.25 3-0.688l0.563 1c-0.875 0.438-1.875 0.75-2.938 0.813z"></path>
</svg>
