<!-- Generated by IcoMoon.io -->
<svg version="1.1" xmlns="http://www.w3.org/2000/svg" width="32" height="32" viewBox="0 0 32 32">
<title>ion-ios-pulse</title>
<path d="M26 18c1.125 0 2 0.875 2 2s-0.875 2-2 2c-0.938 0-1.688-0.625-1.938-1.438h-4.063c-0.188 0-0.438-0.125-0.5-0.313l-1.438-4.5-3.563 12.375c-0.063 0.188-0.25 0.375-0.5 0.375v0c-0.25 0-0.438-0.188-0.5-0.438l-3.625-21.625-3.375 13.75c-0.063 0.25-0.25 0.375-0.5 0.375h-6v-1h5.625l3.875-15.688c0.063-0.25 0.25-0.375 0.5-0.375s0.438 0.188 0.5 0.438l3.625 21.813 3.375-11.875c0.063-0.188 0.25-0.313 0.5-0.313s0.438 0.125 0.5 0.313l1.875 5.688h3.688c0.188-0.875 1-1.563 1.938-1.563z"></path>
</svg>
