<!-- Generated by IcoMoon.io -->
<svg version="1.1" xmlns="http://www.w3.org/2000/svg" width="16" height="32" viewBox="0 0 16 32">
<title>ion-usb</title>
<path d="M1 13.75v0 0zM16 8c0 0.688-0.375 1.313-0.875 1.688v0c-0.125 0.063-0.188 0.313-0.188 0.438-0.063 1.25-0.188 2.25-0.563 3.125-0.438 1.188-1.25 2.063-2.438 2.875-1.063 0.75-1.813 1.313-2.25 2.125-0.438 0.75-0.688 1.75-0.688 3.313v1.5c0 0.438 0.125 0.813 0.625 1.125 0.25 0.125 0.438 0.375 0.625 0.563 0.5 0.563 0.875 1.313 0.875 2.125 0 1.75-1.375 3.125-3.125 3.125s-3.125-1.375-3.125-3.125v-0.063c0-1.125 0.625-2.063 1.5-2.625 0.313-0.25 0.563-0.313 0.563-1.125v0c0-0.875-0.188-1.063-0.625-1.688s-1.125-1.063-2-1.625c-1.188-0.813-2.063-1.688-2.5-2.875-0.375-0.938-0.5-1.938-0.563-2.438s-0.125-0.563-0.25-0.688c-0.625-0.375-1-1-1-1.75 0-1.125 0.875-2 2-2s2 0.875 2 2c0 0.625-0.25 1.25-0.75 1.625-0.188 0.125-0.25 0.688-0.25 0.875v0 0c0 0.563 0.188 1.125 0.438 1.75 0.625 1.313 2.813 2.75 3.25 2.75s0.5-0.313 0.5-0.75v-12.25s-0.063-0.125-0.188-0.25h-0.063v-0.063c-0.563-0.375-0.938-1-0.938-1.688 0-1.125 0.875-2 2-2s2 0.875 2 2c0 0.688-0.313 1.313-0.875 1.688v0c-0.125 0.125-0.125 0.188-0.125 0.313v8.75c0 0.625 0.125 0.75 0.5 0.688 0.813-0.188 3-1.875 3.25-2.688 0.188-0.625 0.375-1.438 0.438-2.563v-0.063c0-0.125-0.125-0.25-0.188-0.375-0.625-0.375-1-1-1-1.75 0-1.125 0.875-2 2-2s2 0.875 2 2zM2 13c0.563 0 1-0.438 1-1s-0.438-1-1-1-1 0.438-1 1 0.438 1 1 1zM8 5c0.563 0 1-0.438 1-1s-0.438-1-1-1-1 0.438-1 1 0.438 1 1 1zM14 9c0.563 0 1-0.438 1-1s-0.438-1-1-1-1 0.438-1 1 0.438 1 1 1z"></path>
</svg>
