<!-- Generated by IcoMoon.io -->
<svg version="1.1" xmlns="http://www.w3.org/2000/svg" width="24" height="32" viewBox="0 0 24 32">
<title>ion-ios-cog</title>
<path d="M14.313 9.375c1 0.313 1.875 0.938 2.625 1.688 1.313 1.313 2.063 3.063 2.063 4.938 0 1.688-0.625 3.375-1.75 4.625l-4.688-4.688zM13.375 9.125l-1.75 6.5-6.5 1.75c-0.063-0.438-0.125-0.938-0.125-1.375 0-1.875 0.75-3.625 2.063-4.938s3.063-2.063 4.938-2.063c0.438 0 0.938 0.063 1.375 0.125zM5.375 18.375l6.5-1.75 4.688 4.688c-1.25 1.063-2.875 1.688-4.563 1.688-1.875 0-3.625-0.75-4.938-2.063-0.75-0.75-1.313-1.625-1.688-2.563zM24 17.063l-2.063 0.5-0.188 0.875 1.688 1.25-0.75 1.875-2.125-0.313-0.5 0.688 1.063 1.813-1.438 1.438-1.813-1.063-0.625 0.438 0.313 2.125-1.813 0.75-1.313-1.688-0.875 0.188-0.5 2.063h-2l-0.563-2.063-0.813-0.188-1.313 1.75-1.813-0.75 0.25-2.125-0.688-0.5-1.875 1.188-1.438-1.438 1.125-1.938-0.438-0.688-2.188 0.313-0.75-1.813 1.75-1.375-0.125-0.75-2.188-0.563v-2l2.188-0.563 0.125-0.75-1.813-1.375 0.75-1.875 2.25 0.313 0.438-0.625-1.188-2 1.375-1.375 2 1.188 0.688-0.5-0.25-2.188 1.813-0.813 1.375 1.813 0.75-0.125 0.563-2.188h2l0.563 2.188 0.75 0.125 1.375-1.75 1.813 0.75-0.313 2.188 0.688 0.5 1.875-1.125 1.375 1.438-1.063 1.875 0.438 0.625 2.188-0.313 0.75 1.875-1.75 1.313 0.188 0.813 2.063 0.563v2zM12 24c4.438 0 8-3.563 8-8s-3.563-8-8-8-8 3.563-8 8 3.563 8 8 8z"></path>
</svg>
