<!-- Generated by IcoMoon.io -->
<svg version="1.1" xmlns="http://www.w3.org/2000/svg" width="24" height="32" viewBox="0 0 24 32">
<title>ion-ios-camera-outline</title>
<path d="M22.125 10c1.125 0 1.875 0.813 1.875 1.938v11c0 1.125-0.75 2.063-1.875 2.063h-20c-1.125 0-2.125-0.938-2.125-2.063v-11c0-1.125 1-1.938 2.125-1.938h0.813v-1h2.125v1h0.813c2-2.25 2.688-3 3.438-3h5.5c0.75 0 1.438 0.75 3.438 3h3.875zM23 22.938v-11c0-0.563-0.313-0.938-0.875-0.938h-4.313l-0.313-0.188c-0.188-0.25-0.438-0.5-0.625-0.688-0.75-0.813-1.25-1.5-1.625-1.875-0.313-0.313-0.438-0.25-0.438-0.25h-5.5s-0.125 0-0.438 0.25c-0.375 0.313-0.875 0.875-1.563 1.688-0.188 0.25-0.438 0.625-0.688 0.875l-0.313 0.188h-4.188c-0.563 0-1.125 0.438-1.125 0.938v11c0 0.563 0.563 1.063 1.125 1.063h20c0.5 0 0.875-0.5 0.875-1.063zM12 11.875c2.938 0 5.375 2.375 5.375 5.313s-2.438 5.313-5.375 5.313-5.375-2.375-5.375-5.313 2.438-5.313 5.375-5.313zM12 21.5c2.375 0 4.375-1.938 4.375-4.313s-2-4.313-4.375-4.313-4.375 1.938-4.375 4.313 2 4.313 4.375 4.313zM18 13.063v-1.063h1.063v1.063h-1.063zM10 17.188c0-1.313 0.688-2 2-2s2 0.688 2 2-0.688 2-2 2-2-0.688-2-2z"></path>
</svg>
