<!-- Generated by IcoMoon.io -->
<svg version="1.1" xmlns="http://www.w3.org/2000/svg" width="32" height="32" viewBox="0 0 32 32">
<title>ion-ios-loop-strong</title>
<path d="M16 3c7.188 0 13 5.813 13 13 0 0.875-0.063 1.75-0.25 2.625l-0.063 0.25-1.5-0.313 0.063-0.25c0.125-0.75 0.25-1.5 0.25-2.313 0-6.313-5.188-11.5-11.5-11.5-4.125 0-7.938 2.25-10 5.875l-0.125 0.188-1.313-0.688 0.125-0.25c2.313-4.063 6.625-6.625 11.313-6.625zM26 21.625l0.125-0.188 1.313 0.688-0.125 0.25c-2.313 4.063-6.625 6.625-11.313 6.625-7.188 0-13-5.813-13-13 0-0.875 0.063-1.75 0.25-2.625l0.063-0.25 1.5 0.313-0.063 0.25c-0.125 0.75-0.25 1.5-0.25 2.313 0 6.313 5.188 11.5 11.5 11.5 4.125 0 7.938-2.25 10-5.875zM24 16h8l-4 4zM0 16l4-4 4 4h-8z"></path>
</svg>
