<!-- Generated by IcoMoon.io -->
<svg version="1.1" xmlns="http://www.w3.org/2000/svg" width="18" height="32" viewBox="0 0 18 32">
<title>ion-ios-trash-outline</title>
<path d="M18 7.063v0.938h-1.25l-1.5 18.188c0 1-0.813 1.813-1.813 1.813h-8.813c-1 0-1.813-0.813-1.813-1.813l-1.5-18.188h-1.313v-0.938h5v-1.25c0-1 0.813-1.813 1.813-1.813h4.375c1 0 1.813 0.813 1.813 1.813v1.25h5zM5.938 5.813v1.25h6.125v-1.25c0-0.5-0.375-0.875-0.875-0.875h-4.375c-0.5 0-0.875 0.375-0.875 0.875zM14.375 26.125l1.438-18.125h-13.563l1.438 18.125v0.063c0 0.5 0.438 0.875 0.938 0.875h8.813c0.5 0 0.938-0.375 0.938-0.875v-0.063zM8.563 25.063v-15.063h0.875v15.063h-0.875zM13 10l-0.688 15.063h-0.875l0.625-15.063h0.938zM5.875 10l0.688 15.063h-0.875l-0.688-15.063h0.875z"></path>
</svg>
