<!-- Generated by IcoMoon.io -->
<svg version="1.1" xmlns="http://www.w3.org/2000/svg" width="32" height="32" viewBox="0 0 32 32">
<title>ion-social-pinterest</title>
<path d="M14 2c7.75 0 14 6.25 14 14s-6.25 14-14 14c-1.375 0-2.75-0.188-4-0.563 0.5-0.875 1.125-1.938 1.438-3 0.188-0.625 1-3.875 1-3.875 0.5 0.938 1.875 1.75 3.375 1.75 4.5 0 7.563-4.063 7.563-9.563 0-4.125-3.5-8.063-8.875-8.063-6.625 0-10 4.75-10 8.75 0 2.438 0.938 4.563 2.875 5.375 0.313 0.125 0.625 0 0.75-0.375 0.063-0.25 0.188-0.875 0.25-1.125 0.125-0.375 0.063-0.438-0.188-0.75-0.563-0.688-0.938-1.5-0.938-2.75 0-3.563 2.625-6.688 6.875-6.688 3.75 0 5.875 2.25 5.875 5.313 0 4.063-1.813 7.438-4.438 7.438-1.5 0-2.625-1.188-2.25-2.688 0.438-1.75 1.25-3.688 1.25-4.938 0-1.125-0.625-2.125-1.875-2.125-1.5 0-2.688 1.563-2.688 3.625 0 1.313 0.438 2.25 0.438 2.25s-1.563 6.5-1.813 7.625c-0.25 1.063-0.313 2.188-0.25 3.188-4.938-2.188-8.375-7.063-8.375-12.813 0-7.75 6.25-14 14-14z"></path>
</svg>
