<!-- Generated by IcoMoon.io -->
<svg version="1.1" xmlns="http://www.w3.org/2000/svg" width="20" height="32" viewBox="0 0 20 32">
<title>ion-fork-repo</title>
<path d="M20 5v4h-3v3h-4v-3h-3v-4h3v-3h4v3h3zM13 15h4v0.313c0 2.688-0.438 4.375-2.375 5.938-1.438 1.188-3.188 1.25-4.688 1.375-0.563 0.063-1.125 0.125-1.625 0.188-0.375 0.063-0.813 0.313-1.25 0.625 0.563 0.688 0.938 1.563 0.938 2.563 0 2.188-1.813 4-4 4s-4-1.813-4-4c0-1.5 0.813-2.75 2-3.438v-13.125c-1.188-0.688-2-1.938-2-3.438 0-2.188 1.813-4 4-4s4 1.813 4 4c0 1.5-0.813 2.75-2 3.438v10c0.5-0.25 1.125-0.438 1.688-0.563 0.688-0.125 1.313-0.125 1.938-0.188 1.063-0.063 2.063-0.188 2.5-0.563 0.625-0.5 0.875-0.688 0.875-3.125zM4 4c-1.125 0-2 0.875-2 2s0.875 2 2 2 2-0.875 2-2-0.875-2-2-2zM4 28c1.125 0 2-0.875 2-2s-0.875-2-2-2-2 0.875-2 2 0.875 2 2 2z"></path>
</svg>
