<!-- Generated by IcoMoon.io -->
<svg version="1.1" xmlns="http://www.w3.org/2000/svg" width="26" height="32" viewBox="0 0 26 32">
<title>ion-android-favorite-outline</title>
<path d="M18.875 4c4 0 7.125 3.125 7.125 7.188 0 5-4.438 9-11.125 15.125l-1.875 1.688-1.875-1.688c-6.688-6.125-11.125-10.125-11.125-15.125 0-4.063 3.125-7.188 7.125-7.188 2.25 0 4.438 1.063 5.875 2.75 1.438-1.688 3.625-2.75 5.875-2.75zM13.813 24.563c3.125-2.875 5.875-5.375 7.688-7.625 1.75-2.188 2.5-3.938 2.5-5.75 0-1.438-0.563-2.75-1.5-3.688s-2.188-1.5-3.625-1.5c-1.625 0-3.313 0.813-4.375 2.063l-1.5 1.813-1.5-1.813c-1.063-1.25-2.75-2.063-4.375-2.063-1.438 0-2.688 0.563-3.625 1.5s-1.5 2.25-1.5 3.688c0 1.813 0.75 3.563 2.5 5.75 1.813 2.25 4.563 4.75 7.688 7.625l0.25 0.25 0.563 0.5 0.563-0.5z"></path>
</svg>
