<!-- Generated by IcoMoon.io -->
<svg version="1.1" xmlns="http://www.w3.org/2000/svg" width="20" height="32" viewBox="0 0 20 32">
<title>ion-hammer</title>
<path d="M19.625 2c0.188 0 0.375 0.188 0.375 0.375v5.25c0 0.188-0.188 0.375-0.375 0.375h-3.25c-0.188 0-0.375-0.188-0.375-0.375v-0.875c-0.375-0.313-1-0.563-1.375-0.438-0.438 0.125-1.438 0.813-1.875 1.563s-0.375 1.75-0.375 4.125l0.5 0.125c0.313 0.063 0.438 0.375 0.438 0.563v4.375c0 5.938 0.688 12.563 0.688 12.563 0 0.188-0.188 0.375-0.375 0.375h-5.25c-0.188 0-0.375-0.188-0.375-0.375 0 0 0.688-6.625 0.688-12.563v-4.375c0-0.188 0.188-0.5 0.438-0.563l0.438-0.125c0-2.688-0.313-3.625-1.375-4.625-1.125-1-2.563-1.188-3.938-1.063s-3.188 2.188-3.625 2.813-0.625-0.125-0.625-0.688c0.063-1 1.375-3.75 4.5-5.063s5.688-1.375 6.375-1.375 1.688 0.063 2.375 0.188 1 1.125 1.625 1.125c0.438 0 0.875-0.313 1.125-0.563v-0.375c0-0.188 0.188-0.375 0.375-0.375h3.25z"></path>
</svg>
