<!-- Generated by IcoMoon.io -->
<svg version="1.1" xmlns="http://www.w3.org/2000/svg" width="30" height="32" viewBox="0 0 30 32">
<title>ion-social-snapchat</title>
<path d="M30 22.5c0 0.125 0 0.688-0.375 1.313-0.313 0.5-1 1.188-2.375 1.5-0.375 0.063-0.688 0.188-0.938 0.25-0.125 0.063-0.313 0.063-0.438 0.063v0.063c-0.063 0.438-0.063 0.813-0.25 1.125-0.125 0.313-0.563 0.75-1.375 0.75-0.125 0-0.375 0-0.563-0.063-0.125 0-0.188-0.063-0.313-0.063-0.438-0.063-0.938-0.125-1.438-0.125-0.625 0-1.188 0.125-1.625 0.375-0.25 0.188-0.563 0.438-0.875 0.625-1.125 0.813-2.375 1.688-4.438 1.688s-3.313-0.875-4.438-1.688c-0.313-0.188-0.563-0.438-0.875-0.625-0.438-0.25-0.938-0.375-1.563-0.375-0.5 0-1.063 0.063-1.5 0.125-0.125 0-0.188 0.063-0.313 0.063-0.188 0.063-0.438 0.063-0.563 0.063-0.813 0-1.25-0.438-1.375-0.75-0.188-0.313-0.188-0.688-0.25-1.125v-0.063c-0.125 0-0.25 0-0.375-0.063-0.25-0.063-0.625-0.188-1-0.25-1.375-0.313-2.063-1-2.375-1.5-0.375-0.625-0.375-1.125-0.375-1.25v-0.938l0.938-0.063c1-0.063 2.75-0.438 3.375-1.063 1.813-1.688 2.25-2.688 2.25-3.25 0-0.063 0-0.125-0.25-0.313-0.313-0.188-0.813-0.375-1.25-0.5-0.313-0.125-0.625-0.188-0.875-0.313-0.563-0.25-1.125-1-1.063-1.813 0.063-0.938 0.875-1.688 1.875-1.688 0.25 0 0.5 0 0.75 0.125 0.5 0.188 0.813 0.25 1.063 0.313-0.063-0.563-0.125-1.188-0.188-1.875-0.313-2.375 0.313-4.625 1.813-6.375 1.563-1.813 4-2.813 6.563-2.813v0c2.563 0 5 1 6.563 2.813 1.5 1.75 2.125 3.938 1.813 6.313-0.063 0.688-0.125 1.375-0.188 1.938 0.25-0.063 0.625-0.125 1.125-0.313 0.25-0.063 0.5-0.125 0.75-0.125 1 0 1.813 0.75 1.875 1.688 0.063 0.813-0.563 1.563-1.125 1.813-0.25 0.125-0.563 0.188-0.875 0.313-0.438 0.125-0.875 0.313-1.188 0.5-0.25 0.188-0.313 0.25-0.313 0.313 0 1 1.25 2.313 2.25 3.25 0.688 0.625 2.438 1 3.375 1.063l0.938 0.063v0.875zM12 8c-0.563 0-1 0.688-1 1.5s0.438 1.5 1 1.5 1-0.688 1-1.5-0.438-1.5-1-1.5zM18.5 12.875c0.188-0.188 0.188-0.563 0-0.75s-0.563-0.188-0.75 0c-0.75 0.75-1.75 1.188-2.75 1.188-1.063 0-2-0.438-2.75-1.188-0.188-0.188-0.563-0.188-0.75 0s-0.188 0.563 0 0.75c0.938 0.938 2.188 1.438 3.5 1.438s2.563-0.5 3.5-1.438zM18 11c0.563 0 1-0.688 1-1.5s-0.438-1.5-1-1.5-1 0.688-1 1.5 0.438 1.5 1 1.5z"></path>
</svg>
