<!-- Generated by IcoMoon.io -->
<svg version="1.1" xmlns="http://www.w3.org/2000/svg" width="24" height="32" viewBox="0 0 24 32">
<title>ion-ios-stopwatch</title>
<path d="M20.875 9.188c2 2.188 3.125 5 3.125 8 0 6.5-5.375 11.813-12 11.813s-12-5.313-12-11.813c0-3 1.125-5.875 3.188-8.063l0.063-0.063h-1.125l-0.5 0.5-1.438-1.438 2.563-2.5 1.438 1.375-0.563 0.563v1.125c1.938-1.875 4.5-3.125 7.25-3.313h0.125v-2.375h2v2.375c2.688 0.25 5.125 1.313 7.063 3.063l0.313 0.313v-1.188l-0.563-0.563 1.438-1.375 2.563 2.5-1.375 1.438-0.563-0.5h-1.125zM12.5 19.875c0.875-0.25 1.5-0.938 1.5-1.875 0-0.875-0.625-1.688-1.5-1.938v-8.063h-1v8.063c-0.75 0.25-1.5 1.063-1.5 1.938 0 0.938 0.625 1.625 1.5 1.875l0.5 1.125z"></path>
</svg>
