<!-- Generated by IcoMoon.io -->
<svg version="1.1" xmlns="http://www.w3.org/2000/svg" width="32" height="32" viewBox="0 0 32 32">
<title>ion-ios-flower-outline</title>
<path d="M22.688 17.75c-1.813 0-4.063-0.438-5.813-0.875-0.063 0.188-0.125 0.375-0.25 0.563 1.563 0.938 3.5 2.25 4.75 3.5 2.5 2.5 3.313 4.25 2.563 5-0.188 0.188-0.438 0.25-0.75 0.25-0.938 0-2.375-0.938-4.25-2.813-1.25-1.25-2.563-3.188-3.5-4.75-0.188 0.125-0.438 0.188-0.625 0.25 0.438 1.75 0.938 4 0.938 5.813 0 3.5-0.75 5.313-1.75 5.313s-1.75-1.813-1.75-5.313c0-1.813 0.5-4.063 0.938-5.813-0.188-0.063-0.438-0.125-0.625-0.25-0.938 1.563-2.25 3.5-3.5 4.75-1.875 1.875-3.313 2.813-4.25 2.813-0.313 0-0.563-0.063-0.75-0.25-0.75-0.75 0.063-2.5 2.563-5 1.25-1.25 3.188-2.563 4.75-3.5-0.125-0.188-0.188-0.375-0.25-0.563-1.75 0.438-4 0.875-5.813 0.875-3.5 0-5.313-0.75-5.313-1.75s1.813-1.75 5.313-1.75c1.813 0 4.063 0.5 5.813 0.938 0.063-0.188 0.125-0.438 0.25-0.625-1.563-0.938-3.5-2.188-4.75-3.438-2.5-2.5-3.313-4.25-2.563-5 0.188-0.188 0.438-0.25 0.75-0.25 0.938 0 2.375 0.875 4.25 2.75 1.25 1.25 2.563 3.188 3.5 4.75 0.188-0.125 0.438-0.188 0.625-0.25-0.438-1.75-0.938-4-0.938-5.813 0-3.5 0.75-5.313 1.75-5.313s1.75 1.813 1.75 5.313c0 1.813-0.5 4.063-0.938 5.813 0.188 0.063 0.438 0.125 0.625 0.25 0.938-1.563 2.25-3.5 3.5-4.75 1.875-1.875 3.313-2.75 4.25-2.75 0.313 0 0.563 0.063 0.75 0.25 0.75 0.75-0.063 2.5-2.563 5-1.25 1.25-3.188 2.5-4.75 3.438 0.125 0.188 0.188 0.438 0.25 0.625 1.75-0.438 4-0.938 5.813-0.938 3.5 0 5.313 0.75 5.313 1.75s-1.813 1.75-5.313 1.75zM18 15.938v0.188c1.875 0.438 3.5 0.625 4.688 0.625 1.313 0 2.438-0.125 3.25-0.313 0.625-0.188 0.875-0.375 1-0.438-0.125-0.063-0.375-0.25-1-0.438-0.813-0.188-1.938-0.313-3.25-0.313-1.188 0-2.813 0.25-4.688 0.688zM19.625 9.313c-0.875 0.875-1.875 2.188-2.875 3.813l0.125 0.125c1.625-1 2.938-2 3.813-2.875 0.938-0.938 1.625-1.75 2.063-2.5 0.313-0.563 0.438-0.875 0.438-1-0.25 0-1.375 0.25-3.563 2.438zM11.125 13.25l0.125-0.125c-1-1.625-2-2.938-2.875-3.813-2.188-2.188-3.313-2.438-3.563-2.438 0 0.125 0.125 0.438 0.438 1 0.438 0.75 1.125 1.563 2.063 2.5 0.875 0.875 2.188 1.875 3.813 2.875zM5.313 16.75c1.188 0 2.813-0.188 4.688-0.625v-0.188c-1.875-0.438-3.5-0.688-4.688-0.688-1.313 0-2.438 0.125-3.25 0.313-0.625 0.188-0.875 0.375-1 0.438 0.125 0.063 0.313 0.25 0.938 0.438 0.813 0.188 2 0.313 3.313 0.313zM8.375 22.688c0.875-0.875 1.875-2.188 2.875-3.813l-0.125-0.125c-1.625 1-2.938 2-3.813 2.875-0.938 0.938-1.625 1.813-2.063 2.563-0.313 0.563-0.438 0.875-0.438 1 0.25 0 1.375-0.313 3.563-2.5zM16.875 18.75l-0.125 0.125c1 1.625 2 2.938 2.875 3.813 2.188 2.188 3.313 2.5 3.563 2.5 0-0.125-0.125-0.438-0.438-1-0.438-0.75-1.125-1.625-2.063-2.563-0.875-0.875-2.188-1.875-3.813-2.875zM13.563 4.063c-0.188 0.813-0.313 1.938-0.313 3.25 0 1.188 0.25 2.813 0.688 4.688h0.125c0.438-1.875 0.688-3.5 0.688-4.688 0-1.313-0.125-2.438-0.313-3.25-0.188-0.625-0.375-0.875-0.438-1-0.063 0.125-0.25 0.375-0.438 1zM14.438 28c0.188-0.813 0.313-2 0.313-3.313 0-1.188-0.25-2.813-0.688-4.688h-0.125c-0.438 1.875-0.688 3.5-0.688 4.688 0 1.313 0.125 2.5 0.313 3.313 0.188 0.625 0.375 0.813 0.438 0.938 0.063-0.125 0.25-0.313 0.438-0.938zM14 18c1.125 0 2-0.875 2-2s-0.875-2-2-2-2 0.875-2 2 0.875 2 2 2zM19.563 25.375c0.625 2.125 0.438 3.313-0.313 3.625-0.125 0.063-0.188 0.063-0.313 0.063-0.688 0-1.563-0.813-2.313-2.188 0.313-2.188-0.125-4.75-0.125-4.75s1.5 2.125 3.063 3.25zM18.875 28.063c0.063-0.25 0.125-0.875-0.188-2.125-0.313-0.25-0.625-0.563-0.938-0.875 0 0.563 0 1.063-0.063 1.563 0.625 1 1 1.375 1.188 1.438zM11.375 5.188c-0.375 2.188 0.063 4.688 0.063 4.688s-1.688-2.188-3-3.188c-0.625-2.188-0.438-3.375 0.313-3.688 0.125-0.063 0.188-0.063 0.313-0.063 0.688 0 1.5 0.75 2.313 2.25zM10.25 6.938c0-0.563 0-1.063 0.063-1.563-0.625-1-1-1.313-1.188-1.375-0.063 0.25-0.125 0.875 0.188 2.125 0.313 0.25 0.625 0.5 0.938 0.813zM3.125 18.688c2.188 0.25 4.75-0.125 4.75-0.125s-2.125 1.5-3.188 3c-0.75 0.25-1.625 0.375-2.188 0.375-0.813 0-1.313-0.25-1.5-0.688-0.313-0.688 0.438-1.563 2.125-2.563zM4.125 20.688c0.25-0.313 0.5-0.625 0.813-0.938-0.563 0-1.063 0-1.563-0.063-1 0.625-1.313 1-1.375 1.188 0.063 0 0.25 0.063 0.5 0.063 0.438 0 1-0.063 1.625-0.25zM27 10.75c0.313 0.688-0.438 1.625-2.125 2.625-2.188-0.313-4.75 0.125-4.75 0.125s2.063-1.563 3.188-3.063c0.813-0.25 1.625-0.313 2.188-0.313 0.813 0 1.313 0.188 1.5 0.625zM24.625 12.375c1-0.625 1.313-1 1.375-1.188-0.063 0-0.25-0.063-0.5-0.063-0.438 0-1 0.063-1.625 0.25-0.25 0.313-0.5 0.563-0.813 0.875 0.563 0 1.063 0.063 1.563 0.125zM8.188 25.563c1.938-1.5 3.313-3.438 3.313-3.438s-0.438 2.438-0.188 4.438c-0.938 1.625-1.75 2.438-2.438 2.438-0.125 0-0.25 0-0.375-0.063-0.688-0.313-0.813-1.5-0.313-3.375zM8.938 27.938c0.25-0.125 0.75-0.5 1.375-1.625 0-0.375-0.063-0.813-0.063-1.25-0.375 0.375-0.813 0.75-1.188 1.063-0.25 1.125-0.188 1.625-0.125 1.813zM19.5 3.125c0.688 0.313 0.813 1.375 0.313 3.375-1.813 1.313-3.313 3.438-3.313 3.438s0.5-3 0.188-4.438c0.813-1.563 1.75-2.438 2.438-2.438 0.125 0 0.25 0 0.375 0.063zM18.938 5.938c0.313-1.125 0.188-1.688 0.125-1.875-0.25 0.125-0.75 0.5-1.375 1.625 0 0.375 0.063 0.875 0.063 1.313 0.375-0.375 0.813-0.75 1.188-1.063zM4.438 10.188c1.125 1.5 3.438 3.313 3.438 3.313s-2.5-0.438-4.375-0.188c-1.75-0.938-2.688-2-2.375-2.75 0.188-0.438 0.625-0.688 1.375-0.688 0.5 0 1.313 0.063 1.938 0.313zM2.063 10.938c0.125 0.25 0.5 0.75 1.625 1.375 0.375 0 0.813-0.063 1.25-0.063-0.375-0.375-0.75-0.75-1.063-1.125-0.5-0.125-1-0.25-1.375-0.25-0.25 0-0.375 0.063-0.438 0.063zM24.5 18.688c1.875 1.063 2.688 2.063 2.375 2.813-0.188 0.438-0.625 0.625-1.375 0.625-0.5 0-1.188-0.063-1.938-0.313-1.25-1.688-3.438-3.25-3.438-3.25s2.813 0.5 4.375 0.125zM25.5 21.125c0.25 0 0.375-0.063 0.438-0.063-0.125-0.25-0.5-0.75-1.625-1.375-0.375 0-0.813 0.063-1.25 0.063 0.375 0.375 0.75 0.813 1.063 1.188 0.5 0.125 1 0.188 1.375 0.188z"></path>
</svg>
