<!-- Generated by IcoMoon.io -->
<svg version="1.1" xmlns="http://www.w3.org/2000/svg" width="24" height="32" viewBox="0 0 24 32">
<title>ion-ios-shuffle</title>
<path d="M18.625 12.938l-0.625-0.75 3.875-3.188h-2.875c-5.813 0-8.063 4.688-10.25 8.688-0.125 0.188-0.188 0.375-0.313 0.563-1.25 2.313-2.563 3.813-4.063 4.688-0.875 0.5-2.063 1.063-4.375 1.063v-1c3 0 5.188-0.875 7.563-5.25 0.125-0.188 0.188-0.375 0.313-0.563 2.188-4.063 4.688-9.188 11.125-9.188h2.875l-3.875-3.25 0.625-0.75 5.375 4.5zM8.438 13.75c0 0.063 0.063 0.125 0.063 0.188-0.188 0.313-0.375 0.688-0.563 1 0-0.063-0.063-0.063-0.063-0.125-0.125-0.188-0.188-0.375-0.313-0.563-2.375-4.375-4.563-5.25-7.563-5.25v-1c2.313 0 3.5 0.563 4.375 1.063 1.5 0.875 2.813 2.375 4.063 4.688zM18.625 19.063l5.375 4.438-5.375 4.5-0.625-0.75 3.875-3.25h-2.875c-4.75 0-7.375-2.813-9.313-5.938 0.063-0.125 0.125-0.313 0.188-0.438 0.125-0.188 0.25-0.438 0.375-0.625 1.875 3.125 4.188 6 8.75 6h2.875l-3.875-3.188z"></path>
</svg>
