<!-- Generated by IcoMoon.io -->
<svg version="1.1" xmlns="http://www.w3.org/2000/svg" width="24" height="32" viewBox="0 0 24 32">
<title>ion-ios-color-filter-outline</title>
<path d="M18.875 13.25c2.938 0.813 5.125 3.563 5.125 6.75 0 3.875-3.125 7-7 7-1.938 0-3.75-0.813-5-2.125-1.25 1.313-3.063 2.125-5 2.125-3.875 0-7-3.125-7-7 0-3.188 2.188-5.938 5.125-6.75-0.063-0.438-0.125-0.813-0.125-1.25 0-3.875 3.125-7 7-7s7 3.125 7 7c0 0.438-0.063 0.813-0.125 1.25zM6 12c0 0.375 0 0.75 0.063 1.063 0.313-0.063 0.625-0.063 0.938-0.063 1.938 0 3.75 0.813 5 2.125 1.25-1.313 3.063-2.125 5-2.125 0.313 0 0.625 0 0.938 0.063 0.063-0.313 0.063-0.688 0.063-1.063 0-3.313-2.688-6-6-6s-6 2.688-6 6zM13 20c0-0.375 0-0.75-0.063-1.063-0.313 0.063-0.625 0.063-0.938 0.063s-0.625 0-0.938-0.063c-0.063 0.313-0.063 0.688-0.063 1.063 0 1.25 0.375 2.375 1 3.313 0.625-0.938 1-2.063 1-3.313zM12 18c0.188 0 0.438-0.063 0.625-0.063-0.188-0.438-0.375-0.875-0.625-1.25-0.25 0.375-0.438 0.813-0.625 1.25 0.188 0 0.438 0.063 0.625 0.063zM10.375 17.75c0.25-0.688 0.563-1.313 1-1.875-1.125-1.125-2.688-1.875-4.375-1.875-0.188 0-0.438 0.063-0.625 0.063 0.625 1.813 2.125 3.188 4 3.688zM12.625 15.875c0.438 0.563 0.75 1.188 1 1.875 1.875-0.5 3.375-1.875 4-3.688-0.188 0-0.438-0.063-0.625-0.063-1.688 0-3.25 0.75-4.375 1.875zM7 26c1.688 0 3.25-0.75 4.375-1.875-0.875-1.188-1.375-2.563-1.375-4.125 0-0.438 0.063-0.813 0.125-1.25-2.25-0.625-4-2.313-4.75-4.5-2.5 0.688-4.375 3-4.375 5.75 0 3.313 2.688 6 6 6zM17 26c3.313 0 6-2.688 6-6 0-2.75-1.875-5.063-4.375-5.75-0.75 2.188-2.5 3.875-4.75 4.5 0.063 0.438 0.125 0.813 0.125 1.25 0 1.563-0.5 2.938-1.375 4.125 1.125 1.125 2.688 1.875 4.375 1.875z"></path>
</svg>
