<!-- Generated by IcoMoon.io -->
<svg version="1.1" xmlns="http://www.w3.org/2000/svg" width="26" height="32" viewBox="0 0 26 32">
<title>ion-settings</title>
<path d="M25.125 8.625c0.625 0.375 0.938 1.563 0.875 2.25-0.063 1.063-0.438 2.25-1.563 3.375-0.063 0.063-0.125 0.063-0.188 0.125-1.625 1.563-3.875 1.875-5.875 1.25-0.063-0.063-0.125-0.125-0.25-0.125-0.313-0.063-0.625 0-0.813 0.25l-2.25 2.438c3.25 3.125 6.688 6 6.688 6 0.125 0.125 0.125 0.313 0 0.438l-3.125 3.188c-0.125 0.125-0.313 0.125-0.438 0 0 0-2.75-3.438-5.813-6.688l-5.75 6.125c-0.875 1-2.5 0.938-3.438 0-0.938-1-0.938-2.625 0.063-3.5l6.063-5.813-0.75-0.75c-0.125-0.125-0.188-0.438-0.063-0.625l0.125-0.313c-1.563-1.625-2.25-2.063-3.5-2s-2.25 0.813-3 1.75-0.625 3.25-0.5 3.875-0.438 0.375-0.75 0c-0.563-0.625-1.438-3.125-0.375-5.813s2.625-4.313 3-4.688 1-0.938 1.5-1.313 1.313 0.063 1.688-0.313c0.25-0.25 0.313-0.688 0.313-1l-0.25-0.25c-0.125-0.125-0.125-0.313 0-0.438l1.938-1.938c0.125-0.125 0.313-0.125 0.438 0l3.125 3.125c0.125 0.125 0.125 0.375 0 0.5l-1.938 1.938c-0.125 0.125-0.313 0.125-0.438 0l-0.5-0.563c-0.438 0-0.938 0.313-1.063 0.625-0.188 0.375-0.375 1.313-0.188 2.063 0.188 0.688 0.813 1.25 2.25 2.688l0.313-0.188c0.25-0.125 0.5-0.063 0.625 0.063 0 0 0.063 0.125 0.813 0.875l2.375-2.313c0.25-0.188 0.313-0.438 0.25-0.813 0-0.125 0-0.25-0.063-0.313-0.625-2.063-0.375-4.313 1.188-6l0.125-0.125c1.125-1.125 2.25-1.563 3.313-1.625 0.625-0.063 1.875 0.313 2.188 0.938l-3 3-0.125 0.188-0.063 0.063c-0.063 0.063-0.063 0.125-0.063 0.25s0 0.188 0.063 0.313l0.25 0.25 2.563 2.625 0.25 0.25c0.063 0.063 0.125 0.063 0.25 0.063s0.188 0 0.25-0.063l0.125-0.063 0.125-0.188z"></path>
</svg>
