<!-- Generated by IcoMoon.io -->
<svg version="1.1" xmlns="http://www.w3.org/2000/svg" width="32" height="32" viewBox="0 0 32 32">
<title>ion-nuclear</title>
<path d="M11 17c0-2 1-3 3-3s3 1 3 3-1 3-3 3-3-1-3-3zM11 17c0-2 1-3 3-3s3 1 3 3-1 3-3 3-3-1-3-3zM28 17c0 1.688-0.313 3.313-0.938 4.875s-1.438 2.938-2.5 4.125-2.25 2.188-3.688 3l-4.938-8.5c1.375-0.75 2.063-1.938 2.063-3.5h10zM14 13c-0.75 0-1.438 0.188-2.063 0.563l-5-8.625c2.188-1.25 4.563-1.938 7.063-1.938s4.875 0.625 7.063 1.875l-5.063 8.688c-0.625-0.375-1.313-0.563-2-0.563zM10 17c0 1.563 0.688 2.75 2.063 3.5l-4.938 8.5c-2.188-1.25-3.875-2.875-5.188-5s-1.938-4.438-1.938-7h10z"></path>
</svg>
