<!-- Generated by IcoMoon.io -->
<svg version="1.1" xmlns="http://www.w3.org/2000/svg" width="32" height="32" viewBox="0 0 32 32">
<title>ion-refresh</title>
<path d="M22 22l-6.5-7h4.625c-0.438-4.063-4-7-8.125-7-4.438 0-8 3.563-8 8s3.563 8 8 8c1.75 0 3.313-0.5 4.688-1.5l0.375-0.313 2.688 2.875-0.438 0.375c-2.125 1.625-4.625 2.563-7.313 2.563-5.688 0-10.438-4-11.688-9.313v0c0-0.063-0.063-0.125-0.063-0.188v-0.188s-0.063-0.125-0.063-0.188v-0.063c0-0.063-0.063-0.188-0.063-0.25v0c-0.063-0.375-0.125-0.813-0.125-1.188v-1.25c0-0.375 0.063-0.813 0.125-1.188v0c0-0.063 0.063-0.188 0.063-0.25v-0.063c0-0.063 0.063-0.063 0.063-0.125v-0.25c0-0.063 0.063-0.125 0.063-0.188v0c1.25-5.313 6-9.313 11.688-9.313v0 0c0.688 0 1.313 0.063 1.938 0.188h0.25c3.563 0.625 6.625 2.938 8.313 6 0.813 1.438 1.313 3.063 1.438 4.813h4.063z"></path>
</svg>
