<!-- Generated by IcoMoon.io -->
<svg version="1.1" xmlns="http://www.w3.org/2000/svg" width="32" height="32" viewBox="0 0 32 32">
<title>ion-social-codepen-outline</title>
<path d="M22.25 12.75c0.313 0.188 0.438 0.375 0.438 0.75v5.063c0 0.375-0.188 0.625-0.5 0.813-2.563 1.688-5.125 3.438-7.688 5.125-0.375 0.25-0.688 0.25-1.063 0-2.563-1.688-5.063-3.438-7.625-5.125-0.313-0.188-0.5-0.438-0.5-0.813v-5c0-0.375 0.188-0.688 0.5-0.875 2.563-1.688 5.063-3.375 7.625-5.063 0.375-0.25 0.688-0.25 1.063 0 2.563 1.688 5.188 3.438 7.75 5.125zM14.75 9.5v3.375c0 0.063 0.063 0.125 0.125 0.188 1 0.688 1.938 1.313 2.938 2 0.063 0.063 0.188 0.063 0.25 0l2.5-1.625zM13.25 9.563c0 0-3.875 2.563-5.813 3.875 0.875 0.563 1.688 1.063 2.5 1.625 0.063 0.063 0.188 0.063 0.25 0 0.938-0.625 1.938-1.313 2.875-1.938 0.063-0.063 0.188-0.25 0.188-0.375v-3.188zM6.813 14.813v2.5l1.875-1.25zM13.25 22.563v-3.313c0-0.063-0.125-0.188-0.188-0.25-0.938-0.625-1.938-1.313-2.875-1.938-0.125-0.063-0.188-0.063-0.313 0l-2.438 1.625c1.938 1.313 5.813 3.875 5.813 3.875zM14.188 17.688l2.438-1.625s-2.125-1.438-2.5-1.688c-0.063-0.063-0.25 0-0.313 0.063-0.313 0.188-0.563 0.375-0.875 0.563-0.5 0.375-1.563 1.063-1.563 1.063l2.438 1.625c0.125 0.063 0.25 0.063 0.375 0zM14.75 22.563l5.813-3.875-2.375-1.625c-0.125-0.125-0.313-0.125-0.438 0-0.938 0.625-1.875 1.313-2.813 1.938-0.125 0.125-0.188 0.188-0.188 0.375v3.188zM21.125 17.313v-2.5l-1.875 1.25zM14 4c-3.188 0-6.25 1.25-8.5 3.5s-3.5 5.313-3.5 8.5 1.25 6.25 3.5 8.5 5.313 3.5 8.5 3.5 6.25-1.25 8.5-3.5 3.5-5.313 3.5-8.5-1.25-6.25-3.5-8.5-5.313-3.5-8.5-3.5zM14 2v0c7.75 0 14 6.25 14 14s-6.25 14-14 14-14-6.25-14-14 6.25-14 14-14z"></path>
</svg>
