<!-- Generated by IcoMoon.io -->
<svg version="1.1" xmlns="http://www.w3.org/2000/svg" width="32" height="32" viewBox="0 0 32 32">
<title>ion-images</title>
<path d="M26.625 8.75c0.813 0.063 1.438 0.75 1.375 1.5l-0.875 16.438c-0.063 0.813-0.75 1.375-1.563 1.313l-20.625-1c-0.813-0.063-1.438-0.625-1.375-1.438l0.125-2.875-0.938 0.063c-0.75 0.063-1.375-0.438-1.438-1.125l-1.313-14.75c-0.063-0.688 0.438-1.313 1.188-1.375l18.5-1.5c0.75-0.063 1.375 0.438 1.438 1.125l0.313 3.375zM4.438 9.125c0.063-0.75 0.688-1.375 1.5-1.375l13.688 0.688-0.125-1.938h-0.063v-0.063c-0.063-0.313-0.313-0.5-0.625-0.5l-16.313 1.375c-0.313 0-0.625 0.25-0.625 0.563v0 0.063l1 11.125 1.125-1.563zM25.313 23.875l0.625-12.375v-0.063c0-0.375-0.313-0.625-0.688-0.625l-3.625-0.188-1.813-0.125-12.75-0.563c-0.375 0-0.688 0.25-0.75 0.563v0 0.063l-0.188 3.938-0.438 8v0.438l0.375-0.438 6.375-6.813c0.25-0.25 0.5-0.375 0.875-0.375s0.688 0.188 0.875 0.438l2.688 3.063 0.188 0.188c0.125 0.125 0.375 0.25 0.625 0.25s0.313-0.063 0.563-0.188l1.063-0.75c0.25-0.188 0.438-0.25 0.688-0.25s0.563 0.125 0.688 0.313l1.688 2.063zM21.313 16.375c-1.25 0-2.188-0.938-2.188-2.188s1-2.188 2.188-2.188c1.25 0 2.188 1 2.188 2.188s-1 2.188-2.188 2.188z"></path>
</svg>
