<!-- Generated by IcoMoon.io -->
<svg version="1.1" xmlns="http://www.w3.org/2000/svg" width="24" height="32" viewBox="0 0 24 32">
<title>ion-android-color-palette</title>
<path d="M12 4c6.625 0 12 4.813 12 10.688 0 3.688-3 6.625-6.688 6.625h-2.375c-1.125 0-2 0.875-2 2 0 0.563 0.188 1.063 0.5 1.375s0.563 0.75 0.563 1.313c0 1.125-0.875 2-2 2-6.625 0-12-5.375-12-12s5.375-12 12-12zM4.688 16c1.125 0 2-0.875 2-2s-0.875-2-2-2-2 0.875-2 2 0.875 2 2 2zM8.688 10.688c1.125 0 2-0.875 2-2s-0.875-2-2-2-2 0.875-2 2 0.875 2 2 2zM15.313 10.688c1.125 0 2-0.875 2-2s-0.875-2-2-2-2 0.875-2 2 0.875 2 2 2zM19.313 16c1.125 0 2-0.875 2-2s-0.875-2-2-2-2 0.875-2 2 0.875 2 2 2z"></path>
</svg>
