<!-- Generated by IcoMoon.io -->
<svg version="1.1" xmlns="http://www.w3.org/2000/svg" width="24" height="32" viewBox="0 0 24 32">
<title>ion-social-wordpress</title>
<path d="M12.188 16.938l3.313 9.125c0 0.063 0.375 0.813 0.563 1.188-0.188 0.063-0.313 0.125-0.5 0.188v0c-0.625 0.188-1.313 0.375-2 0.438-0.5 0.063-1.063 0.125-1.563 0.125-1.063 0-2.125-0.125-3.125-0.375v0c-0.125 0-0.188-0.125-0.313-0.125l1.563-4.563zM1.063 11.25c0.375 0 0.438 0.063 0.938 0.063l5.813 15.938c-0.188-0.063-0.313-0.125-0.5-0.188-3.938-1.688-6.813-5.438-7.25-9.875-0.063-0.375-0.063-0.813-0.063-1.188 0-1.563 0.438-3.313 1.063-4.75zM22.875 10.938c0.688 1.5 1.125 3.25 1.125 5.063 0 0.563-0.063 1.125-0.125 1.625-0.563 4.063-3.125 7.5-6.688 9.188-0.125 0.063-0.188 0.063-0.313 0.125l1.375-4.063 2.438-7.063c0.625-1.563 0.813-2.813 0.813-3.875v-1.188c-0.063-1.125-0.625-2.75-2.25-2.688h-0.125c-1.063 0-1.813 0.875-1.813 1.875 0 0.875 0.5 1.688 1.063 2.563 0.438 0.75 0.875 1.625 0.875 2.938 0 0.938-0.25 2.125-0.813 3.5l-1.063 3.625-3.875-11.625c0.625 0 1.25-0.063 1.25-0.063 0.563-0.063 0.438-1-0.125-0.938 0 0-1.75 0.188-2.875 0.188-1.063 0-2.813-0.188-2.813-0.188-0.563-0.063-0.625 0.938-0.063 0.938 0 0 0.563 0.063 1.125 0.063l1.688 4.625-2.375 7.063-3.938-11.688c0.625 0 1.25-0.125 1.25-0.125 0.563-0.063 0.5-0.938-0.063-0.875 0 0-1.75 0.125-2.875 0.125h-2.125c0.313-0.563 0.688-1.063 1.063-1.563 2.188-2.75 5.625-4.5 9.375-4.5 1.5 0 3 0.313 4.313 0.813 2.125 0.813 3.938 2.25 5.313 4.063 0.125 0.125 0.188 0.313 0.313 0.438 0.375 0.5 0.688 1.063 0.938 1.625z"></path>
</svg>
