<!-- Generated by IcoMoon.io -->
<svg version="1.1" xmlns="http://www.w3.org/2000/svg" width="32" height="32" viewBox="0 0 32 32">
<title>ion-social-sass</title>
<path d="M32 20.563v0.5c-0.063 0.563-0.438 1.063-0.938 1.375s-0.75 0.25-0.813 0.188 0.063-0.188 0.25-0.313c0.813-0.5 1.063-1.25 0.625-2.063-0.313-0.625-0.938-1-1.625-1.25-1.5-0.5-3-0.438-4.5 0 0.25 0.75 0.438 1.438-0.125 2.125-0.625 0.75-1.438 1.188-2.438 1.375-0.438 0.125-0.875-0.125-0.938-0.563-0.188-1.188 1.063-2.25 1.875-2.938-0.438-0.688-0.688-1.5-0.875-2.313-0.938 1.063-1.938 2.5-1.625 3.813 0.188 0.875-0.063 1.688-0.875 2.25s-1.875 0.875-2.875 0.688c-0.25-0.063-0.375-0.313-0.313-0.5 0.125-0.875 1.563-2 2.188-2.688 0.125-0.125 0.188-0.25 0.063-0.438-0.375-0.75-0.625-1.438-0.875-2.25-0.813 1.813-1.875 5-3.563 6.125-0.563 0.375-1.063 0.25-1.313-0.313-0.188-0.5-0.125-1.25-0.063-1.813-0.375 0.813-0.688 1.688-1.25 2.375-0.438 0.5-1.5 0.438-1.875-0.063-1-1.313-0.813-3.125-0.313-4.563l-1.813 0.938c0.438 1 0.5 2 0.25 3.063-0.313 1.188-1.063 2.188-2.188 2.875-1.188 0.75-4 1.5-4.813-0.25-0.438-1-0.25-1.875 0.375-2.75 1.063-1.5 3-2.313 4.625-3.125-2-1.438-5-2.625-6-5-0.938-2.188 1.063-4.25 2.688-5.563 3.688-3 10.375-5.938 15.25-3.688 0.938 0.438 2.25 1.5 1.938 3.25-0.25 1.5-0.813 2.438-1.75 3.375-2 2-9.5 4.813-11 0.938-0.063-0.063-0.063-0.25 0.063-0.25 0.125 0.063 1.25 0.938 2.688 1 1.063 0.063 2.25-0.188 3.25-0.5 2.063-0.688 4.438-2.063 5-4.188 0.25-0.813-0.125-1.75-0.938-2.125-3.063-1.5-7.25 0.25-9.938 1.625-2.063 1.063-5.25 2.813-5.125 5.438 0.063 2.313 3.5 3.75 5.063 5.125 0.938-0.438 2.625-0.938 3.25-1.688 0.688-0.813 1.625-1.563 2.75-1.625 0.5 0 0.875 0.188 1 0.625 0.125 0.375 0.063 0.688 0 1.188 0.313-0.25 0.688-0.25 0.938 0.063 0.75 0.875-1.375 3.125-0.625 4.125 0.875-0.875 1.313-2.625 1.875-3.688 0.25-0.5 1.063-3.188 1.625-3.313 0.438-0.125 1.125-0.25 1.563 0 0.125 0.063 0.188 0.188 0.125 0.313-0.438 1.188-0.438 2.063 0.188 3.25 0.875-1.25 1.813-2.688 2.125-4.188 0.063-0.125 0.188-0.188 0.313-0.25 0.438-0.125 1.125-0.188 1.563 0 0.188 0.063 0.188 0.125 0.125 0.313-0.438 1.375-0.375 2.375 0.375 3.625 1.938-0.688 4.313-0.938 6.063 0.313-0.188-0.125-0.438-0.313 0 0 0.313 0.25 0.188 0.125 0 0 0.75 0.5 1.188 1.125 1.313 2zM7.063 22.125v0c0.063-0.438-0.063-0.813-0.188-1.25-1.5 0.5-4.125 2.188-4 3.875 0.063 0.625 0.5 0.813 1.063 0.75s1.188-0.438 1.688-0.813c0.875-0.688 1.375-1.5 1.438-2.563zM13.5 17.625c0.063-0.188-0.125-0.313-0.313-0.25-1.813 0.5-2.688 3.563-2.063 5.063 0.063 0.188 0.25 0.188 0.375 0.063 1.063-1 1.75-3.5 2-4.875zM17.875 22.75c0.5 0.188 1.688-1.063 1.625-1.688-0.5 0.563-1.125 1.125-1.625 1.688zM22.938 21.625c0.688-0.375 1-1.188 0.75-1.875-0.5 0.375-1.313 1.188-1.25 1.938 0 0.125 0.375 0 0.5-0.063z"></path>
</svg>
