<!-- Generated by IcoMoon.io -->
<svg version="1.1" xmlns="http://www.w3.org/2000/svg" width="32" height="32" viewBox="0 0 32 32">
<title>ion-male</title>
<path d="M28 12l-3.938-3.938-4.313 4.313c1.375 1.875 2.25 4.125 2.25 6.625 0 6.063-4.938 11-11 11s-11-4.938-11-11 4.938-11 11-11c2.5 0 4.75 0.875 6.625 2.25l4.313-4.313-3.938-3.938h10v10zM16.625 24.625c1.5-1.5 2.375-3.5 2.375-5.625s-0.875-4.125-2.375-5.625-3.5-2.375-5.625-2.375-4.125 0.875-5.625 2.375-2.375 3.5-2.375 5.625 0.875 4.125 2.375 5.625 3.5 2.375 5.625 2.375 4.125-0.875 5.625-2.375z"></path>
</svg>
