<!-- Generated by IcoMoon.io -->
<svg version="1.1" xmlns="http://www.w3.org/2000/svg" width="24" height="32" viewBox="0 0 24 32">
<title>ion-ios-flask-outline</title>
<path d="M23.313 23.125c0.5 1 0.688 2 0.688 2.875-0.063 2.25-1.688 4-3.938 4h-16c-2.25 0-4-1.688-4.063-4 0-0.875 0.25-1.875 0.75-2.875l7.25-12.188v-7.938h-1v-1h2v2h3v1h-3v2h2v1h-2v2h3v1h-3v0.188l-0.125 0.25-0.938 1.563h3.063v1h-3.625l-5.75 9.625c-0.813 1.563-0.875 2.688-0.125 3.938 0.563 0.875 1.438 1.438 2.563 1.438h16c1.063 0 2.063-0.5 2.563-1.375 0.313-0.5 0.375-1.063 0.375-1.625 0-0.75-0.125-1.563-0.563-2.375l-7.25-12.188-0.188-0.25v-9.188h2v1h-1v7.938zM2.75 23.438l4.5-7.438h9.563l4.5 7.438c0.438 0.688 0.625 1.5 0.625 2.063-0.063 1.5-1 2.5-2.875 2.5h-14.125c-1.875 0-2.875-0.75-2.875-2.5 0-0.563 0.25-1.375 0.688-2.063zM16.25 17h-8.438l-4.188 6.938c-0.313 0.5-0.563 1.188-0.563 1.563 0 0.813 0.313 1.063 0.375 1.125 0.25 0.25 0.813 0.375 1.5 0.375h14.125c0.625 0 1.125-0.188 1.438-0.438 0.25-0.25 0.438-0.625 0.438-1.125 0-0.375-0.188-1-0.5-1.5v0 0z"></path>
</svg>
