<!-- Generated by IcoMoon.io -->
<svg version="1.1" xmlns="http://www.w3.org/2000/svg" width="32" height="32" viewBox="0 0 32 32">
<title>ion-social-javascript</title>
<path d="M11 5.5v0 13.313c0 6.063-3.063 8.188-7.563 8.188-1.125 0-2.5-0.188-3.438-0.5l0.5-3.875c0.625 0.25 1.5 0.375 2.438 0.375 1.938 0 3.063-0.938 3.063-4.25v-13.25h5zM21.875 5v0c2.375 0 4.063 0.438 5.313 1l-1.188 4c-0.813-0.438-2.188-1.063-4.188-1.063s-3 1-3 2.063c0 1.375 1.188 1.938 3.875 3 3.625 1.375 5.313 3.313 5.313 6.375 0 3.563-2.625 6.625-8.313 6.625-2.375 0-4.5-0.625-5.688-1.313l0.938-3.938c1.25 0.688 3.063 1.313 5.063 1.313 2.125 0 3.25-0.938 3.25-2.375 0-1.313-0.938-2.063-3.438-2.938-3.438-1.25-5.813-3.25-5.813-6.375 0-3.625 3.063-6.375 7.875-6.375z"></path>
</svg>
