<!-- Generated by IcoMoon.io -->
<svg version="1.1" xmlns="http://www.w3.org/2000/svg" width="32" height="32" viewBox="0 0 32 32">
<title>ion-ios-cloud-upload</title>
<path d="M13.5 28v-6h1v6h-1zM22.938 11.5c2.813 0 5.063 2.438 5.063 5.313s-2.313 5.188-5.125 5.188h-8.375v-9.125l3.438 3.375 0.75-0.688-4.688-4.688-4.625 4.688 0.688 0.688 3.438-3.375v9.125h-7.875c-3.125 0-5.625-2.5-5.625-5.625 0-2.5 1.625-4.625 3.813-5.375 0.313-1.75 1.813-3.25 3.688-3.25 0.625 0 1.125 0.125 1.625 0.375 1.188-2.438 3.688-4.125 6.563-4.125 4 0 7.313 3.25 7.313 7.25 0 0.063-0.063 0.188-0.063 0.25z"></path>
</svg>
