<!-- Generated by IcoMoon.io -->
<svg version="1.1" xmlns="http://www.w3.org/2000/svg" width="32" height="32" viewBox="0 0 32 32">
<title>ion-happy-outline</title>
<path d="M22.188 18.125c0.5 0.25 0.688 0.813 0.438 1.313-1.5 2.875-4.875 4.563-8.625 4.563-3.875 0-7.375-1.813-8.688-4.625-0.25-0.5 0-1.063 0.5-1.313 0.125-0.063 0.313-0.063 0.438-0.063 0.375 0 0.688 0.188 0.875 0.563 1 2.125 3.75 3.438 6.875 3.438 3.063 0 5.75-1.313 6.875-3.5 0.188-0.313 0.5-0.5 0.875-0.5 0.188 0 0.313 0.063 0.438 0.125zM23.813 14.438c0.313 0.438 0.25 1.063-0.25 1.375-0.188 0.125-0.375 0.188-0.625 0.188-0.313 0-0.688-0.125-0.875-0.375s-0.438-0.625-1.063-0.625-0.875 0.375-1.063 0.625-0.563 0.375-0.875 0.375c-0.25 0-0.438-0.063-0.625-0.188-0.5-0.375-0.563-0.938-0.188-1.375 0.688-0.875 1.438-1.438 2.75-1.438s2.188 0.563 2.813 1.438zM9.813 14.438c0.313 0.438 0.25 1.063-0.25 1.375-0.188 0.125-0.375 0.188-0.625 0.188-0.313 0-0.688-0.125-0.875-0.375s-0.438-0.625-1.063-0.625-0.875 0.375-1.063 0.625-0.563 0.375-0.875 0.375c-0.25 0-0.438-0.063-0.625-0.188-0.5-0.375-0.563-0.938-0.188-1.375 0.688-0.875 1.438-1.438 2.75-1.438s2.188 0.563 2.813 1.438zM14 2c7.75 0 14 6.25 14 14s-6.25 14-14 14-14-6.25-14-14 6.25-14 14-14zM22.5 24.5c2.25-2.25 3.5-5.313 3.5-8.5s-1.25-6.25-3.5-8.5-5.313-3.5-8.5-3.5-6.25 1.25-8.5 3.5-3.5 5.313-3.5 8.5 1.25 6.25 3.5 8.5 5.313 3.5 8.5 3.5 6.25-1.25 8.5-3.5z"></path>
</svg>
