<!-- Generated by IcoMoon.io -->
<svg version="1.1" xmlns="http://www.w3.org/2000/svg" width="16" height="32" viewBox="0 0 16 32">
<title>ion-mouse</title>
<path d="M8 2v0zM15.688 12.063c0.125-0.063 0.125-0.063 0.25-0.063h0.063v11c0 2.313-1.313 4.438-3.313 5.688-0.313 0.188-0.563 0.313-0.875 0.438v0.063c-1.125 0.563-2.438 0.813-3.813 0.813-4.438 0-8-3.125-8-7v-11h0.063c0.125 0 0.188 0 0.313 0.063v0c2.125 0.813 4.75 1.438 7.625 1.438s5.5-0.625 7.625-1.438h0.063zM11.813 29.125c0.313-0.125 0.625-0.25 0.875-0.438-0.313 0.188-0.563 0.313-0.875 0.438v0 0zM12.688 28.688c-0.25 0.188-0.563 0.313-0.875 0.438 0.313-0.125 0.563-0.25 0.875-0.438zM8.25 2c4.313 0.125 7.75 3.188 7.75 7v1.438c-0.125 0.125-0.25 0.25-0.375 0.313-0.063 0.063-0.188 0-0.25 0.063-1.438 0.625-3.125 1-5.125 1.188h-0.188c-0.688 0-1.063 0-1.063-0.625v-5.375c0-0.563-0.438-1-1-1s-1 0.438-1 1v5.313c0 0.688-0.375 0.688-1.063 0.688h-0.125c-2-0.188-3.813-0.563-5.25-1.188v0c-0.063 0-0.063-0.063-0.125-0.063-0.188-0.063-0.313-0.188-0.438-0.313v-1.438c0-3.813 3.563-6.938 7.938-7h0.313z"></path>
</svg>
