<!-- Generated by IcoMoon.io -->
<svg version="1.1" xmlns="http://www.w3.org/2000/svg" width="32" height="32" viewBox="0 0 32 32">
<title>ion-close-circled</title>
<path d="M14 2.063c7.75 0 14 6.25 14 14s-6.25 14-14 14-14-6.25-14-14 6.25-14 14-14zM20.75 20.75l-4.688-4.688 4.75-4.688c0.188-0.188 0.188-0.563 0-0.75l-1.375-1.313c-0.125-0.125-0.25-0.188-0.375-0.188s-0.188 0.063-0.313 0.188l-4.75 4.625-4.75-4.625c-0.125-0.125-0.188-0.188-0.313-0.188s-0.25 0.063-0.375 0.188l-1.313 1.313c-0.188 0.188-0.188 0.563 0 0.75l4.75 4.688-4.75 4.75c-0.125 0.063-0.125 0.188-0.125 0.313s0 0.25 0.125 0.375l1.313 1.375c0.125 0.125 0.25 0.125 0.375 0.125s0.25 0 0.375-0.125l4.688-4.75 4.75 4.688c0.125 0.125 0.188 0.188 0.313 0.188s0.25-0.063 0.375-0.188l1.313-1.313c0.125-0.063 0.188-0.25 0.188-0.375s-0.063-0.25-0.188-0.375z"></path>
</svg>
