<!-- Generated by IcoMoon.io -->
<svg version="1.1" xmlns="http://www.w3.org/2000/svg" width="24" height="32" viewBox="0 0 24 32">
<title>ion-music-note</title>
<path d="M22.625 2c0.75 0 1.375 0.563 1.375 1.313v18.938s-0.188 2.688-0.75 3.438v0c-0.563 0.938-1.563 1.313-2.688 1.313h-2.313c-1.75 0-3.25-1.25-3.25-3s1.5-3 3.25-3h3.75v-12l-13 2.375v14.5c0 0.5-0.188 1.688-0.813 2.563-0.063 0.125-0.125 0.188-0.188 0.313 0 0.063-0.063 0.063-0.125 0.125v0c-0.563 0.688-1.438 1.125-2.375 1.125h-2.313c-1.75 0-3.188-1.25-3.188-3s1.438-3 3.188-3v0h3.813v-17.875c0.063-0.875 0.813-1.75 1.688-2l13.625-2.063s0.188-0.063 0.313-0.063z"></path>
</svg>
