<!-- Generated by IcoMoon.io -->
<svg version="1.1" xmlns="http://www.w3.org/2000/svg" width="32" height="32" viewBox="0 0 32 32">
<title>ion-sad</title>
<path d="M14 2c7.75 0 14 6.25 14 14s-6.25 14-14 14-14-6.25-14-14 6.25-14 14-14zM7.063 18.25c0.125-0.313 0.25-0.75 0.813-0.938s0.875 0 1.188 0.188c0.25 0.188 0.625 0.188 0.938 0.063 0.188-0.063 0.438-0.188 0.563-0.375 0.375-0.5 0.25-1.063-0.25-1.375-0.938-0.563-1.875-0.813-3.125-0.375s-1.813 1.313-2.125 2.313c-0.188 0.563 0.125 1.063 0.688 1.188 0.188 0.063 0.438 0 0.625-0.063 0.313-0.125 0.563-0.313 0.688-0.625zM19.563 23.813c0.438-0.313 0.563-0.938 0.25-1.375-0.063-0.125-1.75-2.438-5.813-2.438s-5.75 2.313-5.813 2.438c-0.313 0.438-0.188 1.063 0.25 1.375 0.188 0.125 0.375 0.188 0.563 0.188 0.313 0 0.625-0.188 0.813-0.438 0 0 1.188-1.563 4.188-1.563s4.188 1.563 4.188 1.563c0.188 0.25 0.5 0.438 0.813 0.438 0.188 0 0.375-0.063 0.563-0.188zM22.25 18.938c0.563-0.125 0.875-0.625 0.688-1.188-0.313-1-0.875-1.875-2.125-2.313s-2.125-0.188-3.063 0.375c-0.5 0.313-0.688 0.875-0.313 1.375 0.125 0.188 0.375 0.313 0.563 0.375 0.313 0.125 0.688 0.125 0.938-0.063 0.313-0.188 0.625-0.375 1.188-0.188s0.688 0.625 0.813 0.938 0.375 0.5 0.688 0.625c0.188 0.063 0.438 0.125 0.625 0.063z"></path>
</svg>
